<svg xmlns="http://www.w3.org/2000/svg" viewBox="0 0 240 240"><defs><style>.a,.b{fill:#fff;}.a{opacity:0.6;}</style></defs><path class="a" d="M57.29,134a3.15,3.15,0,0,0-2.47-1.17A3.87,3.87,0,0,0,51,137a3.77,3.77,0,0,0,3.82,4,3.15,3.15,0,0,0,2.67-1.37l1.17.88a4.76,4.76,0,0,1-3.87,1.79A5.27,5.27,0,0,1,49.53,137a5.18,5.18,0,0,1,5.33-5.46,4.49,4.49,0,0,1,3.58,1.59Zm3.24,8h1.3v-6.85h-1.3Zm.65-10.25a1,1,0,1,0,1,.95,1,1,0,0,0-1-.95m7.11,3.4H66.42v-1.92h-1.3v1.92h-1.5v1.13h1.5v3.57c0,1.1,0,2.32,2,2.32a3,3,0,0,0,1.17-.23v-1.18a1.82,1.82,0,0,1-.92.2c-1,0-1-.81-1-1.57V136.3h1.87ZM70.5,142h1.3v-6.85H70.5Zm.65-10.25a.95.95,0,1,0,.95.95,1,1,0,0,0-.95-.95M75,138a2.11,2.11,0,0,1,2.12-2,1.86,1.86,0,0,1,2,2Zm5.48,1v-.46c0-1.76-.92-3.61-3.33-3.61a3.47,3.47,0,0,0-3.54,3.6,3.4,3.4,0,0,0,3.52,3.59,3.58,3.58,0,0,0,3-1.4l-1-.75a2.35,2.35,0,0,1-1.87,1,2.15,2.15,0,0,1-2.31-2Zm6.36-2.94A2.64,2.64,0,0,0,84.49,135c-1.29,0-2.6.68-2.6,2.11s1,1.67,2.09,1.95c.57.13,1.65.27,1.65,1.05,0,.59-.72.87-1.39.87a2.27,2.27,0,0,1-1.66-.81l-1,.81a3,3,0,0,0,2.64,1.21c1.36,0,2.78-.6,2.78-2.15,0-1.29-.87-1.72-2-2-.58-.13-1.75-.25-1.75-1.07,0-.49.54-.77,1.15-.77a1.76,1.76,0,0,1,1.4.68ZM95.35,142h1.46l2.46-8.35h0l2.49,8.35h1.46l3-10.23h-1.44L102.52,140h0l-2.42-8.18H98.49L96.08,140h0l-2.25-8.18H92.36ZM108,142h1.3v-6.85H108Zm.65-10.25a.95.95,0,1,0,1,.95,1,1,0,0,0-1-.95m7.1,3.4h-1.86v-1.92h-1.3v1.92h-1.5v1.13h1.5v3.57c0,1.1,0,2.32,2,2.32a3,3,0,0,0,1.17-.23v-1.18a1.86,1.86,0,0,1-.93.2c-1,0-1-.81-1-1.57V136.3h1.86ZM117.9,142h1.3v-3.53c0-1.58.82-2.28,1.9-2.28.83,0,1.56.48,1.56,1.77v4H124v-4.41a2.36,2.36,0,0,0-2.48-2.61,2.41,2.41,0,0,0-2.25,1.23h0V131.1h-1.3Zm11.48-1a2.39,2.39,0,1,1,2.25-2.38,2.19,2.19,0,0,1-2.25,2.38m0-6a3.6,3.6,0,1,0,3.64,3.6,3.59,3.59,0,0,0-3.64-3.6m11.19.17h-1.3v3.53c0,1.59-.82,2.28-1.91,2.28-.82,0-1.55-.48-1.55-1.76v-4.05H134.5v4.41a2.36,2.36,0,0,0,2.49,2.61,2.41,2.41,0,0,0,2.25-1.22h0V142h1.3Zm6.35,0h-1.86v-1.92h-1.3v1.92h-1.5v1.13h1.5v3.57c0,1.1,0,2.32,2,2.32A3,3,0,0,0,147,142v-1.18a1.84,1.84,0,0,1-.93.2c-1,0-1-.81-1-1.57V136.3h1.86Zm6.2,5.69a3.92,3.92,0,0,0,3.26,1.42c2,0,3.55-1.19,3.55-3.16,0-3.69-5-2.14-5-4.73,0-.63.47-1.56,2-1.56a2.14,2.14,0,0,1,1.82.9l1.12-1a3.55,3.55,0,0,0-2.94-1.17c-2.46,0-3.47,1.66-3.47,2.86,0,4,5,2.53,5,4.88a1.9,1.9,0,0,1-2,1.71,2.55,2.55,0,0,1-2.16-1.1Zm9.07,1.16h1.3V131.1h-1.3Zm9.57-6.85h-1.3v3.53c0,1.59-.82,2.28-1.91,2.28-.82,0-1.56-.48-1.56-1.76v-4.05h-1.3v4.41a2.36,2.36,0,0,0,2.49,2.61,2.41,2.41,0,0,0,2.25-1.22h0V142h1.3Zm2.4,6.85h1.3v-3.55c0-1.55.83-2.26,1.77-2.26,1.26,0,1.45.93,1.45,2.23V142H180v-3.74c0-1.21.49-2.07,1.74-2.07s1.48,1,1.48,2V142h1.3v-4c0-1.53-.49-3-2.6-3a2.47,2.47,0,0,0-2.17,1.27,2.22,2.22,0,0,0-2.14-1.27,2.43,2.43,0,0,0-2.19,1.24h0v-1.07h-1.21Zm17.09-5.89a2.64,2.64,0,0,0-2.34-1.13c-1.28,0-2.6.68-2.6,2.11s1,1.67,2.1,1.95c.56.13,1.64.27,1.64,1.05,0,.59-.72.87-1.38.87a2.27,2.27,0,0,1-1.66-.81l-1,.81a3,3,0,0,0,2.65,1.21c1.35,0,2.77-.6,2.77-2.15,0-1.29-.87-1.72-2-2-.58-.13-1.75-.25-1.75-1.07,0-.49.53-.77,1.14-.77a1.75,1.75,0,0,1,1.4.68Z"/><path class="b" d="M31.13,126.22H210.38v-.64H31.13ZM52.35,99a2.16,2.16,0,1,0,2.33,2.15A2.2,2.2,0,0,0,52.35,99m19.53,0a2.16,2.16,0,1,0,2.33,2.15A2.2,2.2,0,0,0,71.88,99m76.18,0a2.16,2.16,0,1,0,2.33,2.15A2.2,2.2,0,0,0,148.06,99M47.84,102a9.18,9.18,0,0,0-7.41-3.34c-6.51,0-11.17,4.42-11.17,11.2,0,6.6,4.66,11,11.17,11a9.36,9.36,0,0,0,7.89-3.77l-3.11-2.21a5.91,5.91,0,0,1-4.75,2.57c-4.36,0-7.25-3.34-7.25-7.85,0-4.21,2.89-7.56,7.25-7.56a5.76,5.76,0,0,1,4.45,2.09Zm2.75,18.34h3.58V106H50.59ZM59.43,109v6.57c0,3.37.89,5.08,4.68,5.08a7.54,7.54,0,0,0,2.84-.48v-3a3.71,3.71,0,0,1-1.94.45c-1.58,0-2-.9-2-2.33V109H67V106H63v-4.15H59.43V106h-3V109ZM70.12,120.3H73.7V106H70.12Zm9.52-8.6a3.57,3.57,0,0,1,3.7-3.41A3.31,3.31,0,0,1,87,111.7Zm10.93,2.69v-1c0-5-2.72-7.79-6.72-7.79-4.33,0-7.79,3-7.79,7.52s3.46,7.53,7.79,7.53a7.46,7.46,0,0,0,6.06-2.87l-2.56-1.94a4.73,4.73,0,0,1-3.85,1.94,3.71,3.71,0,0,1-3.86-3.4Zm13.23-6.6a6.17,6.17,0,0,0-5.11-2.18c-2.89,0-5.76,1.43-5.76,4.62,0,5.47,7.73,3.14,7.73,6.1,0,1.13-1.34,1.64-2.38,1.64a4.4,4.4,0,0,1-3.41-1.76l-2.39,2.24a7,7,0,0,0,5.59,2.21c2.92,0,6.18-1.2,6.18-4.6,0-5.59-7.74-3.5-7.74-6.06,0-1.08,1.14-1.53,2.09-1.53a3.24,3.24,0,0,1,2.81,1.47Zm12.33,4.44,3.32-8.6,3.25,8.6Zm-7.4,8.07h4.21l1.91-4.84H124l2,4.84h4.3l-9.11-21.15h-3.25Zm23.08,0h3.58V97.72h-3.58Zm6.87,0h3.58V97.72h-3.58Zm7.61,0h3.59V106h-3.59ZM162,114.69c0,2-1.16,3.28-3.61,3.28-1.17,0-2.51-.57-2.51-1.88,0-2.06,3.4-2.21,5.37-2.21H162Zm.21,5.61h3.23v-8.24c0-2,0-6.45-6.13-6.45a8.36,8.36,0,0,0-6.09,2.3l1.88,1.88a5.64,5.64,0,0,1,3.83-1.5c1.91,0,3.28.93,3.28,2.69v.39h-.89c-3.59,0-9,.33-9,5,0,2.83,2.56,4.3,5.22,4.3a5.15,5.15,0,0,0,4.6-2.33h.09Zm5.58,0h3.59v-7.83c0-1.91.92-3.64,3.28-3.64,2.51,0,2.63,2.63,2.63,4.21v7.26h3.58v-9c0-2.93-1.37-5.65-5.22-5.65a4.5,4.5,0,0,0-4.39,2.66h-.06V106h-3.41Zm27.63-12.52a7,7,0,0,0-5.2-2.17c-4.33,0-7.79,3-7.79,7.52s3.46,7.53,7.79,7.53a8.14,8.14,0,0,0,5.17-2L193,116.09a3.45,3.45,0,0,1-2.78,1.34,4.3,4.3,0,0,1,0-8.6,4,4,0,0,1,2.72,1.43Zm4.39,3.92a3.57,3.57,0,0,1,3.7-3.41,3.3,3.3,0,0,1,3.64,3.41Zm10.93,2.69v-1c0-5-2.72-7.79-6.72-7.79-4.33,0-7.8,3-7.8,7.52s3.47,7.53,7.8,7.53a7.46,7.46,0,0,0,6.06-2.87l-2.57-1.94a4.71,4.71,0,0,1-3.85,1.94,3.71,3.71,0,0,1-3.85-3.4Z"/></svg>