<svg xmlns="http://www.w3.org/2000/svg" viewBox="0 0 240 240"><defs><style>.a{fill:#fff;}</style></defs><path class="a" d="M81.08,96,98,92.4v5.22L87.17,99.91v7.42l10.15-2.16v5.22l-10.14,2.15v13.7l-6.09,1.29Z"/><path class="a" d="M108.1,89.63c9.13-1.94,10.27,4.62,10.26,14.2s-1.14,16.64-10.27,18.58-10.27-4.62-10.27-14.21S99,91.57,108.1,89.63Zm0,28.1c3.59-.77,4.19-4.12,4.19-12.6s-.59-11.58-4.19-10.82-4.18,4.16-4.18,12.6S104.5,118.49,108.09,117.73Z"/><path class="a" d="M119.46,119.38V87.83l6.09-1.29v26.33l10.78-2.29v5.21Z"/><path class="a" d="M142.84,82.86V95.5l.08,0,7.7-14.27,6.59-1.4L149,95.07l9.13,16.09-6.85,1.45L145.08,101,142.84,105v9.37l-6.09,1.29V84.16Z"/><path class="a" d="M81.08,160.19v-29.8l5.76-1.23v24.89L97,151.88v4.93Z"/><path class="a" d="M104.81,125.35l7.11-1.52L119.46,152l-6,1.27-1.32-6-7.59,1.61-1.31,6.58-6,1.28Zm.75,18.41,5.59-1.19-2.75-12.81h-.08Z"/><path class="a" d="M120.1,122.09l9.63-2c4.71-1,8.1.11,8.1,5.83a8,8,0,0,1-4.31,7.43v.08c3.16-.21,5.19,1.86,5.19,5.83,0,4.67-2.2,9.19-8.91,10.62l-9.7,2.06Zm5.75,24.16,2.24-.47c2.75-.59,4.63-2,4.63-5.5s-1.88-4.06-4.39-3.53l-2.48.53Zm0-13.15,1.64-.35c3.15-.67,4.59-2.1,4.59-4.9s-1.31-3.6-4.15-3l-2.08.44Z"/><path class="a" d="M145.7,137.15V138c0,2.79.76,4.43,3.79,3.78a4.34,4.34,0,0,0,3.44-4.4c0-2.72-1.32-3.44-5.11-4-5.11-.75-7.47-2.46-7.47-7.43,0-5.8,3.4-9.49,8.83-10.64,5.11-1.09,8.82.42,8.82,6.14v.83l-5.51,1.17c0-2.79-.92-4.22-3.11-3.76a3.86,3.86,0,0,0-3.28,4.16c0,1.84.52,2.86,3,3.42l4.43,1.07c4.31,1,5.43,3.1,5.43,6.73,0,6.3-3.68,9.92-9.91,11.25-6.51,1.38-9.06-1.25-9.06-6.76v-1.21Z"/><path class="a" d="M120,51.85l59,34.07v68.16l-59,34.07L61,154.08V85.92l59-34.07m0-1.13L60,85.36v69.28l60,34.64,60-34.64V85.36L120,50.72Z"/></svg>