<svg xmlns="http://www.w3.org/2000/svg" viewBox="0 0 240 240"><defs><style>.a,.c{opacity:0.6;}.b,.c,.d{fill:#fff;}.c,.d{isolation:isolate;}.d{opacity:0.8;}</style></defs><g class="a"><path class="b" d="M107.1,137.87v7.2l-.1,1.3.1,3.1-.1.9v4.1a.75.75,0,0,1-.9.9H106l-.6-.1h-.6l-.6-.1a3.75,3.75,0,0,0-.8.1h-.5c-.3,0-.5,0-.6-.1a2.19,2.19,0,0,1-.3-.5c-.1-.3-.1-.5-.2-.6s-.1-.2-.1-.3a.35.35,0,0,0-.1-.2c0-.1-.1-.2-.2-.4l-.3-.6c-.1-.2-.1-.3-.2-.4s-.1-.1-.1-.2a.35.35,0,0,1-.1-.2c0-.1-.1-.2-.1-.4a4.08,4.08,0,0,1-.2-.7c0-.1-.1-.2-.1-.3a.1.1,0,0,0-.1-.1.35.35,0,0,1-.1-.2l-.2-.4-.1-.4c-.1-.2-.2-.7-.3-.9s-.3-1.4-.4-1.7v-.2a.49.49,0,0,0-.1-.3,4.33,4.33,0,0,1-.1-.5c-.1-.3-.1-.3-.2-.3a.1.1,0,0,0-.1.1v.6a3.4,3.4,0,0,1,.1,1c0,.3.1,1.9.1,2.1l.1,1.2v.9l-.1,1.2v.5a1.49,1.49,0,0,0,.1.6v.9c0,.5-.3.8-1,.8H96.6l-2,.1a1.07,1.07,0,0,1-.6-.2,1.55,1.55,0,0,1-.2-.8v-1.3c0-.5.1-1,.1-1.4v-3.8l.1-2.4v-8.8c0-.5.2-.7.7-.7h3.4a.6.6,0,0,1,.6.3,3.12,3.12,0,0,1,.6,1.3,22,22,0,0,0,.9,2.1c.1.2.2.3.2.4s.1.2.1.3a.35.35,0,0,0,.1.2c0,.1.1.2.2.4l.1.2.3.6a2.07,2.07,0,0,1,.2.6,4.33,4.33,0,0,1,.1.5,4.5,4.5,0,0,0,.2.8,1.45,1.45,0,0,0,.2.7c.1.1.2,1,.3,1s.2-.1.2-.3V145h0v-.5l-.1-2.3.1-1.3v-3.3a1.74,1.74,0,0,1,.3-1.2,1.33,1.33,0,0,1,1-.3h1.8l1.2-.1c.5,0,.7.2.7.8v.2A1.48,1.48,0,0,0,107.1,137.87Z"/><path class="b" d="M121.1,150.67a6.64,6.64,0,0,1-.6,2,5.18,5.18,0,0,1-2.1,2.3,8,8,0,0,1-3.6.8,6.53,6.53,0,0,1-3.7-.9,5.07,5.07,0,0,1-1.9-3c-.1-.4-.2-.8-.3-1.3s-.1-.9-.2-1.4-.1-1.1-.1-1.8V145a32.18,32.18,0,0,1,.1-3.3,10.9,10.9,0,0,1,.4-2.2,3.36,3.36,0,0,1,1-1.6,7.79,7.79,0,0,1,1.9-1.4,3.85,3.85,0,0,1,1.2-.5,6.62,6.62,0,0,1,1.5-.1,7.59,7.59,0,0,1,1.6.1,3.73,3.73,0,0,1,1.2.2,3.13,3.13,0,0,1,1,.5,6.47,6.47,0,0,1,.9.8,3.92,3.92,0,0,1,.8,1,5,5,0,0,1,.5,1.3c.1.5.2,1,.3,1.7a14.79,14.79,0,0,1,.1,2.2v4.1A13.9,13.9,0,0,1,121.1,150.67Zm-4.8-2v-6.1c0-1.4-.5-2.1-1.4-2.1a1,1,0,0,0-1,.7,5.15,5.15,0,0,0-.3,2.1v3.9a5.38,5.38,0,0,0,.1,1.1l-.1,1.1a2.9,2.9,0,0,0,.3,1.4,1.39,1.39,0,0,0,1,.5C115.9,151.17,116.3,150.37,116.3,148.67Z"/><path class="b" d="M132.3,140.17c0,.6-.3.9-1,.9h-.7c-.4,0-.7.1-.8.3s-.2.6-.2,1.1v3c0,.5-.1.9-.1,1.2v1.7a5.94,5.94,0,0,1,.1,1.1l-.1,2.6v1.2a5.74,5.74,0,0,1,.1,1.2c0,.7-.3,1-1,1l-1.5-.1h-1.5a1.29,1.29,0,0,1-.8-.2c-.2-.1-.2-.4-.2-.7v-1.8l-.1-2.3.1-2.3-.1-3,.1-2.6c0-.6,0-1-.2-1.2s-.4-.3-.8-.3h-.8a1.17,1.17,0,0,1-.7-.2,2,2,0,0,1-.2-.9v-2.4c0-.9.3-1.3,1.1-1.3l1.4.1,2.3-.1h4.4a1.55,1.55,0,0,1,.8.2c.2.1.2.4.2.7l-.1,1.7v1.1C132.3,140.07,132.3,140.07,132.3,140.17Z"/></g><path class="b" d="M151.2,150.17v.4a.76.76,0,0,1-.1.4,4.33,4.33,0,0,0-.1.5,6.37,6.37,0,0,0-.2.7,6.89,6.89,0,0,0-.4,1,1.61,1.61,0,0,1-.4.7c-.1.2-.3.3-.5.5s-.4.3-.7.5a11.11,11.11,0,0,1-1.6.7,7.72,7.72,0,0,1-1.5.2h-4.9l-1.2.1c-.8,0-1.2-.3-1.2-1.1v-2.5a4.48,4.48,0,0,0-.1-1.1v-3.1l.1-3.5V144a5.74,5.74,0,0,0-.1-1.2v-.6l.1-2.5v-1.9c0-1.1.4-1.6,1.3-1.6H146a4.38,4.38,0,0,1,3.4,1.3c.3.3.4.5.6.7s.2.5.4.9a3,3,0,0,1,.2,1,3.22,3.22,0,0,1,.1.8,4.39,4.39,0,0,1-1.5,3.9c-.2.2-.3.3-.4.3a.1.1,0,0,0,0,.2,1.41,1.41,0,0,0,.5.3A5.65,5.65,0,0,1,151.2,150.17Zm-5.2-.6a2,2,0,0,0-.5-1.4,1.54,1.54,0,0,0-1.3-.5c-.7,0-1,.3-1.1.8v1.7c-.1.8.4,1.3,1.3,1.3a1.66,1.66,0,0,0,1.2-.5A2.3,2.3,0,0,0,146,149.57Zm-.2-8c0-1-.6-1.6-1.8-1.6-.7,0-1,.3-1,1v.4a1.74,1.74,0,0,0,.3,1.2,1.33,1.33,0,0,0,1,.4,1.37,1.37,0,0,0,1.1-.4A1.28,1.28,0,0,0,145.8,141.57Z"/><path class="b" d="M165.4,155q0,.6-.9.6H161a.85.85,0,0,1-.6-.2,1.91,1.91,0,0,1-.4-.8c-.1-.3-.2-.5-.3-.8a5.94,5.94,0,0,0-.4-.8c-.1-.2-.2-.3-.2-.4s-.1-.1-.1-.2a.31.31,0,0,0-.1-.2c0-.1-.1-.2-.1-.3a4.34,4.34,0,0,0-.5-1,.54.54,0,0,0-.4-.3c-.3,0-.4.2-.4.7v1.4l-.1,1.2V155c0,.5-.2.7-.7.7h-3.3c-.7,0-1-.3-1-1v-.2a4.4,4.4,0,0,1,.1-.9v-2.3a6.15,6.15,0,0,0-.1-1.3v-1.4l.1-4-.1-2.9v-4.2a1.16,1.16,0,0,1,.4-1,2.13,2.13,0,0,1,1.2-.3l2.1.1h.6a5.74,5.74,0,0,0,1.2-.1H159a4.87,4.87,0,0,1,1.2.1c.4.1.8.1,1.2.2s.7.2,1,.3a1.61,1.61,0,0,1,.7.4,4.35,4.35,0,0,1,.7.6c.2.2.3.4.5.6a5.74,5.74,0,0,0,.4.7,6.89,6.89,0,0,0,.4,1c0,.1.1.2.1.3s.1.2.1.4a1.27,1.27,0,0,0,.1.6,4.91,4.91,0,0,0,.1,1.1V144a6.72,6.72,0,0,1-.3,1.8,10.66,10.66,0,0,1-.7,1.9c-.1.2-.2.3-.2.4l-.3.3a1.38,1.38,0,0,1-.4.3,3.81,3.81,0,0,1-.6.5c-.1.1-.2.2-.2.3a3.93,3.93,0,0,0,.2.6,4.07,4.07,0,0,0,.6,1.1,1.38,1.38,0,0,0,.3.4.37.37,0,0,1,.1.3c0,.1.1.2.1.4s.1.4.3.6a1.69,1.69,0,0,0,.2.5,5.74,5.74,0,0,0,.4.7A2.26,2.26,0,0,1,165.4,155Zm-5.5-12.5a1.59,1.59,0,0,0-.4-1.2,1.39,1.39,0,0,0-1-.5c-.7,0-1,.5-1,1.5v1.6c0,1,.4,1.4,1.2,1.4a1.14,1.14,0,0,0,.8-.3,1,1,0,0,0,.4-.7v-1.8Z"/><path class="b" d="M172,137.07v7.2l-.1,3v6.4a5.38,5.38,0,0,1,.1,1.1c0,.6-.3.9-1,.9h-2.8a2.15,2.15,0,0,1-1-.2c-.2-.1-.3-.4-.3-.8v-7.4l.1-2.2v-6.4c0-.4,0-.7-.1-.8v-.5h0c0-.7.3-1,1-1h3.2C171.8,136.17,172,136.47,172,137.07Z"/><path class="b" d="M186.8,146.57a11.33,11.33,0,0,1-.6,3.6,10.86,10.86,0,0,1-1.7,3.2,5.24,5.24,0,0,1-4.5,2.2h-4.5a1.61,1.61,0,0,1-1.1-.3,1.33,1.33,0,0,1-.3-1v-1.8a8.17,8.17,0,0,1,.1-1.4v-.6a7.08,7.08,0,0,0-.1-1.4v-3.9l-.1-2.7v-.8l.1-1.2v-1.9c0-.2-.1-.3-.1-.5v-.4c0-1,.4-1.5,1.3-1.5h4.5a6.62,6.62,0,0,1,1.5.1l1.2.3a3.59,3.59,0,0,1,1,.7,9.43,9.43,0,0,1,1,1,15.75,15.75,0,0,1,1,1.3,3.13,3.13,0,0,1,.5,1c.1.4.2.8.3,1.3a7.77,7.77,0,0,1,.2,1.6c.1.5.1,1.1.2,1.6A8.64,8.64,0,0,1,186.8,146.57Zm-5.2-.6a5.74,5.74,0,0,0-.1-1.2,5.9,5.9,0,0,0-.2-1.4c-.2-1.7-.8-2.5-1.6-2.5-.6,0-1,.5-1,1.5v4.9l.1,1v1.8a1.14,1.14,0,0,0,.3.8.91.91,0,0,0,.7.3,1.14,1.14,0,0,0,.8-.3,1.93,1.93,0,0,0,.5-.9,4.33,4.33,0,0,0,.1-.5c0-.2.1-.6.2-1.2s.1-1,.2-1.4Z"/><path class="b" d="M198.5,153.37v1.1c0,.4-.1.8-.3.9s-.7.2-1.2.2h-7.5a1.06,1.06,0,0,1-1.2-1.2l.1-1.3v-1.9l.1-1.7-.1-1.9V146l-.1-2.6.1-2.7v-.8a3.75,3.75,0,0,0-.1-1v-1.4a1.25,1.25,0,0,1,.4-1.1,1.74,1.74,0,0,1,1.2-.3h.6c.3,0,.5.1.7.1h.3l1.8-.1,1.7.1h2.3a1.69,1.69,0,0,1,.9.2.57.57,0,0,1,.2.7l-.1,1.3v1a1.08,1.08,0,0,1-.2.8.55.55,0,0,1-.5.3h-2.8a2.27,2.27,0,0,0-1.3.3,1.44,1.44,0,0,0-.3,1.1,2.13,2.13,0,0,0,.3,1.2.63.63,0,0,0,.8.3l.8-.1,1.1.1h1c.7,0,1,.3,1,.9v1.1l.1,1.4c0,.7-.3,1.1-1,1l-2.4-.1a1.48,1.48,0,0,0-.7.1c-.2,0-.3.2-.4.3a1.45,1.45,0,0,0-.2.7V150c0,.4.1.7.3.8a2.87,2.87,0,0,0,1.2.2h.7a2.25,2.25,0,0,1,.7.1h1.3a1,1,0,0,1,1,1Z"/><path class="b" d="M210,150.07c0,3.8-2.1,5.7-6.4,5.7a9.15,9.15,0,0,1-3.3-.4c-.7-.2-1-.6-1-1.1v-3c0-.8.3-1.2,1-1.2.3,0,.5,0,.6.1a5,5,0,0,1,.7.5,2.39,2.39,0,0,0,.7.3,2.77,2.77,0,0,0,.9.1c1,0,1.5-.4,1.5-1.1a1.08,1.08,0,0,0-.3-.7,7.3,7.3,0,0,0-.9-1c-.2-.2-.4-.4-.5-.4s-.2-.1-.2-.2-.1-.1-.2-.2l-.4-.4c-.1-.1-.1-.1-.2-.1l-.1-.1-.2-.2-.6-.6c-.3-.3-.6-.7-.9-1a8.79,8.79,0,0,1-.6-1,10.38,10.38,0,0,1-.3-1.2,6.62,6.62,0,0,1-.1-1.5c0-2.4.8-4.1,2.5-5a4.28,4.28,0,0,1,1.6-.5,18.58,18.58,0,0,1,2.6-.1,5.31,5.31,0,0,1,1.4.1,2,2,0,0,1,.9.2c.2.1.4.2.4.4a1.27,1.27,0,0,1,.1.6v2.8c0,.7-.3,1.1-1,1.1h-.4c-.1,0-.2-.1-.4-.1a1.42,1.42,0,0,1-.6-.2,1.72,1.72,0,0,0-.8-.1,1.69,1.69,0,0,0-1,.3,1,1,0,0,0-.3.8v.4c0,.1.1.2.2.4s.2.3.4.5a6.53,6.53,0,0,0,.8.7l.3.3.4.3.3.3.2.2.1.1.3.3.4.3.3.3a5,5,0,0,1,1.3,1.9A3.07,3.07,0,0,1,210,150.07Z"/><path class="b" d="M43.2,153.27v1.2a1.59,1.59,0,0,1-1.1,1,11.52,11.52,0,0,1-3,.3H37.6c-.4,0-.8-.1-1.1-.1a2.92,2.92,0,0,1-.9-.2l-.9-.3a6.89,6.89,0,0,1-.8-.3,2.19,2.19,0,0,1-.5-.3c-.2-.1-.3-.3-.5-.4a3.19,3.19,0,0,0-.6-.7c-.3-.4-.5-.7-.7-1a3.47,3.47,0,0,1-.6-.9c-.1-.3-.2-.5-.3-.8a2.92,2.92,0,0,1-.2-.9c-.1-.6-.2-1.3-.3-2a7.5,7.5,0,0,1-.2-2v-.7a.76.76,0,0,1,.1-.4c0-.2.1-.4.1-.7v-.5a1.09,1.09,0,0,1,.1-.5,7.54,7.54,0,0,1,.9-2.9,9.14,9.14,0,0,1,2-2.4c.4-.3.9-.6,1.3-.9a5.27,5.27,0,0,1,1.5-.5,11.8,11.8,0,0,1,2-.4,20.12,20.12,0,0,1,2.6-.1h1c.3,0,.4.1.6.1l.3.3a4.33,4.33,0,0,1,.1.5l-.1,1.1v1.4a3.71,3.71,0,0,1-.2,1.4.81.81,0,0,1-.8.4h-.2a.35.35,0,0,0-.2-.1c-.1,0-.2-.1-.4-.2a.37.37,0,0,0-.3-.1H38.8a2.72,2.72,0,0,0-2.8,1.7v.3a.37.37,0,0,1-.1.3l-.1.3a.44.44,0,0,1-.1.3l-.1.3a6.53,6.53,0,0,0-.2,1.1v2c0,.3.1.6.1.8a2.35,2.35,0,0,0,.2.8,6.89,6.89,0,0,0,.4,1,3.48,3.48,0,0,0,.7,1.1,1,1,0,0,0,1,.5,1.29,1.29,0,0,0,.8-.2c.2-.1.2-.3.2-.6v-1.7a.91.91,0,0,0-.3-.7.86.86,0,0,0-.6-.3.37.37,0,0,0-.3.1h-.2c-.2,0-.3-.1-.5-.2a.76.76,0,0,1-.2-.5v-2.9a4.33,4.33,0,0,1,.1-.5,1.38,1.38,0,0,1,.4-.3,1.09,1.09,0,0,1,.5-.1l1.1.1h2.5l.5-.1c.8,0,1.2.4,1.2,1.3v3.2l-.1,1.4v2.7A2.54,2.54,0,0,1,43.2,153.27Z"/><path class="b" d="M50.1,137v7.2l-.1,3v7.5c0,.6-.3.9-1,.9H46.3a2.15,2.15,0,0,1-1-.2c-.2-.1-.3-.4-.3-.8v-7.4l.1-2.2v-6.4c0-.4,0-.7-.1-.8v-.5h0c0-.7.3-1,1-1h3.2C49.9,136.17,50.1,136.47,50.1,137Z"/><path class="b" d="M64.9,155q0,.6-.9.6H60.5a.85.85,0,0,1-.6-.2,1.91,1.91,0,0,1-.4-.8c-.1-.3-.2-.5-.3-.8a5.94,5.94,0,0,0-.4-.8c-.1-.2-.2-.3-.2-.4s-.1-.1-.1-.2a.31.31,0,0,0-.1-.2c0-.1-.1-.2-.1-.3a4.34,4.34,0,0,0-.5-1,.54.54,0,0,0-.4-.3c-.3,0-.4.2-.4.7V155c0,.5-.2.7-.7.7H53.1c-.7,0-1-.3-1-1v-.2a4.4,4.4,0,0,1,.1-.9v-2.3a6.15,6.15,0,0,0-.1-1.3v-1.4l.1-3.9-.1-2.9v-4.1a1.16,1.16,0,0,1,.4-1,2.13,2.13,0,0,1,1.2-.3l2.1.1h.6a4.48,4.48,0,0,0,1.1-.1h1.1a4.87,4.87,0,0,1,1.2.1c.4.1.8.1,1.2.2s.7.2,1,.3a1.61,1.61,0,0,1,.7.4,4.35,4.35,0,0,1,.7.6c.2.2.3.4.5.6a5.74,5.74,0,0,0,.4.7,6.89,6.89,0,0,0,.4,1c0,.1.1.2.1.3s.1.2.1.4a1.27,1.27,0,0,0,.1.6,4.91,4.91,0,0,0,.1,1.1v1.5a6.72,6.72,0,0,1-.3,1.8,10.66,10.66,0,0,1-.7,1.9c-.1.2-.2.3-.2.4l-.3.3a1.38,1.38,0,0,1-.4.3,1.54,1.54,0,0,1-.6.4c-.1.1-.2.2-.2.3a3.93,3.93,0,0,0,.2.6,4.07,4.07,0,0,0,.6,1.1,1.38,1.38,0,0,0,.3.4.37.37,0,0,1,.1.3c0,.1.1.2.1.4s.1.4.3.6a1.69,1.69,0,0,0,.2.5,5.74,5.74,0,0,0,.4.7C64.8,154.27,64.9,154.67,64.9,155Zm-5.4-12.6a1.59,1.59,0,0,0-.4-1.2,1.39,1.39,0,0,0-1-.5c-.7,0-1,.5-1,1.5v1.5c0,.9.4,1.4,1.2,1.4a1.14,1.14,0,0,0,.8-.3,1,1,0,0,0,.4-.7v-1.7Z"/><path class="b" d="M75.8,152.77v1.7a.8.8,0,0,1-1,1H73.6l-.9.1H67.4c-.7,0-1.1-.5-1.1-1.4v-1.1a2.22,2.22,0,0,1,.1-.9v-4a2,2,0,0,1,.1-.7v-1l-.1-1.6v-7.5a1.88,1.88,0,0,1,.2-.8c.2-.2.4-.2.8-.2h.3c.3,0,.5.1.7.1h.7a1.09,1.09,0,0,0,.5-.1h.8a1.45,1.45,0,0,1,.7.2.86.86,0,0,1,.3.6v.5c0,.4-.1.8-.1,1.2V142l-.1,1.8.1,1.4v2l.1,1.6v.8a1.5,1.5,0,0,0,.4,1.1,1.28,1.28,0,0,0,1,.4h2.1a1,1,0,0,1,.9.4Z"/><path class="b" d="M87.2,150c0,3.8-2.1,5.7-6.4,5.7a13.11,13.11,0,0,1-3.3-.3c-.7-.2-1-.6-1-1.1v-3c0-.8.3-1.2,1-1.2.3,0,.5,0,.6.1a5,5,0,0,1,.7.5,2.39,2.39,0,0,0,.7.3,2.77,2.77,0,0,0,.9.1c1,0,1.5-.4,1.5-1.1a1.08,1.08,0,0,0-.3-.7,7.3,7.3,0,0,0-.9-1c-.2-.2-.4-.4-.5-.4s-.2-.1-.2-.2-.1-.1-.2-.2l-.3-.3c0-.1,0-.1-.1-.1l-.1-.1-.2-.2-.6-.6a9,9,0,0,1-.9-1,8.79,8.79,0,0,1-.6-1,10.38,10.38,0,0,1-.3-1.2,6.62,6.62,0,0,1-.1-1.5c0-2.4.8-4.1,2.5-4.9a4.28,4.28,0,0,1,1.6-.5,18.58,18.58,0,0,1,2.6-.1,5.31,5.31,0,0,1,1.4.1,2,2,0,0,1,.9.2c.2.1.4.2.4.4a1.08,1.08,0,0,1,.1.6v2.8c0,.7-.3,1.1-1,1.1h-.4c-.1,0-.2-.1-.4-.1a1.42,1.42,0,0,1-.6-.2,1.72,1.72,0,0,0-.8-.1,1.69,1.69,0,0,0-1,.3,1,1,0,0,0-.3.8v.4c0,.1.1.2.2.4s.2.3.4.5a6.53,6.53,0,0,0,.8.7l.3.3.3.3.3.3.2.2.1.1.3.3.4.3.3.3a5,5,0,0,1,1.3,1.9C87.1,148.27,87.2,149.07,87.2,150Z"/><path class="c" d="M138.8,92.17h0a1.38,1.38,0,0,1,.4-.3c.4-.1.8-.6,1.1-.8s.1-.2-.2-.4a6.13,6.13,0,0,0-.6-.4c-.1-.1-.4.1-.8,1a6.95,6.95,0,0,0-13.2-3.2c.2-1.1,0-1.6-.1-1.6a1.48,1.48,0,0,1-.7.1c-.3,0-.4,0-.3.3a6.12,6.12,0,0,0,.5,1.2c.1.2.2.3.3.5h-.1a1.94,1.94,0,0,0-1.4-.9,12.08,12.08,0,0,1-1.4-.3,1.39,1.39,0,0,0,.7.5,1,1,0,0,0-.7.5,3,3,0,0,1,1.9,0c.1,0,.2.1.3.2-.7.1-1.4.4-1.5,1.1v.1c-.7.2-1.6.8-1.5,1.6,0,.2.1.3.1.4-.5.5-1,1.4-.5,2q.15.3.3.3a.35.35,0,0,0,.1.2.75.75,0,0,0,.6.3,1.84,1.84,0,0,0,1.7-1.2,1.06,1.06,0,0,0,.6,0c.3-.2.5-.3.6-.6a6.71,6.71,0,0,0,5,5,6.82,6.82,0,0,0,6.7-1.8.71.71,0,0,0,.3.6c.3.3.5.3.5.3a1.82,1.82,0,0,0,.9,1.9,1.49,1.49,0,0,0,.7,0c.1,0,.1-.1.2-.1s.2-.1.4-.1c.7-.3.8-1.3.6-2,.1-.1.2-.1.3-.3.5-.6.1-1.6-.5-2.1a.1.1,0,0,1,.1-.1c.3-.6-.2-1.3-.8-1.7h.3a3.1,3.1,0,0,1,1.7.9.7.7,0,0,0-.3-.7,1.26,1.26,0,0,0,.8-.1c-.2,0-.5-.2-1.4-.4A2,2,0,0,0,138.8,92.17Zm-15.5.5c-.2,0-.4-.1-.6-.1-.1-.2-.1-.4-.2-.6.5-.1,1-.4,1-1.6a1.27,1.27,0,0,0,.6.1,2.09,2.09,0,0,0,.4.6C123.3,91.47,123.2,92.17,123.3,92.67Zm16,3.8a1,1,0,0,0-.5.4,1.07,1.07,0,0,0-.6-.2c.4-.4.6-1-.2-1.9a.86.86,0,0,0,.6-.3,1.42,1.42,0,0,0,.6.2C138.6,95.67,138.9,96.17,139.3,96.47Z"/><path class="b" d="M80.5,91.67a9.5,9.5,0,0,0-1.7-1v-.1a.3.3,0,0,0-.2-.5.49.49,0,0,0-.6.3h-.1a.47.47,0,0,0-.9-.3v.1h-.1a.45.45,0,1,0-.9-.1v.1h-.1c0-.2-.1-.4-.3-.4a.49.49,0,0,0-.6.3v.2h-.1c0-.2-.2-.3-.3-.4a.68.68,0,0,0-.6.4v.3h-.1l-.3-.3a.49.49,0,0,0-.6.3v.3c0,.1,0,.2-.1.2s-.2-.2-.3-.2a.49.49,0,0,0-.6.3.6.6,0,0,0,.1.4l-.1.1c-.1-.1-.1-.1-.2-.1a.49.49,0,0,0-.6.3c0,.2,0,.3.1.4l-.1.1a.35.35,0,0,0-.2-.1.49.49,0,0,0-.6.3c0,.2,0,.3.1.4a.1.1,0,0,1-.1.1h-.1c.1,0-.2.1-.3.4s0,.4.2.5v.1c-.2,0-.5.1-.5.3s0,.4.2.5V95c-.2,0-.5.1-.5.3s.1.5.3.6V96h0a.28.28,0,0,0-.5,0h-.1c-.1,0-.1.1-.1.2h-.1a.37.37,0,0,0-.3.1c-.1.1-.2.1-.2.2a.6.6,0,0,0-.4.1c-.1.1-.2.2-.2.3s-.2.1-.4.2a.37.37,0,0,0-.1.3c-.1,0-.2.1-.3.2a.37.37,0,0,0-.1.3q-.15,0-.3.3a.6.6,0,0,0-.1.4c-.1,0-.2.2-.3.3v.2c-.1.1-.2.2-.2.3v.3c-.1.1-.2.2-.2.3v.3c-.1,0-.2.1-.3.2a.37.37,0,0,0-.1.3c-.1,0-.2.1-.3.2a.37.37,0,0,0-.1.3c-.1,0-.2.1-.3.2a.31.31,0,0,0-.1.2.37.37,0,0,0-.3.1c-.1.1-.1.2-.2.2a.3.3,0,0,0-.4,0,.35.35,0,0,0,.5.5.31.31,0,0,0,.1-.2.37.37,0,0,0,.3-.1c.1-.1.2-.2.2-.3s.2-.1.4-.2.2-.2.2-.3.2-.1.3-.2a.37.37,0,0,0,.1-.3q.15,0,.3-.3a.37.37,0,0,0,.1-.3c.1,0,.2-.2.3-.3a.3.3,0,0,0,0-.4c.1-.1.2-.2.2-.3v-.2l.1-.1v.2a.5.5,0,0,0,0,.6c-.1.1-.2.2-.2.3v.3c-.1.1-.2.1-.2.3s-.1.2,0,.3q-.15,0-.3.3a.37.37,0,0,0-.1.3c-.1,0-.2.1-.3.2a.37.37,0,0,0-.1.3c-.1,0-.2.1-.3.2s-.1.2-.2.3c-.1-.1-.3,0-.4.1a.45.45,0,0,0,0,.5h.1c0,.1,0,.1.1.2s.4.2.5,0a.35.35,0,0,1,.4-.4c.1-.1.2-.2.2-.3s.2-.1.4-.2a.37.37,0,0,0,.1-.3c.1,0,.2-.1.3-.2a.37.37,0,0,0,.1-.3c.1,0,.1-.1.2-.1v.1c-.1.1-.2.2-.2.3s-.1.2,0,.3c-.1,0-.2.1-.3.2a.37.37,0,0,0-.1.3c-.1,0-.2.1-.3.2a.37.37,0,0,0-.1.3.6.6,0,0,0-.4.1c-.1.2-.1.4.1.5a.31.31,0,0,1,.2.1v.1c-.1-.1-.3,0-.4.1s-.1.4.1.5.4.1.5-.1a.37.37,0,0,0,.1-.3c.1,0,.2-.1.3-.2s.1-.2.2-.3.2-.1.3-.2.1-.2.1-.4q.15,0,.3-.3a.37.37,0,0,0,.1-.3c.1,0,.2-.2.3-.3s.1-.2,0-.3c.1-.1.2-.2.2-.3v-.4a.52.52,0,0,0,.2-.4v-.2a.37.37,0,0,0,.1-.3v-.3c.1-.1.2-.2.2-.3v-.3q.15,0,.3-.3v.2a.52.52,0,0,0-.2.4v.2c-.1.1-.1.2-.1.4s.1.2.1.3a.37.37,0,0,0-.1.3v.3c-.1.1-.2.2-.2.3v.3c-.1.1-.2.2-.2.3v.3q-.15,0-.3.3c0,.1-.1.2-.1.3s-.2.1-.3.2c-.5.4-.5.5-.5.6a.4.4,0,0,0-.4.2c-.1.2-.1.4.1.5s.4.1.5-.1a.19.19,0,0,0,0-.3c.1,0,.2-.1.3-.2a.37.37,0,0,0,.1-.3q.15,0,.3-.3a.37.37,0,0,0,.1-.3c.1,0,.2-.2.3-.3v-.3c.1-.1.2-.2.2-.3v-.1c0,.1-.1.2,0,.4s.1.2.2.3c-.1.1-.1.2-.1.4a.5.5,0,0,1,0,.6.37.37,0,0,0,.1.3c-.1.1-.2.2-.2.3v.3c-.1.1-.2.2-.2.3v.3q-.15,0-.3.3c0,.1-.1.2-.1.3a.52.52,0,0,0-.4.2.38.38,0,0,0,.7.3v-.3q.15,0,.3-.3a.37.37,0,0,0,.1-.3c.1-.1.2-.2.2-.3v-.4a.52.52,0,0,0,.2-.4v-.3c.1-.1.1-.2.2-.4a.37.37,0,0,0-.1-.3c.1-.1.1-.2.1-.4a1,1,0,0,0-.1-.3c.1-.1.1-.2,0-.4s0-.1-.1-.2.1-.2,0-.3-.1-.2-.1-.3a.5.5,0,0,0,0-.6c.1-.1.1-.2.2-.3v-.3c.1-.1.2-.2.2-.3v-.3c.1,0,.2-.1.2-.3s.1-.2.1-.3a.1.1,0,0,0,.1-.1v.1a.37.37,0,0,0-.1.3v.1c0,.1-.1.2,0,.3-.1.1-.2.2-.2.3v.4a.52.52,0,0,0-.2.4.37.37,0,0,0,.1.3c-.1.1-.1.2-.1.4a.37.37,0,0,0,.1.3c-.1.1-.1.2-.1.4s.1.3.2.3c-.1.1-.1.2,0,.4s.1.1.1.2v.4c.1.1.1.2.2.3s-.1.2,0,.4a.35.35,0,0,0,.1.2c-.1.1-.1.2-.1.4s.1.2.1.3-.1.2-.1.4a.37.37,0,0,0,.1.3c-.1.1-.1.2-.2.3v.3c-.1.1-.2.2-.2.3v.3a.27.27,0,0,0-.3.3c0,.2.1.4.3.4s.4-.1.4-.3a.37.37,0,0,0-.1-.3c.1-.1.2-.2.2-.3v-.3a.52.52,0,0,0,.2-.4.6.6,0,0,0-.1-.4c.1-.1.1-.2.1-.4a.37.37,0,0,0-.1-.3c.1-.1.1-.2.1-.4s-.1-.2-.1-.3.1-.2,0-.4-.1-.2-.2-.3v-.4a.1.1,0,0,0-.1-.1v-.3c0-.1-.1-.2-.2-.3.1-.1.1-.2.1-.4s-.1-.2-.1-.3a.37.37,0,0,0,.1-.3c0,.1.1.2.2.3v.4c0,.1.1.1.1.2a.76.76,0,0,0,.1.4l.2.2v.4a.22.22,0,0,0,.2.2c0,.1-.1.2,0,.4s.1.2.1.3-.1.2-.1.4.1.2.1.3-.1.2-.1.4a.37.37,0,0,0,.1.3c-.1.1-.1.2-.2.3v.3a.45.45,0,0,0-.3.3c0,.2.1.4.3.4s.4-.1.4-.3a.37.37,0,0,0-.1-.3c.1-.1.1-.2.2-.3v-.3c.1-.1.1-.2.1-.4a.6.6,0,0,0-.1-.4c.1-.1.1-.2.1-.4s-.1-.2-.1-.3.1-.2,0-.4-.1-.2-.2-.3v-.4c-.1-.1-.1-.2-.2-.3a.6.6,0,0,0-.1-.4.1.1,0,0,0-.1-.1.37.37,0,0,0-.1-.3c-.1-.1-.1-.2-.2-.3s.1-.2,0-.4a.35.35,0,0,0-.1-.2c.1-.1.1-.2.1-.4v-.1c0,.1.1.1.2.1a.76.76,0,0,0,.1.4.1.1,0,0,0,.1.1.37.37,0,0,0,.1.3c.1.1.2.1.2.2a.37.37,0,0,0,.1.3c0,.1.1.1.2.2v.3a.22.22,0,0,0,.2.2v.3a.22.22,0,0,0,.2.2c0,.1-.1.2,0,.3a.35.35,0,0,0,.1.2.5.5,0,0,0,0,.6c-.1.1-.2.2-.2.3a.3.3,0,0,0,.6,0c0-.1,0-.2-.1-.2a1.43,1.43,0,0,1,.1-.9c0-.1-.1-.2-.2-.3s.1-.2,0-.4a.22.22,0,0,0-.2-.2v-.4a.22.22,0,0,0-.2-.2.37.37,0,0,0-.1-.3l-.2-.2v-.1l.9.9a6.7,6.7,0,0,0,9.5-1A6.85,6.85,0,0,0,80.5,91.67Zm-14.6,10.5h0v-.1h0Zm.4-.6h0v-.1h0Zm.3-.6h0v-.2h.1A.31.31,0,0,0,66.6,101Zm0-2v-.2a.1.1,0,0,0,.1-.1v.2Zm-.6,4.8Zm.4-.4Zm2.4-6.2c.1,0,.2-.1.3-.2s.1-.2.2-.3h.2c-.1,0-.1,0-.2.1l-.2.2c-.1.1-.2.2-.3.2Zm-.7.1h0v.2H68C68.1,97.37,68.1,97.37,68.1,97.27Zm-1.3,3.2v-.4l.1-.1v.1c-.1.2,0,.3-.1.4Zm.7-2.1c0,.1-.1.2,0,.3-.1.1-.2.2-.2.3v.3c-.1.1-.1.2-.2.3v.2l-.1.1v-.3a.37.37,0,0,0,.1-.3V99c.1-.1.2-.2.2-.3v-.3c.1,0,.2-.1.3-.2a.37.37,0,0,0,.1-.3.1.1,0,0,0,.1-.1c0,.1-.1.2,0,.3Q67.65,98.07,67.5,98.37Zm.8.9Zm.2-.8q-.15,0-.3.3a.37.37,0,0,0-.1.3q-.15,0-.3.3a.37.37,0,0,0-.1.3h0v-.2h0c.1,0,.2-.1.2-.3s.1-.2.1-.3.2-.1.3-.2a.37.37,0,0,0,.1-.3c.1,0,.1,0,.2-.1C68.5,98.37,68.5,98.37,68.5,98.47Zm.1-.9Zm0-.7Zm.2,3.1c0-.1,0-.1-.1-.2l.1-.1v.3Zm-.1-1.9a.35.35,0,0,1,.1-.2c.1,0,.2-.1.3-.1l.1-.1h0c-.1.1-.1.2-.2.2h0C68.9,98,68.8,98,68.7,98.07Zm.8.3a.37.37,0,0,0-.1.3q-.15,0-.3.3a.37.37,0,0,0-.1.3c-.1,0-.1.1-.2.2v-.3c.1-.1.2-.2.2-.3v-.3c.2,0,.3-.1.5-.2v-.2a.1.1,0,0,0,.1-.1l.1-.1v.1C69.5,98.27,69.5,98.27,69.5,98.37Zm.2,2.8c-.1,0-.1-.1,0,0V101h0Zm.3-.8Z"/><path class="b" d="M160.1,102.77s-.2-.2-1.1.9c-1.4,1.7.7,4.5,2.1,5.3a1.9,1.9,0,0,1,.5-1.1C164.4,103.77,160.8,102.67,160.1,102.77Z"/><path class="b" d="M147.9,96.87c-.3-.7-3.3-2.9-5,1.7a2,2,0,0,1-.6,1c1.4.7,4.9.9,5.5-1.3C148.1,97,147.9,96.87,147.9,96.87Z"/><path class="b" d="M157.1,95.27a6.29,6.29,0,0,0-8.5,1.6,5.9,5.9,0,0,0,1.7,8.3,6.29,6.29,0,0,0,8.5-1.6A5.91,5.91,0,0,0,157.1,95.27Z"/><path class="c" d="M123.8,108.87c.1-.1.1-.2.2-.3h0c0-.1-.1-.2,0-.3v-.1a.22.22,0,0,1,.2-.2v-.3c0-.1.1-.3.2-.3s-.1-.1-.1-.2v.1q-.15.3-.3.3a.76.76,0,0,1-.1.4l-.2.2v1.2h.1Z"/><path class="d" d="M126.3,106.27a.75.75,0,0,0,.1-.5.52.52,0,0,0-.2-.4.45.45,0,0,0,0-.5c0-.1-.1-.3-.2-.3a.45.45,0,0,0,0-.5c0-.1-.1-.2-.2-.3a1.09,1.09,0,0,0-.1-.5q-.15-.3-.3-.3a.6.6,0,0,0-.1-.4v-.2a.52.52,0,0,0,.2-.4.6.6,0,0,0-.1-.4h0a13.25,13.25,0,0,0-1.7,5.3c0,.3-.1.7-.1,1.1a.22.22,0,0,0,.2-.2.6.6,0,0,0,.1-.4c.1,0,.2-.2.3-.3V107c0,.1,0,.2.1.2-.1.1-.1.2-.2.3v.3c-.1,0-.1.1-.2.2v.4h0c-.1.1-.2.1-.2.3v.3h-.1v.7c.1,0,.2-.1.3-.2a.37.37,0,0,0,.1-.3q.15,0,.3-.3c0-.1.1-.2,0-.3h.2v.3a.27.27,0,0,0-.3.3c0,.2.1.4.3.4s.4-.1.4-.3a.37.37,0,0,0-.1-.3c.1-.1.2-.2.2-.3v-.3a.52.52,0,0,0,.2-.4.6.6,0,0,0-.1-.4c.1-.1.1-.2.1-.4V107c0-.1.1-.1.1-.2v-.4a.52.52,0,0,0,.2-.4.6.6,0,0,0-.1-.4.76.76,0,0,0,.2-.4.6.6,0,0,0-.1-.4v.1c0,.1.1.3.2.3a.6.6,0,0,0-.1.4c0,.1.1.2.1.3s-.1.2-.2.4,0,.3.1.3c-.2.1-.3.2-.3.4a.4.4,0,1,0,.8,0,.37.37,0,0,0-.1-.3c.1-.1.1-.2.2-.4C126.3,106.57,126.3,106.37,126.3,106.27Z"/><path class="b" d="M152.3,113.77c1.9-3.2.4-6.7-2.6-8.3s-5.7-.4-8.3,2.6q-.9,1.05-2.4,3c.7,2.7,2.2,6,5.7,10.5,3.5,4.9,2.2,8.6-.1,11h2.1a8.44,8.44,0,0,0,1.1-4.6C148.6,118.47,150.8,116.47,152.3,113.77Z"/><path class="b" d="M86.3,122.37a23.31,23.31,0,0,0,2.7-5.5,27.62,27.62,0,0,1-.7-5.7c-.6-9.2-8.2-8.1-10.2-7.3a9.19,9.19,0,0,0-5,9.3c1.4,7.6,7.7,15.1,10.1,17.6a11.43,11.43,0,0,0,1.7,1.5h2.4C84.9,130.67,83.4,127.47,86.3,122.37Z"/><path class="c" d="M103.6,129.27c3.4-8.2,1.3-19.5.5-23.5-.8-4.4-2.8-7.2-6.6-7.4s-7.4,2.4-7.4,6.6c0,2.6.4,7-1.2,11.9,1,4.3,3,6,4.2,8,1.7,2.7,1.5,5.8-.6,7.6h8.3A7.2,7.2,0,0,0,103.6,129.27Z"/><path class="c" d="M112.4,108.87v-.1c.1-1.1-1.2-1.7-2.2-1.8v-.3c.1-1-1.1-1.7-2.1-1.9,0-.1.1-.2.1-.3.3-1-.9-1.8-1.8-2.1,0-.1.1-.2.1-.3.4-1-.8-2-1.7-2.3.1-.1.1-.2.2-.5.4-1-.6-1.9-1.5-2.3.1-.1.1-.3.2-.5a1.38,1.38,0,0,0-.1-1.1,5.24,5.24,0,0,0,1-1.8,3.08,3.08,0,0,0,.9.1c.1,2.3,1.5,2,2,1.8v.2c.3,2.1,1.5,1.9,2.1,1.6,0,.1.1.2.1.3.7,2,1.9,1.6,2.4,1.1,0,.1.1.1.1.2l.3.6h.2a.45.45,0,0,1,.3-.3.6.6,0,0,1,.4-.1,1.38,1.38,0,0,1,.4-.3h.4l.2-.2a2.55,2.55,0,0,0-2.1-.4,1.09,1.09,0,0,0-.1-.5c-.3-.9-1.5-1-2.3-.8v-.5c-.1-1-1.3-1.4-2.2-1.3v-.5c0-.9-1-1.4-1.9-1.5V93c.2-.7-.4-1.3-1-1.7v-.1a6.9,6.9,0,1,0-6.9,6.9,6.71,6.71,0,0,0,3.7-1.1,1.93,1.93,0,0,0,1,.3v.2c-.7,2.4.9,2.7,1.5,2.6v.2c-.6,2.4.8,2.7,1.5,2.6v.1c-.4,2.4,1.1,2.6,1.8,2.4v.1c-.1,2.5,1.4,2.4,2.1,2.2h0c0,2.3,1.3,2.4,2,2.2v.2a7.68,7.68,0,0,1,2.8-.7A1.48,1.48,0,0,0,112.4,108.87Z"/><path class="b" d="M125.2,101.37H125v-.1a.22.22,0,0,0,.2-.2.48.48,0,0,0-.2-.6h-.3v-.1c.1,0,.1-.1.2-.2a.48.48,0,0,0-.2-.6h-.4c0-.1-.1-.1-.1-.2l.1-.1a.48.48,0,0,0-.2-.6c-.1-.1-.3,0-.4.1l-.2-.2v-.1a.48.48,0,0,0-.2-.6c-.2-.1-.3,0-.4.1-.1-.1-.2-.1-.2-.2h0a.48.48,0,0,0-.2-.6.37.37,0,0,0-.5.2c-.1,0-.1-.1-.2-.1.1-.2,0-.4-.3-.5a.48.48,0,0,0-.6.2h-.1c0-.2-.1-.4-.3-.4a.48.48,0,0,0-.6.2h-.1a.32.32,0,0,0-.3-.3.48.48,0,0,0-.6.2v.1h-.2q0-.15-.3-.3a.48.48,0,0,0-.6.2v.2h-.1a.22.22,0,0,0-.2-.2.48.48,0,0,0-.6.2v.3h-.1c0-.1-.1-.1-.2-.2a.48.48,0,0,0-.6.2v.3a.1.1,0,0,1-.2,0c-.1-.1-.4,0-.6.2a.76.76,0,0,0-.2.4.1.1,0,0,0-.1.1h-.1a2.19,2.19,0,0,1,.3.5c0,.1.1.2.1.3.8-.4,2.1-.5,2.5.3,0,.1.1.1.1.2.4-.8,1.5-2,3.7-.1a1.13,1.13,0,0,0,.7.4c-.7,1-2.8,2.3-4,1.1a2.2,2.2,0,0,1-.5-.6c-.4.5-1.5,1.1-2.6-.7a.1.1,0,0,0-.1-.1c-.3.4-1.5,1-2.3-.5a.1.1,0,0,0-.1.1c-.2.1-.3.2-.3.4a.71.71,0,0,0-.6.6c-.1,0-.2.1-.3.2a.76.76,0,0,0-.2.4.37.37,0,0,0-.3.1.42.42,0,0,0,.6.6.44.44,0,0,0,.1-.5c.1,0,.2-.1.3-.2a.76.76,0,0,0,.2-.4c.1,0,.2-.1.3-.1a.52.52,0,0,0,.2-.4.6.6,0,0,0,.4-.1c.1,0,.1-.1.2-.1v.1c-.1,0-.2.1-.3.2a.76.76,0,0,0-.2.4c-.1,0-.2.1-.3.2a.76.76,0,0,0-.2.4q-.15,0-.3.3c0,.1-.1.1-.1.2a.1.1,0,0,0-.1.1.52.52,0,0,0-.2.4c-.1,0-.2.1-.3.2a.76.76,0,0,0-.2.4.22.22,0,0,0-.2.2.6.6,0,0,0-.1.4.35.35,0,0,0-.2.1c-.1.2-.1.4.1.5s.4.1.5-.1a.3.3,0,0,0,0-.4c.1,0,.1-.1.2-.2,0,.1.1.1.1.2l-.2.2a.3.3,0,0,0,0,.4c-.1.1-.1.2-.2.3v.4a.22.22,0,0,0-.2.2.38.38,0,1,0,.7.3c.1-.2,0-.3-.1-.4a.37.37,0,0,0,.1-.3v-.4l.2-.2a.3.3,0,0,0,0-.4h0a.22.22,0,0,0,.2-.2V103c0-.1.1-.2.1-.3a.22.22,0,0,0,.2-.2.37.37,0,0,0,.1-.3c.1,0,.1-.1.2-.1v.1a.3.3,0,0,0,0,.4c-.1.1-.2.2-.2.3s0,.3,0,.4a.37.37,0,0,0-.1.3.6.6,0,0,0,.1.4c-.1,0-.1.1-.2.2a.37.37,0,0,0,.2.5h.1v.1a.3.3,0,0,0,0,.4c-.1.1-.2.2-.2.3v.4a.37.37,0,0,0-.1.3.6.6,0,0,0,.1.4l-.2.2c0,.2.1.4.3.4s.4-.1.4-.3,0-.3-.2-.4a.37.37,0,0,0,.1-.3.6.6,0,0,0-.1-.4c.1-.1.1-.1.1-.2v-.4c.1,0,.2-.1.2-.3a.1.1,0,0,1,.1-.1v.1a.37.37,0,0,0-.1.3c0,.2,0,.3.1.4a.37.37,0,0,0-.1.3c0,.2,0,.3.1.4-.1.1-.1.2-.1.4s.1.3.1.4v.3c0,.1.1.3.2.3a.37.37,0,0,0-.1.3c0,.2.2.3.4.3s.4-.2.3-.4a.27.27,0,0,0-.3-.3v-.3c0-.1-.1-.3-.2-.3s.1-.2.1-.3-.1-.3-.1-.4a.37.37,0,0,0,.1-.3c0-.2,0-.3-.1-.4a.37.37,0,0,0,.1-.3v-.4c.1,0,.1-.1.1-.2h0v.1c0,.2,0,.3.1.4-.1.1-.1.2-.1.4a.52.52,0,0,0,.2.4v.3c0,.1.1.3.2.3a.37.37,0,0,0-.1.3c0,.2.2.3.4.3s.3-.2.3-.4l.3.3a6.13,6.13,0,0,0,4.9,1.9.37.37,0,0,0,.1.3.35.35,0,0,0,.5.1c.1-.1.1-.1.1-.2a.76.76,0,0,0,.4-.1c.1-.1.2-.1.2-.2a.6.6,0,0,0,.4-.1c.1,0,.1-.1.1-.2s.3-.1.4-.2h0c-.1,0-.2.1-.3.2a.37.37,0,0,0-.1.3c-.1,0-.2.1-.3.2a1.34,1.34,0,0,0-.1.5c-.1,0-.2.1-.3.2s-.1.2-.2.2a.76.76,0,0,0-.4.1c-.1.1-.2.1-.2.2a.3.3,0,0,0-.4,0,.37.37,0,0,0-.1.3,8.19,8.19,0,0,0-4.2-1.5h-.7a3.46,3.46,0,0,1,.8,2.7,1.72,1.72,0,0,0,.2.9c-1.3.1-4-.8-3.8-2.7v-.3a7.15,7.15,0,0,0-3.8,4.5c-1.9,6.4,0,14.5.8,17.4a4.88,4.88,0,0,0,.3.7h10.3a2.85,2.85,0,0,0,0-1.3c-.2-2.6-1.2-5,1.7-12.7,1.6-3.7.5-6.1-1.1-7.6a.1.1,0,0,0,.1-.1.31.31,0,0,0,.1-.2.76.76,0,0,0,.4-.1l.2-.2a.4.4,0,0,0,.4-.2c.1-.1.2-.2.2-.3s.2-.1.3-.2a.37.37,0,0,0,.1-.3c.1,0,.2-.1.3-.2a.37.37,0,0,0,.1-.3h.1l-.1.1v.3q-.15,0-.3.3a.37.37,0,0,0-.1.3c-.1,0-.2.1-.3.2a.37.37,0,0,0-.1.3.6.6,0,0,0-.4.1c-.1.2-.1.4.1.5s.4.1.5-.1a.37.37,0,0,0,.1-.3c.1,0,.2-.1.3-.2.1.2.1.1.1,0s.2-.1.3-.3a.6.6,0,0,0,.1-.4c.1,0,.2-.2.3-.3V109h0a.37.37,0,0,0,.5-.2v-.3c.1,0,.2-.1.3-.2a.37.37,0,0,0,.1-.3h.1a4.1,4.1,0,0,1,.1-1.1,11.85,11.85,0,0,1,1.7-5.3C125.4,101.57,125.4,101.47,125.2,101.37Zm-12.5.6h0c0,.1-.1.1,0,0C112.6,102.07,112.7,102.07,112.7,102Zm.1,2.7Zm.1-1.2h0c-.2.2-.2.3-.2.4s-.1.1-.2.2h0a.37.37,0,0,0,.1-.3.6.6,0,0,0-.1-.4c.1-.1.1-.1.1-.2v-.3l.1.1h0c0,.2.1.3.1.4A.1.1,0,0,1,112.9,103.47Zm.1-2.6Zm.3-.3h0l.1-.1v.1Zm.8,5.9Zm8.2,2.1Zm1.2-1a.37.37,0,0,0-.1.3c-.1,0-.2.1-.3.2a.37.37,0,0,0-.1.3h0v-.2a.52.52,0,0,0,.2-.4v-.1l.1-.1.1-.1c.1,0,.2-.1.3-.2h.1Q123.5,107.42,123.5,107.57Z"/><path class="d" d="M112.8,99.37h0a2.18,2.18,0,0,0,.4.5,1.27,1.27,0,0,0,1.9-.1l.1.1c1.1,1.8,2.2,1.2,2.6.7a7.37,7.37,0,0,0,.5.6c1.2,1.2,3.3-.2,4-1.1h0a1.69,1.69,0,0,1-.7-.4c-2.2-1.9-3.3-.7-3.7.1,0-.1-.1-.1-.1-.2-.4-.9-1.7-.7-2.5-.3a.37.37,0,0,0-.1-.3,2.19,2.19,0,0,0-.3-.5h0c-1-.1-1.7,0-2.1.9Zm.5.2Z"/><path class="d" d="M111.7,110.17c-.2,1.8,2.5,2.7,3.8,2.7a2.23,2.23,0,0,1-.2-.9c0-1.5-.3-2.3-.8-2.7h0a11.48,11.48,0,0,0-2.8.7h0Z"/><path class="d" d="M93.2,124.87c-1.2-1.9-3.2-3.6-4.2-8a21.48,21.48,0,0,1-2.7,5.5c-2.8,5.1-1.4,8.2.9,10.1h5.4C94.6,130.67,94.9,127.67,93.2,124.87Z"/><path class="c" d="M132.2,126c.8-5.7,4.3-11.3,6.9-14.9a36.17,36.17,0,0,1-.8-5.8c-.4-4.4-3.7-7.3-7.9-6.7a6.31,6.31,0,0,0-4.9,3.1h0c0,.1.1.2.1.4s-.1.4-.2.4v.2a.6.6,0,0,1,.1.4c.1,0,.2.2.3.3a.9.9,0,0,1,.1.5c.1.1.2.2.2.3a.45.45,0,0,1,0,.5c.1.1.2.2.2.3v.5a.52.52,0,0,1,.2.4.75.75,0,0,1-.1.5c.1.1.1.2.1.4a.52.52,0,0,1-.2.4.37.37,0,0,1,.1.3.4.4,0,0,1-.8,0c0-.2.1-.3.3-.4,0-.1-.1-.2-.1-.3a.52.52,0,0,1,.2-.4.37.37,0,0,1-.1-.3c0-.2,0-.3.1-.4-.1-.1-.2-.2-.2-.3v-.1c.1.1.1.2.1.4s-.1.4-.2.4c.1.1.1.2.1.4s-.1.4-.2.4a.3.3,0,0,1,0,.4c0,.1,0,.1-.1.2v.2c0,.2,0,.3-.1.4.1.1.1.2.1.4a.52.52,0,0,1-.2.4v.3c0,.1-.1.3-.2.3a.37.37,0,0,1,.1.3c0,.2-.2.3-.4.3s-.3-.2-.3-.4a.32.32,0,0,1,.3-.3v-.3h-.2v.3q-.15.3-.3.3a.37.37,0,0,1-.1.3c-.1.1-.2.2-.3.2v.3c.1,5.4,1.2,14.5,4.8,21.1.3.4.5.8.8,1.2h4.6A8.72,8.72,0,0,1,132.2,126Z"/><path class="d" d="M144.8,121.57c-3.5-4.5-5-7.8-5.7-10.5-2.7,3.6-6.1,9.3-6.9,14.9a8.48,8.48,0,0,0,1.7,6.5h10.8C147,130.07,148.2,126.47,144.8,121.57Z"/></svg>