<svg xmlns="http://www.w3.org/2000/svg" xmlns:xlink="http://www.w3.org/1999/xlink" viewBox="0 0 240 240"><defs><style>.a,.c{fill:#fff;}.b{fill:url(#a);}.c{opacity:0.4;}</style><linearGradient id="a" x1="139.17" y1="102.83" x2="186.41" y2="102.83" gradientUnits="userSpaceOnUse"><stop offset="0" stop-color="#fff" stop-opacity="0.4"/><stop offset="0.15" stop-color="#fff" stop-opacity="0.48"/><stop offset="0.53" stop-color="#fff" stop-opacity="0.65"/><stop offset="0.83" stop-color="#fff" stop-opacity="0.76"/><stop offset="1" stop-color="#fff" stop-opacity="0.8"/></linearGradient></defs><path class="a" d="M57.83,145.53l-1.58-18.28a6.27,6.27,0,0,1,0-.67c0-1.54.71-2.17,3.19-2.33v-1.37H52.15l-6.8,16.48-6.72-16.48H31v1.37c2.49.16,3.2.67,3.2,2.33,0,.2,0,.59,0,.67l-1.34,18.28c-.2,2.37-.59,3-2.84,3.12V150h8.2v-1.38c-2.33-.08-2.92-.47-2.92-2,0-.43,0-.79,0-.87s1-18.52,1-19.07l7.78,18.74h1.36l7.45-17.92c0,1,1.26,18.29,1.26,18.29a6,6,0,0,1,0,.71c0,1.58-.67,2-3,2.13V150h9.35v-1.38c-2.25-.08-2.61-.83-2.8-3.12m12.31-15.48c-4.85,0-8.47,3.74-8.47,10.17s3.38,10.24,9,10.24a11.45,11.45,0,0,0,7-2.68l-.83-1.34a10.66,10.66,0,0,1-5.24,1.66c-4.14,0-6.11-1.85-6.19-7.57H78v-1.06c0-6-2.92-9.42-7.88-9.42m-4.65,8.55c.27-5,1.89-6.66,4.57-6.66,3,0,4.22,1.85,4.22,6.66Zm122.52,0-2.32-.55c-2.41-.55-3.16-1.46-3.16-3.12,0-1.89,1.31-3,3.63-3a3.33,3.33,0,0,1,3.7,3.11h2.53V131.5a12.54,12.54,0,0,0-5.92-1.37c-3.78,0-6.89,2-6.89,5.67,0,3.19,2,4.77,5,5.48l2.33.55c2.24.55,3.39,1.3,3.39,3.43,0,2.52-1.81,3.43-4.06,3.43-2.76,0-3.94-1-4.22-3.66h-2.64v3.82a11.56,11.56,0,0,0,6.5,1.65c4.61,0,7.53-2.56,7.53-6.5,0-2.84-1.69-4.49-5.4-5.36m-18.83-8.59c-4.85,0-8.48,3.74-8.48,10.17s3.39,10.24,9,10.24a11.48,11.48,0,0,0,7-2.68l-.83-1.34a10.66,10.66,0,0,1-5.25,1.66c-4.13,0-6.1-1.85-6.18-7.57h12.57v-1.06c0-6-2.92-9.42-7.88-9.42m-4.65,8.55c.27-5,1.89-6.66,4.57-6.66,3,0,4.22,1.85,4.22,6.66Zm-42.13,6.58-7.17-22.3h-3.51l-7.25,22.38c-.86,2.62-1.5,3.3-3.35,3.39h0c-2.52-.07-3.12-1.17-3.12-4V121.26h-.82l-5.76,1.14v1.26c2.33.08,3,.47,3,3.35v5.56a7.19,7.19,0,0,0-5.35-2.36c-5,0-8.08,4.17-8.08,10.32,0,7.17,3.74,9.89,7.76,9.89a8.08,8.08,0,0,0,5.91-3.31A8,8,0,0,0,95.5,150h14v-1.38c-2-.08-2.88-.32-2.88-1.46a5.25,5.25,0,0,1,.24-1.38l1.29-4.25h9.07l1.3,4.25a4.91,4.91,0,0,1,.2,1.18c0,1.15-.79,1.58-2.68,1.66V150h9.65v-1.38c-2-.16-2.6-1.26-3.31-3.47m-28,.2c-1.57,1.73-3.27,2.84-5,2.84-3.11,0-4.53-2.05-4.53-8.16s1.81-7.61,4.81-7.61a6.28,6.28,0,0,1,4.76,2.25Zm14.36-5.72,1.81-5.83c1.1-3.59,1.69-6,2.13-7.53h.16c.27,1.18,1,4.06,2,7.53l1.78,5.83Zm95.83-1-2.33-.55c-2.4-.55-3.15-1.46-3.15-3.12,0-1.89,1.3-3,3.63-3a3.34,3.34,0,0,1,3.7,3.11H209V131.5a12.54,12.54,0,0,0-5.92-1.37c-3.78,0-6.89,2-6.89,5.67,0,3.19,2,4.77,5,5.48l2.33.55c2.24.55,3.39,1.3,3.39,3.43,0,2.52-1.81,3.43-4.06,3.43-2.76,0-3.94-1-4.22-3.66H196v3.82a11.53,11.53,0,0,0,6.5,1.65c4.61,0,7.53-2.56,7.53-6.5,0-2.84-1.69-4.49-5.4-5.36m-69.43,9.66c-3.66,0-5.48-2.13-5.48-8.44,0-5.87,2.05-7.84,5.05-7.84,2.17,0,2.91,1,3.31,3.35h2.68v-3.63a10.4,10.4,0,0,0-5.91-1.53c-5.13,0-9,3.62-9,10.44,0,6.62,4,9.81,8.83,9.81a8.79,8.79,0,0,0,6.82-3.23l-1-1.1c-1.74,1.42-2.88,2.17-5.25,2.17m17.46,0c-3.67,0-5.48-2.13-5.48-8.44,0-5.87,2-7.84,5-7.84,2.16,0,2.91,1,3.31,3.35h2.68v-3.63a10.44,10.44,0,0,0-5.92-1.53c-5.12,0-9,3.62-9,10.44,0,6.62,4,9.81,8.83,9.81a8.81,8.81,0,0,0,6.82-3.23l-1-1.1c-1.73,1.42-2.88,2.17-5.24,2.17"/><path class="b" d="M157.88,105.43l28.53,10.73V90.07a.58.58,0,0,0-.87-.5Z"/><path class="c" d="M139.17,99.22v16.94l18.71-10.73-17.94-6.74A.56.56,0,0,0,139.17,99.22Z"/><polygon class="a" points="139.17 116.16 186.41 116.16 157.88 105.43 139.17 116.16"/></svg>