<svg xmlns="http://www.w3.org/2000/svg" viewBox="0 0 240 240"><defs><style>.a,.b,.c{fill:#fff;}.b{fill-opacity:0.4;}.c{fill-opacity:0.1;}</style></defs><path class="a" d="M72.87,175.72A4.47,4.47,0,0,1,74,179v10.15a.52.52,0,0,1-.59.59H70.85a.54.54,0,0,1-.37-.11.6.6,0,0,1-.11-.4v-9.67a2.44,2.44,0,0,0-.56-1.7,2.14,2.14,0,0,0-1.63-.6,3.36,3.36,0,0,0-1.69.46A7,7,0,0,0,65,178.81a1.18,1.18,0,0,0-.34.82v9.5a.52.52,0,0,1-.59.59H61.52q-.48,0-.48-.51v-9.67a2.43,2.43,0,0,0-.55-1.7,2.1,2.1,0,0,0-1.64-.6,3.46,3.46,0,0,0-1.73.45,7.85,7.85,0,0,0-1.76,1.46v10a.57.57,0,0,1-.14.43.73.73,0,0,1-.51.13h-2.5a.57.57,0,0,1-.39-.11.55.55,0,0,1-.11-.4V175.3q0-.48.39-.48h2.78c.27,0,.4.14.4.42v1.47c0,.11,0,.17.08.19s.13,0,.23-.08A11.22,11.22,0,0,1,58,175.09a5.24,5.24,0,0,1,2.39-.58,4.37,4.37,0,0,1,2.56.72,3.66,3.66,0,0,1,1.43,1.87.17.17,0,0,0,.15.08.38.38,0,0,0,.25-.14c1.67-1.66,3.32-2.5,5-2.5A4.23,4.23,0,0,1,72.87,175.72Zm15.83,2.43a9.2,9.2,0,0,1,.89,4.18v.11a.62.62,0,0,1-.09.39c0,.08-.17.13-.36.14h-10c-.21,0-.31.15-.31.45a4.09,4.09,0,0,0,.53,2.07,3.77,3.77,0,0,0,1.48,1.43,4.18,4.18,0,0,0,2.06.52,4.45,4.45,0,0,0,2.1-.49,5.8,5.8,0,0,0,1.78-1.53c.1-.09.17-.14.23-.14a.76.76,0,0,1,.25.08l1.72.76a.27.27,0,0,1,.19.25.58.58,0,0,1-.11.26,7.74,7.74,0,0,1-2.8,2.6,8.4,8.4,0,0,1-3.78.77,7.64,7.64,0,0,1-3.83-1A6.7,6.7,0,0,1,76,186.37a7.82,7.82,0,0,1-1-3.9,8.47,8.47,0,0,1,1-4.16,7,7,0,0,1,2.67-2.78,7.24,7.24,0,0,1,3.74-1,7.34,7.34,0,0,1,3.72.93A6.24,6.24,0,0,1,88.7,178.15ZM86,180.5a4,4,0,0,0-.4-1.74,3.44,3.44,0,0,0-1.16-1.38,3.14,3.14,0,0,0-1.84-.53A3.44,3.44,0,0,0,79.93,178a4.11,4.11,0,0,0-1,2.88h6.6a.68.68,0,0,0,.38-.07C86,180.78,86,180.67,86,180.5Zm13-5.71H95.8a.22.22,0,0,1-.25-.25v-4.3a.48.48,0,0,0-.12-.35.36.36,0,0,0-.28-.13h-2.5a.38.38,0,0,0-.28.1.65.65,0,0,0-.11.35l-.37,4.33c0,.19-.08.28-.25.28H89.56c-.28,0-.42.13-.42.37V177q0,.42.45.42h1.88c.23,0,.34.12.34.37v8.4a3.38,3.38,0,0,0,1,2.68,4.23,4.23,0,0,0,2.9.89,21,21,0,0,0,3.1-.17c.35-.06.53-.24.53-.56l0-1.46a.38.38,0,0,0-.11-.28.38.38,0,0,0-.29-.12H97.32a2,2,0,0,1-1.42-.43,2.09,2.09,0,0,1-.44-1.51v-7.5c0-.21.1-.31.28-.31h3.18q.48,0,.48-.42v-1.77C99.4,174.93,99.26,174.79,99,174.79Zm10.25,2.9V175c0-.3-.34-.45-1-.45a4.32,4.32,0,0,0-2.19.66,7.36,7.36,0,0,0-2,1.84c-.1.1-.17.14-.23.14s-.14-.07-.14-.22v-1.72q0-.42-.39-.42h-2.73q-.39,0-.39.48v13.91a.45.45,0,0,0,.5.51h2.51c.43,0,.64-.19.64-.56v-8.6a2,2,0,0,1,.52-1.31,4.12,4.12,0,0,1,1.32-1,3.54,3.54,0,0,1,1.53-.39,7.32,7.32,0,0,1,1.75.2C109.1,178.06,109.22,178,109.22,177.69Zm13.66.62a8.63,8.63,0,0,1,.92,4,8.16,8.16,0,0,1-.94,4,6.91,6.91,0,0,1-2.63,2.73,8.09,8.09,0,0,1-7.7,0,6.74,6.74,0,0,1-2.61-2.71,8.27,8.27,0,0,1-.93-4,8.47,8.47,0,0,1,1-4.07,6.76,6.76,0,0,1,2.64-2.76,7.89,7.89,0,0,1,7.67,0A6.79,6.79,0,0,1,122.88,178.31Zm-2.79,4a6.89,6.89,0,0,0-1-3.93,3.4,3.4,0,0,0-5.47,0,6.73,6.73,0,0,0-1,3.93,6.56,6.56,0,0,0,1,3.88,3.18,3.18,0,0,0,2.74,1.35,3.13,3.13,0,0,0,2.74-1.35A6.72,6.72,0,0,0,120.09,182.27Zm18.4-13.41H135.7q-.42,0-.42.48l0,5.48h-5c-.2,0-.31-.09-.31-.28v-1.4a2.1,2.1,0,0,1,.38-1.31,1.33,1.33,0,0,1,1.11-.49h1.66a.41.41,0,0,0,.3-.11.46.46,0,0,0,.1-.29l0-1.57q0-.51-.54-.51h-2.67a3.91,3.91,0,0,0-2.86,1,3.67,3.67,0,0,0-1,2.78v1.83q0,.36-.3.36H124q-.45,0-.45.42V177q0,.36.42.36h2.28c.13,0,.19.09.19.25v11.64c0,.3.14.45.4.45h2.84q.42,0,.42-.48V177.66a.24.24,0,0,1,.28-.28h4.92l-.05,11.83a.51.51,0,0,0,.13.4.65.65,0,0,0,.43.11h2.47a.73.73,0,0,0,.51-.13.67.67,0,0,0,.14-.49V169.31Q138.88,168.86,138.49,168.86Zm15.65,9.45a8.51,8.51,0,0,1,.93,4,8.27,8.27,0,0,1-.94,4A7,7,0,0,1,151.5,189a8.09,8.09,0,0,1-7.7,0,6.7,6.7,0,0,1-2.62-2.71,8.27,8.27,0,0,1-.93-4,8.47,8.47,0,0,1,1-4.07,6.89,6.89,0,0,1,2.64-2.76,7.91,7.91,0,0,1,7.68,0A6.84,6.84,0,0,1,154.14,178.31Zm-2.78,4a6.81,6.81,0,0,0-1-3.93,3.12,3.12,0,0,0-2.73-1.38,3.16,3.16,0,0,0-2.74,1.38,6.81,6.81,0,0,0-1,3.93,6.63,6.63,0,0,0,1,3.88,3.47,3.47,0,0,0,5.49,0A6.8,6.8,0,0,0,151.36,182.27ZM175.81,175a.4.4,0,0,0-.34-.17h-1.8a.55.55,0,0,0-.35.12.49.49,0,0,0-.21.28l-2.73,9c0,.21-.12.31-.2.31s-.14-.09-.19-.28l-2.78-9a.55.55,0,0,0-.54-.42h-2a.54.54,0,0,0-.54.4l-2.72,9c-.06.21-.13.31-.23.31s-.07,0-.1-.08-.05-.12-.07-.2l-2.81-9a.43.43,0,0,0-.18-.3.6.6,0,0,0-.38-.12H154.9a.39.39,0,0,0-.31.12.35.35,0,0,0-.12.28.41.41,0,0,0,0,.19l4.5,13.83a.58.58,0,0,0,.64.48h2.08a.58.58,0,0,0,.38-.1.53.53,0,0,0,.19-.32l2.7-8.74c0-.17.12-.26.19-.26s.14.09.2.26l2.72,8.68a.67.67,0,0,0,.68.48h2a.54.54,0,0,0,.57-.42l4.49-13.91A.43.43,0,0,0,175.81,175Zm11.5,7.73a6.11,6.11,0,0,0-3.09-1.63l-3.35-.9a3.46,3.46,0,0,1-1.43-.66,1.17,1.17,0,0,1-.39-.86,1.51,1.51,0,0,1,.8-1.32,3.79,3.79,0,0,1,2-.5,4.58,4.58,0,0,1,2.08.45,4.14,4.14,0,0,1,1.47,1.2.4.4,0,0,0,.36.2l.2,0,1.74-.88a.25.25,0,0,0,.14-.22.82.82,0,0,0-.14-.37,5.38,5.38,0,0,0-2.28-1.89,8,8,0,0,0-3.54-.75,8.29,8.29,0,0,0-3.24.59,4.9,4.9,0,0,0-2.14,1.66,4.15,4.15,0,0,0-.74,2.45,3.52,3.52,0,0,0,1,2.58,6.4,6.4,0,0,0,3.14,1.52l2.86.67a4.52,4.52,0,0,1,1.7.72,1.25,1.25,0,0,1,.5,1,1.51,1.51,0,0,1-.92,1.36,4.89,4.89,0,0,1-2.34.49,5,5,0,0,1-2.52-.56,5.05,5.05,0,0,1-1.64-1.52.42.42,0,0,0-.26-.14.67.67,0,0,0-.33.12l-1.66.84a.33.33,0,0,0-.17.28,1,1,0,0,0,.11.31,5.32,5.32,0,0,0,2.47,2.23,9.18,9.18,0,0,0,4.08.86,9.47,9.47,0,0,0,3.36-.56,5.27,5.27,0,0,0,2.3-1.62,3.86,3.86,0,0,0,.83-2.49A3.8,3.8,0,0,0,187.31,182.72Z"/><path class="b" d="M174.63,50V61.38H161a11.38,11.38,0,0,0-11.33,10.25L149,78.28l-8.36-16.56a11.38,11.38,0,0,0-21.49,4L117.07,87l-9.65-19.31a11.39,11.39,0,0,0-21.51,4l-8.76,87.64H65.37V50Zm-6.88,69.43a11.39,11.39,0,0,1-21.49,4L138,107l-2.1,21.5a11.38,11.38,0,0,1-21.51,4L104.65,113,100,159.27h74.61V84.15h-3.35Z"/><path class="c" d="M161.43,73.23l13.2-.47V84.15h-3.35l-3.53,35.28a11.39,11.39,0,0,1-21.49,4L138,107l-2.1,21.5a11.38,11.38,0,0,1-21.51,4L104.65,113,100,159.27H97.59L102.18,96l17.94,33.57.15.27a4.91,4.91,0,0,0,9.21-2L133,78.41l21.92,40.66.05.09a1.7,1.7,0,0,0,1.38.89,1.71,1.71,0,0,0,1.83-1.59ZM161,61.38a11.38,11.38,0,0,0-11.33,10.25L149,78.28l-8.36-16.56a11.38,11.38,0,0,0-21.49,4L117.07,87l-9.65-19.31a11.39,11.39,0,0,0-21.51,4l-8.76,87.64h2.38L90.65,72.11l0-.36A6.56,6.56,0,0,1,98,66.07a6.64,6.64,0,0,1,5.11,3.74l18.63,39.93,5.41-43.22,0-.17a3.27,3.27,0,0,1,6.2-1l22.05,46.83,5-39.47v0a.47.47,0,0,1,.48-.41l13.65.48V61.38Z"/><path class="a" d="M160.5,72.69v0l-5,39.47L133.41,65.36a3.27,3.27,0,0,0-6.2,1l0,.17-5.41,43.22L103.15,69.81A6.64,6.64,0,0,0,98,66.07a6.56,6.56,0,0,0-7.34,5.68l0,.36L79.53,159.27H97.59L102.18,96l17.94,33.57.15.27a4.91,4.91,0,0,0,9.21-2L133,78.41l21.92,40.66.05.09a1.7,1.7,0,0,0,1.38.89,1.71,1.71,0,0,0,1.83-1.59l3.29-45.23,13.2-.47L161,72.28A.47.47,0,0,0,160.5,72.69Z"/></svg>