<svg xmlns="http://www.w3.org/2000/svg" viewBox="0 0 240 240"><defs><style>.a,.b{fill:#fff;}.b{opacity:0.5;}</style></defs><path class="a" d="M51.28,184.21H48.44a1.19,1.19,0,0,1-1.13-.59l-2.25-3.93a1.14,1.14,0,0,0-.35-.37,1.09,1.09,0,0,0-.56-.11h-.8v5H40.21V170.68h4.4a9.13,9.13,0,0,1,2.51.3,4.69,4.69,0,0,1,1.69.84,3.25,3.25,0,0,1,.95,1.27,4.18,4.18,0,0,1,.3,1.6,4.24,4.24,0,0,1-.18,1.25,3.85,3.85,0,0,1-.52,1.08,4,4,0,0,1-.85.89,4.69,4.69,0,0,1-1.17.64,2.46,2.46,0,0,1,.58.39,2.89,2.89,0,0,1,.48.56ZM44.61,177a3.17,3.17,0,0,0,1.09-.16,2,2,0,0,0,.74-.45,1.77,1.77,0,0,0,.42-.68,2.45,2.45,0,0,0,.13-.83,1.73,1.73,0,0,0-.58-1.39,2.69,2.69,0,0,0-1.8-.5H43.35v4Zm10.72-5.1a1.44,1.44,0,0,1-.14.65,1.76,1.76,0,0,1-.94.89,1.72,1.72,0,0,1-.68.13,1.59,1.59,0,0,1-.66-.13,1.7,1.7,0,0,1-.54-.36,1.78,1.78,0,0,1-.38-.53,1.57,1.57,0,0,1-.13-.65,1.65,1.65,0,0,1,.13-.66,1.83,1.83,0,0,1,.38-.54,1.7,1.7,0,0,1,.54-.36,1.59,1.59,0,0,1,.66-.13,1.72,1.72,0,0,1,.68.13,1.8,1.8,0,0,1,.56.36,1.83,1.83,0,0,1,.38.54A1.51,1.51,0,0,1,55.33,171.94ZM55,174.58v9.63H52.16v-9.63Zm11.68,2v4.78a.91.91,0,0,0,.16.56.55.55,0,0,0,.47.21,1,1,0,0,0,.26,0l.19-.07.15-.08a.38.38,0,0,1,.16,0,.33.33,0,0,1,.21.06.64.64,0,0,1,.16.19l.87,1.37a4.18,4.18,0,0,1-1.25.62,4.92,4.92,0,0,1-1.44.21,3.23,3.23,0,0,1-1.21-.2,2.46,2.46,0,0,1-.89-.56,2.5,2.5,0,0,1-.54-.89,3.57,3.57,0,0,1-.18-1.16v-5H60.41v7.64H57.53v-7.65l-.63-.13a1.37,1.37,0,0,1-.53-.23.58.58,0,0,1-.2-.47V174.6h1.36v-.55a4,4,0,0,1,.26-1.5,3.17,3.17,0,0,1,2-1.87,4.52,4.52,0,0,1,1.62-.26,4.36,4.36,0,0,1,.65,0,4.9,4.9,0,0,1,.62.13l0,1.41a.43.43,0,0,1-.08.24.44.44,0,0,1-.17.16.85.85,0,0,1-.22.09l-.25,0a2.7,2.7,0,0,0-.67.07,1.06,1.06,0,0,0-.5.27,1.08,1.08,0,0,0-.3.5,2.44,2.44,0,0,0-.11.78v.46H64l.58-2.37a.57.57,0,0,1,.63-.45h1.51v2.82H69.1v2Zm20.47-5.89-5.42,13.53H78.92L73.5,170.68H76a1,1,0,0,1,.66.19,1.18,1.18,0,0,1,.39.49l2.62,7.24c.12.32.24.66.36,1s.23.76.33,1.17c.09-.41.19-.8.29-1.17s.23-.72.35-1l2.61-7.24a1,1,0,0,1,.36-.47,1,1,0,0,1,.66-.21Zm-.33,5.24a5.83,5.83,0,0,1,1.94-1.15,6.82,6.82,0,0,1,2.28-.38,4.19,4.19,0,0,1,1.58.29,3.49,3.49,0,0,1,1.19.79,3.33,3.33,0,0,1,.74,1.2,4.15,4.15,0,0,1,.26,1.52v6H93.53a1.25,1.25,0,0,1-.61-.11.83.83,0,0,1-.35-.46l-.21-.53q-.36.3-.69.54a5.38,5.38,0,0,1-.7.39,3.07,3.07,0,0,1-.76.24,4.09,4.09,0,0,1-.89.08,3.78,3.78,0,0,1-1.2-.17,2.36,2.36,0,0,1-.92-.51,2.26,2.26,0,0,1-.58-.83,3.09,3.09,0,0,1-.2-1.14,2.33,2.33,0,0,1,.26-1.06,2.57,2.57,0,0,1,.9-1,5.87,5.87,0,0,1,1.73-.73,11.72,11.72,0,0,1,2.74-.34v-.41A1.78,1.78,0,0,0,91.7,177a1.28,1.28,0,0,0-1-.37,2.52,2.52,0,0,0-.84.11,3.07,3.07,0,0,0-.58.25l-.49.25a1.46,1.46,0,0,1-.58.11.8.8,0,0,1-.5-.15,1.41,1.41,0,0,1-.34-.35Zm5.19,4.37a10.88,10.88,0,0,0-1.42.15,3.91,3.91,0,0,0-.89.28,1.16,1.16,0,0,0-.45.38.94.94,0,0,0-.12.47.82.82,0,0,0,.27.69,1.33,1.33,0,0,0,.79.2,2.27,2.27,0,0,0,1-.2,3.05,3.05,0,0,0,.85-.63Zm7.5-10v13.91H96.67V170.3Zm4.75,0v13.91h-2.88V170.3Zm4.26,9.61a2.71,2.71,0,0,0,.73,1.75,2.17,2.17,0,0,0,1.54.55,2.75,2.75,0,0,0,.86-.12,3.85,3.85,0,0,0,.64-.27l.53-.27a1,1,0,0,1,.49-.12.59.59,0,0,1,.52.25l.84,1a4.33,4.33,0,0,1-1,.83,5.33,5.33,0,0,1-2.15.75,7.57,7.57,0,0,1-1,.07,5.37,5.37,0,0,1-1.89-.33,4.3,4.3,0,0,1-1.56-1,4.68,4.68,0,0,1-1-1.61,6.24,6.24,0,0,1-.38-2.25,5,5,0,0,1,.33-1.83,4.44,4.44,0,0,1,.95-1.52,4.67,4.67,0,0,1,1.49-1,5,5,0,0,1,2-.38,5,5,0,0,1,1.76.3,3.76,3.76,0,0,1,1.36.86,3.91,3.91,0,0,1,.89,1.39,5,5,0,0,1,.32,1.86,4,4,0,0,1,0,.53.85.85,0,0,1-.11.33.42.42,0,0,1-.2.17,1,1,0,0,1-.32,0Zm3.62-1.67a2.52,2.52,0,0,0-.09-.67,1.65,1.65,0,0,0-.28-.58,1.45,1.45,0,0,0-.53-.41,2,2,0,0,0-2.07.31,2.36,2.36,0,0,0-.61,1.35ZM125,174.58l-5.15,12.13a.8.8,0,0,1-.91.56h-2.16l1.86-3.9-3.84-8.79h2.54a.79.79,0,0,1,.52.15.81.81,0,0,1,.26.35l1.58,4.15a7.91,7.91,0,0,1,.36,1.17l.21-.6.21-.58,1.43-4.14a.83.83,0,0,1,.77-.5Zm8.7,9.63h-3.15V170.68h3.15Zm4.87-8.59c.19-.17.38-.33.58-.48a3.18,3.18,0,0,1,.64-.38,3.91,3.91,0,0,1,.73-.24,3.85,3.85,0,0,1,.86-.09,3.43,3.43,0,0,1,1.4.27,2.9,2.9,0,0,1,1,.77,3.34,3.34,0,0,1,.64,1.16,4.86,4.86,0,0,1,.21,1.46v6.12h-2.88v-6.12a1.72,1.72,0,0,0-.32-1.1,1.19,1.19,0,0,0-1-.39,2.06,2.06,0,0,0-.89.19,3.69,3.69,0,0,0-.8.55v6.87h-2.88v-9.63h1.78a.68.68,0,0,1,.71.48Zm14,1.07a.64.64,0,0,1-.24.25.61.61,0,0,1-.32.07,1.24,1.24,0,0,1-.41-.08l-.44-.2c-.16-.06-.33-.13-.53-.19a2.82,2.82,0,0,0-.68-.08,1.49,1.49,0,0,0-.84.2.67.67,0,0,0-.29.59.56.56,0,0,0,.19.44,1.59,1.59,0,0,0,.5.31,6.55,6.55,0,0,0,.72.26l.82.27a6.39,6.39,0,0,1,.81.35,2.78,2.78,0,0,1,.72.49,2.19,2.19,0,0,1,.51.71,2.51,2.51,0,0,1,.19,1,3.34,3.34,0,0,1-.26,1.32,2.94,2.94,0,0,1-.78,1,3.67,3.67,0,0,1-1.27.68,5.83,5.83,0,0,1-1.75.24,5.5,5.5,0,0,1-1-.09,7,7,0,0,1-.95-.25,5.08,5.08,0,0,1-.85-.38,3.17,3.17,0,0,1-.67-.47l.67-1.06a.86.86,0,0,1,.28-.29.92.92,0,0,1,.89,0l.43.24a6,6,0,0,0,.55.24,2.48,2.48,0,0,0,.78.11,1.85,1.85,0,0,0,.57-.07,1,1,0,0,0,.37-.19.9.9,0,0,0,.21-.27.81.81,0,0,0,.06-.31.61.61,0,0,0-.19-.47,1.78,1.78,0,0,0-.51-.32c-.22-.09-.46-.17-.72-.25l-.83-.27a5.32,5.32,0,0,1-.82-.35,2.91,2.91,0,0,1-.72-.53,2.56,2.56,0,0,1-.51-.79,2.88,2.88,0,0,1-.2-1.12,2.92,2.92,0,0,1,.24-1.17,2.8,2.8,0,0,1,.71-1,3.41,3.41,0,0,1,1.19-.66,5,5,0,0,1,1.67-.25,5.5,5.5,0,0,1,1,.09,6.18,6.18,0,0,1,.92.26,4.77,4.77,0,0,1,.78.4,3.87,3.87,0,0,1,.62.5Zm12.63,7.52h-2.88v-7.64h-4v4.78a.91.91,0,0,0,.16.56.55.55,0,0,0,.47.21,1,1,0,0,0,.26,0l.19-.07.15-.08a.38.38,0,0,1,.16,0,.33.33,0,0,1,.21.06.64.64,0,0,1,.16.19l.88,1.37a4.23,4.23,0,0,1-1.26.62,4.92,4.92,0,0,1-1.44.21,3.23,3.23,0,0,1-1.21-.2,2.33,2.33,0,0,1-.88-.56,2.52,2.52,0,0,1-.55-.89,3.57,3.57,0,0,1-.18-1.16v-5h-.82a.52.52,0,0,1-.38-.15A.51.51,0,0,1,154,176v-1.12l1.53-.31.57-2.34a.57.57,0,0,1,.63-.45h1.51v2.82h6.91Zm.4-12.28a1.58,1.58,0,0,1-.14.65,1.67,1.67,0,0,1-.94.89,1.77,1.77,0,0,1-.69.13,1.65,1.65,0,0,1-.66-.13,1.73,1.73,0,0,1-.54-.35,1.68,1.68,0,0,1-.37-.54,1.66,1.66,0,0,1,.37-1.84,2,2,0,0,1,.54-.37,1.85,1.85,0,0,1,.66-.13,1.74,1.74,0,0,1,1.25.5,1.6,1.6,0,0,1,.38.54A1.58,1.58,0,0,1,165.52,171.93Zm4.86,12.43a3.23,3.23,0,0,1-1.21-.2,2.46,2.46,0,0,1-.89-.56,2.37,2.37,0,0,1-.54-.89,3.57,3.57,0,0,1-.19-1.16v-5h-.81a.52.52,0,0,1-.38-.15.51.51,0,0,1-.16-.42v-1.12l1.53-.3.57-2.35a.57.57,0,0,1,.63-.45h1.5v2.82h2.39v2h-2.39v4.78a.91.91,0,0,0,.17.56.54.54,0,0,0,.47.21,1,1,0,0,0,.26,0l.19-.07.14-.08a.47.47,0,0,1,.17,0,.37.37,0,0,1,.21.06.83.83,0,0,1,.16.19l.87,1.37a4.18,4.18,0,0,1-1.25.62A5,5,0,0,1,170.38,184.36Zm12.16-9.78v9.63h-1.78a.68.68,0,0,1-.71-.48l-.17-.56a4.35,4.35,0,0,1-.57.49,3.14,3.14,0,0,1-.64.37,2.84,2.84,0,0,1-.73.24,3.91,3.91,0,0,1-.86.09,3.43,3.43,0,0,1-1.4-.27,2.82,2.82,0,0,1-1-.77,3.25,3.25,0,0,1-.63-1.16,4.88,4.88,0,0,1-.21-1.47v-6.11h2.88v6.11a1.73,1.73,0,0,0,.32,1.11,1.19,1.19,0,0,0,1,.39,2.07,2.07,0,0,0,.89-.2,3.88,3.88,0,0,0,.8-.54v-6.87Zm5.24,9.78a3.23,3.23,0,0,1-1.21-.2,2.46,2.46,0,0,1-.89-.56,2.5,2.5,0,0,1-.54-.89,3.57,3.57,0,0,1-.19-1.16v-5h-.81a.52.52,0,0,1-.38-.15.51.51,0,0,1-.16-.42v-1.12l1.53-.3.57-2.35a.57.57,0,0,1,.63-.45h1.5v2.82h2.39v2h-2.39v4.78a.91.91,0,0,0,.17.56.55.55,0,0,0,.47.21,1,1,0,0,0,.26,0l.19-.07.15-.08a.38.38,0,0,1,.16,0,.37.37,0,0,1,.21.06.83.83,0,0,1,.16.19l.87,1.37a4.18,4.18,0,0,1-1.25.62A5,5,0,0,1,187.78,184.36Zm5.8-4.45a2.72,2.72,0,0,0,.74,1.75,2.16,2.16,0,0,0,1.53.55,2.81,2.81,0,0,0,.87-.12,4.25,4.25,0,0,0,.64-.27l.52-.27a1.11,1.11,0,0,1,.5-.12.59.59,0,0,1,.52.25l.84,1a4.16,4.16,0,0,1-1,.83,5,5,0,0,1-1.05.5,5.52,5.52,0,0,1-1.09.25,7.57,7.57,0,0,1-1,.07,5.42,5.42,0,0,1-1.9-.33,4.26,4.26,0,0,1-1.55-1,4.68,4.68,0,0,1-1-1.61,6,6,0,0,1-.39-2.25,5,5,0,0,1,.33-1.83,4.43,4.43,0,0,1,2.45-2.55,5,5,0,0,1,2-.38,4.91,4.91,0,0,1,1.75.3,3.8,3.8,0,0,1,1.37.86,3.91,3.91,0,0,1,.89,1.39,5.18,5.18,0,0,1,.32,1.86,3.7,3.7,0,0,1,0,.53.72.72,0,0,1-.1.33.42.42,0,0,1-.2.17,1,1,0,0,1-.32,0Zm3.63-1.67a2.52,2.52,0,0,0-.09-.67,1.51,1.51,0,0,0-.29-.58,1.42,1.42,0,0,0-.52-.41,1.74,1.74,0,0,0-.79-.16,1.72,1.72,0,0,0-1.28.47,2.43,2.43,0,0,0-.62,1.35Z"/><path class="a" d="M120,52.73a51.52,51.52,0,1,0,51.52,51.52A51.52,51.52,0,0,0,120,52.73Zm0,100.89a49.37,49.37,0,1,1,49.37-49.37A49.37,49.37,0,0,1,120,153.62Zm11.48-79.05a1.08,1.08,0,1,1-1.07-1.07A1.07,1.07,0,0,1,131.48,74.57Zm1.31-1.07a1.08,1.08,0,1,0,1.07,1.07A1.07,1.07,0,0,0,132.79,73.5Zm-2.38,2.38A1.07,1.07,0,1,0,131.48,77,1.07,1.07,0,0,0,130.41,75.88Zm2.38,0A1.07,1.07,0,1,0,133.86,77,1.07,1.07,0,0,0,132.79,75.88Zm2.37,0A1.07,1.07,0,1,0,136.24,77,1.07,1.07,0,0,0,135.16,75.88Zm-4.75,2.38a1.07,1.07,0,1,0,1.07,1.07A1.07,1.07,0,0,0,130.41,78.26Zm2.38,0a1.07,1.07,0,1,0,1.07,1.07A1.07,1.07,0,0,0,132.79,78.26Zm2.37,0a1.07,1.07,0,1,0,1.08,1.07A1.07,1.07,0,0,0,135.16,78.26Zm2.38,0a1.07,1.07,0,1,0,1.08,1.07A1.07,1.07,0,0,0,137.54,78.26Zm-7.13,2.37a1.08,1.08,0,1,0,1.07,1.08A1.08,1.08,0,0,0,130.41,80.63Zm2.38,0a1.08,1.08,0,1,0,1.07,1.08A1.08,1.08,0,0,0,132.79,80.63Zm2.37,0a1.08,1.08,0,1,0,1.08,1.08A1.08,1.08,0,0,0,135.16,80.63Zm2.38,0a1.08,1.08,0,1,0,1.08,1.08A1.08,1.08,0,0,0,137.54,80.63Zm2.38,0A1.08,1.08,0,1,0,141,81.71,1.08,1.08,0,0,0,139.92,80.63ZM130.41,83a1.08,1.08,0,1,0,1.07,1.08A1.08,1.08,0,0,0,130.41,83Zm2.38,0a1.08,1.08,0,1,0,1.07,1.08A1.08,1.08,0,0,0,132.79,83Zm2.37,0a1.08,1.08,0,1,0,1.08,1.08A1.07,1.07,0,0,0,135.16,83Zm2.38,0a1.08,1.08,0,1,0,1.08,1.08A1.07,1.07,0,0,0,137.54,83Zm2.38,0A1.08,1.08,0,1,0,141,84.09,1.07,1.07,0,0,0,139.92,83Zm2.38,0a1.08,1.08,0,1,0,1.07,1.08A1.07,1.07,0,0,0,142.3,83Zm-11.89,2.38a1.08,1.08,0,1,0,1.07,1.08A1.08,1.08,0,0,0,130.41,85.39Zm2.38,0a1.08,1.08,0,1,0,1.07,1.08A1.08,1.08,0,0,0,132.79,85.39Zm2.37,0a1.08,1.08,0,1,0,1.08,1.08A1.07,1.07,0,0,0,135.16,85.39Zm2.38,0a1.08,1.08,0,1,0,1.08,1.08A1.07,1.07,0,0,0,137.54,85.39Zm2.38,0A1.08,1.08,0,1,0,141,86.47,1.07,1.07,0,0,0,139.92,85.39Zm2.38,0a1.08,1.08,0,1,0,1.07,1.08A1.07,1.07,0,0,0,142.3,85.39Zm2.38,0a1.08,1.08,0,1,0,1.07,1.08A1.08,1.08,0,0,0,144.68,85.39Zm-14.27,2.38a1.08,1.08,0,1,0,1.07,1.07A1.07,1.07,0,0,0,130.41,87.77Zm2.38,0a1.08,1.08,0,1,0,1.07,1.07A1.07,1.07,0,0,0,132.79,87.77Zm2.37,0a1.08,1.08,0,1,0,1.08,1.07A1.07,1.07,0,0,0,135.16,87.77Zm2.38,0a1.08,1.08,0,1,0,1.08,1.07A1.07,1.07,0,0,0,137.54,87.77Zm2.38,0A1.08,1.08,0,1,0,141,88.84,1.07,1.07,0,0,0,139.92,87.77Zm2.38,0a1.08,1.08,0,1,0,1.07,1.07A1.07,1.07,0,0,0,142.3,87.77Zm2.38,0a1.08,1.08,0,1,0,1.07,1.07A1.07,1.07,0,0,0,144.68,87.77Zm-14.27,2.38a1.08,1.08,0,1,0,1.07,1.07A1.07,1.07,0,0,0,130.41,90.15Zm2.38,0a1.08,1.08,0,1,0,1.07,1.07A1.07,1.07,0,0,0,132.79,90.15Zm2.37,0a1.08,1.08,0,1,0,1.08,1.07A1.07,1.07,0,0,0,135.16,90.15Zm2.38,0a1.08,1.08,0,1,0,1.08,1.07A1.07,1.07,0,0,0,137.54,90.15Zm2.38,0A1.08,1.08,0,1,0,141,91.22,1.07,1.07,0,0,0,139.92,90.15Zm2.38,0a1.08,1.08,0,1,0,1.07,1.07A1.07,1.07,0,0,0,142.3,90.15Zm2.38,0a1.08,1.08,0,1,0,1.07,1.07A1.07,1.07,0,0,0,144.68,90.15Zm2.38,0a1.08,1.08,0,1,0,1.07,1.07A1.07,1.07,0,0,0,147.06,90.15Zm2.38,0a1.08,1.08,0,1,0,1.07,1.07A1.07,1.07,0,0,0,149.44,90.15Zm2.37,0a1.08,1.08,0,1,0,1.08,1.07A1.07,1.07,0,0,0,151.81,90.15Zm2.38,0a1.08,1.08,0,1,0,1.08,1.07A1.07,1.07,0,0,0,154.19,90.15Zm-23.78,2.38a1.07,1.07,0,1,0,1.07,1.07A1.07,1.07,0,0,0,130.41,92.53Zm2.38,0a1.07,1.07,0,1,0,1.07,1.07A1.07,1.07,0,0,0,132.79,92.53Zm2.37,0a1.07,1.07,0,1,0,1.08,1.07A1.07,1.07,0,0,0,135.16,92.53Zm2.38,0a1.07,1.07,0,1,0,1.08,1.07A1.07,1.07,0,0,0,137.54,92.53Zm2.38,0A1.07,1.07,0,1,0,141,93.6,1.07,1.07,0,0,0,139.92,92.53Zm2.38,0a1.07,1.07,0,1,0,1.07,1.07A1.07,1.07,0,0,0,142.3,92.53Zm2.38,0a1.07,1.07,0,1,0,1.07,1.07A1.07,1.07,0,0,0,144.68,92.53Zm2.38,0a1.07,1.07,0,1,0,1.07,1.07A1.07,1.07,0,0,0,147.06,92.53Zm2.38,0a1.07,1.07,0,1,0,1.07,1.07A1.07,1.07,0,0,0,149.44,92.53Zm2.37,0a1.07,1.07,0,1,0,1.08,1.07A1.07,1.07,0,0,0,151.81,92.53Zm-21.4,2.38A1.07,1.07,0,1,0,131.48,96,1.07,1.07,0,0,0,130.41,94.91Zm2.38,0A1.07,1.07,0,1,0,133.86,96,1.07,1.07,0,0,0,132.79,94.91Zm2.37,0A1.07,1.07,0,1,0,136.24,96,1.07,1.07,0,0,0,135.16,94.91Zm2.38,0A1.07,1.07,0,1,0,138.62,96,1.07,1.07,0,0,0,137.54,94.91Zm2.38,0A1.07,1.07,0,1,0,141,96,1.07,1.07,0,0,0,139.92,94.91Zm2.38,0A1.07,1.07,0,1,0,143.37,96,1.07,1.07,0,0,0,142.3,94.91Zm2.38,0A1.07,1.07,0,1,0,145.75,96,1.07,1.07,0,0,0,144.68,94.91Zm2.38,0A1.07,1.07,0,1,0,148.13,96,1.07,1.07,0,0,0,147.06,94.91Zm2.38,0A1.07,1.07,0,1,0,150.51,96,1.07,1.07,0,0,0,149.44,94.91Zm-19,2.38a1.07,1.07,0,1,0,1.07,1.07A1.07,1.07,0,0,0,130.41,97.29Zm2.38,0a1.07,1.07,0,1,0,1.07,1.07A1.07,1.07,0,0,0,132.79,97.29Zm2.37,0a1.07,1.07,0,1,0,1.08,1.07A1.07,1.07,0,0,0,135.16,97.29Zm2.38,0a1.07,1.07,0,1,0,1.08,1.07A1.07,1.07,0,0,0,137.54,97.29Zm2.38,0A1.07,1.07,0,1,0,141,98.36,1.07,1.07,0,0,0,139.92,97.29Zm2.38,0a1.07,1.07,0,1,0,1.07,1.07A1.07,1.07,0,0,0,142.3,97.29Zm2.38,0a1.07,1.07,0,1,0,1.07,1.07A1.07,1.07,0,0,0,144.68,97.29Zm2.38,0a1.07,1.07,0,1,0,1.07,1.07A1.07,1.07,0,0,0,147.06,97.29Zm2.38,0a1.07,1.07,0,1,0,1.07,1.07A1.07,1.07,0,0,0,149.44,97.29Zm-19,2.37a1.08,1.08,0,1,0,1.07,1.08A1.08,1.08,0,0,0,130.41,99.66Zm2.38,0a1.08,1.08,0,1,0,1.07,1.08A1.08,1.08,0,0,0,132.79,99.66Zm2.37,0a1.08,1.08,0,1,0,1.08,1.08A1.07,1.07,0,0,0,135.16,99.66Zm2.38,0a1.08,1.08,0,1,0,1.08,1.08A1.07,1.07,0,0,0,137.54,99.66Zm2.38,0a1.08,1.08,0,1,0,1.07,1.08A1.07,1.07,0,0,0,139.92,99.66Zm2.38,0a1.08,1.08,0,1,0,1.07,1.08A1.07,1.07,0,0,0,142.3,99.66Zm2.38,0a1.08,1.08,0,1,0,1.07,1.08A1.07,1.07,0,0,0,144.68,99.66Zm2.38,0a1.08,1.08,0,1,0,1.07,1.08A1.08,1.08,0,0,0,147.06,99.66ZM130.41,102a1.08,1.08,0,1,0,1.07,1.08A1.08,1.08,0,0,0,130.41,102Zm2.38,0a1.08,1.08,0,1,0,1.07,1.08A1.08,1.08,0,0,0,132.79,102Zm2.37,0a1.08,1.08,0,1,0,1.08,1.08A1.07,1.07,0,0,0,135.16,102Zm2.38,0a1.08,1.08,0,1,0,1.08,1.08A1.07,1.07,0,0,0,137.54,102Zm2.38,0a1.08,1.08,0,1,0,1.07,1.08A1.07,1.07,0,0,0,139.92,102Zm2.38,0a1.08,1.08,0,1,0,1.07,1.08A1.07,1.07,0,0,0,142.3,102Zm2.38,0a1.08,1.08,0,1,0,1.07,1.08A1.07,1.07,0,0,0,144.68,102Zm2.38,0a1.08,1.08,0,1,0,1.07,1.08A1.08,1.08,0,0,0,147.06,102Zm-16.65,2.38a1.08,1.08,0,1,0,1.07,1.07A1.07,1.07,0,0,0,130.41,104.42Zm2.38,0a1.08,1.08,0,1,0,1.07,1.07A1.07,1.07,0,0,0,132.79,104.42Zm2.37,0a1.08,1.08,0,1,0,1.08,1.07A1.07,1.07,0,0,0,135.16,104.42Zm2.38,0a1.08,1.08,0,1,0,1.08,1.07A1.07,1.07,0,0,0,137.54,104.42Zm2.38,0a1.08,1.08,0,1,0,1.07,1.07A1.07,1.07,0,0,0,139.92,104.42Zm2.38,0a1.08,1.08,0,1,0,1.07,1.07A1.07,1.07,0,0,0,142.3,104.42Zm2.38,0a1.08,1.08,0,1,0,1.07,1.07A1.07,1.07,0,0,0,144.68,104.42Zm-14.27,2.38a1.08,1.08,0,1,0,1.07,1.07A1.07,1.07,0,0,0,130.41,106.8Zm2.38,0a1.08,1.08,0,1,0,1.07,1.07A1.07,1.07,0,0,0,132.79,106.8Zm2.37,0a1.08,1.08,0,1,0,1.08,1.07A1.07,1.07,0,0,0,135.16,106.8Zm2.38,0a1.08,1.08,0,1,0,1.08,1.07A1.07,1.07,0,0,0,137.54,106.8Zm2.38,0a1.08,1.08,0,1,0,1.07,1.07A1.07,1.07,0,0,0,139.92,106.8Zm-9.51,2.38a1.08,1.08,0,1,0,1.07,1.07A1.07,1.07,0,0,0,130.41,109.18Zm2.38,0a1.08,1.08,0,1,0,1.07,1.07A1.07,1.07,0,0,0,132.79,109.18Zm2.37,0a1.08,1.08,0,1,0,1.08,1.07A1.07,1.07,0,0,0,135.16,109.18Zm2.38,0a1.08,1.08,0,1,0,1.08,1.07A1.07,1.07,0,0,0,137.54,109.18Zm2.38,0a1.08,1.08,0,1,0,1.07,1.07A1.07,1.07,0,0,0,139.92,109.18Zm-9.51,2.38a1.07,1.07,0,1,0,1.07,1.07A1.07,1.07,0,0,0,130.41,111.56Zm2.38,0a1.07,1.07,0,1,0,1.07,1.07A1.07,1.07,0,0,0,132.79,111.56Zm2.37,0a1.07,1.07,0,1,0,1.08,1.07A1.07,1.07,0,0,0,135.16,111.56Zm2.38,0a1.07,1.07,0,1,0,1.08,1.07A1.07,1.07,0,0,0,137.54,111.56Zm2.38,0a1.07,1.07,0,1,0,1.07,1.07A1.07,1.07,0,0,0,139.92,111.56Zm-9.51,2.38a1.07,1.07,0,1,0,1.07,1.07A1.07,1.07,0,0,0,130.41,113.94Zm2.38,0a1.07,1.07,0,1,0,1.07,1.07A1.07,1.07,0,0,0,132.79,113.94Zm2.37,0a1.07,1.07,0,1,0,1.08,1.07A1.07,1.07,0,0,0,135.16,113.94Zm2.38,0a1.07,1.07,0,1,0,1.08,1.07A1.07,1.07,0,0,0,137.54,113.94Zm2.38,0A1.07,1.07,0,1,0,141,115,1.07,1.07,0,0,0,139.92,113.94Zm-9.51,2.37a1.08,1.08,0,1,0,1.07,1.08A1.08,1.08,0,0,0,130.41,116.31Zm2.38,0a1.08,1.08,0,1,0,1.07,1.08A1.08,1.08,0,0,0,132.79,116.31Zm2.37,0a1.08,1.08,0,1,0,1.08,1.08A1.08,1.08,0,0,0,135.16,116.31Zm2.38,0a1.08,1.08,0,1,0,1.08,1.08A1.08,1.08,0,0,0,137.54,116.31Zm2.38,0a1.08,1.08,0,1,0,1.07,1.08A1.08,1.08,0,0,0,139.92,116.31Zm-9.51,2.38a1.08,1.08,0,1,0,1.07,1.08A1.08,1.08,0,0,0,130.41,118.69Zm2.38,0a1.08,1.08,0,1,0,1.07,1.08A1.08,1.08,0,0,0,132.79,118.69Zm2.37,0a1.08,1.08,0,1,0,1.08,1.08A1.07,1.07,0,0,0,135.16,118.69Zm2.38,0a1.08,1.08,0,1,0,1.08,1.08A1.07,1.07,0,0,0,137.54,118.69Zm2.38,0a1.08,1.08,0,1,0,1.07,1.08A1.07,1.07,0,0,0,139.92,118.69Zm2.38,0a1.08,1.08,0,1,0,1.07,1.08A1.07,1.07,0,0,0,142.3,118.69Zm7.14,0a1.08,1.08,0,1,0,1.07,1.08A1.08,1.08,0,0,0,149.44,118.69Zm-19,2.38a1.08,1.08,0,1,0,1.07,1.08A1.08,1.08,0,0,0,130.41,121.07Zm2.38,0a1.08,1.08,0,1,0,1.07,1.08A1.08,1.08,0,0,0,132.79,121.07Zm2.37,0a1.08,1.08,0,1,0,1.08,1.08A1.07,1.07,0,0,0,135.16,121.07Zm2.38,0a1.08,1.08,0,1,0,1.08,1.08A1.07,1.07,0,0,0,137.54,121.07Zm2.38,0a1.08,1.08,0,1,0,1.07,1.08A1.07,1.07,0,0,0,139.92,121.07Zm7.14,0a1.08,1.08,0,1,0,1.07,1.08A1.08,1.08,0,0,0,147.06,121.07Zm2.38,0a1.08,1.08,0,1,0,1.07,1.08A1.08,1.08,0,0,0,149.44,121.07Zm-19,2.38a1.08,1.08,0,1,0,1.07,1.07A1.07,1.07,0,0,0,130.41,123.45Zm2.38,0a1.08,1.08,0,1,0,1.07,1.07A1.07,1.07,0,0,0,132.79,123.45Zm2.37,0a1.08,1.08,0,1,0,1.08,1.07A1.07,1.07,0,0,0,135.16,123.45Zm2.38,0a1.08,1.08,0,1,0,1.08,1.07A1.07,1.07,0,0,0,137.54,123.45Zm2.38,0a1.08,1.08,0,1,0,1.08,1.07A1.07,1.07,0,0,0,139.92,123.45Zm7.14,0a1.08,1.08,0,1,0,1.07,1.07A1.07,1.07,0,0,0,147.06,123.45Zm2.38,0a1.08,1.08,0,1,0,1.07,1.07A1.07,1.07,0,0,0,149.44,123.45Zm-19,2.38a1.08,1.08,0,1,0,1.07,1.07A1.07,1.07,0,0,0,130.41,125.83Zm2.38,0a1.08,1.08,0,1,0,1.07,1.07A1.07,1.07,0,0,0,132.79,125.83Zm2.37,0a1.08,1.08,0,1,0,1.08,1.07A1.07,1.07,0,0,0,135.16,125.83Zm9.52,0a1.08,1.08,0,1,0,1.07,1.07A1.07,1.07,0,0,0,144.68,125.83Zm2.38,0a1.08,1.08,0,1,0,1.07,1.07A1.07,1.07,0,0,0,147.06,125.83Zm-16.65,2.38a1.07,1.07,0,1,0,1.07,1.07A1.07,1.07,0,0,0,130.41,128.21Zm2.38,0a1.07,1.07,0,1,0,1.07,1.07A1.07,1.07,0,0,0,132.79,128.21Zm2.37,0a1.07,1.07,0,1,0,1.08,1.07A1.07,1.07,0,0,0,135.16,128.21Zm9.52,0a1.07,1.07,0,1,0,1.07,1.07A1.07,1.07,0,0,0,144.68,128.21Zm2.38,0a1.07,1.07,0,1,0,1.07,1.07A1.07,1.07,0,0,0,147.06,128.21Zm-16.65,2.38a1.07,1.07,0,1,0,1.07,1.07A1.07,1.07,0,0,0,130.41,130.59Zm2.38,0a1.07,1.07,0,1,0,1.07,1.07A1.07,1.07,0,0,0,132.79,130.59ZM130.41,133a1.07,1.07,0,1,0,1.07,1.07A1.07,1.07,0,0,0,130.41,133Zm2.38,0a1.07,1.07,0,1,0,1.07,1.07A1.07,1.07,0,0,0,132.79,133Zm-2.38,2.37a1.08,1.08,0,1,0,1.07,1.08A1.08,1.08,0,0,0,130.41,135.34Zm2.38,0a1.08,1.08,0,1,0,1.07,1.08A1.08,1.08,0,0,0,132.79,135.34Z"/><path class="b" d="M102.94,69.81a1.08,1.08,0,1,1-1.08-1.07A1.08,1.08,0,0,1,102.94,69.81Zm1.3-1.07a1.08,1.08,0,1,0,1.08,1.07A1.07,1.07,0,0,0,104.24,68.74Zm2.38,0a1.08,1.08,0,1,0,1.07,1.07A1.07,1.07,0,0,0,106.62,68.74Zm2.38,0a1.08,1.08,0,1,0,1.07,1.07A1.07,1.07,0,0,0,109,68.74Zm2.38,0a1.08,1.08,0,1,0,1.07,1.07A1.07,1.07,0,0,0,111.38,68.74Zm2.38,0a1.08,1.08,0,1,0,1.07,1.07A1.07,1.07,0,0,0,113.76,68.74ZM97.11,71.12a1.08,1.08,0,1,0,1.07,1.07A1.07,1.07,0,0,0,97.11,71.12Zm2.37,0a1.08,1.08,0,1,0,1.08,1.07A1.07,1.07,0,0,0,99.48,71.12Zm2.38,0a1.08,1.08,0,1,0,1.08,1.07A1.07,1.07,0,0,0,101.86,71.12Zm2.38,0a1.08,1.08,0,1,0,1.08,1.07A1.07,1.07,0,0,0,104.24,71.12Zm2.38,0a1.08,1.08,0,1,0,1.07,1.07A1.07,1.07,0,0,0,106.62,71.12Zm2.38,0a1.08,1.08,0,1,0,1.07,1.07A1.07,1.07,0,0,0,109,71.12Zm2.38,0a1.08,1.08,0,1,0,1.07,1.07A1.07,1.07,0,0,0,111.38,71.12Zm2.38,0a1.08,1.08,0,1,0,1.07,1.07A1.07,1.07,0,0,0,113.76,71.12Zm2.37,0a1.08,1.08,0,1,0,1.08,1.07A1.07,1.07,0,0,0,116.13,71.12Zm2.38,0a1.08,1.08,0,1,0,1.08,1.07A1.07,1.07,0,0,0,118.51,71.12Zm2.38,0A1.08,1.08,0,1,0,122,72.19,1.07,1.07,0,0,0,120.89,71.12Zm2.38,0a1.08,1.08,0,1,0,1.07,1.07A1.07,1.07,0,0,0,123.27,71.12ZM97.11,73.5a1.08,1.08,0,1,0,1.07,1.07A1.07,1.07,0,0,0,97.11,73.5Zm2.37,0a1.08,1.08,0,1,0,1.08,1.07A1.07,1.07,0,0,0,99.48,73.5Zm2.38,0a1.08,1.08,0,1,0,1.08,1.07A1.07,1.07,0,0,0,101.86,73.5Zm2.38,0a1.08,1.08,0,1,0,1.08,1.07A1.07,1.07,0,0,0,104.24,73.5Zm2.38,0a1.08,1.08,0,1,0,1.07,1.07A1.07,1.07,0,0,0,106.62,73.5Zm2.38,0a1.08,1.08,0,1,0,1.07,1.07A1.07,1.07,0,0,0,109,73.5Zm2.38,0a1.08,1.08,0,1,0,1.07,1.07A1.07,1.07,0,0,0,111.38,73.5Zm2.38,0a1.08,1.08,0,1,0,1.07,1.07A1.07,1.07,0,0,0,113.76,73.5Zm2.37,0a1.08,1.08,0,1,0,1.08,1.07A1.07,1.07,0,0,0,116.13,73.5Zm2.38,0a1.08,1.08,0,1,0,1.08,1.07A1.07,1.07,0,0,0,118.51,73.5Zm2.38,0A1.08,1.08,0,1,0,122,74.57,1.07,1.07,0,0,0,120.89,73.5Zm2.38,0a1.08,1.08,0,1,0,1.07,1.07A1.07,1.07,0,0,0,123.27,73.5Zm2.38,0a1.08,1.08,0,1,0,1.07,1.07A1.07,1.07,0,0,0,125.65,73.5Zm2.38,0a1.08,1.08,0,1,0,1.07,1.07A1.08,1.08,0,0,0,128,73.5ZM92.35,75.88A1.07,1.07,0,1,0,93.42,77,1.07,1.07,0,0,0,92.35,75.88Zm2.38,0A1.07,1.07,0,1,0,95.8,77,1.07,1.07,0,0,0,94.73,75.88Zm2.38,0A1.07,1.07,0,1,0,98.18,77,1.07,1.07,0,0,0,97.11,75.88Zm2.37,0A1.07,1.07,0,1,0,100.56,77,1.07,1.07,0,0,0,99.48,75.88Zm2.38,0A1.07,1.07,0,1,0,102.94,77,1.07,1.07,0,0,0,101.86,75.88Zm2.38,0A1.07,1.07,0,1,0,105.32,77,1.07,1.07,0,0,0,104.24,75.88Zm2.38,0A1.07,1.07,0,1,0,107.69,77,1.07,1.07,0,0,0,106.62,75.88Zm2.38,0A1.07,1.07,0,1,0,110.07,77,1.07,1.07,0,0,0,109,75.88Zm2.38,0A1.07,1.07,0,1,0,112.45,77,1.07,1.07,0,0,0,111.38,75.88Zm2.38,0A1.07,1.07,0,1,0,114.83,77,1.07,1.07,0,0,0,113.76,75.88Zm2.37,0A1.07,1.07,0,1,0,117.21,77,1.07,1.07,0,0,0,116.13,75.88Zm2.38,0A1.07,1.07,0,1,0,119.59,77,1.07,1.07,0,0,0,118.51,75.88Zm2.38,0A1.07,1.07,0,1,0,122,77,1.07,1.07,0,0,0,120.89,75.88Zm2.38,0A1.07,1.07,0,1,0,124.34,77,1.07,1.07,0,0,0,123.27,75.88Zm2.38,0A1.07,1.07,0,1,0,126.72,77,1.07,1.07,0,0,0,125.65,75.88Zm2.38,0A1.07,1.07,0,1,0,129.1,77,1.08,1.08,0,0,0,128,75.88ZM92.35,78.26a1.07,1.07,0,1,0,1.07,1.07A1.07,1.07,0,0,0,92.35,78.26Zm2.38,0a1.07,1.07,0,1,0,1.07,1.07A1.07,1.07,0,0,0,94.73,78.26Zm2.38,0a1.07,1.07,0,1,0,1.07,1.07A1.07,1.07,0,0,0,97.11,78.26Zm2.37,0a1.07,1.07,0,1,0,1.08,1.07A1.07,1.07,0,0,0,99.48,78.26Zm2.38,0a1.07,1.07,0,1,0,1.08,1.07A1.07,1.07,0,0,0,101.86,78.26Zm2.38,0a1.07,1.07,0,1,0,1.08,1.07A1.07,1.07,0,0,0,104.24,78.26Zm2.38,0a1.07,1.07,0,1,0,1.07,1.07A1.07,1.07,0,0,0,106.62,78.26Zm2.38,0a1.07,1.07,0,1,0,1.07,1.07A1.07,1.07,0,0,0,109,78.26Zm2.38,0a1.07,1.07,0,1,0,1.07,1.07A1.07,1.07,0,0,0,111.38,78.26Zm2.38,0a1.07,1.07,0,1,0,1.07,1.07A1.07,1.07,0,0,0,113.76,78.26Zm2.37,0a1.07,1.07,0,1,0,1.08,1.07A1.07,1.07,0,0,0,116.13,78.26Zm2.38,0a1.07,1.07,0,1,0,1.08,1.07A1.07,1.07,0,0,0,118.51,78.26Zm2.38,0A1.07,1.07,0,1,0,122,79.33,1.07,1.07,0,0,0,120.89,78.26Zm2.38,0a1.07,1.07,0,1,0,1.07,1.07A1.07,1.07,0,0,0,123.27,78.26Zm2.38,0a1.07,1.07,0,1,0,1.07,1.07A1.07,1.07,0,0,0,125.65,78.26Zm2.38,0a1.07,1.07,0,1,0,1.07,1.07A1.08,1.08,0,0,0,128,78.26ZM90,80.63A1.08,1.08,0,1,0,91,81.71,1.08,1.08,0,0,0,90,80.63Zm2.38,0a1.08,1.08,0,1,0,1.07,1.08A1.08,1.08,0,0,0,92.35,80.63Zm2.38,0a1.08,1.08,0,1,0,1.07,1.08A1.08,1.08,0,0,0,94.73,80.63Zm2.38,0a1.08,1.08,0,1,0,1.07,1.08A1.08,1.08,0,0,0,97.11,80.63Zm2.37,0a1.08,1.08,0,1,0,1.08,1.08A1.08,1.08,0,0,0,99.48,80.63Zm2.38,0a1.08,1.08,0,1,0,1.08,1.08A1.08,1.08,0,0,0,101.86,80.63Zm2.38,0a1.08,1.08,0,1,0,1.08,1.08A1.08,1.08,0,0,0,104.24,80.63Zm2.38,0a1.08,1.08,0,1,0,1.07,1.08A1.08,1.08,0,0,0,106.62,80.63Zm2.38,0a1.08,1.08,0,1,0,1.07,1.08A1.08,1.08,0,0,0,109,80.63Zm2.38,0a1.08,1.08,0,1,0,1.07,1.08A1.08,1.08,0,0,0,111.38,80.63Zm2.38,0a1.08,1.08,0,1,0,1.07,1.08A1.08,1.08,0,0,0,113.76,80.63Zm2.37,0a1.08,1.08,0,1,0,1.08,1.08A1.08,1.08,0,0,0,116.13,80.63Zm2.38,0a1.08,1.08,0,1,0,1.08,1.08A1.08,1.08,0,0,0,118.51,80.63Zm2.38,0A1.08,1.08,0,1,0,122,81.71,1.08,1.08,0,0,0,120.89,80.63Zm2.38,0a1.08,1.08,0,1,0,1.07,1.08A1.08,1.08,0,0,0,123.27,80.63Zm2.38,0a1.08,1.08,0,1,0,1.07,1.08A1.08,1.08,0,0,0,125.65,80.63Zm2.38,0a1.08,1.08,0,1,0,0,2.15,1.08,1.08,0,0,0,0-2.15ZM90,83A1.08,1.08,0,1,0,91,84.09,1.07,1.07,0,0,0,90,83Zm2.38,0a1.08,1.08,0,1,0,1.07,1.08A1.07,1.07,0,0,0,92.35,83Zm2.38,0a1.08,1.08,0,1,0,1.07,1.08A1.08,1.08,0,0,0,94.73,83Zm2.38,0a1.08,1.08,0,1,0,1.07,1.08A1.08,1.08,0,0,0,97.11,83Zm2.37,0a1.08,1.08,0,1,0,1.08,1.08A1.07,1.07,0,0,0,99.48,83Zm2.38,0a1.08,1.08,0,1,0,1.08,1.08A1.07,1.07,0,0,0,101.86,83Zm2.38,0a1.08,1.08,0,1,0,1.08,1.08A1.07,1.07,0,0,0,104.24,83Zm2.38,0a1.08,1.08,0,1,0,1.07,1.08A1.07,1.07,0,0,0,106.62,83ZM109,83a1.08,1.08,0,1,0,1.07,1.08A1.07,1.07,0,0,0,109,83Zm2.38,0a1.08,1.08,0,1,0,1.07,1.08A1.08,1.08,0,0,0,111.38,83Zm2.38,0a1.08,1.08,0,1,0,1.07,1.08A1.08,1.08,0,0,0,113.76,83Zm2.37,0a1.08,1.08,0,1,0,1.08,1.08A1.07,1.07,0,0,0,116.13,83Zm2.38,0a1.08,1.08,0,1,0,1.08,1.08A1.07,1.07,0,0,0,118.51,83Zm2.38,0A1.08,1.08,0,1,0,122,84.09,1.07,1.07,0,0,0,120.89,83Zm2.38,0a1.08,1.08,0,1,0,1.07,1.08A1.07,1.07,0,0,0,123.27,83Zm2.38,0a1.08,1.08,0,1,0,1.07,1.08A1.07,1.07,0,0,0,125.65,83ZM128,83a1.08,1.08,0,1,0,1.07,1.08A1.08,1.08,0,0,0,128,83ZM90,85.39A1.08,1.08,0,1,0,91,86.47,1.07,1.07,0,0,0,90,85.39Zm2.38,0a1.08,1.08,0,1,0,1.07,1.08A1.07,1.07,0,0,0,92.35,85.39Zm2.38,0a1.08,1.08,0,1,0,1.07,1.08A1.08,1.08,0,0,0,94.73,85.39Zm2.38,0a1.08,1.08,0,1,0,1.07,1.08A1.08,1.08,0,0,0,97.11,85.39Zm2.37,0a1.08,1.08,0,1,0,1.08,1.08A1.07,1.07,0,0,0,99.48,85.39Zm2.38,0a1.08,1.08,0,1,0,1.08,1.08A1.07,1.07,0,0,0,101.86,85.39Zm2.38,0a1.08,1.08,0,1,0,1.08,1.08A1.07,1.07,0,0,0,104.24,85.39Zm2.38,0a1.08,1.08,0,1,0,1.07,1.08A1.07,1.07,0,0,0,106.62,85.39Zm2.38,0a1.08,1.08,0,1,0,1.07,1.08A1.07,1.07,0,0,0,109,85.39Zm2.38,0a1.08,1.08,0,1,0,1.07,1.08A1.08,1.08,0,0,0,111.38,85.39Zm2.38,0a1.08,1.08,0,1,0,1.07,1.08A1.08,1.08,0,0,0,113.76,85.39Zm2.37,0a1.08,1.08,0,1,0,1.08,1.08A1.07,1.07,0,0,0,116.13,85.39Zm2.38,0a1.08,1.08,0,1,0,1.08,1.08A1.07,1.07,0,0,0,118.51,85.39Zm2.38,0A1.08,1.08,0,1,0,122,86.47,1.07,1.07,0,0,0,120.89,85.39Zm2.38,0a1.08,1.08,0,1,0,1.07,1.08A1.07,1.07,0,0,0,123.27,85.39Zm2.38,0a1.08,1.08,0,1,0,1.07,1.08A1.07,1.07,0,0,0,125.65,85.39Zm2.38,0a1.08,1.08,0,1,0,1.07,1.08A1.08,1.08,0,0,0,128,85.39ZM87.59,87.77a1.08,1.08,0,1,0,1.07,1.07A1.07,1.07,0,0,0,87.59,87.77Zm2.38,0A1.08,1.08,0,1,0,91,88.84,1.07,1.07,0,0,0,90,87.77Zm2.38,0a1.08,1.08,0,1,0,1.07,1.07A1.07,1.07,0,0,0,92.35,87.77Zm2.38,0a1.08,1.08,0,1,0,1.07,1.07A1.07,1.07,0,0,0,94.73,87.77Zm2.38,0a1.08,1.08,0,1,0,1.07,1.07A1.07,1.07,0,0,0,97.11,87.77Zm2.37,0a1.08,1.08,0,1,0,1.08,1.07A1.07,1.07,0,0,0,99.48,87.77Zm2.38,0a1.08,1.08,0,1,0,1.08,1.07A1.07,1.07,0,0,0,101.86,87.77Zm2.38,0a1.08,1.08,0,1,0,1.08,1.07A1.07,1.07,0,0,0,104.24,87.77Zm2.38,0a1.08,1.08,0,1,0,1.07,1.07A1.07,1.07,0,0,0,106.62,87.77Zm2.38,0a1.08,1.08,0,1,0,1.07,1.07A1.07,1.07,0,0,0,109,87.77Zm2.38,0a1.08,1.08,0,1,0,1.07,1.07A1.07,1.07,0,0,0,111.38,87.77Zm2.38,0a1.08,1.08,0,1,0,1.07,1.07A1.07,1.07,0,0,0,113.76,87.77Zm2.38,0a1.08,1.08,0,1,0,1.07,1.07A1.07,1.07,0,0,0,116.14,87.77Zm2.37,0a1.08,1.08,0,1,0,1.08,1.07A1.07,1.07,0,0,0,118.51,87.77Zm2.38,0A1.08,1.08,0,1,0,122,88.84,1.07,1.07,0,0,0,120.89,87.77Zm2.38,0a1.08,1.08,0,1,0,1.07,1.07A1.07,1.07,0,0,0,123.27,87.77Zm2.38,0a1.08,1.08,0,1,0,1.07,1.07A1.07,1.07,0,0,0,125.65,87.77Zm2.38,0a1.08,1.08,0,1,0,1.07,1.07A1.08,1.08,0,0,0,128,87.77ZM87.59,90.15a1.08,1.08,0,1,0,1.08,1.07A1.07,1.07,0,0,0,87.59,90.15Zm2.38,0A1.08,1.08,0,1,0,91,91.22,1.07,1.07,0,0,0,90,90.15Zm2.38,0a1.08,1.08,0,1,0,1.07,1.07A1.07,1.07,0,0,0,92.35,90.15Zm2.38,0a1.08,1.08,0,1,0,1.07,1.07A1.07,1.07,0,0,0,94.73,90.15Zm2.38,0a1.08,1.08,0,1,0,1.07,1.07A1.07,1.07,0,0,0,97.11,90.15Zm2.37,0a1.08,1.08,0,1,0,1.08,1.07A1.07,1.07,0,0,0,99.48,90.15Zm2.38,0a1.08,1.08,0,1,0,1.08,1.07A1.07,1.07,0,0,0,101.86,90.15Zm2.38,0a1.08,1.08,0,1,0,1.08,1.07A1.07,1.07,0,0,0,104.24,90.15Zm2.38,0a1.08,1.08,0,1,0,1.07,1.07A1.07,1.07,0,0,0,106.62,90.15Zm2.38,0a1.08,1.08,0,1,0,1.07,1.07A1.07,1.07,0,0,0,109,90.15Zm2.38,0a1.08,1.08,0,1,0,1.07,1.07A1.08,1.08,0,0,0,111.38,90.15Zm2.38,0a1.08,1.08,0,1,0,1.07,1.07A1.07,1.07,0,0,0,113.76,90.15Zm2.38,0a1.08,1.08,0,1,0,1.07,1.07A1.07,1.07,0,0,0,116.14,90.15Zm2.37,0a1.08,1.08,0,1,0,1.08,1.07A1.07,1.07,0,0,0,118.51,90.15Zm2.38,0A1.08,1.08,0,1,0,122,91.22,1.07,1.07,0,0,0,120.89,90.15Zm2.38,0a1.08,1.08,0,1,0,1.07,1.07A1.07,1.07,0,0,0,123.27,90.15Zm2.38,0a1.08,1.08,0,1,0,1.07,1.07A1.07,1.07,0,0,0,125.65,90.15Zm2.38,0a1.08,1.08,0,1,0,1.07,1.07A1.08,1.08,0,0,0,128,90.15ZM90,92.53A1.07,1.07,0,1,0,91,93.6,1.07,1.07,0,0,0,90,92.53Zm2.38,0a1.07,1.07,0,1,0,1.07,1.07A1.07,1.07,0,0,0,92.35,92.53Zm2.38,0A1.07,1.07,0,1,0,95.8,93.6,1.07,1.07,0,0,0,94.73,92.53Zm2.38,0a1.07,1.07,0,1,0,1.07,1.07A1.07,1.07,0,0,0,97.11,92.53Zm2.37,0a1.07,1.07,0,1,0,1.08,1.07A1.07,1.07,0,0,0,99.48,92.53Zm2.38,0a1.07,1.07,0,1,0,1.08,1.07A1.07,1.07,0,0,0,101.86,92.53Zm2.38,0a1.07,1.07,0,1,0,1.08,1.07A1.07,1.07,0,0,0,104.24,92.53Zm2.38,0a1.07,1.07,0,1,0,1.07,1.07A1.07,1.07,0,0,0,106.62,92.53Zm2.38,0a1.07,1.07,0,1,0,1.07,1.07A1.07,1.07,0,0,0,109,92.53Zm2.38,0a1.07,1.07,0,1,0,1.07,1.07A1.08,1.08,0,0,0,111.38,92.53Zm2.38,0a1.07,1.07,0,1,0,1.07,1.07A1.07,1.07,0,0,0,113.76,92.53Zm2.38,0a1.07,1.07,0,1,0,1.07,1.07A1.07,1.07,0,0,0,116.14,92.53Zm2.37,0a1.07,1.07,0,1,0,1.08,1.07A1.07,1.07,0,0,0,118.51,92.53Zm2.38,0A1.07,1.07,0,1,0,122,93.6,1.07,1.07,0,0,0,120.89,92.53Zm2.38,0a1.07,1.07,0,1,0,1.07,1.07A1.07,1.07,0,0,0,123.27,92.53Zm2.38,0a1.07,1.07,0,1,0,1.07,1.07A1.07,1.07,0,0,0,125.65,92.53Zm2.38,0a1.07,1.07,0,1,0,1.07,1.07A1.08,1.08,0,0,0,128,92.53ZM90,94.91A1.07,1.07,0,1,0,91,96,1.07,1.07,0,0,0,90,94.91Zm2.38,0A1.07,1.07,0,1,0,93.42,96,1.07,1.07,0,0,0,92.35,94.91Zm2.38,0A1.07,1.07,0,1,0,95.8,96,1.07,1.07,0,0,0,94.73,94.91Zm2.38,0A1.07,1.07,0,1,0,98.18,96,1.07,1.07,0,0,0,97.11,94.91Zm2.37,0A1.07,1.07,0,1,0,100.56,96,1.07,1.07,0,0,0,99.48,94.91Zm2.38,0A1.07,1.07,0,1,0,102.94,96,1.07,1.07,0,0,0,101.86,94.91Zm2.38,0A1.07,1.07,0,1,0,105.32,96,1.07,1.07,0,0,0,104.24,94.91Zm2.38,0A1.07,1.07,0,1,0,107.69,96,1.07,1.07,0,0,0,106.62,94.91Zm2.38,0A1.07,1.07,0,1,0,110.07,96,1.07,1.07,0,0,0,109,94.91Zm2.38,0A1.07,1.07,0,1,0,112.45,96,1.08,1.08,0,0,0,111.38,94.91Zm2.38,0A1.07,1.07,0,1,0,114.83,96,1.07,1.07,0,0,0,113.76,94.91Zm2.38,0A1.07,1.07,0,1,0,117.21,96,1.07,1.07,0,0,0,116.14,94.91Zm2.37,0A1.07,1.07,0,1,0,119.59,96,1.07,1.07,0,0,0,118.51,94.91Zm2.38,0A1.07,1.07,0,1,0,122,96,1.07,1.07,0,0,0,120.89,94.91Zm2.38,0A1.07,1.07,0,1,0,124.34,96,1.07,1.07,0,0,0,123.27,94.91Zm2.38,0A1.07,1.07,0,1,0,126.72,96,1.07,1.07,0,0,0,125.65,94.91Zm2.38,0A1.07,1.07,0,1,0,129.1,96,1.08,1.08,0,0,0,128,94.91ZM92.35,97.29a1.07,1.07,0,1,0,1.07,1.07A1.07,1.07,0,0,0,92.35,97.29Zm2.38,0a1.07,1.07,0,1,0,1.07,1.07A1.07,1.07,0,0,0,94.73,97.29Zm2.38,0a1.07,1.07,0,1,0,1.07,1.07A1.07,1.07,0,0,0,97.11,97.29Zm2.37,0a1.07,1.07,0,1,0,1.08,1.07A1.07,1.07,0,0,0,99.48,97.29Zm2.38,0a1.07,1.07,0,1,0,1.08,1.07A1.07,1.07,0,0,0,101.86,97.29Zm2.38,0a1.07,1.07,0,1,0,1.08,1.07A1.07,1.07,0,0,0,104.24,97.29Zm2.38,0a1.07,1.07,0,1,0,1.07,1.07A1.07,1.07,0,0,0,106.62,97.29Zm2.38,0a1.07,1.07,0,1,0,1.07,1.07A1.07,1.07,0,0,0,109,97.29Zm2.38,0a1.07,1.07,0,1,0,1.07,1.07A1.08,1.08,0,0,0,111.38,97.29Zm2.38,0a1.07,1.07,0,1,0,1.07,1.07A1.07,1.07,0,0,0,113.76,97.29Zm2.38,0a1.07,1.07,0,1,0,1.07,1.07A1.07,1.07,0,0,0,116.14,97.29Zm2.37,0a1.07,1.07,0,1,0,1.08,1.07A1.07,1.07,0,0,0,118.51,97.29Zm2.38,0A1.07,1.07,0,1,0,122,98.36,1.07,1.07,0,0,0,120.89,97.29Zm2.38,0a1.07,1.07,0,1,0,1.07,1.07A1.07,1.07,0,0,0,123.27,97.29Zm2.38,0a1.07,1.07,0,1,0,1.07,1.07A1.07,1.07,0,0,0,125.65,97.29Zm2.38,0a1.07,1.07,0,1,0,1.07,1.07A1.08,1.08,0,0,0,128,97.29Zm-33.3,2.37a1.08,1.08,0,1,0,1.07,1.08A1.08,1.08,0,0,0,94.73,99.66Zm2.38,0a1.08,1.08,0,1,0,1.07,1.08A1.08,1.08,0,0,0,97.11,99.66Zm2.37,0a1.08,1.08,0,1,0,1.08,1.08A1.07,1.07,0,0,0,99.48,99.66Zm9.52,0a1.08,1.08,0,1,0,1.07,1.08A1.07,1.07,0,0,0,109,99.66Zm2.38,0a1.08,1.08,0,1,0,1.07,1.08A1.08,1.08,0,0,0,111.38,99.66Zm2.38,0a1.08,1.08,0,1,0,1.07,1.08A1.08,1.08,0,0,0,113.76,99.66Zm2.38,0a1.08,1.08,0,1,0,1.07,1.08A1.08,1.08,0,0,0,116.14,99.66Zm2.37,0a1.08,1.08,0,1,0,1.08,1.08A1.07,1.07,0,0,0,118.51,99.66Zm2.38,0a1.08,1.08,0,1,0,1.08,1.08A1.07,1.07,0,0,0,120.89,99.66Zm2.38,0a1.08,1.08,0,1,0,1.07,1.08A1.07,1.07,0,0,0,123.27,99.66Zm2.38,0a1.08,1.08,0,1,0,1.07,1.08A1.07,1.07,0,0,0,125.65,99.66Zm2.38,0a1.08,1.08,0,1,0,1.07,1.08A1.08,1.08,0,0,0,128,99.66ZM113.76,102a1.08,1.08,0,1,0,1.07,1.08A1.08,1.08,0,0,0,113.76,102Zm2.38,0a1.08,1.08,0,1,0,1.07,1.08A1.08,1.08,0,0,0,116.14,102Zm2.37,0a1.08,1.08,0,1,0,1.08,1.08A1.07,1.07,0,0,0,118.51,102Zm2.38,0a1.08,1.08,0,1,0,1.08,1.08A1.07,1.07,0,0,0,120.89,102Zm2.38,0a1.08,1.08,0,1,0,1.07,1.08A1.07,1.07,0,0,0,123.27,102Zm2.38,0a1.08,1.08,0,1,0,1.07,1.08A1.07,1.07,0,0,0,125.65,102Zm2.38,0a1.08,1.08,0,1,0,1.07,1.08A1.08,1.08,0,0,0,128,102Zm-14.27,2.38a1.08,1.08,0,1,0,1.07,1.07A1.07,1.07,0,0,0,113.76,104.42Zm2.38,0a1.08,1.08,0,1,0,1.07,1.07A1.07,1.07,0,0,0,116.14,104.42Zm2.37,0a1.08,1.08,0,1,0,1.08,1.07A1.07,1.07,0,0,0,118.51,104.42Zm2.38,0a1.08,1.08,0,1,0,1.08,1.07A1.07,1.07,0,0,0,120.89,104.42Zm2.38,0a1.08,1.08,0,1,0,1.07,1.07A1.07,1.07,0,0,0,123.27,104.42Zm2.38,0a1.08,1.08,0,1,0,1.07,1.07A1.07,1.07,0,0,0,125.65,104.42Zm2.38,0a1.08,1.08,0,1,0,1.07,1.07A1.08,1.08,0,0,0,128,104.42Zm-14.27,2.38a1.08,1.08,0,1,0,1.07,1.07A1.07,1.07,0,0,0,113.76,106.8Zm2.38,0a1.08,1.08,0,1,0,1.07,1.07A1.07,1.07,0,0,0,116.14,106.8Zm2.37,0a1.08,1.08,0,1,0,1.08,1.07A1.07,1.07,0,0,0,118.51,106.8Zm2.38,0a1.08,1.08,0,1,0,1.08,1.07A1.07,1.07,0,0,0,120.89,106.8Zm2.38,0a1.08,1.08,0,1,0,1.07,1.07A1.07,1.07,0,0,0,123.27,106.8Zm2.38,0a1.08,1.08,0,1,0,1.07,1.07A1.07,1.07,0,0,0,125.65,106.8Zm2.38,0a1.08,1.08,0,1,0,1.07,1.07A1.07,1.07,0,0,0,128,106.8Zm-11.89,2.38a1.08,1.08,0,1,0,1.07,1.07A1.07,1.07,0,0,0,116.14,109.18Zm2.37,0a1.08,1.08,0,1,0,1.08,1.07A1.07,1.07,0,0,0,118.51,109.18Zm2.38,0a1.08,1.08,0,1,0,1.08,1.07A1.07,1.07,0,0,0,120.89,109.18Zm2.38,0a1.08,1.08,0,1,0,1.07,1.07A1.07,1.07,0,0,0,123.27,109.18Zm2.38,0a1.08,1.08,0,1,0,1.07,1.07A1.07,1.07,0,0,0,125.65,109.18Zm2.38,0a1.08,1.08,0,1,0,1.07,1.07A1.07,1.07,0,0,0,128,109.18Zm-9.52,2.38a1.07,1.07,0,1,0,1.08,1.07A1.07,1.07,0,0,0,118.51,111.56Zm2.38,0a1.07,1.07,0,1,0,1.08,1.07A1.07,1.07,0,0,0,120.89,111.56Zm2.38,0a1.07,1.07,0,1,0,1.07,1.07A1.07,1.07,0,0,0,123.27,111.56Zm2.38,0a1.07,1.07,0,1,0,1.07,1.07A1.07,1.07,0,0,0,125.65,111.56Zm2.38,0a1.07,1.07,0,1,0,1.07,1.07A1.07,1.07,0,0,0,128,111.56Zm-9.52,2.38a1.07,1.07,0,1,0,1.08,1.07A1.07,1.07,0,0,0,118.51,113.94Zm2.38,0A1.07,1.07,0,1,0,122,115,1.07,1.07,0,0,0,120.89,113.94Zm2.38,0a1.07,1.07,0,1,0,1.07,1.07A1.07,1.07,0,0,0,123.27,113.94Zm2.38,0a1.07,1.07,0,1,0,1.07,1.07A1.07,1.07,0,0,0,125.65,113.94Zm2.38,0A1.07,1.07,0,1,0,129.1,115,1.07,1.07,0,0,0,128,113.94Zm-9.52,2.37a1.08,1.08,0,1,0,1.08,1.08A1.08,1.08,0,0,0,118.51,116.31Zm2.38,0a1.08,1.08,0,1,0,1.08,1.08A1.08,1.08,0,0,0,120.89,116.31Zm2.38,0a1.08,1.08,0,1,0,1.07,1.08A1.08,1.08,0,0,0,123.27,116.31Zm2.38,0a1.08,1.08,0,1,0,1.07,1.08A1.08,1.08,0,0,0,125.65,116.31Zm2.38,0a1.08,1.08,0,1,0,1.07,1.08A1.08,1.08,0,0,0,128,116.31Zm-9.52,2.38a1.08,1.08,0,1,0,1.08,1.08A1.07,1.07,0,0,0,118.51,118.69Zm2.38,0a1.08,1.08,0,1,0,1.08,1.08A1.07,1.07,0,0,0,120.89,118.69Zm2.38,0a1.08,1.08,0,1,0,1.07,1.08A1.07,1.07,0,0,0,123.27,118.69Zm2.38,0a1.08,1.08,0,1,0,1.07,1.08A1.07,1.07,0,0,0,125.65,118.69Zm2.38,0a1.08,1.08,0,1,0,1.07,1.08A1.07,1.07,0,0,0,128,118.69Zm-11.89,2.38a1.08,1.08,0,1,0,1.07,1.08A1.08,1.08,0,0,0,116.14,121.07Zm2.37,0a1.08,1.08,0,1,0,1.08,1.08A1.07,1.07,0,0,0,118.51,121.07Zm2.38,0a1.08,1.08,0,1,0,1.08,1.08A1.07,1.07,0,0,0,120.89,121.07Zm2.38,0a1.08,1.08,0,1,0,1.07,1.08A1.07,1.07,0,0,0,123.27,121.07Zm2.38,0a1.08,1.08,0,1,0,1.07,1.08A1.07,1.07,0,0,0,125.65,121.07Zm2.38,0a1.08,1.08,0,1,0,1.07,1.08A1.07,1.07,0,0,0,128,121.07Zm-11.89,2.38a1.08,1.08,0,1,0,1.07,1.07A1.07,1.07,0,0,0,116.14,123.45Zm2.37,0a1.08,1.08,0,1,0,1.08,1.07A1.07,1.07,0,0,0,118.51,123.45Zm2.38,0a1.08,1.08,0,1,0,1.08,1.07A1.07,1.07,0,0,0,120.89,123.45Zm2.38,0a1.08,1.08,0,1,0,1.07,1.07A1.07,1.07,0,0,0,123.27,123.45Zm2.38,0a1.08,1.08,0,1,0,1.07,1.07A1.07,1.07,0,0,0,125.65,123.45Zm2.38,0a1.08,1.08,0,1,0,1.07,1.07A1.07,1.07,0,0,0,128,123.45Zm-9.52,2.38a1.08,1.08,0,1,0,1.08,1.07A1.07,1.07,0,0,0,118.51,125.83Zm2.38,0A1.08,1.08,0,1,0,122,126.9,1.07,1.07,0,0,0,120.89,125.83Zm2.38,0a1.08,1.08,0,1,0,1.07,1.07A1.07,1.07,0,0,0,123.27,125.83Zm2.38,0a1.08,1.08,0,1,0,1.07,1.07A1.07,1.07,0,0,0,125.65,125.83Zm2.38,0a1.08,1.08,0,1,0,1.07,1.07A1.07,1.07,0,0,0,128,125.83Zm-7.14,2.38a1.07,1.07,0,1,0,1.08,1.07A1.07,1.07,0,0,0,120.89,128.21Zm2.38,0a1.07,1.07,0,1,0,1.07,1.07A1.07,1.07,0,0,0,123.27,128.21Zm2.38,0a1.07,1.07,0,1,0,1.07,1.07A1.07,1.07,0,0,0,125.65,128.21Zm2.38,0a1.07,1.07,0,1,0,1.07,1.07A1.07,1.07,0,0,0,128,128.21Zm-7.14,2.38a1.07,1.07,0,1,0,1.08,1.07A1.07,1.07,0,0,0,120.89,130.59Zm2.38,0a1.07,1.07,0,1,0,1.07,1.07A1.07,1.07,0,0,0,123.27,130.59Zm2.38,0a1.07,1.07,0,1,0,1.07,1.07A1.07,1.07,0,0,0,125.65,130.59Zm2.38,0a1.07,1.07,0,1,0,1.07,1.07A1.07,1.07,0,0,0,128,130.59ZM120.89,133A1.07,1.07,0,1,0,122,134,1.07,1.07,0,0,0,120.89,133Zm2.38,0a1.07,1.07,0,1,0,1.07,1.07A1.07,1.07,0,0,0,123.27,133Zm2.38,0a1.07,1.07,0,1,0,1.07,1.07A1.07,1.07,0,0,0,125.65,133Zm2.38,0A1.07,1.07,0,1,0,129.1,134,1.07,1.07,0,0,0,128,133Zm-4.76,2.37a1.08,1.08,0,1,0,1.07,1.08A1.07,1.07,0,0,0,123.27,135.34Zm2.38,0a1.08,1.08,0,1,0,1.07,1.08A1.07,1.07,0,0,0,125.65,135.34Zm2.38,0a1.08,1.08,0,1,0,1.07,1.08A1.07,1.07,0,0,0,128,135.34Zm-4.76,2.38a1.08,1.08,0,1,0,1.07,1.08A1.07,1.07,0,0,0,123.27,137.72Zm2.38,0a1.08,1.08,0,1,0,1.07,1.08A1.07,1.07,0,0,0,125.65,137.72Zm2.38,0a1.08,1.08,0,1,0,1.07,1.08A1.07,1.07,0,0,0,128,137.72Z"/></svg>