<svg xmlns="http://www.w3.org/2000/svg" xmlns:xlink="http://www.w3.org/1999/xlink" viewBox="0 0 240 240"><defs><style>.a,.c,.j{fill:#fff;}.b{fill:url(#a);}.c,.j{isolation:isolate;}.c{opacity:0.1;}.d{fill:url(#b);}.e{fill:url(#c);}.f{fill:url(#d);}.g{fill:url(#e);}.h{fill:url(#f);}.i{fill:url(#g);}.j{opacity:0.05;}.k{fill:url(#h);}.l{fill:url(#i);}.m{fill:url(#j);}.n{fill:url(#k);}.o{fill:url(#l);}.p{fill:url(#m);}.q{fill:url(#n);}.r{fill:url(#o);}.s{fill:url(#p);}.t{fill:url(#q);}.u{fill:url(#r);}.v{fill:url(#s);}.w{fill:url(#t);}.x{fill:url(#u);}.y{fill:url(#v);}.z{fill:url(#w);}.aa{fill:url(#x);}</style><radialGradient id="a" cx="381.44" cy="281.38" r="14.09" gradientTransform="matrix(0.88, 0.22, 0.22, -0.88, -328.4, 294.88)" gradientUnits="userSpaceOnUse"><stop offset="0" stop-color="#fff"/><stop offset="0.56" stop-color="#fff" stop-opacity="0"/></radialGradient><radialGradient id="b" cx="288.89" cy="-24.41" r="6.97" gradientTransform="matrix(0.91, 0, 0, -0.91, -193.22, 106.85)" gradientUnits="userSpaceOnUse"><stop offset="0.37" stop-color="#fff"/><stop offset="0.62" stop-color="#fff" stop-opacity="0"/></radialGradient><radialGradient id="c" cx="367.97" cy="283.78" r="14.07" xlink:href="#a"/><radialGradient id="d" cx="276.37" cy="-18.85" r="6.97" xlink:href="#b"/><radialGradient id="e" cx="364.81" cy="296.64" r="14.07" xlink:href="#a"/><radialGradient id="f" cx="276.37" cy="-5.62" r="6.97" xlink:href="#b"/><radialGradient id="g" cx="352.56" cy="279.3" r="11.74" xlink:href="#a"/><radialGradient id="h" cx="260.4" cy="-19.5" r="7.01" xlink:href="#b"/><radialGradient id="i" cx="361.8" cy="270.83" r="11.74" xlink:href="#a"/><radialGradient id="j" cx="267.36" cy="-29.95" r="6.33" xlink:href="#b"/><radialGradient id="k" cx="373.98" cy="273.81" r="7.46" xlink:href="#a"/><radialGradient id="l" cx="279.96" cy="-29.85" r="4.3" xlink:href="#b"/><radialGradient id="m" cx="358.43" cy="267.13" r="4.74" xlink:href="#a"/><radialGradient id="n" cx="263.31" cy="-32.58" r="2.96" xlink:href="#b"/><radialGradient id="o" cx="357.13" cy="281.14" r="4.74" xlink:href="#a"/><radialGradient id="p" cx="265.39" cy="-18.66" r="3.3" xlink:href="#b"/><radialGradient id="q" cx="387" cy="279.15" r="7.46" xlink:href="#a"/><radialGradient id="r" cx="293.88" cy="-27.76" r="4.3" xlink:href="#b"/><radialGradient id="s" cx="375.69" cy="278.53" r="7.46" xlink:href="#a"/><radialGradient id="t" cx="282.74" cy="-25.67" r="3.61" xlink:href="#b"/><radialGradient id="u" cx="363.81" cy="303.57" r="7.45" xlink:href="#a"/><radialGradient id="v" cx="277.18" cy="1.46" r="4.3" xlink:href="#b"/><radialGradient id="w" cx="360.17" cy="300.59" r="9.06" xlink:href="#a"/><radialGradient id="x" cx="272.92" cy="-0.6" r="7" xlink:href="#b"/></defs><path class="a" d="M85.11,93v53.91H31.2V93H85.11m1.3-1.3H30v56.4H86.41V91.7Z"/><polygon class="b" points="70.53 127.34 78.42 117.65 71.43 128.04 83.91 126.74 71.63 129.24 81.31 137.02 70.93 130.13 72.23 142.51 69.83 130.33 61.95 140.02 68.83 129.63 56.46 130.93 68.73 128.44 58.95 120.65 69.43 127.54 68.04 115.16 70.53 127.34"/><polygon class="c" points="70.63 127.14 79.92 115.56 71.73 127.94 86.41 126.34 71.93 129.24 83.41 138.52 71.13 130.33 72.63 145.11 69.73 130.53 60.45 142.11 68.64 129.73 53.96 131.33 68.44 128.44 56.95 119.15 69.23 127.34 67.64 112.56 70.63 127.14"/><circle class="d" cx="69.93" cy="129.13" r="6.39"/><polygon class="e" points="59.15 122.35 66.94 112.56 60.05 122.94 72.53 121.65 60.25 124.14 69.93 131.93 59.55 125.04 60.85 137.52 58.35 125.24 50.57 134.93 57.45 124.54 45.08 125.84 57.26 123.44 47.57 115.56 57.95 122.45 56.66 110.07 59.15 122.35"/><polygon class="c" points="59.15 122.05 68.54 110.47 60.25 122.84 75.03 121.25 60.45 124.14 72.03 133.53 59.65 125.24 61.25 140.02 58.35 125.54 49.07 137.02 57.26 124.64 42.48 126.24 57.05 123.34 45.47 114.06 57.85 122.25 56.26 107.47 59.15 122.05"/><circle class="f" cx="58.55" cy="124.04" r="6.39"/><polygon class="g" points="59.15 110.27 66.94 100.48 60.05 110.97 72.53 109.57 60.25 112.06 69.93 119.95 59.55 112.96 60.85 125.44 58.35 113.16 50.57 122.94 57.45 112.46 45.08 113.86 57.26 111.36 47.57 103.48 57.95 110.47 56.66 97.99 59.15 110.27"/><polygon class="c" points="59.15 109.97 68.54 98.49 60.25 110.77 75.03 109.27 60.45 112.16 72.03 121.45 59.65 113.26 61.25 127.94 58.35 113.46 49.07 124.94 57.26 112.66 42.48 114.16 57.05 111.27 45.47 101.98 57.85 110.17 56.26 95.49 59.15 109.97"/><circle class="h" cx="58.55" cy="111.96" r="6.39"/><polygon class="i" points="44.48 123.14 51.06 115.06 45.27 123.74 55.66 122.65 45.37 124.74 53.46 131.23 44.88 125.44 45.97 135.82 43.88 125.64 37.29 133.73 43.08 125.04 32.7 126.14 42.98 124.14 34.89 117.55 43.58 123.34 42.38 112.96 44.48 123.14"/><polygon class="j" points="44.58 122.94 52.26 113.36 45.47 123.64 57.75 122.35 45.67 124.74 55.26 132.53 44.98 125.64 46.27 137.92 43.78 125.84 36.09 135.42 42.88 125.14 30.6 126.44 42.78 124.04 33.09 116.26 43.38 123.14 42.08 110.86 44.58 122.94"/><circle class="k" cx="43.98" cy="124.64" r="6.39"/><polygon class="l" points="50.87 132.73 57.35 124.54 51.56 133.23 61.95 132.13 51.76 134.23 59.85 140.72 51.16 135.03 52.26 145.31 50.27 135.13 43.68 143.21 49.47 134.53 39.09 135.62 49.27 133.63 41.18 127.04 49.87 132.83 48.77 122.45 50.87 132.73"/><polygon class="j" points="50.87 132.43 58.65 122.84 51.76 133.13 64.04 131.83 51.96 134.23 61.55 142.01 51.27 135.22 52.56 147.4 50.17 135.32 42.38 144.91 49.27 134.72 36.99 136.02 49.07 133.53 39.48 125.84 49.77 132.63 48.47 120.35 50.87 132.43"/><circle class="m" cx="50.37" cy="134.13" r="5.79"/><polygon class="n" points="62.15 133.13 66.24 127.94 62.65 133.53 69.23 132.83 62.74 134.13 67.84 138.22 62.35 134.63 63.05 141.22 61.75 134.72 57.55 139.82 61.25 134.33 54.66 135.03 61.15 133.73 55.96 129.53 61.55 133.23 60.85 126.64 62.15 133.13"/><polygon class="j" points="62.15 133.03 67.04 126.84 62.74 133.43 70.53 132.63 62.84 134.13 68.94 139.02 62.45 134.72 63.24 142.51 61.75 134.82 56.76 140.91 61.15 134.43 53.36 135.22 61.05 133.73 54.96 128.74 61.45 133.13 60.65 125.34 62.15 133.03"/><circle class="o" cx="61.85" cy="134.03" r="3.89"/><polygon class="p" points="46.87 135.92 49.47 132.63 47.17 136.22 51.36 135.72 47.17 136.52 50.47 139.22 46.97 136.92 47.47 141.01 46.57 136.92 43.98 140.22 46.27 136.72 42.08 137.12 46.17 136.32 42.98 133.63 46.47 136.02 45.97 131.83 46.87 135.92"/><polygon class="j" points="46.87 135.82 49.97 131.93 47.27 136.12 52.16 135.62 47.27 136.62 51.16 139.72 47.07 136.92 47.57 141.91 46.57 137.02 43.48 140.91 46.17 136.72 41.28 137.32 46.17 136.32 42.28 133.13 46.37 135.92 45.87 130.93 46.87 135.82"/><circle class="q" cx="46.67" cy="136.52" r="2.7"/><polygon class="r" points="48.77 123.25 51.36 119.95 49.07 123.54 53.26 123.05 49.07 123.84 52.36 126.54 48.87 124.24 49.37 128.34 48.47 124.24 45.87 127.54 48.17 124.04 43.98 124.44 48.17 123.64 44.88 120.95 48.37 123.34 47.87 119.15 48.77 123.25"/><polygon class="j" points="48.77 123.14 51.86 119.25 49.17 123.44 54.06 122.94 49.17 123.94 53.06 127.04 48.97 124.24 49.47 129.24 48.47 124.34 45.37 128.24 48.07 124.04 43.18 124.64 48.07 123.64 44.18 120.45 48.27 123.25 47.77 118.25 48.77 123.14"/><circle class="s" cx="48.57" cy="123.84" r="3"/><polygon class="t" points="74.83 131.23 78.92 126.04 75.32 131.63 81.91 130.93 75.42 132.23 80.52 136.32 75.03 132.73 75.72 139.32 74.43 132.83 70.23 137.92 73.93 132.43 67.34 133.13 73.83 131.83 68.64 127.64 74.23 131.33 73.53 124.74 74.83 131.23"/><polygon class="c" points="74.83 131.13 79.72 124.94 75.42 131.53 83.21 130.73 75.52 132.23 81.61 137.12 75.13 132.83 75.92 140.62 74.43 132.93 69.43 139.02 73.83 132.53 66.04 133.33 73.73 131.73 67.64 126.84 74.13 131.23 73.33 123.44 74.83 131.13"/><circle class="u" cx="74.53" cy="132.13" r="3.89"/><polygon class="v" points="64.64 129.33 68.83 124.14 65.14 129.73 71.73 129.03 65.24 130.33 70.43 134.43 64.84 130.83 65.54 137.32 64.24 130.83 60.15 136.02 63.74 130.53 57.16 131.23 63.64 129.93 58.55 125.74 64.04 129.43 63.34 122.84 64.64 129.33"/><polygon class="j" points="64.64 129.13 69.63 123.05 65.24 129.63 73.03 128.74 65.34 130.33 71.53 135.22 64.94 130.93 65.74 138.72 64.24 131.03 59.35 137.12 63.64 130.63 55.86 131.43 63.54 129.83 57.45 124.94 63.94 129.33 63.15 121.45 64.64 129.13"/><circle class="w" cx="64.34" cy="130.23" r="3.29"/><polygon class="x" points="59.55 104.58 63.74 99.48 60.05 104.97 66.64 104.28 60.15 105.57 65.34 109.77 59.85 106.07 60.55 112.66 59.25 106.17 55.06 111.27 58.75 105.77 52.16 106.47 58.65 105.17 53.46 100.98 58.95 104.68 58.25 98.09 59.55 104.58"/><polygon class="j" points="59.65 104.48 64.54 98.39 60.25 104.88 68.04 104.08 60.35 105.57 66.44 110.57 59.85 106.17 60.75 113.96 59.15 106.27 54.26 112.36 58.55 105.87 50.77 106.67 58.45 105.17 52.36 100.18 58.95 104.58 58.05 96.79 59.65 104.48"/><circle class="y" cx="59.25" cy="105.47" r="3.89"/><polygon class="z" points="55.76 106.27 60.85 99.98 56.36 106.77 64.34 105.87 56.46 107.47 62.74 112.56 56.06 108.07 56.85 116.06 55.36 108.17 50.27 114.46 54.76 107.77 46.67 108.57 54.56 106.97 48.37 101.98 55.06 106.37 54.16 98.39 55.76 106.27"/><polygon class="c" points="55.86 106.07 61.85 98.69 56.56 106.67 66.04 105.67 56.66 107.47 64.04 113.46 56.16 108.17 57.16 117.65 55.26 108.37 49.27 115.76 54.56 107.87 45.08 108.87 54.46 106.97 46.97 100.98 54.96 106.27 53.96 96.79 55.86 106.07"/><circle class="aa" cx="55.36" cy="107.37" r="6.39"/><path class="a" d="M164.18,121.25c-6.69,0-10.49,4.79-10.49,13.18,0,4.79.8,8.08,2.6,10.28s4.79,3.39,9,3.39a18.92,18.92,0,0,0,7.09-1.59l.4-.2-1.1-3.2-.5.2a16.23,16.23,0,0,1-5.69,1.1c-6,0-7.38-3.49-7.38-9.19h14.67l.1-.39a20.49,20.49,0,0,0,.4-3.6C173.26,122.55,167.57,121.25,164.18,121.25Zm-.4,3.49c3.39,0,5.39,2.1,5.39,5.79a7.08,7.08,0,0,1-.1,1.5H158C158.49,126.84,160.18,124.74,163.78,124.74Z"/><path class="a" d="M97.89,131.53h11.68v-3.69H97.89V117.45h13.57a8.44,8.44,0,0,0,1-3.69H93.59V147.5h18.07a6,6,0,0,0,1.6-3.69H97.89Z"/><path class="a" d="M118.55,113.76V147.6h4.1V112.36A8.13,8.13,0,0,0,118.55,113.76Z"/><path class="a" d="M144.31,113.76v8.09a22.22,22.22,0,0,0-4.39-.6c-7.79,0-11.68,4.59-11.68,14.07,0,10.59,5.19,12.78,9.48,12.78a11.53,11.53,0,0,0,6.49-2v1.49h4.09V112.36A7.9,7.9,0,0,0,144.31,113.76Zm-5.69,30.65c-4.09,0-6-3-6-9.88,0-8.59,3.49-9.79,7.19-9.79a22.29,22.29,0,0,1,4.49.6v17A10.36,10.36,0,0,1,138.62,144.41Z"/><path class="a" d="M203.21,132.83l-.3-.1c-3.09-1.5-5.29-2.6-5.29-4.89,0-2.1,1.4-3.1,4.19-3.1a28.72,28.72,0,0,1,5.49.7l.4.1a9.06,9.06,0,0,0,1.1-3.19l-.4-.1a23.82,23.82,0,0,0-5.39-.9c-5.79,0-9.28,2.59-9.28,7,0,4,2.39,5.59,6.39,7.58a4.88,4.88,0,0,0,.7.3c2.59,1.3,4.89,2.5,4.89,5,0,3-2.7,3.4-4.7,3.4a27.29,27.29,0,0,1-6.08-1l-.4-.1-1.2,3.2.4.2a18.09,18.09,0,0,0,7,1.39c5.59,0,9.28-3,9.28-7.48C209.7,136.42,206.51,134.53,203.21,132.83Z"/><path class="a" d="M187.34,121.25c-3.7,0-7.89,2.59-8.09,2.69l-.2.1V147.5h4.09V125.94a7.51,7.51,0,0,1,3.7-1,13,13,0,0,1,2.89.3l.4.1.1-.4c0-.1.4-1.4.7-2.79l.1-.4-.3-.1A13.58,13.58,0,0,0,187.34,121.25Z"/><path class="a" d="M89.8,94.19h4.29v14.48h2V94.19h4a4.09,4.09,0,0,0,.5-1.79H89.8Z"/><path class="a" d="M118.85,96c-3.19,0-5.09,2.3-5.09,6.39a8.33,8.33,0,0,0,1.2,5c.9,1.1,2.29,1.6,4.29,1.6a8.57,8.57,0,0,0,3.4-.8l.2-.1-.5-1.6-.2.1a7.32,7.32,0,0,1-2.7.6c-2.89,0-3.59-1.7-3.59-4.49H123v-.2a9.2,9.2,0,0,0,.2-1.7C123.24,96.59,120.55,96,118.85,96Zm-.2,1.7c1.7,0,2.6,1,2.6,2.79v.7H116C116.16,98.69,117,97.69,118.65,97.69Z"/><path class="a" d="M107.77,96a6.48,6.48,0,0,0-3.39,1V91.7a3.83,3.83,0,0,0-2,.7v16.27h2V98.59a7,7,0,0,1,2.89-.9c1.6,0,2.3.8,2.3,2.89v8.09h2V99.88C111.56,97.39,110.17,96,107.77,96Z"/></svg>