<svg xmlns="http://www.w3.org/2000/svg" viewBox="0 0 240 240"><defs><style>.a{fill:#fff;fill-rule:evenodd;}</style></defs><path class="a" d="M130.83,123.31c2.44-3.06,3.64-7,6.07-10s5.43-5.32,8.35-8a15.79,15.79,0,0,1,4.16-6.1c1.12-4.07,3.22-7.29,4-11.69-1.61-3.6-1.36-8.13-3.08-11.37a41.07,41.07,0,0,0-3.94-5.32c-.07-.93-.27-3-1.16-3.18.14,11.68-7.46,16.57-13.18,23.1-.08,2.11-1.56,3.62-2.18,5.52-.4,1.2,0,2.74-1.21,3.12-.18,3.76.15,8-.73,11.13,1,3.92,1.19,7.33,1.82,11.34.57.2.7,1,1.11,1.45m15.09-36.94a4,4,0,0,0,.33-1.63,4,4,0,0,1,0,1.87,12.11,12.11,0,0,1-1.39,2.77l1-3m-2,4.58c-2.16,2.58-7.18,12.7-8,14,.21-5.24,6.71-12.87,8-14m15.3-25.7c.11-.5-.39-.38-.34-.8,0-3.56-.22-7.44-.35-10.76a.32.32,0,0,0,.23-.35h1c1,2.66.2,5.76.34,9,.11,2.42.41,4.94-.22,7.25-1-.84-.75-2.91-.68-4.3M90.88,180.19c-.73.06-1.62.37-2.11-.11,0-1.85,3.18-2,3.07,0-.25.21-.63.12-1,.15m6.71-14.57c.6-.05.8.34.74.88-.09.83-.33,1.41-1.16,1.6a2,2,0,0,1-1.17,0h-.29a.93.93,0,0,1-.15-1c.07-.17.34-.31.23-.49.66-.17,1.16-.65,1.81-.72v-.23m26.27,14.69c.08.46.33.85.38,1.27a10.49,10.49,0,0,1-.2,2,4.83,4.83,0,0,0-.36.56l.1.13-.16,0c-.32.3-.54.67-1.08.75-.57-.12-1.11,0-1.46-.39l-.27-.38a1.37,1.37,0,0,1-.45-1.05,1.15,1.15,0,0,1-.11-.83,4.51,4.51,0,0,1-.11-1.19,4.34,4.34,0,0,1,.51-1.62,2.34,2.34,0,0,1,1.47-.82,1.83,1.83,0,0,1,1.73,1.3v.34M167.27,62.64c.18,0,.2.11.34.11a.57.57,0,0,1-.23.57c-.42.1-.2-.6-.11-.68M72.08,57h1.24c.13-1.48-.12-3.11.23-4.3,4.6-.08,7.59,0,11.9.11,2.53.08,5.18.58,7-.11,2-.2,4.72.81,6.12-.46-.84-1.13-2.71-.86-4.54-1-.92-.08-1.83-.5-2.71-.57-1.53-.1-3.15.32-4.54,0,.55-.64,1.48-.31,2.16-.34,3.19-.1,6.24-.1,9.51,0,.43,0,.28.64.68.68,5.47,0,10.81.24,17.11.46,3.94.14,7.9,0,11.9,0,12-.16,23.86-.23,36.15-.57.14-.59-.65-.26-.56-.79.3,0,.64,0,.79-.12h.22c.42,5.25-.4,10.1-.11,14.17-.53.81-.47,2.84-.34,3.63-.5,1.39-.33,4.24-.34,6.12,1.08,1.21.24,3.19.46,5.55.05.59.3,1.19.33,1.81.07,1.39-.19,2.86-.22,4.08s-.24,3.17.91,3.17c.52,0,.57-.37.9-.67-.15-2.65.23-5.16,0-7,.63-4.62.31-12.38.91-17.22a37.21,37.21,0,0,1,0,8,7.77,7.77,0,0,0-.11,1c0,.53.37,1.13.34,1.59s-.71,1.19-.12,1.92c0,.38-.37.39-.34.8.37.85,0,1.73-.11,2.83-.25,2.23-.22,6-.34,8.5-.06,1.12-.27,1.87.45,2.49-.09,3.88-.56,7.68-.45,11.9,0,.49.24,1,.23,1.48,0,.15-.24.49-.23.67s.31.68.34,1-.19.92-.11,1.36a5.1,5.1,0,0,0,.68,1.48c-.31.77,0,2.08,0,2.95,0,2-.52,4.23,0,6a1.63,1.63,0,0,1-.34.79c.2,4.41-.93,8.48-.46,13.49,1.35-1.33.61-4.76,1.48-6.58.23,2.65-.36,5.31-.23,8,.09,1.94.81,3.94,0,5.78-.93-.88-.15-3.2-1.7-3.06-1.16.11-.48,1.47-.91,2.49,0,.56-1,.17-1.13.57-.65,2.63-.77,5.81-1.36,8.5a115.34,115.34,0,0,1-16.55.34c3.13-.94,7.17.43,10.43-.8-.46-.73-1.87-.72-3.06-.79a46.7,46.7,0,0,0-6.8,0,1.86,1.86,0,0,0-1.92.12,4.61,4.61,0,0,0-2-.23c-.54,0-.48-.65-.9-.79a72.94,72.94,0,0,1-14,1c.23-2.65.44-4.95.61-8.07a15.59,15.59,0,0,0-.06-2,78.3,78.3,0,0,1-.12-8.62c.1-10.91-3-20.07-6.34-27.49-1-2.24-1.86-4.82-3.09-6.32-.7-.87-1.78-1.2-2.07-2.55a3.67,3.67,0,0,1,1.56.48c-.92-2.79-3.6-4.34-6-5.91s-4.93-3.58-7.55-4.33c-1.32-.38-2.83,0-3.91-1.12-.88.17-2.09-.7-3.43-1,.7-.52,1.49.11,2-.57-2.27-1.13-4.54-2.28-6.75-3.48a26.91,26.91,0,0,1-6.9-9.86c-.36-.81-.6-2.37-1.76-2.38-.69,1.73,2,4.58-.19,5.35a11.05,11.05,0,0,0-.52-2.23c0,2.07,0,3.69,0,5.7-.14,7.36,1.92,15.52,1.56,21.73,2.12,4.5,4.51,8.69,7,12.8-.34.48-1.32,0-.93.54.7,1.74,3.19,6.06,4.88,7.43s3.22,2.94,4.75,4c2.47,1.79,5.35,2.62,7.09,4.51,6.86,2.66,14.59,4.29,18.25,10.66a103.4,103.4,0,0,1-.91,12.67c-1.85,0-3.69,0-5.52.07-.69,0-1.5-.36-2.26-.34-.5,0-1,.24-1.37.22-.68,0-1.36-.39-2-.45a40.42,40.42,0,0,0-4.53.23c-4.07.09-8.6,0-12.35-.12s-8.38.05-12.35,0c-.55,0-1.16.25-1.7.23-.89,0-1.77-.54-2.72-.45-.34,0-.67.29-1,.34a14.48,14.48,0,0,1-4.65-.57c.71-.82,2.94.12,2.5-2-.87-.35-1.3-1.12-2.27-1.36.17-1,.14-1.78-.8-2a1.37,1.37,0,0,0-.9-1.92c-.66-.18-.41.57-.91.56.07-.61-.35-1-.9-1.25a85.59,85.59,0,0,0,.22-17.11c-.18-2,.4-4-.57-5.66.25-8-.43-15.65.12-23.81.22-.34.63-.49.91-.79,0-1.82.52-5.21.22-7.25-.44-3,.17-7.78,0-11.33-.15-3.28-.38-6.64-.57-9.52A16.84,16.84,0,0,1,72,58.33c-.26-.54-.63-.59-1.37-.45a14.83,14.83,0,0,1,.34-2.72c.72.27.62,1.35,1.14,1.81m90.2,112.76c.06-1.31,0-2.92-.06-4.3,0-.81.28-1.75-.46-2.17a2.08,2.08,0,0,0-1.75.16,1.76,1.76,0,0,0-.48.83,6.15,6.15,0,0,0,0,1.05c0,.45,0,1.13,0,1.69a4.81,4.81,0,0,0,0,1.19,2.47,2.47,0,0,0,.61.59c.21.16.5.24.66.35a4.25,4.25,0,0,1-.14,1.68,27.28,27.28,0,0,1-3.9.13c-.43,0-.86.28-1.25,0a1.07,1.07,0,0,1-.8.08c-.06-.21.1-.39.09-.59l-.1-.4c0-.3.21-.71.12-1.05a3.51,3.51,0,0,0,1.22-.56c.09-1.13,0-2.3.11-3.3l.1-.36-.07-.4a4.92,4.92,0,0,0,.05-.82c-.16-.57-1.36-.31-1.56-.75l0-.39a4.05,4.05,0,0,1,0-1.16,10.84,10.84,0,0,1,2.51-.56,13.17,13.17,0,0,1,1.81-.22c.16.35,0,1.25.39,1.51.87-.66,1.45-1.71,3-1.82a2.8,2.8,0,0,1,.76,0c.19,0,.29.19.46.26s.39,0,.57.12.5.46.83.59a11.76,11.76,0,0,0,.48,1.08c0,1.17.05,2.22,0,3.5a6.81,6.81,0,0,0,.11,2.9,5.23,5.23,0,0,1,1.32.25c0,.35-.11.6,0,.83l-.13,0c.24.2.12.86.18,1.19a21.53,21.53,0,0,1-2.41,0l-.34-.09a3,3,0,0,1-1.22-.22.86.86,0,0,1-.56.08,1.62,1.62,0,0,1,0-.76Zm-22.57-2.24c0-.18.27-.48.06-.7l.12-.1c-.32-.5,0-1.52-.08-2l.13-.13c-.2-.33-.14-.74-.34-1.08s-.83-.36-1.37-.45c-.22-.31.09-.53.19-.73l-.23-.06a.49.49,0,0,1,.06-.5l-.17-.23.19-.16-.1-.14a10.93,10.93,0,0,1,2.8-.63c.32-.07.56-.21.86,0a.56.56,0,0,1,.79-.1c.09,0,.27-.18.29,0l-.06,0,.11.13c-.09.8,0,1.5-.1,2.38-.21,0-.11.31-.37.27a.35.35,0,0,1,.11.66l0,.49c.33.41.07,1.07,0,1.55l.14.23c-.14.64.13,1.53.07,2.48.4.31,1.18.21,1.69.41a7.84,7.84,0,0,1-.14,1.95c-.8-.08-1.51-.14-2.31-.17v-.16l-.07.1-.26-.1a23.49,23.49,0,0,1-4,.09,6.74,6.74,0,0,1,.14-1.62c.38-.35,1.61,0,1.81-.66.07-.22,0-.67.05-1m2.59-11a2.36,2.36,0,0,1,.37,2.07l-.23.11.07.3c-.11.06-.17.16-.33.16l0,.21c-.37,0-.47.22-.6.4-.38.07-.69-.22-.89-.25s-.65-.09-.76-.33c-.51,0-.65-.63-.61-1.11-.3-.38,0-.72.18-1l.19-.43a2.46,2.46,0,0,1,1.19-.51,2.4,2.4,0,0,1,1.45.41m.6-8.66c-.08.41-.36,0-.79.11-.23-.09.72-.3.79-.11m.34.11c.16-.26,1.28-.64,1.14.11-.53-.14-.74.08-1.14-.11m-8.14,15.68c0,.23-.24.4-.32.61a6.84,6.84,0,0,0,0,2.67,2.52,2.52,0,0,0,.65,1.61c.36.31.79.31,1.26.54a3.87,3.87,0,0,1,.05,1.39c0,.18-.27.18-.42.27a4.2,4.2,0,0,1-1.15.51,4.37,4.37,0,0,1-2-.37c-.25-.13-.39-.42-.63-.49a6.18,6.18,0,0,1-.9-2.93c0-.38,0-.78,0-1.18s-.22-1.12.05-1.59c-.24-.26,0-.52.05-.79a1.92,1.92,0,0,0-.25-1.36l-.36.14c-.18,0-.38-.13-.53-.12l-.3.1a8.86,8.86,0,0,1,0-1.88c.28-.26,1-.22,1.31-.35a2.21,2.21,0,0,0,.36-.57,6,6,0,0,0,1.58-2.86c.35-.23.9-.09,1.35-.05a10.54,10.54,0,0,1-.06,3c.15.27.45.4.64.62a9.11,9.11,0,0,0,1.36.05,12,12,0,0,1,.12,1.71c-.32.21-.71,0-.9.08-.13,0,0-.15-.23-.19-.28.18-.8.24-.85.71,0,.2.13.46.08.75m-8.7,2.07a6.42,6.42,0,0,0-.2-2.61,4,4,0,0,1-1.15-.18c0-.59-.14-1.45-.13-2.05a1.7,1.7,0,0,1,.76.22,8.77,8.77,0,0,1,3.9-.45c.1,1.49.08,3.41.1,5.36,0,.28.1.54.15,1,0,.65-.21,1.48-.05,1.76s1.09.09,1.33.41a7.56,7.56,0,0,1,0,1.75c-2.08-.1-4.29-.2-6.45-.11a2.09,2.09,0,0,1,.37-2.08c.37-.18,1-.09,1.35-.36.09-.86,0-1.67.06-2.64m-.3-8a2.9,2.9,0,0,1,.22-.79c.05-.16,0-.33.06-.43.2-.41,1.19-1,1.68-.62l.09-.14a1.88,1.88,0,0,1,1.5.68l0,.33a4.71,4.71,0,0,1,.21,1,2.65,2.65,0,0,1-.42,1.06l-.29.27-.13.27a1.78,1.78,0,0,1-1.28.37c-.13,0-.35-.24-.54-.32a1,1,0,0,1-.66-.65c-.16-.32-.47-.69-.48-1m-10.88-45.34c-1.08-2-.83-2.57-3.46-5.62s-12.82-9-12.65-9.47a6.09,6.09,0,0,1-2.26-3,.14.14,0,0,0-.27,0c0-.5-.3-1.37-1.06-1.48-1.22-2.6-2.86-4.72-4-7.4,2.82,4.22,6.5,7.47,9,12a15.86,15.86,0,0,1,7.46,4.15c1.85,0,6.62,8.42,8.12,10.65,0,.17-.24.12-.4.14,0,.3.37.19.27.59.13-.09.14-.34.4-.29-.37.78,1.07,1.66.93,2.51a.76.76,0,0,1,.67.89c-.18-.05-.21-.26-.41-.29-.17.78.66.46.54,1.17-1-.07-.69-1.11-1.06-1.62a9.3,9.3,0,0,1-1.87-3.55c-.34,0,.19.25,0,.59m-6.43-5.71c-1.28-.87-2.89-1.37-3.6-2.87,1.18,1,2.65,1.64,3.6,2.87M115.74,167a5,5,0,0,1,1.52-.12l-.05.36.32.13c-.06.34.17.41.31.65s.14.35.21.43a2.18,2.18,0,0,0,1.23.68c1,.09,2.6-.17,2-1.15-1.35-.76-3.09-1.11-4.13-2.19a2,2,0,0,1-1.44-1.47A3.68,3.68,0,0,1,116,162a1.59,1.59,0,0,1,.71-.74,2.1,2.1,0,0,1,.82-.64l.26,0,.14-.23a9.27,9.27,0,0,1,3.39-.34c.82.25,1.53.6,2.42.85a20.8,20.8,0,0,1-.06,2.71l-1.61.12c-.25-.11-.24-.38-.34-.59a2.36,2.36,0,0,0-1.27-1c-.59.08-1.35-.29-1.79.09-.21.5.15.87.32,1.19.94.4,1.93.82,2.79,1.21a1.31,1.31,0,0,1,1,.29,2.48,2.48,0,0,1,.87.71,2.86,2.86,0,0,1,.76,1.94,4.43,4.43,0,0,1-.13.49c0,.2,0,.39,0,.57a3.88,3.88,0,0,1-.71,1.49c-.26.08-.37.3-.59.4a7.37,7.37,0,0,1-1.15.26l-.3.16h-.26a2.23,2.23,0,0,1-.89.24,17.22,17.22,0,0,1-2-.37,11.26,11.26,0,0,1-2.55-.89c0-.76-.29-2,.13-2.61Zm-.57,4a43.86,43.86,0,0,1-4.66-.26,2.83,2.83,0,0,1,0-1.23,15.25,15.25,0,0,1,0-2.44,15.39,15.39,0,0,1-.37-2.74c0-.22.1-.43.09-.59-.06-.62-.73-.64-1.14-.95-.23.07-.31.12-.52.17-.15.25-.4.4-.56.67-.28.48-.08,1.14-.4,1.6a16.55,16.55,0,0,0,.24,3.43c.35.17,1,.06,1.39.27a9.57,9.57,0,0,1,0,1.79c-1.71.33-3.82,0-5.91.15-.27-.21-.18-.67-.21-1a2,2,0,0,1,0-.83c.25-.68,1.54,0,1.41-.94.12,0,0,.16.2.13.11-.2-.16-.25-.23-.36a26.89,26.89,0,0,1,.15-3.67c-.17-.23,0-.59-.08-.8-.19-.51-1.26-.07-1.53-.57a8.42,8.42,0,0,1-.1-1.78,2.46,2.46,0,0,0,1.3.18c.35,0,.63-.34,1-.15.32-.6,1.25-.52,1.91-.72.32.48.18,1.06.52,1.58.31,0,.3-.3.59-.33a1.09,1.09,0,0,1,.84-.85c.09-.38.45-.4.83-.37s1-.16,1.55-.15a4.2,4.2,0,0,1,.83.22c.09.18.41.27.34.52,1.08,0,1.23,1.21,1.44,2.2a18.91,18.91,0,0,0-.12,5.28c0,.52,1.24.32,1.43.75a17.61,17.61,0,0,1-.08,1.81m-12.72-.12a33.54,33.54,0,0,1-3.79-.18c0-.54-.12-1-.16-1.52l.17-.07c0-.2-.1-.36-.31-.39-.42.77-.88,1.5-1.35,2.23a3.26,3.26,0,0,0-1.29.22l-.23-.1c-.4.13-.73-.11-1-.18l-.4,0c-.17,0-.25-.21-.43-.29s-.49-.09-.6-.39a.33.33,0,0,0-.11-.4l-.23.07c-.15-.2-.45-.42-.3-.82-.23-.17-.14-.52-.15-.85l.26-.17c-.53-.42.31-1.5.77-1.8.16-.5.73-.6,1.08-.91h.33l-.07-.13a4.94,4.94,0,0,1,1.71-.75c.07.11.19.16.4.13,0-.16-.26.09-.24-.13.4-.09,1.08-.11,1.42-.22.18-.07.3-.25.46-.24,0-.17-.21-.07-.2-.23l.16-.16c.05-.29-.13-.34-.24-.46a1.25,1.25,0,0,0-.23-.66,1.92,1.92,0,0,0-1-.35c-.33,0-.6.25-.82.14-.4.2-.57.6-.88.88.08.28-.19.55-.13.85-.21.1-.18.17-.39.31s-.71-.15-1,0c-.13-.15-.4-.15-.63-.19-.06-.27.29-.13.25-.37l-.23-.26c.1-.65-.1-1.16,0-1.72h.2c0-.24.3-.23.38-.4.38.06.69-.46,1.06-.28l.13-.27.16.06a5.24,5.24,0,0,0,1-.53,10.48,10.48,0,0,1,2.8-.14l0,.2a.59.59,0,0,1,.49-.11l.21.19c.24,0,.43.08.5.27a3.44,3.44,0,0,1,.83.34,4.17,4.17,0,0,1,.82,2.54,38.27,38.27,0,0,1,0,4.79l.17.13a1,1,0,0,0,.53-.44h.09c.41.44.18,1.17.16,1.75,0,.4.12.8-.09,1.06m-12-6.94a1.5,1.5,0,0,1-.5-.56,1.58,1.58,0,0,0-2.29,1.49c0,.49.14,1-.19,1.32a1.16,1.16,0,0,1,0,1.13,2.45,2.45,0,0,1,.21.92.84.84,0,0,1,.4.39,5.71,5.71,0,0,1,1,.22,8.91,8.91,0,0,1,.12,2,51.71,51.71,0,0,1-6.11,0,1.9,1.9,0,0,1,.15-1.2c-.22-.08-.15-.47-.21-.72a3.94,3.94,0,0,1,.8-.08l.16-.17c.39.09.51-.25.72-.24a23.27,23.27,0,0,0-.05-3.23c.1-.25.13-.45,0-.6a10.73,10.73,0,0,1,.12-1.35,5.18,5.18,0,0,1-1.52-.14c.15-.61,0-1.18.07-1.89a6.25,6.25,0,0,0,2.83-.8,9.4,9.4,0,0,0,1.45-.09,16.38,16.38,0,0,1,0,1.72c-.1.14-.27.32-.15.57l.19,0c.16-.31.49-.44.66-.74l.2,0-.05-.19A3.07,3.07,0,0,1,90,160.21a1.84,1.84,0,0,1,1,0,.3.3,0,0,1,.52,0,1.81,1.81,0,0,1,1.07.18c.12,1,0,2.18.1,3.14,0,.27.19.58,0,.83-.77,0-1.62,0-2.21,0l.17,0c-.15-.07-.37-.19-.21-.39M81.23,160c0,.88-.2,1.73-.2,2.61,0,.23,0,.44,0,.66,0,.46,0,1,0,1.59s-.2,1.26-.24,1.85c0,.13.07.29.07.46,0,.4-.14.79,0,1.16a3.63,3.63,0,0,0,1.57.38,18.59,18.59,0,0,1,.09,2.18c-.63,0-1.25,0-1.89,0-.33,0-.67-.12-1-.12-.63,0-1.29.06-1.91.06-.38,0-.73,0-1.09,0a3.87,3.87,0,0,1-1.62-.15c0-.31.19-.41.22-.69l-.14,0a3.83,3.83,0,0,0,.09-1l.13,0c0-.16-.15-.12-.11-.3.5-.18,1,0,1.66-.22.33-.2-.06-.79.18-1.06a9.09,9.09,0,0,1,.11-1.39c0-.1,0-.31.17-.3-.3-.23-.13-.73-.15-1.22a48.43,48.43,0,0,1,0-5.28,3.53,3.53,0,0,0-.13-1.49c-.3,0-1.14-.15-1.52,0s-.27.84-.37,1.29c-.06.24,0,.66-.12.86a9.9,9.9,0,0,1-2.52.14c.22-1.55.09-3.23.4-4.64a1.16,1.16,0,0,1,.77.12.75.75,0,0,1,.92.06c.21,0,.47-.07.53.06l.2-.13c.18,0,.39.1.36.05.11.13.31-.13.53,0a19.46,19.46,0,0,1,3.57-.24,8.93,8.93,0,0,1,1.48-.06,25,25,0,0,1,2.71.09l.39-.16a1.46,1.46,0,0,0,1,0,3.61,3.61,0,0,1,.15,1.45c0,.45,0,.9,0,1.36s-.1.8-.11,1.19.09.53-.12.73c-.78,0-1.38.11-2,.15a19.62,19.62,0,0,1-1-1.92,1.56,1.56,0,0,0-1.16,0c0,.63,0,1.2,0,1.89M69.92,54.25c.16-.66-.11-1.08.23-1.58h.35a10.76,10.76,0,0,0,.33,1.58.88.88,0,0,1-.91,0m.34,13.49.24.11c-.08,3.25.55,6.58-.12,9.18-.56-2.43-.16-6.18-.12-9.29m.24,78.42c.45.14,1.56-.68,1.47.34-.5-.11-1.49.28-1.47-.34m14.43,29c-.07,1.54-.16,3.05-.23,4.7,0,.93,0,1.92,0,2.88a22.48,22.48,0,0,0,0,3.76l-.09.4c-.94.06-1.69-.1-2.61-.1l-.46,0c-.36-.09-.71-1.17-.92-1.54-.33-.61-.67-1.25-1-1.93s-.75-1.2-1-1.87c-.14-.31-.21-.62-.38-.92-.43-.77-.8-1.76-1.22-2.56a1.43,1.43,0,0,0-.4-.49c-.48.32-.27,1-.25,1.62,0,1.1-.15,2.49-.21,3.6a2.29,2.29,0,0,0,.32,1.78c.48.17,1.1.17,1.56.35,0,.67-.21,1.33-.14,2-1.5.07-3.69,0-5.09,0a1.31,1.31,0,0,1-.69.11c0-.49-.31-1.62,0-2s1-.17,1.42-.39a6.38,6.38,0,0,0,.2-2.21c0-.2.08-.4.09-.6,0-1.36-.21-2.87,0-4.3a9.52,9.52,0,0,1,.14-2.18,2.2,2.2,0,0,0-.15-1.18c-.26-.3-.94-.11-1.29-.38,0-.75-.39-1.38-.09-2a10.64,10.64,0,0,1,1.68-.06c.18,0,.38.14.59.16.59.08,1.23,0,1.92,0l1,0a4.77,4.77,0,0,1,.92,0c.25.1.42.69.55,1s.32.77.44,1.08c.06.16.23.36.27.49.12.33.15.72.31,1.08s.37.59.55.92c.35.68.49,1.23.88,2,.15.31.43.87.61.85s.31-1.23.31-1.43a11.46,11.46,0,0,1-.15-1.64,14.9,14.9,0,0,0-.07-2.31,2.61,2.61,0,0,1-1.52-.22,13.21,13.21,0,0,1,.07-2.11,23.25,23.25,0,0,0,4,.07,3,3,0,0,1,1.62.21c0,.59.13,1.15.16,1.79-.24.3-1,0-1.39.35-.17.15-.14.63-.15.95m8.25,11.63c-.29.14-.65.49-1,.44l-.17-.1-.23.13a6.68,6.68,0,0,1-1.15-.08,2.82,2.82,0,0,1-1.69-.34c-.58,0-.75-.37-1.14-.64a6,6,0,0,1-1-.75,3.38,3.38,0,0,1-.37-.62c-.19-.27-.43-.49-.61-.76a5.18,5.18,0,0,1,0-3.62,7,7,0,0,1,.84-1.54,9,9,0,0,1,.62-.87l.33-.2.26-.33a1.5,1.5,0,0,1,.88-.48c.16-.43.74-.36,1.25-.44.24,0,.46-.16.69-.18a4.26,4.26,0,0,1,2.52.66,3.54,3.54,0,0,1,1.25,1.27l.09.23a21.8,21.8,0,0,1,.45,3.56c-1.7.09-3.33.17-4.82.17-.5,0-1.43-.22-1.55.22a3.34,3.34,0,0,0,.37,1.15l.27.43a4.3,4.3,0,0,0,1.91.8,5.35,5.35,0,0,0,3.08-.94,10.7,10.7,0,0,1,1,1.14,4.84,4.84,0,0,1-2,1.69m8.62-8c-.69.08-1.69-.08-2,0-.3,1.6-.66,4.05.17,5.65.31.57.85.63,1.7.63,0,.29.14.54.14.79l-.06.24.07.36c-.12.34-1.32.83-1.77.91a10,10,0,0,1-1.79-.1c-.51,0-.47,0-.86-.39a2.27,2.27,0,0,1-.76-2.47l-.13-.13c0-.69,0-1.36-.07-2.14,0-1.08.36-2.3,0-3.4-.25.05-.83.06-.8-.09-.15,0-.13.18-.32.16a3.72,3.72,0,0,1,0-2c.59,0,.69-.3,1.18-.41.14-.07.19-.37.39-.27l.07-.2h.23c0-.37.29-.65.52-.57l0-.3c.16-.13.15-.43.36-.5,0-.49.42-.8.38-1.3a1.36,1.36,0,0,1,1.25-.11c0,.74,0,1.34,0,2a3.39,3.39,0,0,0,0,.77c.18.76,1.57.41,2.26.63a11.8,11.8,0,0,1-.07,2.18m14.64.26a9.12,9.12,0,0,0-.54,1.6c-.12.41-.21.74-.31,1.22-.15.71-.46,1.39-.64,2.06-.09.34-.1.7-.21,1s-.32.73-.45,1.13a3.8,3.8,0,0,0-.25.83c-.92.1-1.62.08-2.64.16-.52-.89-.34-2.9-.79-4-.08-.21-.28-.43-.31-.59s.24-.81-.17-1l-.1.32c0,.17-.2.16-.26.28a17.61,17.61,0,0,0-.65,2.78c-.12.39-.32.78-.41,1.2a4.86,4.86,0,0,1-.39,1.26l-3.33,0a10.44,10.44,0,0,1-.47-3.07c0-.26-.15-.52-.21-.8-.19-.88-.28-1.46-.46-2.33,0-.23-.18-.41-.25-.63-.13-.48-.11-1-.28-1.48a4.45,4.45,0,0,0-.89-.12c0-.7-.08-1.49-.1-2.18,1.5,0,2.86.07,4.46,0a5.41,5.41,0,0,1-.07,2l-.56.11a21.17,21.17,0,0,0,.72,3.86l.26.29a4.66,4.66,0,0,0,.66-.74c.06-1.64.74-2.83.89-4.37a4.82,4.82,0,0,1,.15-1c.94,0,1.9.09,2.91,0,0,.26.16.38,0,.49.36.41.28,1.28.52,1.81.13.85.21,1.89.33,2.81.06.43.24.89,0,1.26.34,0,.22.25.37.38a3.29,3.29,0,0,0,.62-.93c.08-.28,0-.59.09-.89s.23-.7.31-1.06c.12-.54.29-1,.41-1.53-.18-.23-.53-.1-.89-.12-.26-.69.12-1.64.13-2.18,1.38-.05,2.49-.3,3.76-.25-.09.59.17,1.89-.33,2.41a4,4,0,0,0-.69,0m10.74,5.05a5.08,5.08,0,0,1-.8,1.72c-.16.16-.44.31-.65.48a6.69,6.69,0,0,1-5.94.74c-.18-.09-.36-.23-.54-.33a3.46,3.46,0,0,1-1.06-.67,5.14,5.14,0,0,1-.91-1.25,8.49,8.49,0,0,1-.09-4,7.82,7.82,0,0,1,.34-1.3c.08-.16.28-.29.36-.5s.06-.39.13-.53a3.61,3.61,0,0,1,.59-.57,7.47,7.47,0,0,1,.62-.54,5,5,0,0,1,1.4-.88c.27-.05.55-.05.8-.1a4,4,0,0,1,1.84,0c.63.16,1.13.48,1.76.64.3.34.79.45,1.07.81.11.13.21.36.34.55a10.14,10.14,0,0,1,1,2.3,6.33,6.33,0,0,1,.07,2.38,5.78,5.78,0,0,1-.32,1m7.91-3.81a2.12,2.12,0,0,0-1.1-.65,1.68,1.68,0,0,0-1.12.45,5.2,5.2,0,0,0-.36,2.41c-.06.91-.27,1.88.17,2.51a5.88,5.88,0,0,0,1.39.21,4.45,4.45,0,0,1,0,2,15.51,15.51,0,0,1-2.55,0,30.73,30.73,0,0,0-4,0,10.69,10.69,0,0,1,.21-2.28,4,4,0,0,0,1.52-.16c0-.25-.13-.32-.21-.45.06-.76.19-1.76.19-2.69,0-.46-.11-1-.11-1.41,0-.25.07-.42-.05-.6-.23-.35-1-.17-1.36-.4,0-.79.1-1.29.17-2,.45-.26,1-.13,1.52-.26a14.55,14.55,0,0,1,1.48-.44c.43,0,.87,0,1.29,0,.13.54-.14,1.46.09,1.95.2.09.26-.22.46-.24a8.66,8.66,0,0,1,1.53-1.77,3.72,3.72,0,0,1,2.94.13c0,1.31,0,2.71,0,4.26a8.62,8.62,0,0,1-1.68,0c-.25-.1-.27-.44-.41-.65m13.32,7c-.53,0-1.14-.16-1.86-.11l.1-.16c-.16-.06-.36,0-.49,0l0,.17c-.22,0-.14-.13-.23-.17l0,.13h-.3l0-.2c-.21,0-.34-.12-.52,0l-.13.16h-.2c-.23,0-.51-.14-.76,0l-.13-.06-.1-.2h.09l-.1-.13-.16.33a3.47,3.47,0,0,1-.92,0c0-.5-.12-1.27.24-1.43-.18,0-.22-.23-.21-.48.37.08.87-.14.52-.67l-.33-.33c-.14-.17-.23-.41-.37-.56l-.34-.26c-.22-.27-.33-.73-.66-.78-.58.26-.15,1.67-.31,2.22l0,.06c.17.15.51.12.69.26a3.57,3.57,0,0,1,0,1.92h-.29c-.06-.08,0-.23-.14-.23s0,.25-.19.27l-.1-.17c-.07,0,0,.25-.16.2l-.07-.19c-.18.17-.35,0-.63.2,0-.07-.65-.09-.79.14-.31-.13-.61,0-.89,0l-.33-.1a13.86,13.86,0,0,1-2.15,0c.1-.59.11-1.33.27-1.95a2.65,2.65,0,0,0,1.29-.28,5.43,5.43,0,0,0,.11-1.42c.14-2.73.14-6,.05-8.43-.53-.15-1.1-.14-1.69-.27a16.32,16.32,0,0,1,.21-2c.51-.37,1.18-.21,1.78-.32.26-.06.45-.2.79-.28a3.5,3.5,0,0,1,2,0,6.2,6.2,0,0,1-.1,2.22c-.07.69.07,1.74,0,2.54,0,.62.08,1.29,0,2,0,.48-.1.88-.11,1.26s-.11.57.21.69a16.7,16.7,0,0,0,2-1.38c.13-.08.33,0,.36-.23s-.3-.31-.4-.49a1.25,1.25,0,0,1-.83-.06,8.14,8.14,0,0,1,0-2.22c1.68.09,3.8,0,5.46.16a11.13,11.13,0,0,1,0,2.25.8.8,0,0,0-.85.24l-.36.23c-.17.16-.17.22-.39.34a8.81,8.81,0,0,0-.72.64,6.22,6.22,0,0,0-.75.61.69.69,0,0,0-.22.76c.11.22.32.29.47.42s.54.57.8.85a1.44,1.44,0,0,1,.34.49,8.22,8.22,0,0,1,1.57,1.43,2.63,2.63,0,0,0,.93.15c0,.27.12.51.11.76l-.1.33c0,.4.2.77.09,1.13m-.53-16.35a9.27,9.27,0,0,1-1.42-.38l-.27-.23A4.07,4.07,0,0,1,145,169c-.13-.21-.17-.5-.3-.72l-.27-.29-.07-.21a3,3,0,0,1-.56-2,9.58,9.58,0,0,1,.31-1.88l.22-.34c.16-.33.22-.76.39-1a15.69,15.69,0,0,0,1-1.33,5.94,5.94,0,0,1,3.52-.88l.05-.14a2.85,2.85,0,0,0,.58-.12l.13.25a1.75,1.75,0,0,1,1.32.06c.32.13.69.57,1.07.77.17.09.34.08.46.16a4.71,4.71,0,0,1,.53.62,2.74,2.74,0,0,1,.55.59c.13.27.2.61.34.92a5.1,5.1,0,0,1,.4.82,5.82,5.82,0,0,1,0,1.25,3.12,3.12,0,0,1-.53,2.48,2.21,2.21,0,0,1-.93,1.57c-.23.22-.4.48-.55.61a5.18,5.18,0,0,1-4,1,7.79,7.79,0,0,1-.83-.22m2.64,16.26a1.94,1.94,0,0,1-1.43-.55c0-.55-.06-1.11.31-1.42a1.09,1.09,0,0,1,1.52.14,4.71,4.71,0,0,1,.28,1.09c-.22.24-.36.58-.68.74m5.93-.75a2,2,0,0,1-2,.75,3.24,3.24,0,0,1-2.4-1.22,2.34,2.34,0,0,1-.65-1.9,5.64,5.64,0,0,1,.41-1.53c.53-.33,1.07-1.1,1.77-1.15a4.06,4.06,0,0,1,2.75,1,4.23,4.23,0,0,1,.73,2.41,2.69,2.69,0,0,1-.61,1.65m4.69-2.77c-.22-.44-.5-.71-1-.62s-.66.93-.67,1.67a5.23,5.23,0,0,0,0,.62,1.77,1.77,0,0,0,.38.63c.19.16.45.11.53.28s-.07.41-.16.63a9.07,9.07,0,0,1-3.2,0,2.53,2.53,0,0,1,.18-1,1,1,0,0,0,.56-.67l0-.43c0-.53.26-1.18,0-1.56s-.67-.22-.8-.54a2,2,0,0,1,.05-.8c.89-.1,1.72-.48,2.48-.49.17.15.15.38.37.42.42.09.75-.48,1.28-.54a2,2,0,0,1,.83.12,4.51,4.51,0,0,1-.27,2.05,2.42,2.42,0,0,1-.63.14m7.09-.76a1.18,1.18,0,0,1-.59,0c-.33-.14-.39-.58-.77-.58-.81,0-.05,1,0,1.55s-.22.7-.45,1.09a5.59,5.59,0,0,1-1.48.49c-.28,0-.66-.06-.69.24a.74.74,0,0,0,.87.75c.43,0,1-.69,1.55-.68.26,0,.51.26.75.22.22.23.4.51.61.74a2.44,2.44,0,0,1-.65,2.53c-1.17.6-3.4,1-4.69.29a1.58,1.58,0,0,1-.78-1,2.17,2.17,0,0,1,.81-1.76c0-.46-.45-.59-.61-1,.31-.23.92-.28,1-.7s-.36-.64-.45-1a2.85,2.85,0,0,1,.7-2.45,2,2,0,0,1,1.71-.32c.38.09.62.58,1,.62s1-.74,1.61-.82a.84.84,0,0,1,.69.19,2.68,2.68,0,0,1-.11,1.55m1-95c.09-2,.35-5,.69-7.25l.11.22v4c0,1.17.48,3-.8,3.06m-19.62,80.63c-1,.24-1.45-.26-1.8-1.23-.07-.19-.22-.38-.27-.52s0-.31,0-.47l-.14-.32.07-.3a4.55,4.55,0,0,1,0-.89,3.3,3.3,0,0,1,1-2.06,1.85,1.85,0,0,1,2.49.79,9,9,0,0,1-.24,4.23c-.24.19-.4.6-.72.74Zm14.24,19.67c-.11-.28-.33-.67,0-.85l.49.15a4,4,0,0,0,1-.41c.2.07.43.1.62.16a6,6,0,0,0,.44.56v.49c-.43,1-1.77.15-2.51-.1m.19-5.38a.77.77,0,0,1,1.12-.35c.62.55,0,2.42-.84,1.6a1.29,1.29,0,0,1-.28-1.25m-9.71-.3c1,.11,1.14,2.37.46,3-1.32.57-2-.87-1.67-2.09.29-.4.63-1,1.21-.91"/></svg>