<svg xmlns="http://www.w3.org/2000/svg" viewBox="0 0 240 240"><defs><style>.a,.b{fill:#fff;}.b{opacity:0.66;}</style></defs><path class="a" d="M80.66,120a8.71,8.71,0,1,1-8.7-8.69A8.7,8.7,0,0,1,80.66,120ZM72,142.94a8.71,8.71,0,1,0,8.7,8.71A8.71,8.71,0,0,0,72,142.94Zm0-63.29a8.71,8.71,0,1,0,8.7,8.71A8.71,8.71,0,0,0,72,79.65ZM38.71,111.32a8.7,8.7,0,1,0,8.7,8.69A8.71,8.71,0,0,0,38.71,111.32Zm0,31.62a8.71,8.71,0,1,0,8.7,8.71A8.72,8.72,0,0,0,38.71,142.94Zm0-63.29a8.71,8.71,0,1,0,8.7,8.71A8.72,8.72,0,0,0,38.71,79.65Zm66.49,63.29a8.71,8.71,0,1,0,8.7,8.71A8.7,8.7,0,0,0,105.2,142.94Zm0-63.29a8.71,8.71,0,1,0,8.7,8.71A8.7,8.7,0,0,0,105.2,79.65Z"/><path class="a" d="M200.39,126.4l-1.46,6.17h-5L200.74,107h5.87L210,119.76a40.35,40.35,0,0,0-78.57-12.71h2.9v17.77c0,2.62,1.14,4,3.16,4s3.15-1.37,3.15-4V107.05h5.11v17.73c0,5.65-3.46,8.23-8.26,8.23-3.07,0-5.59-1-7-3.29A40.36,40.36,0,0,0,208,132.5l-1.48-6.1Zm-36,6.17h-4.13L152.71,117v15.54H148V107.05h4.87l6.85,14.85V107.05h4.67Zm14.49-21.08h-7.12v6.18l5.56,0v4.56h-5.56v10.36h-5.07V107.05h12.19Zm8.07,12h-.77v9.13h-5V107.05h6.07c5.41,0,8.9,2.72,8.9,8.1S192.62,123.37,187,123.44Zm4.34-8.22c0,2.85-1.48,4.16-4.24,4.16h-.9v-8.26h1C189.87,111.12,191.32,112.49,191.32,115.22Zm10,7.08,2.21-9.37,2.19,9.37Z"/><path class="b" d="M112.83,132.38a4.07,4.07,0,0,0,2.37-1.25,6.45,6.45,0,0,0,1-1.79A6.91,6.91,0,0,1,117,128c.06-.07,0-.07,0-.07a13,13,0,0,0-2.37,2,10,10,0,0,1-2.49,2.05,7.52,7.52,0,0,1-1.69.48c-.15,0-.09.12-.09.12a9.5,9.5,0,0,1,2.06.35c.71.19,1.39.41,1.87.51a7.11,7.11,0,0,0,4.22-.59,6,6,0,0,0,2.62-2.48c0-.09-.05,0-.05,0a4.22,4.22,0,0,1-2.23,1.35,20.63,20.63,0,0,1-3.34.39c-1.58.17-2.59.38-2.67.36S112.83,132.38,112.83,132.38ZM124,125.54a4.67,4.67,0,0,1-2,2.19c-1.32.77-2,1-2.7,1.35a14.27,14.27,0,0,0-1.41,1,8.78,8.78,0,0,1-.84.55s-.12,0,0,0a5.8,5.8,0,0,0,1.08-1.09,5.68,5.68,0,0,0,.9-1.88c.13-.42.18-1.54.42-2.62a5.28,5.28,0,0,1,.38-1.12c0-.07-.09,0-.09,0a13.54,13.54,0,0,0-1.58,2.32,15.85,15.85,0,0,0-.65,1.67,11.11,11.11,0,0,1-1.18,2.78,4.94,4.94,0,0,1-.91,1s0,0,0,0a11.9,11.9,0,0,1,1.62-.43c.59-.12,1.29-.2,1.91-.35a7.57,7.57,0,0,0,3.15-1.86,6.17,6.17,0,0,0,2-3.5C124.06,125.42,124,125.54,124,125.54ZM120.93,120c-.53.87-.77,3.69-.81,4.47a15.46,15.46,0,0,1-.31,2.43,11.49,11.49,0,0,1-.69,1.66s0,0,0,0a10.28,10.28,0,0,1,1.24-.86,20,20,0,0,0,2.6-1.8,6.52,6.52,0,0,0,1.85-2.52,6.28,6.28,0,0,0,.4-3.13h0a4.71,4.71,0,0,1-1.1,2.4c-.48.53-1.49,1.47-2,2.09s-1.47,2-1.47,2l-.05,0a4.62,4.62,0,0,0,.85-2.63A19.2,19.2,0,0,0,121,121a4.22,4.22,0,0,1,0-1Zm1.36-1.4a4.63,4.63,0,0,1,.59,2.34,3.7,3.7,0,0,1-.27,1.32l.06,0a2.84,2.84,0,0,0,.3-.89,12.22,12.22,0,0,1,.29-1.54c.11-.31.46-1.22.83-2a6,6,0,0,0,.6-1.84,5.1,5.1,0,0,0,0-1.41c0-.06,0,0,0,0a6.68,6.68,0,0,1,.52,2.5,7.54,7.54,0,0,1-.68,3.51,11.39,11.39,0,0,1-1.47,2c-.35.39-1,1.44-1,1.51s-.08,0-.08,0a5.42,5.42,0,0,0,0-2.09c-.09-.3-.73-2.46-1-3.48a12.05,12.05,0,0,1-.37-2.93c0-.13.09-.06.11,0C120.77,116.26,121.86,117.83,122.29,118.56Zm1.89-6a6.33,6.33,0,0,1,0,2.48,11.39,11.39,0,0,1-.73,2.21,6.84,6.84,0,0,0-.42,1.79H123a5,5,0,0,0-.82-2.08,32.08,32.08,0,0,1-2.07-3,9.18,9.18,0,0,1-.68-2.12s0-.06.09,0a3,3,0,0,0,.7.94,10.59,10.59,0,0,1,2.3,2.46,4.88,4.88,0,0,1,.41,1.6H123a20.63,20.63,0,0,1-.15-2.6c0-1.17.22-1.24.24-2.55a3.76,3.76,0,0,0-.51-2.08s0-.11,0,0A7.44,7.44,0,0,1,124.18,112.57Zm-1.75,1.75s0-.45-.07-1.13a21.31,21.31,0,0,0,0-3.19,3.73,3.73,0,0,0-2.73-2.89s-.07,0,0,0a2.65,2.65,0,0,1,1.14,1.48,15.88,15.88,0,0,1,.53,2.13c.12.49.63,1.83.63,1.83h-.08a4,4,0,0,0-1.18-1.69c-.47-.44-1.62-1.07-2.09-1.53a5.45,5.45,0,0,1-.81-1.12,4.49,4.49,0,0,0,1.47,3c.35.32.92.68,1.4,1.07a9.69,9.69,0,0,1,1.1,1,4.23,4.23,0,0,1,.69,1Zm-5.59-7.95c.44.44,1.07,1.49,1.57,2.06a27.61,27.61,0,0,0,2.24,1.95s.06-.07,0-.06a2.41,2.41,0,0,1-.27-.66A5.87,5.87,0,0,0,119,107a5.24,5.24,0,0,0-2-1.25l-1.28-.46ZM93.61,133.69a4.94,4.94,0,0,0,2.68.78,9,9,0,0,0,4-1.19,7.75,7.75,0,0,1,3.4-.78,5.8,5.8,0,0,1,2.08.33,7.05,7.05,0,0,1,2.39-.31,8.39,8.39,0,0,1,3.71,1,8.51,8.51,0,0,0,3.14.86,4.91,4.91,0,0,0,2.92-.78s0,0,0,0a5.85,5.85,0,0,1-4.26,2,6.84,6.84,0,0,1-2.28-.49,14.64,14.64,0,0,1-2.14-1.3,3.3,3.3,0,0,0-1.38-.76c-1-.1-1.28,0-1.28,0a15.73,15.73,0,0,1,4.42,3.07l-.88.73a13,13,0,0,0-4.37-3.57,8.58,8.58,0,0,0-2.6,1.7,11.68,11.68,0,0,0-1.81,1.9l-.86-.73a14.64,14.64,0,0,1,2.37-2,9.84,9.84,0,0,1,2.05-1.12,2.64,2.64,0,0,0-1.56.06,24.26,24.26,0,0,0-2.22,1.41,5.79,5.79,0,0,1-3.38,1.1,6.12,6.12,0,0,1-4.22-2S93.57,133.68,93.61,133.69Zm5.06-1.24a4.24,4.24,0,0,1-2.41-1.26,5.76,5.76,0,0,1-1-1.76,7.26,7.26,0,0,0-.77-1.31c0-.07,0-.08,0-.08a13,13,0,0,1,2.41,2,9,9,0,0,0,2.54,2,4.44,4.44,0,0,0,1.69.49c.14,0,.09.11.09.11a9.5,9.5,0,0,0-2.06.36c-.71.19-1.39.41-1.86.5a7.26,7.26,0,0,1-4.32-.54,6.1,6.1,0,0,1-2.63-2.47c0-.07.06,0,.06,0a4.21,4.21,0,0,0,2.2,1.31,25.17,25.17,0,0,0,3.42.37c1.57.17,2.61.39,2.68.37S98.67,132.45,98.67,132.45Zm-11.26-6.79a4.88,4.88,0,0,0,2.12,2.19c1.31.78,2.24,1.09,2.91,1.5a8.92,8.92,0,0,1,1.16.84,6.79,6.79,0,0,0,.87.57s.12,0,0,0a6.11,6.11,0,0,1-1.08-1.09,5.5,5.5,0,0,1-.9-1.91c-.15-.43-.34-2-.48-2.63a6.17,6.17,0,0,0-.37-1.09c0-.06.08,0,.08,0a15.5,15.5,0,0,1,1.69,2.48,14.08,14.08,0,0,1,.59,1.46,11.87,11.87,0,0,0,1.21,2.77,5.24,5.24,0,0,0,.91,1c0,.06,0,0,0,0a11.72,11.72,0,0,0-1.57-.4c-.58-.11-1.27-.19-1.89-.32a7.67,7.67,0,0,1-3.27-1.85,6.37,6.37,0,0,1-2-3.52C87.35,125.55,87.41,125.66,87.41,125.66Zm3-5.59a15.58,15.58,0,0,1,.88,4.5,14.24,14.24,0,0,0,.31,2.42,10.41,10.41,0,0,0,.69,1.66s0,0,0,0a9.11,9.11,0,0,0-1.25-.86,20.85,20.85,0,0,1-2.61-1.78,6.63,6.63,0,0,1-1.86-2.54,6.31,6.31,0,0,1-.44-3.1h0a4.93,4.93,0,0,0,1.15,2.36c.46.58,1.5,1.48,2,2.1s1.49,2,1.49,2l0,0a4.7,4.7,0,0,1-.87-2.64,19.89,19.89,0,0,1,.46-3.11,4.19,4.19,0,0,0,0-1Zm-1.35-1.43a4.42,4.42,0,0,0-.58,2.34,3.23,3.23,0,0,0,.24,1.34l0,0a3,3,0,0,1-.29-.89,9.67,9.67,0,0,0-.34-1.46,9.77,9.77,0,0,0-.75-1.86,5.82,5.82,0,0,1-.71-2,4.75,4.75,0,0,1,0-1.38s-.06,0-.06,0a4,4,0,0,0-.51,2.16,8.56,8.56,0,0,0,.71,3.82,10.66,10.66,0,0,0,1.48,2c.35.39,1,1.4,1.07,1.47s.06,0,.06,0a8.21,8.21,0,0,1,0-2.1c.07-.3.76-2.44,1-3.47a19.52,19.52,0,0,0,.32-2.95c0-.13-.08-.06-.11,0C90.53,116.31,89.46,117.89,89.07,118.64Zm-2-6a7.56,7.56,0,0,0,0,2.61,11.46,11.46,0,0,0,.74,2.15,7.43,7.43,0,0,1,.45,1.83h.07a6.1,6.1,0,0,1,.91-2.25,33.81,33.81,0,0,0,2-3,7.19,7.19,0,0,0,.62-2s0-.1-.09,0a2.91,2.91,0,0,1-.62.9,11.29,11.29,0,0,0-2.3,2.46,4,4,0,0,0-.46,1.71h-.07a20.82,20.82,0,0,0,.14-2.56c0-1.17-.25-1.4-.28-2.72a3.2,3.2,0,0,1,.52-2,.06.06,0,0,0-.1,0A6.92,6.92,0,0,0,87.09,112.6Zm1.76,1.83s0-.43,0-1.11a20.23,20.23,0,0,1,0-3.21,3.76,3.76,0,0,1,2.76-2.91s0,.06,0,.06a2.6,2.6,0,0,0-1.11,1.46,15.52,15.52,0,0,0-.53,2.13c-.12.49-.61,1.86-.61,1.86h0a3.89,3.89,0,0,1,1.2-1.72c.47-.44,1.62-1.1,2.09-1.57a4,4,0,0,0,.73-1.1,4.27,4.27,0,0,1-1.36,3c-.36.33-.92.73-1.41,1.12a13.09,13.09,0,0,0-1.1,1.06,3.85,3.85,0,0,0-.68,1Zm5.52-8c-.45.44-1.05,1.53-1.55,2.11s-2.24,1.95-2.24,1.95.11-.3.23-.71a5.87,5.87,0,0,1,1.37-2.7,5.45,5.45,0,0,1,2-1.26l1.15-.42S94.82,106,94.37,106.43Zm11.28-2.34a13.78,13.78,0,1,0,14,13.79A13.88,13.88,0,0,0,105.65,104.09Zm13.2,13.42h-2a10.83,10.83,0,0,0-1-4.29,1,1,0,0,0-.07-.28,1.32,1.32,0,0,0-.3-.44s0,0,0,0l-.09-.16a.35.35,0,0,1,0-.13,1.2,1.2,0,0,0-.3-.38,11.51,11.51,0,0,0-1.2-1.49l1.42-1.41A12.88,12.88,0,0,1,118.85,117.51Zm-5.59,7a.68.68,0,0,1,0-.3c-.06-.19-.08-.08-.11-.18a.44.44,0,0,0-.45-.3s-.13.07-.08.31a.44.44,0,0,1,0,.2l-.68-.68a8.23,8.23,0,0,0,2-3.62.3.3,0,0,1,.12.11c.08.13.33-.05.31-.19s-.26-.31-.32-.44a7.23,7.23,0,0,0,.13-1.15h2a10.23,10.23,0,0,1-2.8,6.62c0-.1,0-.15,0-.21A.84.84,0,0,0,113.26,124.5Zm-1.82,1.43c0-.12.45-.5.47-.64s-.15-.41-.79-.72v-.26a1.09,1.09,0,0,0,.22-.21l1,1a.6.6,0,0,0,.09.24.18.18,0,0,0,.18,0l.06.06a9.91,9.91,0,0,1-1.13.9l0-.08C111.62,126.15,111.44,126.05,111.44,125.93Zm-.36-4.76c-.07-.22-.06-.18-.19-.18s-.33,0-.4.11-.07.19-.14.31-.14,0-.26.06l0,0a2.09,2.09,0,0,1,.14-.17.64.64,0,0,0,.21-.27c.06-.1.47-.12.5-.18s.24-.36.31-.47,0-.23.07-.21,0,.23.15.28.25-.18.31-.26.18,0,.18,0a3.06,3.06,0,0,0,.46,0c.25,0,.5-.1.58-.1H113a7.51,7.51,0,0,1-1.56,2.75,2.3,2.3,0,0,0-.14-.47c-.06-.1-.18,0-.27.19a.39.39,0,0,1,0,.09l-.14-.14,0,0c0-.25.08-.12.1-.32,0-.38.19-.55.12-.6A1.22,1.22,0,0,0,111.08,121.17Zm-2.32-.86.25.12a.81.81,0,0,1,.08.33l-.56-.56.11-.1.07,0-.06.12Zm0,2.29a2.52,2.52,0,0,1,.67.16c.22.13.16-.05.42.07a1.07,1.07,0,0,0,.32.13l.25.25-.46,0a1.15,1.15,0,0,1-.49-.2,3.57,3.57,0,0,0-.94-.28h0Zm.48-7.8.14-.13a.75.75,0,0,1,.12.14c-.05.12-.13.1-.09.16S109.36,114.89,109.28,114.8Zm2.73-.32a5.63,5.63,0,0,0,.72.48.34.34,0,0,1,.11.16,6.33,6.33,0,0,1,.3.9v0c0,.16-.3.45-.35.53s-.14,0-.21,0,0-.18,0-.23.09-.14.09-.21,0-.13.08-.16.16-.11.11-.18,0-.09-.15-.14,0-.27-.39-.33a.49.49,0,0,0-.47.17c-.1.09-.17,0-.19-.09s.09,0,.08-.16,0-.17-.11-.22-.19-.46-.41-.49l-.76-.12c-.14,0-.2,0-.23,0l-.28-.33,1.39-1.4c.1.12.19.21.28.33l.47.62c0,.07.1.14.14.21a.42.42,0,0,1-.11.35C112,114.32,111.93,114.35,112,114.48Zm.21,3c.09-.13.18-.06.24-.06s.21.08.26-.06-.08-.08-.06-.17-.08-.21,0-.27.26,0,.38-.12a1.28,1.28,0,0,0,.17-.26,5.88,5.88,0,0,1,.1.94Zm1.14.75a7.33,7.33,0,0,1-.19,1.34.08.08,0,0,1-.08,0c-.09-.1-.06-.26-.26-.45s-.29-.17-.31-.28,0-.26-.1-.37-.15-.12-.23-.2Zm.75-.75a4.07,4.07,0,0,0,0-.5h0a2.74,2.74,0,0,0-.08-.43c0-.1,0-.2,0-.3s0-.27,0-.33a1.16,1.16,0,0,0,0-.29v0a.2.2,0,0,0-.18.05,4.92,4.92,0,0,0-.21-.65.38.38,0,0,0,.09-.27c0-.18-.18-.32-.18-.52s-.19-.08-.3-.12l-.08-.15c0-.06.07-.09.13-.16a.17.17,0,0,0,0-.22s-.26,0-.3,0,.2-.14.15-.3-.11-.24-.24-.16-.14.09-.2.11l-.2-.28c-.13-.19-.29-.37-.43-.54l-.16-.18a.09.09,0,0,0,0-.07l.32-.33a1.67,1.67,0,0,0,.26.17s.37,0,.39,0a.3.3,0,0,1,0,.15l.16.32c.2.07.46.19.46.19s0,.11.19.13a.54.54,0,0,1,.32.12c.08.06.63.79.63.79s.07.16.19.16a.59.59,0,0,0,.28-.11h.11a10.26,10.26,0,0,1,.84,3.69ZM106,104.85a13.29,13.29,0,0,1,8.62,3.5l-1.27,1.27-.28-.3c-.08-.51-.17-.36-.22-.47a1.34,1.34,0,0,0-.39-.4c-.15-.07-.12,0-.24-.08s-.14-.24-.22-.28-.11,0-.34,0a1.93,1.93,0,0,0-.34-.09h-.06l-.39.17a11.42,11.42,0,0,0-4.58-1.28v-.12c0-.16,0-.14-.19-.23a.08.08,0,0,0-.1,0Zm0,2.74a10.54,10.54,0,0,1,4.17,1v.07a1.91,1.91,0,0,1,.4.43,3,3,0,0,1,.13.49.66.66,0,0,1,.19.18c.06.1,0,.37,0,.45s.16.19.16.19a.88.88,0,0,0,.05.3c0,.1.2,0,.2,0l.42-.14a.71.71,0,0,1,.32.35l-.58.57a.76.76,0,0,0,0-.11,2.37,2.37,0,0,0-.17-.48c0-.19-.26-.19-.36-.2s-.26-.21-.37-.4-.34-.38-.42-.31,0,.19.19.5c0,0-.14,0-.1.11a1,1,0,0,0,.13.26,8.63,8.63,0,0,0-4.3-1.39Zm0,2.68a7.72,7.72,0,0,1,4.76,1.94l-1.39,1.39a5.73,5.73,0,0,0-3.37-1.38Zm0,2.71a4.92,4.92,0,0,1,2.71,1.06.77.77,0,0,0-.19.11c-.38.25-.18.27-.11.33l.06,0-.62.63a1,1,0,0,1-.15.1l0,.07-.14.14a3.18,3.18,0,0,0-.64-.38.77.77,0,0,0,.37-.26.87.87,0,0,0,.15-.66c0-.08-.15-.19-.24-.1s-.07.15-.13.2a.6.6,0,0,0-.46.31l-.05,0a2.29,2.29,0,0,0-.53-.15Zm2.18,9.06a.2.2,0,0,1,.22-.1l-.25.15A.11.11,0,0,0,108.22,122Zm-.12-.66-.22.13s-.13.11-.17.06,0-.14,0-.14l.23-.17a.24.24,0,0,1,.28-.06c.16.07,0,.12,0,.12Zm-2.81-16.53v2a11.27,11.27,0,0,0-7.23,2.92l-1.41-1.41A13.34,13.34,0,0,1,105.29,104.85Zm-.75,9.43c-.06.07-.19.18-.19.29a.33.33,0,0,1-.06.25c-.07.09,0,.18-.14.25s-.11-.07-.23,0-.09.1-.13,0,0-.14-.09-.13-.1.09-.25,0-.13-.15-.26-.16l-.75-.75a5,5,0,0,1,2.85-1.14v1.44c-.36.06-.59.13-.61.08s.09-.12,0-.21S104.59,114.21,104.54,114.28Zm-.85,10.43a1.7,1.7,0,0,1,.3.44,4.17,4.17,0,0,0,.4.23,7.72,7.72,0,0,1-3.87-1.81l1.39-1.4a5.69,5.69,0,0,0,2.44,1.22,1.62,1.62,0,0,0-.35.19,1.18,1.18,0,0,0-.29.55.31.31,0,0,1-.19.14A.57.57,0,0,0,103.69,124.71Zm-4.52-4c-.1-.16,0-.28,0-.33A1.37,1.37,0,0,1,99,120c0-.22-.36-.29-.42-.48s0-.07,0-.27-.15-.07-.1-.36.35-.09.43-.14.06-.37.1-.46h.85c0,.13,0,.26,0,.39a.27.27,0,0,1-.12,0s-.2-.27-.31-.26,0,.55,0,.68-.08-.1-.22,0,0,.24,0,.3.17,0,.17,0a.19.19,0,0,0,.14.12c.09,0,.13-.21.13-.23s.06-.44.06-.44a.17.17,0,0,1,.21.09.07.07,0,0,0,0,0,5.56,5.56,0,0,0,1.34,2.59L100,123a1.94,1.94,0,0,1-.23-.26.74.74,0,0,0-.08-.4c-.14-.28-.15,0-.24-.42a1.63,1.63,0,0,1-.08-.75A1.16,1.16,0,0,0,99.17,120.69Zm-.8-1.44s0,0,0,.1-.13.05-.15.12,0,.13-.1.18a7.89,7.89,0,0,1-.2-1.39h.64c-.17.14-.14,0-.2.14s0,.16-.05.29-.13.22-.11.34A.45.45,0,0,0,98.37,119.25ZM96,120.41c0,.07-.11.09-.11.16s.07.11,0,.18-.12,0-.16.07,0,.14,0,.19h0a10,10,0,0,1-.49-2.76h2c0,.25,0,.48.07.72a.32.32,0,0,0-.24-.06c-.2,0-.27.24-.3.27s-.44.21-.52.39a1.82,1.82,0,0,0-.16.34,1.06,1.06,0,0,0-.09.37C96,120.46,96,120.35,96,120.41Zm1.17-2.9h-2a10.12,10.12,0,0,1,2.85-6.71l1.37,1.38A8.32,8.32,0,0,0,97.17,117.51Zm2.58-2.09c-.07.12,0,.18,0,.18s0,.17-.12.19-.16-.08-.34,0-.17.28-.23.35a2.22,2.22,0,0,0-.18.22s0,.13,0,.2a2.32,2.32,0,0,0-.16.18c0,.06.06.4,0,.5a.36.36,0,0,0,.09.26h-.86a7.57,7.57,0,0,1,2-4.8l1.39,1.4a5,5,0,0,0-.41.5,1.49,1.49,0,0,0-.4.23c-.28.23-.27.34-.27.34S99.83,115.29,99.75,115.42Zm.19,1.83c0,.09,0,.17,0,.26h-.58c0-.19.17-.3.37-.3A.59.59,0,0,1,99.94,117.25Zm2,3.86a4.94,4.94,0,0,1-1.08-2l.17,0a1.57,1.57,0,0,0,.38.08s0,.19.11.24.09,0,.13-.06.18.1.18.1-.12.09,0,.24l.26.21c.06,0,.2.11.16-.08s-.07-.24,0-.23.08.51.17.61.33-.09.36-.18a.56.56,0,0,1,.16-.21c.07-.07,0-.22.1-.27h0l.16.21Zm.44-2.65c0-.09.16-.07.22-.13a.77.77,0,0,0,0,.15C102.45,118.49,102.35,118.49,102.34,118.46Zm-.44-4.88-1.39-1.39a7.78,7.78,0,0,1,4.78-1.92v2A5.73,5.73,0,0,0,101.9,113.58ZM100,111.65l-1.37-1.37a10.39,10.39,0,0,1,6.69-2.69v1.92A8.57,8.57,0,0,0,100,111.65Zm-3.86-2.8,1.41,1.41a10.94,10.94,0,0,0-3.07,7.25h-2A12.94,12.94,0,0,1,96.11,108.85Zm-3.67,9.41h2a10.47,10.47,0,0,0,.33,2.32v0c0-.09-.19-.06-.28,0s-.24,0-.25.08.05.15,0,.18-.2.1-.24,0-.09-.11-.18-.1-.23,0-.26.2-.1.07-.16.21a2.88,2.88,0,0,0,0,.73c0,.11.12.21.13.27a1.29,1.29,0,0,0,.21.51c.11.07.15,0,.23,0s.3.41.48.41.17-.19.17-.19a2.19,2.19,0,0,1,.28.39.31.31,0,0,1,.19,0c.08,0,.08.17.16.2s.21,0,.25,0a.73.73,0,0,0,.23.44.71.71,0,0,0,.25.22.3.3,0,0,0,.27,0s0-.12.06-.11,0,.22.19.4.19.22.39.29c.21.28.45.53.68.79l-1.4,1.41A12.85,12.85,0,0,1,92.44,118.26Zm12.85,12.63a13.18,13.18,0,0,1-8.63-3.47L98.07,126a11.23,11.23,0,0,0,7.22,2.91Zm0-2.73a10.46,10.46,0,0,1-6.68-2.68l.08-.09a.46.46,0,0,0,.23.15,2,2,0,0,0,.93-.21h0s.87,0,.89-.16,0-.38-.41-.73a1.31,1.31,0,0,1-.24-.23,8.4,8.4,0,0,0,5.18,2Zm0-6.73s0,0,0,.07V122c-.11,0-.24,0-.28,0a.88.88,0,0,0-.08.49,1.33,1.33,0,0,0,0,.2s0,.06,0,.1a.31.31,0,0,0,.15.06.31.31,0,0,1-.15-.06s0-.07,0-.1a4.91,4.91,0,0,1-2.48-1.09l1.3-1.31a3.08,3.08,0,0,0,1.54.61Zm-1.05-1.68a.23.23,0,0,1,.11,0,.69.69,0,0,0,.36,0c.17-.07.19.13.47-.2a.62.62,0,0,1,.1-.14c.07-.06-.06-.08,0-.22s.26-.28.26-.45-.11,0-.08-.13.09-.31-.46-.28-.65,0-.63.08,0,.39-.11.46-.2.06-.25.15a.69.69,0,0,1-.22.3s-.21-.24-.16-.32,0,.13.17.11.14-.06.17-.26.28-.35.28-.48-.08-.1-.11-.14,0-.19,0-.2a.23.23,0,0,0-.28.22c0,.21-.07.26-.19.26s0-.17-.19-.15c0,0,0,0-.1.07a1.83,1.83,0,0,1,0-.47v-.17h0c0,.05.08.43.16.45s.19.13.24,0a2.13,2.13,0,0,0,.13-.43c0-.09-.06-.16,0-.29s0-.23.09-.34a.91.91,0,0,1,.29-.25c.15-.08.1-.23.21-.32s.68-.11.87-.46c0,0-.13-.3-.09-.41s0-.09-.06-.11a2.1,2.1,0,0,1,.51-.06h0s0,0,0,0-.23-.09-.33,0-.21.08,0,.32a.84.84,0,0,1,.28.32.88.88,0,0,1,.5,0,.9.9,0,0,1,.4.44c0,.09.31.08.31.08a.62.62,0,0,0-.07.29c0,.13.12,0,.14.14s-.15.1-.16.22-.12.18,0,.28.12,0,.19.09,0,.21.2.44-.12.14-.08.25.14,0,.19.2a.71.71,0,0,1-.05.43.36.36,0,0,1-.19.24c-.12,0-.35-.14-.58,0s-.31.55-.36.82l-.35,0A2.35,2.35,0,0,1,104.24,119.75Zm1.62,2.68c.1-.06.14-.19.18-.2h0c.1,0,.17-.14.27-.13s.06,0,.19.09.21-.11.48.27c0,0,.11.07.13-.19,0,0,.16,0,.26.16h.06l.24-.09s0,0,0,0-.13-.27-.06-.24.18.16.28.17l-.24.1a.52.52,0,0,1-.24.09,4.63,4.63,0,0,1-1.39.33v-.52C106,122.26,106,122.38,105.86,122.43Zm.37,4.11s.64-.07.71.14-.23.22-.13.5a1,1,0,0,0,.32.52,1.66,1.66,0,0,1,.48.28,11.42,11.42,0,0,1-1.57.18v-1.77C106.32,126.66,106.23,126.54,106.23,126.54Zm-.19,4.35v-2a10.7,10.7,0,0,0,2.21-.29l.07.09c.11.12.29.15.39.22a.71.71,0,0,0,1.09,0l.32-.13c.19-.07.09-.17.26-.3s.2,0,.27-.17a3.62,3.62,0,0,0,.53-.84l0-.06a10.88,10.88,0,0,0,2-1.48l1.42,1.41A13.27,13.27,0,0,1,106,130.89Zm9.16-4-1.41-1.4a10.94,10.94,0,0,0,3-7.21h2A12.82,12.82,0,0,1,115.2,126.87Zm-3-18.87a.83.83,0,0,0,.24.26c.11.07.29,0,.27-.11s-.08-.16-.11-.26a.29.29,0,0,0-.19-.28c-.15-.06-.15,0-.25,0s-.12-.12-.22,0a.25.25,0,0,0,0,.22Zm-3.6-1.86.14.14C108.93,106.48,108.55,106.14,108.55,106.14Zm-2,.46a1,1,0,0,0,.56.12l.56-.16.26,0a.79.79,0,0,0,.31,0,2.29,2.29,0,0,0,.42-.21l0-.13a.92.92,0,0,1-.14-.11,1.32,1.32,0,0,0-1-.3l-.13.08-.35.15-.44.16a.94.94,0,0,1-.25,0c-.07,0-.15.08-.15.08l0,.1Z"/></svg>