<svg xmlns="http://www.w3.org/2000/svg" viewBox="0 0 240 240"><defs><style>.a,.b,.c,.d{fill:#fff;}.b,.c,.d{isolation:isolate;}.b{opacity:0.6;}.c{opacity:0.8;}.d{opacity:0.4;}</style></defs><path class="a" d="M92.42,137.52c-1.6,0-2.4.53-2.4,1.6a1.6,1.6,0,0,0,.62,1.33,8.3,8.3,0,0,0,1.78,1.07,19.63,19.63,0,0,1,2,1.15,9.23,9.23,0,0,1,1.33,1.07,4,4,0,0,1,1.25,2.94,3.74,3.74,0,0,1-1.52,3.2A6.38,6.38,0,0,1,91.62,151a11.58,11.58,0,0,1-4-.62,3.12,3.12,0,0,1-.71-.27l.44-2.66a8.24,8.24,0,0,0,2.85.88,5.4,5.4,0,0,0,1.24.09,3.64,3.64,0,0,0,1.07-.09,4.7,4.7,0,0,0,.71-.26,1.32,1.32,0,0,0,.54-1.16,1.58,1.58,0,0,0-.63-1.33,7.92,7.92,0,0,0-1.69-1.07c-.8-.35-1.33-.71-1.68-.89a3,3,0,0,1-.89-.62,5.16,5.16,0,0,1-.8-.71,3.18,3.18,0,0,1-.63-.89,4,4,0,0,1-.62-2.13,4.46,4.46,0,0,1,.45-2A4.11,4.11,0,0,1,88.42,136a6.88,6.88,0,0,1,3.82-1,8.41,8.41,0,0,1,3.47.62,3.79,3.79,0,0,1,.62.27l-.53,2.58A6.19,6.19,0,0,0,92.42,137.52Z"/><path class="a" d="M101.85,135.12h3.29v8.8a6.05,6.05,0,0,0,.8,3.64,2.9,2.9,0,0,0,2.31.89,2.75,2.75,0,0,0,2.31-.89,6,6,0,0,0,.8-3.55v-8.8h3.2v9.15a7.19,7.19,0,0,1-1.6,5.07,6.23,6.23,0,0,1-4.8,1.78c-3.29,0-5.34-1.33-6-4.09a14,14,0,0,1-.26-2.85Z"/><path class="a" d="M130.12,144.72a6.13,6.13,0,0,1-2,1.16,8.06,8.06,0,0,1-2.58.35h-2V151h-3.29V135.12h5.6c2.85,0,4.62,1,5.33,2.93a6.73,6.73,0,0,1,.36,2.4,7.06,7.06,0,0,1-.44,2.49A4.09,4.09,0,0,1,130.12,144.72Zm-1.6-4.18a3,3,0,0,0-.8-2.4,2.84,2.84,0,0,0-2-.8,5.29,5.29,0,0,0-2,.27v6a7.55,7.55,0,0,0,1.51.09,6.08,6.08,0,0,0,1.42-.18,2.09,2.09,0,0,0,1-.53A3.37,3.37,0,0,0,128.52,140.54Z"/><path class="a" d="M146.3,144.72a6.13,6.13,0,0,1-2,1.16,8,8,0,0,1-2.57.35h-2V151h-3.29V135.12h5.6c2.85,0,4.62,1,5.34,2.93a7,7,0,0,1,.35,2.4,7.06,7.06,0,0,1-.44,2.49A2.91,2.91,0,0,1,146.3,144.72Zm-1.6-4.18a3,3,0,0,0-.8-2.4,2.82,2.82,0,0,0-2.05-.8,5.33,5.33,0,0,0-1.95.27v6a7.55,7.55,0,0,0,1.51.09,6.08,6.08,0,0,0,1.42-.18,2.09,2.09,0,0,0,1-.53A3.37,3.37,0,0,0,144.7,140.54Z"/><path class="a" d="M156.35,150.5a6.39,6.39,0,0,1-3.65-4.18,12.38,12.38,0,0,1-.44-3.38,8.84,8.84,0,0,1,.62-3.47,6.09,6.09,0,0,1,1.6-2.49A7.48,7.48,0,0,1,160,135a6.32,6.32,0,0,1,5,2.13,8.17,8.17,0,0,1,1.87,5.6A8.52,8.52,0,0,1,164.7,149a7.24,7.24,0,0,1-5.33,2A8.06,8.06,0,0,1,156.35,150.5Zm.26-3.56a3.08,3.08,0,0,0,1.25,1.16,3.44,3.44,0,0,0,1.69.44,3.13,3.13,0,0,0,1.6-.35,2.81,2.81,0,0,0,1.24-1.07,7.21,7.21,0,0,0,1.07-4.27,7,7,0,0,0-.89-3.82,3.16,3.16,0,0,0-2.76-1.51,3.69,3.69,0,0,0-3.73,2.93,9.61,9.61,0,0,0-.36,2.4,8.57,8.57,0,0,0,.27,2.31A3.55,3.55,0,0,0,156.61,146.94Z"/><path class="a" d="M177.42,145.08h-2V151h-3.29V135.12h5.6a9.4,9.4,0,0,1,2.23.26,5.68,5.68,0,0,1,1.78.8,4.22,4.22,0,0,1,1.68,3.74c0,2.4-.88,3.91-2.57,4.62a6.86,6.86,0,0,1,1.6,2.49c.17.53.44,1,.62,1.51a6.73,6.73,0,0,0,.71,1.42l.62,1.16h-3.64c-.09-.18-.27-.35-.36-.53a5.69,5.69,0,0,0-.35-.71c-.09-.27-.27-.54-.36-.89s-.27-.71-.36-1.07-.26-.71-.35-1.07a2.87,2.87,0,0,0-.45-.89A1.09,1.09,0,0,0,177.42,145.08Zm-.18-7.65a11.09,11.09,0,0,0-1.87.18v5.06c.36,0,.71.09,1.25.09h1a2.61,2.61,0,0,0,2.13-.89,2.87,2.87,0,0,0,.62-2,2.43,2.43,0,0,0-.53-1.69A3.48,3.48,0,0,0,177.24,137.43Z"/><path class="a" d="M192.18,137.61h-4.54v-2.49H200v2.49h-4.53V151h-3.29Z"/><path class="a" d="M113.4,98.93a12.37,12.37,0,0,0-7.91-2.49,9.91,9.91,0,0,0-7.38,2.94,11.53,11.53,0,0,0-3,8.27c0,3.73.89,6.75,2.76,8.89,1.86,2.31,4.53,3.37,8,3.37a15.68,15.68,0,0,0,6.84-1.6,4.15,4.15,0,0,0,1.34-.8v7.74a26.58,26.58,0,0,1-5.6,1.69,30.17,30.17,0,0,1-3.74.26c-6.22,0-11-1.68-14.49-5.15s-5.07-8-5.07-14c0-6.13,1.87-10.94,5.69-14.4,3.56-3.2,8.09-4.89,13.78-4.89a29.22,29.22,0,0,1,8.09,1.06c.63.18,1.25.27,1.78.45Z"/><path class="a" d="M126.12,88.89h12.8l4.62,19.73,1.69,9,1.34-9,4.09-19.73H163.1l4.8,38.31h-9.15L157,107l-.53-10.93L154,107.2,149,127.12h-8.36l-5.51-19.83-2.49-11.11L132,107.11l-1.52,20.18h-8.8Z"/><path class="a" d="M177.6,88.89h9.6v31.2h12.53v7.11H177.6V88.89Z"/><path class="b" d="M66.2,149.88a5.7,5.7,0,0,0,5.86-4.36H60.24A6,6,0,0,0,66.2,149.88Z"/><path class="a" d="M65,120.09c6.13-7,8-12.71,6.58-31.74-.27-3.46-3-6.93-6.58-6.75s-6.4,3.73-6,7.2c1.87,16.71-1.77,19.91-1.77,19.91s-5.16-1.95-3.83-19.65c.27-3.46-2.75-7.29-6.31-7.29-6.22-.09-6.76,4.8-6.76,8.27a85.74,85.74,0,0,0,1.34,15.65A21.62,21.62,0,0,0,49.12,118s-11.64,10.85-8.62,34.41a7.32,7.32,0,0,0,6.94,6,6.26,6.26,0,0,0,6.22-6.58c-.53-18.58,4.09-21.25,4.09-21.25s1.51,1.43,2,6.32H72.24A33.24,33.24,0,0,0,65,120.09Z"/><path class="c" d="M72.51,141.25H59.88a6.71,6.71,0,0,1-.09,1.34,7.09,7.09,0,0,0,.45,3H72.06a6.54,6.54,0,0,0,.36-2.31A17.05,17.05,0,0,0,72.51,141.25Z"/><path class="d" d="M59.88,141.25H72.51a34.21,34.21,0,0,0-.27-4.35H59.7C59.79,138.14,59.88,139.56,59.88,141.25Z"/></svg>