<svg xmlns="http://www.w3.org/2000/svg" viewBox="0 0 240 240"><defs><style>.a,.b{fill:#fff;}.a{isolation:isolate;opacity:0.66;}</style></defs><path class="a" d="M168.3,137.49c-1.09-3.5-4.12-13.14-4.9-15.71-2.33-.31-5.06-.62-8-.86a114,114,0,0,0-17,0c-1.55.08-3.11.24-4.66.47a96.51,96.51,0,0,0-23.65,5.83c-1.48.55-2.88,1.17-4.35,1.79l-.08.08c-.7.31-1.48.7-2.26,1a85.29,85.29,0,0,1-22.86,5.76c-4.59.54-9.18.78-13.23.85a142,142,0,0,1-17.34-1h0v14.7c2.72.31,6.3.62,10.42.78,13.61.54,33.68-.62,51.41-8.87a77.29,77.29,0,0,1,21.47-6.06,92.87,92.87,0,0,1,17.58-.86,91.88,91.88,0,0,1,17.42,2.1h0"/><path class="b" d="M133.3,136.17a93.71,93.71,0,0,1,17.58-.86l-4.36,13.85H128.94l4.36-13m-65.88.47V88.57H50V135.7a132,132,0,0,0,17.42.94m39.75-19.37,3,9.88a101.27,101.27,0,0,1,23.65-5.84L145,88.57H127.39l-6.3,18.67-6-18.67H98.92L92,110.81,86.79,88.57H69.52l11,47.21A86.15,86.15,0,0,0,103.43,130Zm48.22,3.65,3.89-12.36L172,149.24h18L169.23,88.57H149.4l-10.89,32.35a112.92,112.92,0,0,1,16.88,0"/></svg>