<svg xmlns="http://www.w3.org/2000/svg" viewBox="0 0 240 240"><defs><style>.a,.b{fill:#fff;}.b{opacity:0.66;}</style></defs><path class="a" d="M89.8,100.86h8.57v38.22H89.8Zm14.5,0v38.22h8.58V124.79h11.37c13.45,0,15.67-7.2,15.67-11.65,0-8.09-5-12.28-17-12.28H104.3m8.58,6.25h8.46c4.93,0,9.69.79,9.69,6,0,4.13-3.6,5.45-8.15,5.45h-10Zm30.32-6.25v38.22h8.58V124.79h11.38c13.44,0,15.67-7.2,15.67-11.65,0-8.09-5-12.28-17.05-12.28H143.2m8.58,6.25h8.47c4.92,0,9.68.79,9.68,6,0,4.13-3.6,5.45-8.15,5.45h-10ZM210,100.86H181.47v38.22h8.58V122.67h18.84v-6.24H190.05v-9.32H210v-6.25M72,134.08a4.29,4.29,0,0,1-2.13.32c-.85-.12-2.47-1.23-1.45-2.26a5.49,5.49,0,0,0,1.37-4.07c0-3-1.93-6.29-5.16-5.57s-4.53,3.18-4.51,6.21a6.52,6.52,0,0,0,3.46,5.41,2.5,2.5,0,0,1-.68,3.21c-2.23,2.29-6.78,2.75-8.64,2.75A29.09,29.09,0,0,1,31,128.92a25.77,25.77,0,0,0,50-6.13C80.7,126,76.06,132.51,72,134.08Z"/><path class="b" d="M55,96.56c13.55,0,23.86,10.1,26.11,22.39,0-.37,0-.75,0-1.13A25.36,25.36,0,0,0,54.34,93.76,25.14,25.14,0,0,0,30,120c0,.38.05.76.08,1.14a31.61,31.61,0,0,1,1.08-5.66A29,29,0,0,0,35.55,118a47.34,47.34,0,0,0-.28,6.07,29.93,29.93,0,0,1,1.16-5.67,34.45,34.45,0,0,0,6.1,1.95,38.5,38.5,0,0,0,1,10.69c.09-2.45.26-6.63.63-10.36a38.93,38.93,0,0,0,4.84.53c4.17.19,7.76.22,10.64-1.19a32.81,32.81,0,0,1-6.83.37,44.44,44.44,0,0,1-8.49-1.21,33,33,0,0,1,.67-4c.17-.69.35-1.36.54-2a25.83,25.83,0,0,0,9.65.2,37.87,37.87,0,0,1-9.28-1.44,42,42,0,0,1,2.43-6.09,18.15,18.15,0,0,0,6.18-.28,33.72,33.72,0,0,1-5.67-.7A35.28,35.28,0,0,1,55,96.56ZM44,99.07a35.56,35.56,0,0,0-2.56,3.52c-.58-.26-1.14-.52-1.64-.8A23.8,23.8,0,0,1,44,99.07ZM38.5,103q1.06.5,2.16.93c-.85,1.41-1.74,3-2.68,4.82-1-.55-1.94-1.13-2.85-1.76A25.24,25.24,0,0,1,38.5,103Zm-6.72,10.57A29.67,29.67,0,0,1,34,108.75a31,31,0,0,0,3.19,1.73A28.47,28.47,0,0,0,35.82,116,34,34,0,0,1,31.78,113.53Zm10.84,5.17A39.17,39.17,0,0,1,37,116.56a50.34,50.34,0,0,1,2-5.31,35.29,35.29,0,0,0,4.6,1.49A41.78,41.78,0,0,0,42.62,118.7Zm1.32-7.36a38.09,38.09,0,0,1-4.18-1.7,36,36,0,0,1,3-5,29.82,29.82,0,0,0,3.31.86A39.73,39.73,0,0,0,43.94,111.34Zm-.32-7.91A22,22,0,0,1,51,97.2a39.29,39.29,0,0,0-4.45,7.13C45.54,104.06,44.56,103.76,43.62,103.43Z"/></svg>