<svg xmlns="http://www.w3.org/2000/svg" viewBox="0 0 240 240"><defs><style>.a,.b{fill:#fff;}.a{opacity:0.66;}</style></defs><path class="a" d="M140.89,103.94l-14.08,32h5.05L135,128h15.22l3.21,7.9h5.05l-13.68-32Zm-4.33,20.28,6.05-14.68h.09l6,14.68Zm24.57-20.28h4.33v32h-4.33Zm19.92,0H169.89v32h10.44c11.42,0,17.51-7.81,17.51-16C197.84,114,194.55,103.94,181.05,103.94Zm-1.36,27.91h-5.46V108h6.5c10.38,0,12.5,7.85,12.5,11.92C193.23,127.83,187,131.85,179.69,131.85Zm40.31-5c0,6.19-5,9.89-11.11,9.89-4.11,0-8-1.4-10.2-4.42l3.57-3.07a8,8,0,0,0,6.77,3.43c2.84,0,6.36-1.81,6.36-5.33,0-7.36-15.75-2.8-15.75-15.26,0-3.75,3.16-8.94,10.83-8.94,3.48,0,6.82.72,9.21,3.66l-3.52,3.2a6.7,6.7,0,0,0-5.69-2.8c-4.78,0-6.23,2.89-6.23,4.88C204.24,120.15,220,115.32,220,126.83Z"/><path class="b" d="M71.48,103.94v19.6c0,4,2,9.12,8,9.12s8-5.15,8-9.12v-19.6h4.33v20.28a12.37,12.37,0,1,1-24.74,0V103.94Zm25,0h5.69l17.61,26.28h.09V103.94h4.33v32h-5.51l-17.78-26.28h-.1v26.28H96.46Z"/><path class="a" d="M38.2,102.14c-1.33,1.08-2.23,4-2.56,5.78A6.94,6.94,0,0,1,41,104.69a7.08,7.08,0,0,1,5.44,3.22c-.21-1.84-1.3-4.73-2.66-5.77a4.5,4.5,0,0,0-2.78-.89,4.35,4.35,0,0,0-2.76.89m5.69,14.6c1.9-3.48,2.65-5.83,2.48-7.31-.17-1-2.1-3-3.34-3.45.17,1.12-.71,3.35-1.84,5.75,0,0-2.34,4.5-3.14,5.79s-5.79,10.1-5.79,10.1l2.16,6c3.08-5.34,7.81-13.89,9.47-16.93m3.68,17,2.17-6s-3.51-6.08-5.58-9.7c-.68,1.24-1.57,2.81-2.72,4.86,1.56,2.8,3.4,6.07,6.13,10.88M39,106a8.15,8.15,0,0,0-3.44,3.44c-.22,1.47.42,3.47,2.29,7,.47-.92,2.14-3.85,2.69-5C39.42,109,38.88,107,39,106"/><path class="b" d="M30.27,104.93A29.83,29.83,0,0,1,28,107.72c-.8.81-2.42,1.61-3,2.55a6.11,6.11,0,0,1,2.36-3.84,16.22,16.22,0,0,1,2.9-1.5m-7,9.64c.08-1.16-.53-2.61-.08-4.06a6.2,6.2,0,0,1,2.1-3.33,9.77,9.77,0,0,0-.86,3.52,10.87,10.87,0,0,1-.57,1.88A5.6,5.6,0,0,1,26,110c1.18-.8,1.82-1.26,2.36-1.69-1.05,3.36-3.44,3-5.08,6.26m-.53,5.1c-.11-1.29-1.13-2.47-1.35-4.32-.35-3.15.65-4,1.05-4.65-.43,1.64.14,2.42.24,4.08a21.84,21.84,0,0,1,0,2.74c.21-1,.13-2.07,1.39-3.14A6.42,6.42,0,0,0,26,112.07c0,3.49-2.9,3.44-3.25,7.6m1,4.8c-.62-1.53-2.23-2.71-2.88-4-1.55-3-.61-4.91-.32-5.53A8.71,8.71,0,0,0,22,119.64a22.41,22.41,0,0,1,1.15,3,6.47,6.47,0,0,1,.22-3.76c.64-1.61,1.23-2,1.39-2.68.84,3.81-1.74,5-1,8.29m2.14,4.3c-1-1.07-2.82-1.83-3.81-3.2a8.41,8.41,0,0,1-1.9-4.64c.35,1,2.06,2.42,2.76,3.22A18.65,18.65,0,0,1,24.66,127a6.69,6.69,0,0,1-.46-3.14,26.21,26.21,0,0,0,.54-3,6,6,0,0,1,.78,3.38c-.19,1.64-.54,2.76.37,4.51m3.66,3.73c-2-1-4-1.1-5.16-2-2.52-1.91-2.71-3.28-3-4.25.89,1.59,2.82,2.34,3.76,2.85a12,12,0,0,1,2.63,2,5.24,5.24,0,0,1-1.58-3.14c-.24-1.88.13-2.15-.22-3.2A5.83,5.83,0,0,1,27.69,128c.22,1.69.35,3.25,1.86,4.51m3,2.15c-1.9-.46-3.89-.05-5.39-.64a7.92,7.92,0,0,1-3.65-3.22,8.7,8.7,0,0,0,4.59,2A10.56,10.56,0,0,1,31.53,134a8.9,8.9,0,0,1-2.14-2.93c-.46-1.37-.19-1.77-.78-2.57A8.07,8.07,0,0,1,31,131.21c.75,1.43.83,2.29,1.55,3.44m19-29.72a25.77,25.77,0,0,0,2.31,2.79c.78.81,2.41,1.61,3,2.55a6.13,6.13,0,0,0-2.39-3.84,15.58,15.58,0,0,0-2.9-1.5m7,9.64c-.08-1.16.51-2.61.06-4.06a6.49,6.49,0,0,0-2.07-3.33,9.43,9.43,0,0,1,.83,3.52,14.42,14.42,0,0,0,.57,1.88,5.4,5.4,0,0,0-2.1-2.58c-1.18-.8-1.85-1.26-2.36-1.69,1,3.36,3.43,3,5.07,6.26m.54,5.1c.08-1.29,1.13-2.47,1.31-4.32.38-3.15-.64-4-1-4.65.43,1.64-.11,2.42-.24,4.08,0,.57-.08,1.83,0,2.74-.22-1-.13-2.07-1.37-3.14a5.83,5.83,0,0,1-1.88-2.31c0,3.49,2.9,3.44,3.25,7.6m-1,4.8c.62-1.53,2.26-2.71,2.9-4,1.53-3,.59-4.91.3-5.53a8.46,8.46,0,0,1-1.45,4.67,18.9,18.9,0,0,0-1.15,3,6.74,6.74,0,0,0-.22-3.76c-.67-1.61-1.24-2-1.42-2.68-.81,3.81,1.77,5,1,8.29m-2.12,4.3c1-1.07,2.79-1.83,3.81-3.2a8.62,8.62,0,0,0,1.91-4.64c-.32.91-2,2.34-2.63,3.14a15.54,15.54,0,0,0-1.85,2.9,7.09,7.09,0,0,0,.45-3.14c-.1-1-.56-2.09-.56-3a6.17,6.17,0,0,0-.75,3.38c.16,1.64.53,2.76-.38,4.51m-3.68,3.73c2-1,4-1.1,5.16-2,2.55-1.91,2.74-3.28,3-4.25-.89,1.59-2.82,2.34-3.76,2.85a12.18,12.18,0,0,0-2.66,2,5.24,5.24,0,0,0,1.58-3.14c.27-1.88-.11-2.15.22-3.2A5.66,5.66,0,0,0,54.14,128c-.21,1.69-.35,3.25-1.88,4.51m-3,2.15c1.93-.46,3.89-.05,5.39-.64a8,8,0,0,0,3.68-3.22,8.87,8.87,0,0,1-4.62,2A10.27,10.27,0,0,0,50.3,134a8.34,8.34,0,0,0,2.12-2.93c.49-1.37.19-1.77.81-2.57a8.56,8.56,0,0,0-2.42,2.73c-.75,1.43-.8,2.29-1.55,3.44m-2-21.37.16.16.35-.14-.24-.26Zm0,.37-.49.57.43.35.41-.11-.27-.27.43-.08-.35-.46Zm-.41,1.16.43.19-.26-.38Zm3,.13-.24.22.08.37.49.06-.19-.38.21-.32-.27-.43Zm-15.79,4.51-.16.22v.27l.3,0,.19-.32v-.32l-.33-.22Zm-.1,1.13.32.11,0-.4-.19-.19ZM32.3,130a16.18,16.18,0,0,1-1.68-1.42l.85-.85,0-.12s0-.09.15-.24l-1.08,1.07a14.67,14.67,0,0,1-4.24-10.28h2.63v.59l.05.62.08.59.11.59.13.59.1.34-.47-.07-.57.35-.56-.11-.38.43,0,.46-.06.4.46.19-.18-.54.21-.19.27.35.51.14.62.62-.11.42.69.46.35,0,.41.29.13.94.78.07.16.2.38.43.11.12.1-.17-.08-.09-.18-.2.29-.12.16.08,1.85-3.22-.05-.27-.48-.45.24-.24-.06-.57-.24-.11.06-.61-.43-.38.07-.4.3-.14.06-.45.26-.24,0-.25h.29l.22-.4H35v.27l0,.3h0l-.13.07.1.4,0,.43h.22l.07.27.11.26.14.29a1.74,1.74,0,0,1,.11-.18l-.09-.19-.08-.26-.06-.19h.12l.4,0,1.47-2.59c-.29-.56-.54-1-.77-1.53l-.44.28-.69.48.05-.18.11-.27.11-.24.13-.27.14-.24.14-.23.09-.13-.09-.17-.14.2-.17.25-.13.24-.13.27-.11.24-.11.27-.11.29,0,.14-.33.16-.16.26-.25.22-.4.35-.37.32-.1.16h-1.4l0-.29,0-.46.06-.43.08-.43.11-.43.1-.4.14-.4.16-.41.19-.37.19-.38.21-.37.22-.35.24-.35.27-.33.26-.32.26-.25.6.6c0-.15-.09-.28-.14-.42l-.32-.32.19-.21c0-.08,0-.15-.05-.22l-.08.07-.2.23-2.12-2.12.33-.31.43-.38.43-.34.49-.35.48-.3.14-.08a2.21,2.21,0,0,1,0-.25l-.3.17-.48.29-.48.35-.46.38-.43.37-.33.32-1.85-1.85a14.35,14.35,0,0,1,5.38-3.37c.06-.15.13-.29.2-.43a15,15,0,0,0-3.74,26.74Zm2.91-11.61.19.17-.17.09,0-.22Zm-.7-.55.35.13h-.44v0Zm-2.44,1.8-.29-.3-.38.19-.13.24-.7.62-.06.48-.16.38.11.35-.56-.16-.36,0-.1-.38-.14-.57-.1-.59-.08-.59-.06-.61v-.57h3l0,.43,0,.46,0,.43,0,.13Zm1.45-1.48-.24.3-.06.61-.24.49-.32.24-.3-.23,0-.12-.06-.43,0-.46,0-.4Zm1.12-6.3-.26.26-.3.32-.26.35-.25.35-.21.35-.24.38-.19.4-.19.37-.16.41-.13.43-.11.43-.11.43-.08.43,0,.45,0,.46,0,.29h-3v-.45l.06-.62.08-.59.1-.59.14-.57.16-.56.19-.56.21-.54.24-.54.25-.51.29-.48.32-.48.33-.49.35-.45.37-.44.36-.36Zm-5.71,5-.05.62v.45H26.26a14.7,14.7,0,0,1,4.27-10.21l1.85,1.85-.36.36-.38.46-.37.45-.33.49-.32.48-.3.51-.26.51-.25.54-.21.56-.19.57-.16.56-.13.59M45.67,132a14.6,14.6,0,0,1-4.6.77v-2.6h.53l.62-.05.62-.08.59-.11.59-.13.36-.11-.09-.18-.32.1-.6.13-.56.11-.62.08-.59,0-.53,0v-3h.37l.46,0,.44,0,.47.37,0,.43-.22.08v.49l.83.53.19.3.27,0,.08.19.24,0c-1.16-2.12-2.33-4.26-3-5.51h-.08v-.13a1.62,1.62,0,0,1-.1-.18l-.09.16v.15h-.1c-.37.66-1.41,2.58-1.41,2.58l.57-.08.56.1.38-.13v.51h-.35l-.43,0-.43,0-.45-.1-.1.18.49.11.46,0,.46,0h.35v3l-.51,0-.59,0-.62-.08-.56-.1-.6-.14-.39-.11-.1.17.44.13.59.13.59.11.62.08.62.06h.51v2.59a14.94,14.94,0,0,1-4.66-.8,3.07,3.07,0,0,0-.17.31,15.19,15.19,0,0,0,4.94.83,15,15,0,0,0,4.85-.81l-.17-.3m-4.6-5.79.45-.17.54.51.13.17-.32,0-.43,0h-.37Zm4.78-22.43a3.61,3.61,0,0,1,.22.44,13.83,13.83,0,0,1,5.23,3.34l-1.78,1.78,0-.06-.34-.15,0,0L49,109l.14-.14-.56-.92.26-.13-.61-.51-.62-.06.35.35.27.35-.7-.46-.3.2-.19-.14c0,.09.07.48.09.66s0,.56,0,.84l.13.23,0,.7-.16.27a10.82,10.82,0,0,1-.27,1.47l.09.1,0,.06-.24.23a3,3,0,0,1-.13.39l.49-.48.1.12.29.51.39.08h0v.47l.27.54.35-.08h0l-.16.45.3.53.48.29.05.12,0,0,.25.95s0,.16,0,.35-.17.83-.17.83l.38.06,0-.25,0,.11,0,.46,0,.29H47.47l.12-.1.27,0,.19-.21-.11-.14.19-.37.4,0,.35-.46.46-.83-.32,0-.27.56-.54.27-.19-.13.19-.27-.13-.51-.49.16-.21.32-.27,0,.19-.27v-.27l-.3-.08,0-.43-.3-.27-.7,0-.05-.06,0-.08-.12-.16c-.35.77-.82,1.63-1.29,2.63.62,1.07,1.38,2.42,2.19,3.83l.29-.55h.29l.41-.19,0-.19.33,0,.72-.38,0-.21-.48-.11-.11-.21-.32,0-.16.32-.11-.19,0-.43-.19-.11-.08-.64h2.47l0,.41,0,.45-.06.43-.08.43-.11.43-.1.4-.14.4-.16.41-.19.4-.19.38-.21.35-.21.37-.23.3.11.2,0,0,.25-.35.21-.38.24-.37L49,122l.19-.4.16-.4.13-.43.11-.41.11-.43.08-.45,0-.43,0-.46,0-.43h3v.56l-.06.62-.08.59-.1.59-.14.57-.16.59-.19.54-.21.53-.25.54-.23.51-.3.51-.33.48-.32.46-.34.46-.38.42-.11.12.1.17.14-.15.38-.43.37-.48.33-.46.32-.51.3-.48.26-.54.24-.54.22-.53.19-.57.16-.59.13-.59.11-.59.08-.59.05-.62v-.59h2.63a14.67,14.67,0,0,1-4.24,10.28l-1.16-1.16c.15.25.23.4.23.4l0,.07.83.83a16.61,16.61,0,0,1-1.63,1.39l-.21.56a15.06,15.06,0,0,0-3.66-26.68m1.2,7s.08-.27.22-.21a.65.65,0,0,1,.24.21l.29-.13.21.22-.51.51-.12-.2Zm5.86,7.14h-3l0-.29,0-.46,0-.46,0-.26,0-.3-.23-.46,0-.18,0-.43.22-.35-.43-.73.16-.51-.64-.32-.29.15-.14-.23-.25-.35-.26-.35-.3-.32-.12-.12.2-.28-.07-.12.33-.34.09.21.64.28.22.4.51.16.38,0,0,.16.4.08.14-.24.59.7.1.4.3.35.3-.16.24,0v-.37l.08.18.21.54.19.56.16.56.14.57.1.59.08.59.06.62v.45Zm.19,0v-.45l-.06-.62-.08-.62-.11-.59-.13-.59-.16-.56-.19-.57-.21-.56L52,113l.43-.3-.35-.43-.53-.43-.46-.83-.35-.14,0,0-.35-.41-.22-.42L50,110l0,0-.35-.35v0l1.85-1.84a14.66,14.66,0,0,1,4.27,10.21ZM41,105.51h-.09V106l-.51,0-.54,0-.12,0a1.41,1.41,0,0,0,0,.2h.06l.59-.06.51,0v3h-.35l-.13,0,.06.18h.42v1.1c0,.08.06.17.1.26l.09-.23v-1.13h.43c0-.06,0-.12.07-.18l-.13,0h-.37v-3l.53,0,.59.06h.1V106h-.07L41.6,106l-.53,0v-.43H41m-4.31,32.87c-.13.19.75.46.86.33,3.44-4.68,8.57-2.37,10.39-1.86,2.58.76,4.84.54,6.72-1.9a6.54,6.54,0,0,1-5.3.4,16,16,0,0,0-4-.91,10.19,10.19,0,0,0-8.62,3.94m8.51,0v.09c-.08.15-.77.37-.86.24a6.37,6.37,0,0,0-3.14-2.45c0-.08,1.37-.35,1.43-.18a11.1,11.1,0,0,1,2.57,2.3m-5.93-2.57a14,14,0,0,0-5.32,1c-2.6.76-4.83.54-6.71-1.9a6.45,6.45,0,0,0,5.26.4,16.27,16.27,0,0,1,4.08-.91,9.27,9.27,0,0,1,4.17.64,6.13,6.13,0,0,0-1.48.73"/></svg>