<svg xmlns="http://www.w3.org/2000/svg" viewBox="0 0 240 240"><defs><style>.a{fill:#fff;}</style></defs><path class="a" d="M166.21,118.76a15.35,15.35,0,0,1-10.34-18.26l9.84,1.28s3.78.16,3.64,6.91c-.13,6.55-3.14,10.07-3.14,10.07"/><path class="a" d="M175.11,118.76a15.35,15.35,0,0,0,10.34-18.26l-9.84,1.28s-3.78.16-3.64,6.91c.14,6.55,3.14,10.07,3.14,10.07"/><path class="a" d="M170.23,93.68a2.36,2.36,0,0,1,2.33,2.39A2.62,2.62,0,0,1,171,98.32c-.11.06-.2.11-.18.27s.5.26.7.31L185,100.5a15.46,15.46,0,0,0-14.77-11.3h0a15.47,15.47,0,0,0-14.78,11.3l13.45-1.6c.21-.05.68-.14.7-.31s-.07-.21-.17-.27a2.61,2.61,0,0,1-1.53-2.25,2.37,2.37,0,0,1,2.34-2.39"/><path class="a" d="M176.27,130.07l.91-.54s-4.33-5.55-14-5.55c-5,0-7.53,1.88-11,1.88a5,5,0,0,1-2.79-.64s1.65,2.26,7.64,2.26c4.39,0,7.52-2.42,10.6-2.42,4.22,0,7.36,3.55,8.67,5"/><path class="a" d="M163.31,130.07l-.91-.54s4.33-5.55,14-5.55c5,0,7.52,1.88,11,1.88a5,5,0,0,0,2.8-.64s-1.66,2.26-7.64,2.26c-4.39,0-7.53-2.42-10.61-2.42-4.22,0-7.36,3.55-8.67,5"/><path class="a" d="M158.92,123.41c-.17.47-2.06-.09-3.34.3a10.52,10.52,0,0,1-12.31-6.62s3.14,3.43,5.59,3.66a18.7,18.7,0,0,1,7.39,2.13l.52.12a.66.66,0,0,0-.29-.36c-.3-.16-2.65-.93-3.78-4.72a30.82,30.82,0,0,1-.7-4.38,39.91,39.91,0,0,1,3.61,4.73c1,1.83,1.16,3.9,3.31,5.14"/><path class="a" d="M151.08,118.7c-.17.18-.63-.11-.79-.19s-1.35-.63-3.37-1.35a9.34,9.34,0,0,1-5.37-9.34,7.62,7.62,0,0,0,2.06,3.39,25.48,25.48,0,0,1,3,2.63c.93,1.11,3,3.62,3.12,3.59s.11-.16-.05-.3-.71-1.52-1.07-2-1.42-3.7.14-7.68a12.56,12.56,0,0,1,1.56,5.83c-.11,2.93-.25,2.24.46,4.67,0,0,.39.66.3.74"/><path class="a" d="M146.26,111.79c-.1.1-.53-.52-.87-1.11s-2.71-3.07-3-3.57a8.08,8.08,0,0,1-1-8.35s.2-.05.2,1a10.54,10.54,0,0,0,1.9,4.64,9,9,0,0,1,1.78,4.54s.11.34.25.36.14-.33.14-.33-.11-1.66-.11-2.8a6.64,6.64,0,0,1,1.61-4.19,5.36,5.36,0,0,0,.82-1.22,2.08,2.08,0,0,1,.48-.66,16.71,16.71,0,0,1-.88,6.15c-1.1,3-1.47,3.47-1.3,5.08,0,0,0,.36,0,.41"/><path class="a" d="M144.36,103.1c-.11,0-.2-.39-.25-.7a16.66,16.66,0,0,0-.62-2.51,10.13,10.13,0,0,1-1.09-4.3,11,11,0,0,1,3-7.26,11.48,11.48,0,0,1-.65,2.16,5.64,5.64,0,0,0-.16,3.15,26.36,26.36,0,0,1,.25,2.82,23.45,23.45,0,0,1-.31,3.32s-.06.31.06.31.22-.25.22-.25a6.4,6.4,0,0,1,1.4-3.32c1.28-1.58,3.6-2.54,4-3.24,0,0-.17,2.48-2.88,5.37-2.42,2.58-1.71,1.27-2.49,3.38a6,6,0,0,0-.34,1c0,.17-.16.11-.16.11"/><path class="a" d="M145.88,95.28a2,2,0,0,1,.38-1.14c.44-.79,0-2.19.56-4.24a11.21,11.21,0,0,1,5.79-7.66,5.94,5.94,0,0,0-.62.67,16.36,16.36,0,0,0-1.63,3.86,14.32,14.32,0,0,1-2.26,4.48c-.52.55-.29.61-.29.61a1,1,0,0,0,.53-.47,6.29,6.29,0,0,1,3.1-2.28,27.91,27.91,0,0,0,4-1.2,27.77,27.77,0,0,1-4.94,4c-2.37,1.35-2.63.94-4,2.75,0,0-.47.64-.59.64"/><path class="a" d="M151.1,86.56s0-.22.41-.61.82-1.55,1.53-2.63a8.94,8.94,0,0,1,6.5-4.56A11.42,11.42,0,0,0,158.09,80a25,25,0,0,1-2,2.49,15.2,15.2,0,0,1-2.62,2s-.27.22-.22.3.33-.08.33-.08a6.12,6.12,0,0,1,3.2-1.19c1.75-.06,3.58,0,3.85.05a15.39,15.39,0,0,1-5.55,1.86c-3.9.71-3.17.74-3.77,1.13,0,0-.13.11-.24,0"/><path class="a" d="M158.92,82s.09-.21.75-.4.6-.77,2.6-1.76a7.52,7.52,0,0,1,6.22-.61s-.89.11-1,.16-1.66.43-2.09.64a22.94,22.94,0,0,1-3.53,1.28c-.88.16-.45.21-.45.21a1.19,1.19,0,0,0,.37.08,10.9,10.9,0,0,1,3.43.24c1.29.43,1.26.59,1.78.75s1.12.27,1.2.45c0,0-1.29.11-2.06.11a12.8,12.8,0,0,1-3.78-.61,5.55,5.55,0,0,0-2.46-.54,1.83,1.83,0,0,1-1,0"/><path class="a" d="M166.75,80.83s.08-.11.64-.23a15,15,0,0,1,2-.74,6.36,6.36,0,0,1,5.19.77l-1.38,0c-.25,0-2.42.41-2.92.41s-1.5-.23-1.63-.06.91.4,1.08.46a3.42,3.42,0,0,1,1.86,1A12.66,12.66,0,0,0,173.3,84a23.66,23.66,0,0,1-3.47-1.06c-.69-.4-1.89-1.63-2.08-1.71s-1-.38-1-.38"/><path class="a" d="M172.84,82.24a5.38,5.38,0,0,1,2.9.8,5.62,5.62,0,0,1,2.31,2.68,4.26,4.26,0,0,0-1.14-.8,16.58,16.58,0,0,1-2-1.13c-.26-.18-1.81-1.28-2.07-1.55"/><path class="a" d="M181.53,123.63s.25-.26,1.08-1,1-1.86,2-3.57a15.62,15.62,0,0,1,3.54-4.64s-.33,1.31-.36,1.71a8.52,8.52,0,0,1-1.38,4,7.66,7.66,0,0,1-2.32,2.38s-.47.35-.45.46.83,0,.83,0a9.67,9.67,0,0,0,1.16-.52c.28-.17,1.52-.84,2-1a18.21,18.21,0,0,1,2-.75c1.1-.35,5.11-1.42,6.68-4.09a8.85,8.85,0,0,1-1.05,2.29c-.58.72-3.86,5.27-8.42,5.19,0,0-1.8-.15-2.74-.32a4.42,4.42,0,0,0-1.41-.15,3.82,3.82,0,0,1-1.16.12"/><path class="a" d="M192.13,107.8a16.69,16.69,0,0,0-2.23,6.77c-.41,4,.3,2.8-.38,4.57,0,0-.23.46-.14.49s.44-.17,1.73-.94,2.55-.55,5.31-3.12,3.31-7.69,3.37-8.11a2.68,2.68,0,0,0-.61,1.08,3.75,3.75,0,0,1-.74,1.32c-.09.08-3.08,3.28-3.43,3.57a27.38,27.38,0,0,0-2.49,3c-.39.6-1.5,1.69-1.71,1.6a1.83,1.83,0,0,1,.12-.46,10.41,10.41,0,0,0,1.26-2.54,10.82,10.82,0,0,0,.47-2.83c0-.8-.5-3.74-.53-4.37"/><path class="a" d="M194.69,111.8a1,1,0,0,1,0-.71,4.76,4.76,0,0,0-.33-2.65,17.54,17.54,0,0,1-1.49-6.24c.08-2.06.3-2.34.3-2.34s.56,1.68.72,2,1.83,3.3,1.69,5a9.56,9.56,0,0,0-.14,2.19c.08,0,.28-.2.3-.4a17.91,17.91,0,0,1,.83-2.68c.53-1.34,2.66-4.3,3.13-6.27a10.33,10.33,0,0,1-1.17,6.61c-1.85,3.2-2,2.49-2.81,3.94s-.89,1.62-1,1.62"/><path class="a" d="M196,102.24c-.13,0-.05-1.35-.38-1.78s-3.09-3.92-3.68-7.41c0,0,1.75,1.89,2,2.09a6.74,6.74,0,0,1,1.83,2.55c.35,1.09.27,2,.41,2s.13-1.2.13-1.2A33.35,33.35,0,0,1,196.6,95a14.18,14.18,0,0,0,.45-4,8.84,8.84,0,0,1,1,4.3,12.15,12.15,0,0,1-1.18,4.81,8.83,8.83,0,0,0-.52,1.77c0,.26-.32.43-.32.43"/><path class="a" d="M193,84.85s3.85,2.36,3.25,10.28c0,0,0,.36-.23,0a8.39,8.39,0,0,0-1.42-1.71,14.56,14.56,0,0,1-5.24-5.7s.22-.06.57.26a9.93,9.93,0,0,0,1.56,1,5.44,5.44,0,0,1,2.25,1.42,7.76,7.76,0,0,1,1.46,2.33s.25.21.08-.38a5.3,5.3,0,0,0-.65-1.72,7.41,7.41,0,0,1-.91-3,6.11,6.11,0,0,0-.72-2.75"/><path class="a" d="M192,86.59a2,2,0,0,0-.28-1.15c-.37-.67-.08-1.41-1.24-3.18-.64-1-2.88-1.76-2.88-1.76s.64.85,1.06,1.33a5.36,5.36,0,0,1,.7,1.07c.14.24.92.95,1.21,1.36a1.11,1.11,0,0,1,.17.43c0,.13-.31-.08-.4-.16A7.4,7.4,0,0,0,188,83.3a24.44,24.44,0,0,1-3-.53A11.53,11.53,0,0,0,189.1,85,4.73,4.73,0,0,1,192,86.59"/><path class="a" d="M187.62,82.24a6.69,6.69,0,0,0-5.22-2.61,1.15,1.15,0,0,0,.56.28c.38.09,1,.79,1.39,1a8.6,8.6,0,0,0,3.27,1.32"/><path class="a" d="M78.92,78.76v33.4a19.15,19.15,0,0,1-1.47,7.74,15.65,15.65,0,0,1-4.07,5.61,17.31,17.31,0,0,1-6.19,3.41,27.37,27.37,0,0,1-15.7,0,17.31,17.31,0,0,1-6.19-3.41,15.48,15.48,0,0,1-4-5.61,19.32,19.32,0,0,1-1.46-7.74V78.76H50.31v33.4c0,3.32.8,5.73,2.4,7.25a9.27,9.27,0,0,0,6.65,2.28A9.18,9.18,0,0,0,66,119.41c1.58-1.52,2.37-3.93,2.37-7.25V78.76H78.92"/><polyline class="a" points="127.62 129.2 117.26 129.2 97.1 96.01 97.1 129.2 86.75 129.2 86.75 78.76 97.1 78.76 117.3 112.01 117.3 78.76 127.62 78.76 127.62 129.2"/><path class="a" d="M47.29,150.07a2.91,2.91,0,0,0-1.25.25,2.59,2.59,0,0,0-.92.72,3.63,3.63,0,0,0-.63,1.09,6.47,6.47,0,0,0-.35,1.41h6.09v-.35a5,5,0,0,0-.19-1.25,2.94,2.94,0,0,0-.53-1,2.33,2.33,0,0,0-.91-.65A3.3,3.3,0,0,0,47.29,150.07Zm.11,12.17a8.49,8.49,0,0,1-3.2-.57,7,7,0,0,1-2.39-1.57,6.54,6.54,0,0,1-1.5-2.32,7.71,7.71,0,0,1-.52-2.85v-.55a9.53,9.53,0,0,1,.5-3.14,7.33,7.33,0,0,1,1.44-2.46A6.22,6.22,0,0,1,44,147.17a7.25,7.25,0,0,1,3-.58,7.52,7.52,0,0,1,2.91.53A5.74,5.74,0,0,1,52,148.63,6.48,6.48,0,0,1,53.27,151a10,10,0,0,1,.43,3v1.71H43.94a4,4,0,0,0,.41,1.34,3.34,3.34,0,0,0,.78,1,3.41,3.41,0,0,0,1.11.66,4,4,0,0,0,1.43.24,5.24,5.24,0,0,0,2.07-.41,4.26,4.26,0,0,0,1.63-1.28l2,2.22a6.05,6.05,0,0,1-.92,1,6.37,6.37,0,0,1-1.31.88,7.8,7.8,0,0,1-1.69.61,8.84,8.84,0,0,1-2.06.23Z"/><path class="a" d="M59.24,146.87l.13,1.78a5.32,5.32,0,0,1,1.88-1.53,5.68,5.68,0,0,1,2.46-.53,6.06,6.06,0,0,1,2,.3,3.64,3.64,0,0,1,1.5,1,4.64,4.64,0,0,1,1,1.82,9.51,9.51,0,0,1,.35,2.76v9.77h-4v-9.8a3.84,3.84,0,0,0-.16-1.22,1.8,1.8,0,0,0-.47-.77,1.7,1.7,0,0,0-.75-.4,4,4,0,0,0-1-.12,2.85,2.85,0,0,0-1.53.39,3,3,0,0,0-1,1.08v10.84h-4V146.87h3.8"/><polyline class="a" points="77.18 157.13 79.96 146.59 84.14 146.59 79.09 162.24 75.27 162.24 70.23 146.59 74.4 146.59 77.18 157.13"/><path class="a" d="M86.75,162.24H91.1V146.59H86.75Zm0-19.57a2.17,2.17,0,0,1,.58-1.56,2.09,2.09,0,0,1,1.59-.61,2.36,2.36,0,0,1,.9.16,2.06,2.06,0,0,1,.69.45,2,2,0,0,1,.43.69,2.47,2.47,0,0,1,0,1.75,2.23,2.23,0,0,1-.43.69,2.06,2.06,0,0,1-.69.45,2.61,2.61,0,0,1-1.8,0,2,2,0,0,1-.68-.45,2.26,2.26,0,0,1-.44-.69,2.5,2.5,0,0,1-.15-.88Z"/><path class="a" d="M102.34,150.72l-.73-.08-.74,0a4.11,4.11,0,0,0-2,.4,2.5,2.5,0,0,0-1.1,1.17v10.06H93.7V146.87h3.88l.12,1.83a4.56,4.56,0,0,1,1.43-1.55,3.49,3.49,0,0,1,2-.56,5.6,5.6,0,0,1,.69,0,4.13,4.13,0,0,1,.59.13l-.06,3.95"/><path class="a" d="M107.62,155a9.45,9.45,0,0,0,.16,1.81,4.4,4.4,0,0,0,.53,1.47,2.88,2.88,0,0,0,.94,1,2.6,2.6,0,0,0,1.42.36,2.57,2.57,0,0,0,1.39-.36,3,3,0,0,0,1-1,4.63,4.63,0,0,0,.53-1.47,9.45,9.45,0,0,0,.16-1.81v-.31a9.18,9.18,0,0,0-.16-1.77,4.82,4.82,0,0,0-.53-1.47,2.89,2.89,0,0,0-1-1,2.59,2.59,0,0,0-1.42-.37,2.49,2.49,0,0,0-1.39.37,2.77,2.77,0,0,0-.94,1,4.57,4.57,0,0,0-.53,1.47,9.18,9.18,0,0,0-.16,1.77Zm-4.35-.73a9.7,9.7,0,0,1,.46-3.05,7.15,7.15,0,0,1,1.35-2.44,6.16,6.16,0,0,1,2.17-1.61,7.87,7.87,0,0,1,5.93,0,6.24,6.24,0,0,1,2.19,1.61,7.15,7.15,0,0,1,1.35,2.44,9.7,9.7,0,0,1,.46,3.05v.3a9.72,9.72,0,0,1-.46,3.06,7.19,7.19,0,0,1-1.35,2.43,6.27,6.27,0,0,1-2.18,1.6,7.84,7.84,0,0,1-5.92,0,6.21,6.21,0,0,1-2.19-1.6,7.19,7.19,0,0,1-1.35-2.43,9.72,9.72,0,0,1-.46-3.06v-.3Z"/><path class="a" d="M123.59,146.87l.13,1.78a5.32,5.32,0,0,1,1.88-1.53,5.68,5.68,0,0,1,2.46-.53,6,6,0,0,1,1.95.3,3.67,3.67,0,0,1,1.51,1,4.78,4.78,0,0,1,1,1.82,9.51,9.51,0,0,1,.35,2.76v9.77h-4v-9.8a3.84,3.84,0,0,0-.16-1.22,1.8,1.8,0,0,0-.47-.77,1.75,1.75,0,0,0-.75-.4,4.07,4.07,0,0,0-1-.12,2.9,2.9,0,0,0-1.53.39,3.11,3.11,0,0,0-1,1.08v10.84h-4V146.87h3.8"/><path class="a" d="M140.11,146.87l.13,1.72a5.49,5.49,0,0,1,1.84-1.47,5.7,5.7,0,0,1,2.52-.53,5.06,5.06,0,0,1,2.4.55,3.7,3.7,0,0,1,1.62,1.79,5.18,5.18,0,0,1,4.55-2.34,6.16,6.16,0,0,1,2,.31,3.7,3.7,0,0,1,1.54,1,4.74,4.74,0,0,1,1,1.81,9.32,9.32,0,0,1,.34,2.73v9.79H154v-9.79a4.39,4.39,0,0,0-.16-1.26,1.86,1.86,0,0,0-.46-.78,1.63,1.63,0,0,0-.71-.38,4,4,0,0,0-1-.1,2.52,2.52,0,0,0-1.57.47,2.91,2.91,0,0,0-.95,1.29.81.81,0,0,0,0,.15v10.4h-4.05v-9.76a4.43,4.43,0,0,0-.15-1.26,1.75,1.75,0,0,0-.45-.78,1.6,1.6,0,0,0-.72-.4,3.62,3.62,0,0,0-1-.11,2.66,2.66,0,0,0-2.5,1.44v10.87h-4.05V146.87h3.8"/><path class="a" d="M167.29,150.07a2.91,2.91,0,0,0-1.25.25,2.59,2.59,0,0,0-.92.72,3.63,3.63,0,0,0-.63,1.09,6.47,6.47,0,0,0-.35,1.41h6.09v-.35a5,5,0,0,0-.19-1.25,2.94,2.94,0,0,0-.53-1,2.33,2.33,0,0,0-.91-.65A3.3,3.3,0,0,0,167.29,150.07Zm.11,12.17a8.49,8.49,0,0,1-3.2-.57,7,7,0,0,1-2.39-1.57,6.54,6.54,0,0,1-1.5-2.32,7.71,7.71,0,0,1-.52-2.85v-.55a9.53,9.53,0,0,1,.5-3.14,7.33,7.33,0,0,1,1.44-2.46,6.22,6.22,0,0,1,2.25-1.61,7.25,7.25,0,0,1,3-.58,7.6,7.6,0,0,1,2.92.53,5.78,5.78,0,0,1,2.11,1.51,6.48,6.48,0,0,1,1.29,2.34,10,10,0,0,1,.43,3v1.71h-9.76a4,4,0,0,0,.41,1.34,3.34,3.34,0,0,0,.78,1,3.41,3.41,0,0,0,1.11.66,4,4,0,0,0,1.43.24,5.24,5.24,0,0,0,2.07-.41,4.26,4.26,0,0,0,1.63-1.28l2,2.22a6.25,6.25,0,0,1-2.23,1.88,7.8,7.8,0,0,1-1.69.61,8.84,8.84,0,0,1-2.06.23Z"/><path class="a" d="M180.11,146.87l.13,1.78a5.32,5.32,0,0,1,1.88-1.53,5.68,5.68,0,0,1,2.46-.53,6.06,6.06,0,0,1,2,.3,3.71,3.71,0,0,1,1.5,1,4.64,4.64,0,0,1,1,1.82,9.51,9.51,0,0,1,.35,2.76v9.77h-4v-9.8a3.84,3.84,0,0,0-.16-1.22,1.8,1.8,0,0,0-.47-.77,1.7,1.7,0,0,0-.75-.4,4,4,0,0,0-1-.12,2.84,2.84,0,0,0-1.52.39,3,3,0,0,0-1,1.08v10.84h-4V146.87h3.8"/><path class="a" d="M197.14,143.11v3.72h2.5v3h-2.5v7.55a2.53,2.53,0,0,0,.1.79,1,1,0,0,0,.28.48,1,1,0,0,0,.47.24,3.06,3.06,0,0,0,.65.06,6.11,6.11,0,0,0,.64,0,4.86,4.86,0,0,0,.51-.07v3.07a9.2,9.2,0,0,1-1.06.25,7.25,7.25,0,0,1-1.3.11,5.54,5.54,0,0,1-1.74-.25,3.25,3.25,0,0,1-1.31-.77,3.52,3.52,0,0,1-.85-1.39,6.2,6.2,0,0,1-.3-2.05v-8H191.1v-3h2.13v-3.72h3.91"/></svg>