<svg xmlns="http://www.w3.org/2000/svg" viewBox="0 0 240 240"><defs><style>.a,.b{fill:#fff;}.a{opacity:0.5;}</style></defs><path class="a" d="M125.71,130.5a26.75,26.75,0,0,1-6.87-7.92.37.37,0,0,0-.42-.22,11,11,0,0,1-3.29-.17,14.2,14.2,0,0,1-11.5-16.14,13.25,13.25,0,0,1,3.83-7.64,13.56,13.56,0,0,1,13.27-3.92A14.11,14.11,0,0,1,131.17,112a1,1,0,0,0,0,.55,11.58,11.58,0,0,0,.92,2.18,11.4,11.4,0,0,0,6.22,5.32,23.81,23.81,0,1,0-12.43,10.65C125.86,130.58,125.77,130.55,125.71,130.5ZM85.27,87a6.81,6.81,0,0,1-2.55,3.09,11,11,0,0,1-5.47,1.73l-1.32.08v6.13h4.56q.08,16.45.17,32.86h10.2V86.81H85.51C85.34,86.8,85.31,86.9,85.27,87Zm72.94,4.75a23.47,23.47,0,0,0-16-6.4,23.37,23.37,0,0,0-8.54,1.53l.17.14a26.7,26.7,0,0,1,6.94,8,.31.31,0,0,0,.34.18,15.31,15.31,0,0,1,3.1.14,14.2,14.2,0,0,1,11.7,16.52,13.52,13.52,0,0,1-4.36,7.89,13.74,13.74,0,0,1-12,3.5,13.21,13.21,0,0,1-7.5-4,13.89,13.89,0,0,1-3.6-13.59,1,1,0,0,0,0-.57,11.38,11.38,0,0,0-6.85-7.4c-.22-.09-.34-.08-.47.16a23.65,23.65,0,0,0-2.9,12.6,23.91,23.91,0,0,0,22,22.78,23.94,23.94,0,0,0,25.68-23.06,22.62,22.62,0,0,0-.44-5.38A23.35,23.35,0,0,0,158.21,91.77Z"/><path class="b" d="M145.33,143.81v12.41a3.54,3.54,0,0,1,0,.46.9.9,0,0,1-1,.94h-1.46a1,1,0,0,1-1.13-1.16V143.79c0-.81.37-1.18,1.17-1.18h1.19C145,142.61,145.32,143,145.33,143.81Zm34.27-25.59a22.43,22.43,0,0,0-.08,4.55l.48-2.41v37.4a.38.38,0,0,0-.05.15c0,1.25-.34,2.48-.47,3.73a8.19,8.19,0,0,0-.11,2.92c-.38.14-.26-.45-.59-.39-.22.27,0,.67-.24.94-.12-.06-.1-.15-.11-.22a5.14,5.14,0,0,1,.08-2,5.64,5.64,0,0,0-.2-1.92c-.24.67-.15,1.41-.58,2-.22-.63,0-1.31-.27-1.93a3.15,3.15,0,0,1-.05,1.46c-.09-.11,0-.25-.15-.3,0,.3,0,.6,0,.91a1.27,1.27,0,0,1-.21.94l-.1-.83c0,.16-.18.2-.3.28s-.36.23-.26.58a4.32,4.32,0,0,1,0,.94c0,.41,0,.41-.47.45a.9.9,0,0,1,.31,1,1.25,1.25,0,0,1,.5,0,2.42,2.42,0,0,1,0-.27c0-.32.27-.52.34-.82.33.06.25-.17.22-.34s0-.14,0-.2a.25.25,0,0,1,.25,0,.43.43,0,0,1,.17.59c-.1.22-.23.42.11.6a.67.67,0,0,1,.29.67c0,.16-.06.32-.08.48a.66.66,0,0,0,.07.58l.21-.09c.37-.05.44-.27.42-.61a11,11,0,0,1,0-1.15,1.13,1.13,0,0,1,.18-.58.63.63,0,0,1,.18.42c0,.36,0,.73.08,1.1,0,.13.11.26,0,.41a1.47,1.47,0,0,0,0,.88c.1.59.11.59-.46.74-.06,0-.13.06-.2,0,0-.24-.25-.4-.25-.64-.54,0-.55,0-.45.56a1.71,1.71,0,0,1,0,.84,2.89,2.89,0,0,1-.87-.51,5.85,5.85,0,0,0-1-.64.31.31,0,0,0-.41.05,1.44,1.44,0,0,1-.77.35,4.38,4.38,0,0,1-1.73-.16.59.59,0,0,1-.4-.26c-.3-.45-.42-.47-.87-.16-.2.13-.37.29-.55.43s-.17.18-.33.14l.07-.39-1.18.08a65.23,65.23,0,0,1-7.53.17c-.2,0-.35,0-.39-.25a2.45,2.45,0,0,1-1.5.33,6.14,6.14,0,0,0-2,.18,6.82,6.82,0,0,1-1.7.17,4.32,4.32,0,0,1-1.73-.26,10.63,10.63,0,0,0-3.41-.54c-.06,0-.13,0-.17,0s.1-.12.07-.22-.41-.19-.59-.32h0a1.16,1.16,0,0,0,.89-.25h-1.83c.3.12.62.1.9.23v0a2.15,2.15,0,0,0-1.51.25,1.83,1.83,0,0,1-2.36-.22l-.07,0a.86.86,0,0,1-.75.46,6.17,6.17,0,0,1-.86,0c-1.16,0-2.38-.37-3.38.57a.89.89,0,0,1-.27-.73l-.25,0c-1.48,0-2.95-.1-4.43-.2-2-.14-4.06-.29-6.1-.37a.89.89,0,0,0-.36,0,7.73,7.73,0,0,1-3,.4c-1,0-2-.12-3-.09a5.14,5.14,0,0,0-2.55.58.87.87,0,0,1-.63.09,35.71,35.71,0,0,0-4.38-.58c-1.14-.06-2.26.27-3.41.1a4.24,4.24,0,0,0-.79,0,22.64,22.64,0,0,0-7.52,1.11,2.64,2.64,0,0,0-1.49-1.19c-.65-.2-1.34-.25-2-.48a.43.43,0,0,0-.16,0,18.55,18.55,0,0,1-4,.56,42.4,42.4,0,0,0-4.9.52c-.07,0-.17,0-.22,0a1.9,1.9,0,0,0-1.4-.2c-.51,0-1.06.14-1.35-.46l-.25,0a40.08,40.08,0,0,1-4.62.76,68.27,68.27,0,0,1-10.6.34c-2.15-.08-4.29-.25-6.43-.46l-1.08-.12-1.09-.13-1.11-.14a6.63,6.63,0,0,0-1.08-.13c-.34,0-.61-.31-1-.18,0,0,0-.05-.05-.07-.26-.19-.18-.48-.18-.72a44.47,44.47,0,0,1,.27-4.46,14.78,14.78,0,0,0,.06-2.9c0-.1,0-.24-.09-.27-.26-.06-.23-.3-.31-.52a9.2,9.2,0,0,0-.15,2.33c.07,0,.06-.15.16-.08a1.17,1.17,0,0,1,0,.69,5.44,5.44,0,0,0-.08,1.71,33,33,0,0,1-.13,3.72c0,.11-.13.23.09.3s0,.72,0,.81a1.6,1.6,0,0,1-1.9.51v-.07a.32.32,0,0,0,.26-.36,1.94,1.94,0,0,1,.13-.71,14.13,14.13,0,0,0,.44-1.73,6.73,6.73,0,0,0,.1-1.33c.11-.07.17.06.24,0a5.4,5.4,0,0,1,.13-1.88,4.86,4.86,0,0,0,0-3.06c.35,0,.24-.21.18-.4a3.72,3.72,0,0,1-.23-.87,1,1,0,0,1,.68.25,1.05,1.05,0,0,0,0-.13c0-2.39,0-4.78,0-7.18-.05-2.21-.1-4.43-.2-6.64q-.24-5.08-.47-10.17c-.1-2.25-.2-4.49-.29-6.74-.13-3.2-.22-6.39-.21-9.59a.83.83,0,0,1,.15-.56.63.63,0,0,0,.12-.43c0-.91.08-1.81.12-2.71a2.94,2.94,0,0,0-.16-1.53,1.51,1.51,0,0,1-.12-.86l.12-1.18c0-.17,0-.33.06-.51.14.08.08.22.2.32-.05-1.16-.14-2.29-.13-3.46-.13.16,0,.33-.17.53a64.69,64.69,0,0,1-.35-6.51l.22.15c.1.07.2.17.33.09s.12-.22.08-.35a3.69,3.69,0,0,1-.11-.45,6.1,6.1,0,0,1,.17-2.62,2,2,0,0,0-.66-2.35s0,0,0,0c.19-.16.39-.07.61,0,0-.3,0-.58-.05-.85-.27-3.21-.38-6.42-.43-9.64,0-1.71,0-3.42,0-5.13q.06-3.07.16-6.15a.87.87,0,0,0,0-.42,7.13,7.13,0,0,1-.46-1.51c-.06-.25,0-.36.27-.42a23.21,23.21,0,0,1,4.08-.22c1,0,2,0,3,0,.69,0,1.38,0,2.07,0,1.16-.06,2.31-.11,3.46-.24.76-.09,1.5-.22,2.24-.36.11.09,0,.24.12.31a57.49,57.49,0,0,1,7.18-.5c2.36,0,4.72,0,7.08.13,3.33.12,6.67.29,10,.26l.24,0a3.25,3.25,0,0,0-1.57.41c1.59.53,3.2.24,4.8.2a1.89,1.89,0,0,1-1-.39.61.61,0,0,0-.33-.13c-.29-.07-.58,0-.86-.1,1.38,0,2.75,0,4.13-.07,1.76-.1,3.52-.23,5.28-.26.29,0,.64-.1.6.37a.5.5,0,0,0,.33,0,14,14,0,0,1,2.12-.34,32.64,32.64,0,0,1,6.17.22c1.64.18,3.28.36,4.94.44,1.11.05,2.22-.06,3.33.05,1.91.2,3.84.13,5.75.17a10.09,10.09,0,0,0,1.9-.34c-.54,0-1.08,0-1.61,0s-1.08,0-1.62-.08a.34.34,0,0,0-.22,0,2.18,2.18,0,0,1-1.8-.06,3,3,0,0,1,.72-.09,12.54,12.54,0,0,0,1.62-.06c.2,0,.42-.07.51-.26s.25-.19.42-.22.59.14.87.08a2.88,2.88,0,0,1,.65-.07h7.21c.09.12-.09.11,0,.2.32.16.72.12,1,.35-.67-.07-1.33-.16-2-.25-.12,0-.34,0-.32,0,.07.33-.25.17-.33.29l2.63.36c0-.13-.1-.19,0-.31a9.74,9.74,0,0,0,2.74-.22,1.66,1.66,0,0,1,.32,0v0l-1.23-.27c2-.15,4-.11,5.92-.12,0,.12-.13.12-.07.24l.56.16a18.6,18.6,0,0,0,6.57.24c2.05-.2,4.09-.49,6.15-.55.16,0,.32,0,.5,0-.11.26-.32.4-.4.66a10,10,0,0,1,2.52-.35c1.81,0,3.62.11,5.43.07a9.61,9.61,0,0,1,1.19-.07c.07.09-.06.17,0,.25l1.35-.4c.1.24,0,.51.18.69a1.73,1.73,0,0,1-1.22.34,21.78,21.78,0,0,0-4.64-.11,22.59,22.59,0,0,1-4.19-.09,2.93,2.93,0,0,0-1,.06l1,.22-.53.14c1,.06,1.87.12,2.76.22a9.92,9.92,0,0,1,1.1.31c.53.11,1.08.2,1.62.28a2.36,2.36,0,0,0,1.12,0,.56.56,0,0,0-.31-.11c-.37-.08-.73-.17-1.09-.27-.14,0-.32-.08-.28-.29a.52.52,0,0,1,.3,0c1,.07,2.09.16,3.13.22a7.94,7.94,0,0,0,1.29,0,11.85,11.85,0,0,1,1.57-.12,10,10,0,0,1,1.8.25c-.15.12-.42.07-.5.41.32-.32.55-.22.79,0,.07.07.14.22.28.16a2.31,2.31,0,0,1,1.14,0c.17,0,.22.12.25.29s-.11.58-.07.88-.09.3-.28.31q-.66,0-1.32.09c-.11,0-.23,0-.34.11.72.06,1.42.55,2.09-.25h0c0,.47.16.84-.09,1.17.3.19.07.55.15.83-.21.09-.36-.11-.55,0a15.27,15.27,0,0,1,.44,4.52,48.94,48.94,0,0,0,0,6.41c-.27-.08-.19.12-.19.24,0,2.88,0,5.77.11,8.66.1,2.24.23,4.47.37,6.7a4.92,4.92,0,0,0,.12,1.21v15.22C179.81,119,179.83,118.62,179.6,118.22Zm-11-47a6.78,6.78,0,0,0,2,.16A3.38,3.38,0,0,0,168.6,71.18ZM61.26,101.87c-.09.33-.3.65-.09,1.1Zm1.17,49.43a29.4,29.4,0,0,0-.34,4.54l.16-.2v1C62.42,154.86,62.15,153.07,62.43,151.3Zm.46-53.08a5.44,5.44,0,0,0,.1-2A10,10,0,0,0,62.89,98.22Zm.33,44.34c-.1.14-.15.31-.26.44-.21.28-.07.47.15.7A3,3,0,0,0,63.22,142.56ZM64,158.09a3.52,3.52,0,0,0-.14,2A6.35,6.35,0,0,0,64,158.09Zm.16-8.33a5.68,5.68,0,0,0-.2-1.48c-.1.52-.15,1.05-.21,1.58a2.21,2.21,0,0,0,.12,1.39.18.18,0,0,1,0,.21,1.41,1.41,0,0,0-.16.8c0,.83,0,1.65,0,2.48a1.1,1.1,0,0,1-.16.62l-.11-.77a10.48,10.48,0,0,0-.09,3.16,6.47,6.47,0,0,1-.09,2,.49.49,0,0,0,.17.49c.13-.09.09-.23.1-.34.06-1.55.21-3.1.36-4.65A44,44,0,0,0,64.17,149.76Zm0-11.62v-8.23h-.11a1.45,1.45,0,0,0-.1.41,11.77,11.77,0,0,0,0,2.14c0,.1,0,.26-.05.28-.3.08-.17.31-.18.47,0,.34,0,.68,0,1v2.56c.14.05.19-.1.3-.06C64.09,137.19,63.94,137.69,64.17,138.14Zm0-19.27,0,.36c0-.12,0-.22-.09-.29,0,.57-.55,1-.32,1.71A2.34,2.34,0,0,0,64.13,118.87Zm.17-2h-.09a4,4,0,0,0,0,1.46Zm.09-2.53a13.9,13.9,0,0,0-.16-3.35,2.82,2.82,0,0,0-.63-1.69.54.54,0,0,0-.09.44,3.6,3.6,0,0,1-.06,1.46c0,.06,0,.16,0,.19.35.38.26.86.33,1.31A5.8,5.8,0,0,0,64,114l.09-.87a6.28,6.28,0,0,1,.22,2.33l.11-.13C64.62,115,64.35,114.69,64.39,114.39Zm.21-16.7c0-2.26,0-4.52,0-6.78,0-2,0-4,0-6.08a.64.64,0,0,0-.23-.6l-.2,1.94c.2-.2.12-.44.29-.65a17.86,17.86,0,0,0-.32,3.54,12.13,12.13,0,0,1,.23-1.45c-.32,3.85.26,7.69,0,11.53A4.77,4.77,0,0,0,64.6,97.69Zm1,21.42c.09,0,.1-.11.2,0,.13.31.06.68.27,1a2.55,2.55,0,0,0,.15-1.24c-.06-.61-.38-1.17-.4-1.79,0-.42,0-.84,0-1.26a23.42,23.42,0,0,1,0-2.37c.07-1.57.31-3.14.27-4.71a4.88,4.88,0,0,0-.15-1.37A112.85,112.85,0,0,0,65.58,119.11Zm.81,23.81c-.18,0-.16.27-.36.28a3.26,3.26,0,0,1-.11-1c0-1.55,0-3.11,0-4.66,0-1.78.13-3.57.17-5.35a45.87,45.87,0,0,0,0-4.69c-.07-.94-.14-1.88-.22-2.9-.11.42,0,.8-.18,1.18-.2-.35-.09-.73-.27-1.07a.46.46,0,0,0-.11.4l0,1.59a27.74,27.74,0,0,0-.12,3.76,19.43,19.43,0,0,1,0,2.16c0,.9,0,1.8.07,2.7,0,.25-.12.53,0,.75.18.52-.09,1,0,1.56a2.72,2.72,0,0,1-.09,1,11.12,11.12,0,0,0-.06,2.18,4.27,4.27,0,0,1,.29-1c-.13,1.55-.09,3.1-.08,4.66l.32-1.2a3,3,0,0,1-.31,2.07c-.34.55-.3.57-.12,1.2a9.2,9.2,0,0,1,.2-1.08c0,.07.07.09.08.12a1.42,1.42,0,0,1,.05.22,8.23,8.23,0,0,1,0,3.05,4.07,4.07,0,0,0,.11,1.93c.07,0,.06-.07.07-.11l.21-2.33a39.62,39.62,0,0,1,.56-4.73A1,1,0,0,0,66.39,142.92ZM66.93,95a2.87,2.87,0,0,0-.23,2.08Zm88-16.13h1.28C155.78,78.83,155.36,78.59,154.91,78.84Zm-6-6.6.24.21a5.75,5.75,0,0,1-.6.1,16.52,16.52,0,0,0,2.31.35c.53,0,.6,0,.93-.48A4.75,4.75,0,0,0,148.92,72.24ZM148.06,71a.59.59,0,0,0,.77,0A1.07,1.07,0,0,0,148.06,71Zm-17.52,6.15a1,1,0,0,1,.6.34.26.26,0,0,0,.19,0c1,0,2,.12,2.94.09a.66.66,0,0,0,.44-.09A23.1,23.1,0,0,0,130.54,77.13Zm-1.18.4c-.53-.25-1,0-1.42.11a10.36,10.36,0,0,0,2.89.15A5.46,5.46,0,0,1,129.36,77.53Zm-5.36-1a8.15,8.15,0,0,0,3.07.31l-.23,0a11,11,0,0,1,2.29,0c-.08-.19-.17-.17-.24-.18a7.08,7.08,0,0,0-1.22-.07,2,2,0,0,0-.81,0,2.26,2.26,0,0,1-1.12.06c-.28,0-.55-.1-.82-.12A1.69,1.69,0,0,0,124,76.51Zm-6.42.2c.77.11.77.11.87-.08A2.35,2.35,0,0,0,117.58,76.71Zm-5.73-4.81a.72.72,0,0,0-.65,0,2.92,2.92,0,0,0,2.27.1A3.32,3.32,0,0,1,111.85,71.9Zm-3.61-.48a13.92,13.92,0,0,0,4,.06,2.12,2.12,0,0,0-.8-.18c-.91-.09-1.82,0-2.74-.09C108.41,71.2,108.41,71.19,108.24,71.42Zm-2.93,3.25,3.46.12A9,9,0,0,0,105.31,74.67Zm-.44-3.15-.06,0-.41.09a6.44,6.44,0,0,0,3.25-.07c-.17-.1-.41-.08-.43-.27-.9.06-1.77-.19-2.65-.06C104.65,71.39,104.85,71.36,104.87,71.52Zm-2.17,2.1c.78.13,1.57,0,2.37.25-.06-.13.07-.15.12-.25Zm-6.14-.49a.69.69,0,0,0,.46-.22.89.89,0,0,0-.53-.15C96.46,72.92,96.45,73,96.56,73.13Zm-6.63,1.73a45.77,45.77,0,0,0,5.14.75A9.41,9.41,0,0,0,89.93,74.86Zm1.59-.57a7.86,7.86,0,0,0-1.59-.2v.12ZM88.61,72.4l.2,0a22.33,22.33,0,0,1,3.47,0,3.89,3.89,0,0,0,1.63,0c.28-.08.59,0,.94-.14l-.17,0a28.78,28.78,0,0,1-2.93-.17,11.73,11.73,0,0,0-2.37,0A1.09,1.09,0,0,0,88.61,72.4Zm-7.36,2.26c-.16,0-.3-.1-.48,0,.12,0,.23,0,.3.1s-.17.06-.1.22c1.17.16,2.36.1,3.55.15-.36-.11-.75,0-1.19-.22.48-.15.9-.1,1.3-.23-.85-.25-1.62-.86-2.62-.53l.15.28-1.31-.31C80.87,74.43,81.2,74.42,81.25,74.66Zm-3-.17,2.27.12A7.88,7.88,0,0,0,78.26,74.49Zm-1.06.92v.1c.42,0,.87.21,1.3-.16ZM73.44,74.2c-.19-.18-.44,0-.57-.21s.18-.14.19-.29a.62.62,0,0,0-.6-.12,14.14,14.14,0,0,1-2.65.46c.32,0,.65,0,1,0a3.45,3.45,0,0,1,1.37.14C72.61,74.43,73,74.22,73.44,74.2Zm16.66,66H87.2q-1.22,5.72-2.42,11.45h-.07q-1.21-5.72-2.41-11.43H79.36V160H82q-.12-6.27-.26-12.47h.08l1.89,8.92H85.6c.19,0,.2-.12.22-.25l1.2-5.66c.22-1,.44-2.08.67-3.12h0L87.47,160H90.1Zm9.28,0H96.75v19.63c0,.1,0,.18.15.18h2.48Zm13,17.77c0-.28-.07-.38-.37-.38-1,0-1.94,0-2.91,0a.46.46,0,0,1-.38-.08V140.23h-2.62V160h6.22a.56.56,0,0,0,0-.33C112.34,159.11,112.33,158.55,112.35,158Zm11.92-.37h-3.61V140.23H118V160h6.27Zm8.31-17.4H130V160a18.85,18.85,0,0,0,2.61,0ZM148,148.53c0-1.81,0-3.62,0-5.43a2.73,2.73,0,0,0-2.77-2.89c-1.1,0-2.21,0-3.31,0a2.63,2.63,0,0,0-2.63,2,5,5,0,0,0-.17,1.27V156.6a6.08,6.08,0,0,0,.07,1,2.57,2.57,0,0,0,2.3,2.4,20,20,0,0,0,3.63.06A2.72,2.72,0,0,0,148,157.1c0-2.33,0-4.66,0-7h0Zm12.77,19c0-.1-.19-.05-.22-.21s.17-.11.14-.31a17,17,0,0,0-3.7,0A7,7,0,0,0,160.76,167.55Zm1.86-27.33H160v9.29a.58.58,0,0,1-.15-.31l-1.32-4.43c-.42-1.42-.84-2.85-1.27-4.27,0-.12,0-.3-.24-.3-.82,0-1.65,0-2.49,0V160h2.62V147.22c.14.07.13.19.16.27.74,2.35,1.47,4.7,2.22,7A7,7,0,0,1,160,157c-.05.87,0,1.74,0,2.61a.64.64,0,0,0,0,.38h2.61Zm5.57-36.14a25.65,25.65,0,0,0-7.95-14.29,26.21,26.21,0,0,0-18.33-7.25,25.75,25.75,0,0,0-10.65,2.28.9.9,0,0,1-.9,0A26.59,26.59,0,0,0,95.65,93c-.68,1-1.27,2-1.89,3V84.3c0-.23,0-.36-.31-.36l-10.09,0c-.18,0-.25.07-.29.24-.09.42-.23.83-.3,1.25a3.53,3.53,0,0,1-1.64,2.35A7.84,7.84,0,0,1,77.4,89c-1.31.14-2.62,0-3.93.08-.13,0-.26,0-.39,0v11.81h4.58c0,11,.16,21.91.13,32.87H93.35c.27,0,.33-.09.33-.34,0-1.94,0-3.88.06-5.82,0-2.27,0-4.55,0-6.82v-.31a.32.32,0,0,1,.15.16,26.69,26.69,0,0,0,12.25,11.79,26.53,26.53,0,0,0,22.31.24.54.54,0,0,1,.55,0A26.13,26.13,0,0,0,139.63,136,26.59,26.59,0,0,0,163,125.87,26.14,26.14,0,0,0,168.19,104.08Zm4.87-30.16c.41.25.78,0,1.16-.13C173.81,73.68,173.46,74,173.06,73.92Zm.31,1.22c.22.29.47.34.88.17A1.8,1.8,0,0,0,173.37,75.14Zm-.91-2.28a4.55,4.55,0,0,0,1.1.12,1.31,1.31,0,0,0,.48,0c0-.15-.07-.34-.26-.33A6.27,6.27,0,0,0,172.46,72.86Zm2.44,5a2.28,2.28,0,0,0-1.2-.69c-.59-.07-1.17-.18-1.77-.23s-1.21-.27-1.74.18a2.69,2.69,0,0,0,1.64-.05c.17.16.1.31.11.49l.31,0a4.56,4.56,0,0,1,1.32.27C174,78.08,174.4,77.89,174.9,77.86Zm-.11,74.51V151C174.6,151.77,174.61,152.15,174.79,152.37Zm.36,15.75c-.34-.4-.46-.42-1-.2.37.45.4.47.71.49C174.87,168.2,174.87,168.2,175.15,168.12Zm.08-.92c-.11-.31-.26-.46-.37-.4s0,.2-.06.25-.24,0-.34.06a1,1,0,0,0,.47.42C174.93,167.33,175,167.3,175.23,167.2Zm-.08-13.86c-.1.08,0,.21-.07.25-.16-.12-.38-.15-.4-.39-.06.32-.19.61,0,.91a2.25,2.25,0,0,1,.35,1.34v.72c.08-.47.12-.94.16-1.41A4.25,4.25,0,0,0,175.15,153.34Zm.16-10.83a3.4,3.4,0,0,0-.06.81C175.56,143.15,175.57,143.08,175.31,142.51Zm1,25.21c.25.18.37.42.67.51C177,167.91,176.83,167.75,176.31,167.72Zm2.42-61.56c.11-.47.23-.93.34-1.4,0-.05,0-.13,0-.16-.23-.24-.21-.57-.31-.95A16.28,16.28,0,0,0,178.73,106.16Zm-.82,2a18.27,18.27,0,0,0,.35-3A8.16,8.16,0,0,0,177.91,108.17Zm-.44,16.43a1.58,1.58,0,0,0,0-1.28A3.07,3.07,0,0,0,177.47,124.6Zm.21,16.49a6.6,6.6,0,0,0-.13,2.76A11.1,11.1,0,0,0,177.68,141.09Zm.61,11.62a11.58,11.58,0,0,0,0,3.67A15,15,0,0,0,178.29,152.71Zm.62-43.42c-.23.12-.25.36-.43.56a4.38,4.38,0,0,0-.15-2.3.71.71,0,0,0-.06.14,11.06,11.06,0,0,0-.12,1.82c0,.59-.33,1.19,0,1.79a.42.42,0,0,1,0,.26,13,13,0,0,0-.34,2.25,3.71,3.71,0,0,0-.05,1,1.23,1.23,0,0,0,.19-.58c.13-1,.27-2.07.38-3.11,0-.36.28-.51.5-.7.22.12.1.39.27.53A2.09,2.09,0,0,0,178.91,109.29Zm.66,37.09c0-.4.27-.78.06-1.19A4.33,4.33,0,0,0,179.57,146.38Zm-28.76,21.31h0Zm-9.56-47.1a11.3,11.3,0,1,0,1-22.58,26.81,26.81,0,0,1,2,11.41A26.51,26.51,0,0,1,141.25,120.59Zm-32.43-19.45a10.8,10.8,0,0,0-1.37,12c1.94,4,5.35,6.1,9.9,6.41a26.9,26.9,0,0,1,1-22.66A11,11,0,0,0,108.82,101.14Z"/></svg>