<svg xmlns="http://www.w3.org/2000/svg" viewBox="0 0 240 240"><defs><style>.a{fill:#fff;}</style></defs><polygon class="a" points="26.33 119.17 36.22 116.61 38.67 106.83 37.44 108.06 29.89 100.5 26.11 104.28 28.44 106.61 26 109.06 23.67 106.72 20 110.39 27.56 117.94 26.33 119.17"/><polygon class="a" points="26.56 122.28 27.67 123.39 20.11 130.94 23.89 134.83 26.22 132.39 28.67 134.83 26.33 137.17 30 140.94 37.67 133.39 38.78 134.5 36.22 124.61 26.56 122.28"/><polygon class="a" points="54.22 122.06 44.33 124.61 42 134.39 43.11 133.17 50.67 140.72 54.44 136.94 52.11 134.61 54.56 132.17 56.89 134.5 60.56 130.83 53 123.28 54.22 122.06"/><polygon class="a" points="54 118.94 52.89 117.83 60.44 110.28 56.67 106.5 54.33 108.83 51.89 106.39 54.22 104.06 50.56 100.28 43 107.83 41.78 106.72 44.33 116.61 54 118.94"/><path class="a" d="M84.11,114.5a6.79,6.79,0,0,1,6.45,3.78H98a13.12,13.12,0,0,0-3.56-5.78,15,15,0,0,0-10.22-4.11c-8.44,0-14.78,6.22-14.78,14.55a14.57,14.57,0,0,0,14.78,14.45c6.45,0,11.45-3.56,13.78-9.78H90.56c-1.67,2.56-3.56,3.67-6.34,3.67-4.66,0-8.11-3.56-8.11-8.45S79.44,114.5,84.11,114.5Z"/><path class="a" d="M114.11,108.39a9.77,9.77,0,0,0-7,2.55V99.83h-6.67v36.89h6.67v-14c0-2.66.22-4.22.89-5.44a5.17,5.17,0,0,1,5-2.78c3.89,0,5.44,2.33,5.44,8.11v14.11h6.67V121.06c0-5.23-1-8-3.44-10.23A12.11,12.11,0,0,0,114.11,108.39Z"/><rect class="a" x="212.89" y="109.06" width="6.67" height="27.67"/><path class="a" d="M216.11,106.83a3.53,3.53,0,0,0,2.78-1.11,3.59,3.59,0,0,0,1.11-2.66,3.5,3.5,0,0,0-1.11-2.78,3.69,3.69,0,0,0-2.78-1.11,3.3,3.3,0,0,0-2.67,1.11,3.71,3.71,0,0,0-1.11,2.78,3.79,3.79,0,0,0,3.78,3.77Z"/><rect class="a" x="128.78" y="109.06" width="6.67" height="27.67"/><path class="a" d="M132,99.06a3.3,3.3,0,0,0-2.67,1.11,3.69,3.69,0,0,0-1.11,2.77,3.32,3.32,0,0,0,1.11,2.67,3.61,3.61,0,0,0,2.67,1.11,3.53,3.53,0,0,0,2.78-1.11,3.61,3.61,0,0,0,1.11-2.67,3.49,3.49,0,0,0-1.11-2.77A3.69,3.69,0,0,0,132,99.06Z"/><path class="a" d="M169.44,108.39a10.27,10.27,0,0,0-8.88,4.33c-1.89-3-4.34-4.33-8.12-4.33a8.43,8.43,0,0,0-7.22,3.22v-2.55h-6.11v27.66h6.67V123.06a16.28,16.28,0,0,1,.66-5.56,4.68,4.68,0,0,1,4.78-3,5.2,5.2,0,0,1,4.11,1.67c.89,1,1.23,2.66,1.23,5.44v15.22h6.66V123.06c0-3,.22-4.56.89-5.78A5,5,0,0,1,169,114.5a4.71,4.71,0,0,1,3.67,1.56c1,1,1.33,2.55,1.33,5.44v15.22h6.67v-16a14.78,14.78,0,0,0-1.67-7.66C177.22,110.06,173.78,108.39,169.44,108.39Z"/><path class="a" d="M198.44,108.39a9.82,9.82,0,0,0-7.77,3.33v-2.66h-6.11v27.66h6.66v-13c0-3.55.22-5.22,1-6.44a5.55,5.55,0,0,1,4.89-2.67,4.82,4.82,0,0,1,4,1.67c1,1.22,1.45,3.22,1.45,7v13.55h6.66v-15c0-4.77-.44-7.11-1.78-9.22A10.67,10.67,0,0,0,198.44,108.39Z"/></svg>