<svg xmlns="http://www.w3.org/2000/svg" xmlns:xlink="http://www.w3.org/1999/xlink" viewBox="0 0 240 240"><defs><style>.a{fill:url(#a);}.b{fill:url(#b);}.c{fill:url(#c);}.d{fill:#fff;}</style><radialGradient id="a" cx="78.56" cy="118.74" r="37.14" gradientTransform="matrix(0.61, 0.8, -0.52, 0.39, 92.56, 9.35)" gradientUnits="userSpaceOnUse"><stop offset="0.9" stop-color="#fff" stop-opacity="0.5"/><stop offset="0.92" stop-color="#fff" stop-opacity="0.52"/><stop offset="0.93" stop-color="#fff" stop-opacity="0.58"/><stop offset="0.95" stop-color="#fff" stop-opacity="0.67"/><stop offset="0.98" stop-color="#fff" stop-opacity="0.81"/><stop offset="1" stop-color="#fff" stop-opacity="0.98"/><stop offset="1" stop-color="#fff"/></radialGradient><radialGradient id="b" cx="76.09" cy="119.6" r="45.45" gradientTransform="translate(89.06 11.97) rotate(51.45) scale(1 0.65)" xlink:href="#a"/><radialGradient id="c" cx="72.12" cy="120" r="52.61" gradientTransform="translate(94.57 14.25) rotate(53.83) scale(1 0.67)" gradientUnits="userSpaceOnUse"><stop offset="0.86" stop-color="#fff" stop-opacity="0.5"/><stop offset="0.88" stop-color="#fff" stop-opacity="0.52"/><stop offset="0.9" stop-color="#fff" stop-opacity="0.58"/><stop offset="0.93" stop-color="#fff" stop-opacity="0.67"/><stop offset="0.96" stop-color="#fff" stop-opacity="0.81"/><stop offset="1" stop-color="#fff" stop-opacity="0.98"/><stop offset="1" stop-color="#fff"/></radialGradient></defs><path class="a" d="M106.18,137.54l.47.89-.2.68-.69-.21-.48-.9.21-.67Zm-50-11.64-1,1.86,1.32,2.2,2.27.27.93-1.88-1.29-2.13ZM67.4,86.74l-1.3,0,0,1.28,1.33,1.24,1.29-.06,0-1.27Zm-5.83.64-1.33.46.4,1.65,1.75,1.18,1.31-.49-.42-1.63Zm-5.3,2.34-1.27,1,1,2.06,2.22,1,1.22-1.07-1-2ZM52,94.07l-.94,1.64,1.57,2.23,2.47.51L56,96.78l-1.53-2.16Zm-2.58,6.47L49,102.63l2,2,2.35-.14.34-2.08-2-2ZM51,107.93l-2.08.76.22,2.39,2.35,1.59,2.06-.83-.26-2.34Zm1.39,8.65L50.71,118l.84,2.46,2.49,1L55.61,120l-.85-2.4Zm9.66,18-.36,2.13,1.62,1.79,1.94-.38.31-2.12-1.58-1.75Zm8.78,6.21-1.59.93L69.4,144l1.83,1.34,1.58-1-.24-2.27Zm7.58,4.74-1.1,1.4.7,2.21,1.81.76,1.07-1.44-.71-2.16Zm7.51,2.62-.53,1.54,1,1.76,1.48.18.51-1.55-1-1.73Zm6.65.3-.11,1.5,1,1.31,1.12-.23.09-1.51-1-1.28Zm4.72-1.37.16,1.45,1,1,.86-.48-.17-1.45-1-1Zm4-2.75-.65.62.34,1.35,1,.72.65-.64-.35-1.33Zm3.4-4.81-.34.72.49,1.08.82.35.33-.73-.49-1.07Zm-1.35,2.35-.48.71.44,1.23.93.51.47-.71-.45-1.22ZM71.92,87.25l-.25,1,1,1.22,1.23.24.23-1-1-1.2Z"/><path class="b" d="M75.6,83,77,85l-.63,1.35-2.12-.74-1.46-2.11.69-1.32ZM46,120.89l-2.17,2.47,1.57,3.55,3.71.94,2-2.55-1.55-3.4ZM66,80.33l-.31,1.91,2.08,2.27,2.33.29.25-1.92-2-2.2Zm-5.06-.19-2.31.24.25,2.38,2.61,2.11,2.26-.32-.3-2.34Zm-7.16,1.18-2.33,1,1,3,3.37,1.93,2.24-1.13-1-3Zm-6.38,3.6-2,1.94,1.93,3.41,3.86,1.33,1.83-2-1.89-3.27Zm-4.76,6.41L41.4,94l2.67,3.2,3.77.39L48.9,94.9l-2.57-3.06Zm.9,8.34-3.51.48-.32,3.28L43,106.17l3.48-.63.2-3.22Zm-.27,10-2.94,1.51.65,3.56,3.64,1.93L47.43,115l-.7-3.44Zm8.51,22.72-1.17,3.06,2.21,3,3.31-.14,1-3.07L55,132.34Zm8.5,10.49-.19,3,2.27,2,2.37-1,.12-2.91-2.19-2Zm11.63,6.48-1.68,1.5.52,2.81L73,154.89l1.64-1.57L74,150.58Zm9.51,4.42-1,1.9,1,2.45,2,.5,1-1.94-1-2.39Zm9,1.56-.35,1.9,1.19,1.82,1.53-.11.31-1.91-1.17-1.78Zm6.69-1,0,1.78,1.2,1.33L99.5,157l-.06-1.77-1.18-1.31Zm5.33-2.78-.85.63.28,1.62,1.14,1,.84-.66-.29-1.61ZM80.39,85.24l-1,.88,1,2,2,1.07.91-.93-1-2Zm25,63.41-.66.79.44,1.56,1.12.75.66-.82-.45-1.54Z"/><path class="c" d="M69.63,75.27l2.07,2.57-.56,1.87L68.4,79l-2.14-2.66.66-1.84ZM40,128.69l-1.93,3,2,3.51,3.89.34,1.77-3.06-2-3.35ZM60.9,73.37l-2.76-.2-.1,2.4,2.76,2.58,2.74.1V75.87Zm-8.75,0-2.8.54L50,77l3.5,2.41,2.7-.67-.7-3ZM43.84,76l-2.51,1.43,1.54,3.44,4,1.89,2.35-1.55-1.53-3.32Zm-7.17,5.52-1.92,2.38,2.51,3.59,4.34,1.06,1.73-2.45-2.42-3.44Zm-4.8,9-.94,3,3.11,3,3.9,0,.8-2.94-3-2.94Zm1.6,10.9-3.47,1,0,3.42,3.62,2.38,3.41-1.1-.14-3.33Zm1.21,12.88-2.94,2.1,1.09,3.79,4.07,1.53,2.81-2.23-1.12-3.64ZM49,142.4l-.79,3.42,2.5,2.74,3.21-.78.67-3.39-2.41-2.64Zm14.2,9.83-2.27,1.46.17,3.25,2.51,1.72,2.24-1.55-.23-3.18ZM75,159.39l-1.38,1.9.82,2.77,2.21.79L78,162.9l-.83-2.7Zm11.55,3.1L86,164.56l1.16,2.2,1.79.07.6-2.09-1.15-2.14Zm9.17-.42-.13,2,1.28,1.66,1.37-.4.09-2-1.25-1.62ZM75.46,77.48l-1.14,1.35,1.62,2.71,2.73,1.28,1-1.41-1.59-2.63Zm7.89,4.44L82,82.7l1,2.45,2.42,1.6,1.34-.85-1-2.39Z"/><path class="d" d="M86.47,100.07c-3.46,0-5.55,2.94-5.55,6.23s2.09,6.22,5.55,6.22S92,109.59,92,106.3,89.93,100.07,86.47,100.07Zm0,9.89c-1.82,0-2.92-1.72-2.92-3.66s1.1-3.67,2.92-3.67,2.93,1.73,2.93,3.67S88.3,110,86.47,110Zm39-9.89c-3.46,0-5.55,2.94-5.55,6.23s2.09,6.22,5.55,6.22,5.56-2.93,5.56-6.22S128.9,100.07,125.44,100.07Zm0,9.89c-1.82,0-2.92-1.72-2.92-3.66s1.1-3.67,2.92-3.67,2.93,1.73,2.93,3.67S127.27,110,125.44,110ZM78.49,108.7A3,3,0,0,1,76.07,110c-1.82,0-2.92-1.72-2.92-3.66s1.1-3.67,2.92-3.67a3,3,0,0,1,2.42,1.27L80,101.83a5.15,5.15,0,0,0-4-1.76c-3.46,0-5.55,2.94-5.55,6.23s2.09,6.22,5.55,6.22a5.17,5.17,0,0,0,4-1.75Zm26.23-8.37v11.94h-2.6v-6.69l-2.27,3.13h-1l-2.26-3.09v6.65H94V100.33H96l3.38,4.93,3.38-4.93Zm13.28,0v11.94h-2.6v-6.69l-2.27,3.13h-1l-2.26-3.09v6.65h-2.63V100.33h2.08l3.38,4.93,3.38-4.93Zm24.68,0v11.94h-2l-5.22-7.11v7.11H133V100.33h2l5.13,7v-7Zm1.48,0H147L148.6,107l1.62-6.67h2.25l1.62,6.68,1.66-6.68h2.8l-3.49,11.94h-2l-1.72-6.94-1.64,6.94h-2Zm18.42,2.42v2.34h4.65v2.27h-4.65v2.49h5.52v2.42H160V100.33h8.12v2.42Zm21.26,7.1h4.93v2.42h-7.53V100.33h2.6Zm14.79-9.52v2.42h-3.12v9.52h-2.6v-9.52H189.8v-2.42Zm11.37,0v11.94h-2.69v-4.79H203v4.79h-2.59V100.33H203v4.9h4.28v-4.9Zm-32.68,11.94h2.77l-4.5-11.94h-2.42l-4.46,11.94h2.76l.81-2.33h4.22Zm-4.24-4.63,1.31-3.76,1.31,3.76Zm-33.89,9.27A3.22,3.22,0,1,0,142,120.1,2.92,2.92,0,0,0,139.19,116.91Zm0,5.41c-1.11,0-1.79-1-1.79-2.24a2,2,0,0,1,1.79-2.23c1.12,0,1.79,1.05,1.79,2.23S140.31,122.32,139.19,122.32Zm41.91-5.47c-1.53,0-2.45,1.52-2.45,3.22s.92,3.22,2.45,3.22,2.46-1.52,2.46-3.22S182.63,116.85,181.1,116.85Zm0,5.46c-.9,0-1.44-1.06-1.44-2.25s.54-2.26,1.44-2.26,1.45,1.06,1.45,2.26S182,122.31,181.1,122.31Zm26.25-5.46c-1.53,0-2.46,1.52-2.46,3.22s.93,3.22,2.46,3.22,2.45-1.52,2.45-3.22S208.88,116.85,207.35,116.85Zm0,5.46c-.91,0-1.45-1.06-1.45-2.25s.54-2.26,1.45-2.26,1.44,1.06,1.44,2.26S208.25,122.31,207.35,122.31Zm-115-.57a1.68,1.68,0,0,1-1.28.6c-1.14,0-1.78-1.06-1.78-2.22,0-1.49.9-2.27,1.75-2.27a1.82,1.82,0,0,1,1.3.6l.6-.79a2.41,2.41,0,0,0-1.93-.75c-1.73,0-2.76,1.44-2.76,3.21,0,1.61.92,3.19,2.79,3.19a2.46,2.46,0,0,0,1.9-.78Zm70.11,0a1.66,1.66,0,0,1-1.28.6c-1.13,0-1.78-1.06-1.78-2.22,0-1.49.9-2.27,1.75-2.27a1.8,1.8,0,0,1,1.3.6l.6-.79a2.41,2.41,0,0,0-1.93-.75c-1.73,0-2.75,1.44-2.75,3.21,0,1.61.91,3.19,2.78,3.19a2.45,2.45,0,0,0,1.9-.78Zm-6,1.42h-1V117h1Zm-5.84-5.25v1.68h2.5v.87h-2.5v2.7h-1V117h4v.87Zm-5.84,0v1.68h2.51v.87h-2.51v2.7h-1V117h4v.87ZM123,123.16h-1V117h1ZM130.1,117v6.12h-.74L126.28,119v4.18h-1V117h.7l3.12,4.25V117ZM109,123.16h-1V117h1Zm3.22,0h-1V117h1Zm-16.56,0h-1V117h1ZM84.15,123v.16H83.06l-1.68-2.77-.92,1.08v1.69h-1V117h1v3L83,117h1.15v.16L82,119.63Zm-7.87-6h1v3.6a2.36,2.36,0,1,1-4.69,0V117h1v3.53c0,1,.46,1.77,1.34,1.77s1.33-.78,1.33-1.77Zm23.09,6.12h-1V117h1Zm-1-2.56h-3v-.87h3Zm21.72.61h-2.63v-.81h2.63Zm14.61,0h-2.63v-.81h2.63Zm62.88,0H195v-.81h2.62Zm-84-3.3h-2l-.38-.87h2.33Zm1.05,1.16a1.11,1.11,0,0,0-1.05-1.16c-.24,0-.44-.87-.08-.87a1.91,1.91,0,0,1,2.18,2,2,2,0,0,1-1.88,2.07H111.6l-.38-.87h2.36A1.13,1.13,0,0,0,114.68,119.07Zm-9.28,4.09h1.07L104.19,117h-1l-2.28,6.12H102l.42-1.21H105Zm-2.69-2.08,1-2.84,1,2.84Zm11.65-.3,1.51,2.22v.16h-1.08l-1.4-2.1Zm51.43-2.87v1.68h2.5v.87h-2.5v1.83h3v.87h-4V117h4v.87Zm7.77.61-.55-.83a2.88,2.88,0,0,1,1.9-.77,1.78,1.78,0,0,1,2,1.81,2.32,2.32,0,0,1-.76,1.92l-1.47,1.64H177v.87h-3.82v-.75s1.25-1.32,2-2.2a1.92,1.92,0,0,0,.6-1.3,1,1,0,0,0-.94-1.06A2.21,2.21,0,0,0,173.56,118.52Zm26.26,0-.56-.83a2.92,2.92,0,0,1,1.91-.77,1.78,1.78,0,0,1,2,1.81,2.32,2.32,0,0,1-.76,1.92l-1.47,1.64h2.3v.87h-3.82v-.75s1.25-1.32,2-2.2a1.92,1.92,0,0,0,.6-1.3,1,1,0,0,0-.93-1.06A2.17,2.17,0,0,0,199.82,118.52ZM185,117.91V117h2.17v6.12h-1v-5.25Zm7.4,2.09a1.49,1.49,0,0,0,.62-1.31,1.89,1.89,0,0,0-3.77,0,1.49,1.49,0,0,0,.62,1.31,1.53,1.53,0,0,0-.83,1.44,2.11,2.11,0,0,0,4.19,0A1.53,1.53,0,0,0,192.41,120Zm-1.26-2.23a.85.85,0,0,1,.87.92c0,.6-.31,1-.87,1s-.88-.37-.88-1A.86.86,0,0,1,191.15,117.77Zm0,4.66a1,1,0,0,1-1-1,1,1,0,0,1,2,0A1,1,0,0,1,191.15,122.43Z"/></svg>