<svg xmlns="http://www.w3.org/2000/svg" viewBox="0 0 240 240"><defs><style>.a{fill:#fff;}</style></defs><path class="a" d="M197.59,107.15c-2.43-.83-9.1-.33-16.73,1.67s-12.06,4.93-14.07,7.16-4.18,7.57,1.09,11.19c-.82,1.23-4.31,8.47-5,12.16a2.28,2.28,0,0,0,.51,2.22,2.58,2.58,0,0,0,3.65,0,47.26,47.26,0,0,1,5.28-12.65,33,33,0,0,0,5.32.67c0,.43-.12,6.63-.12,7a2.57,2.57,0,0,0,.82,2.08c.84.78,2.34.72,3.8-.29,0,0,.49-8.11.54-8.84a67.9,67.9,0,0,0,8.14-.86,3.52,3.52,0,0,0,1-2.25,1.93,1.93,0,0,0-2-2.25c-1.45.08-2.33.54-6.76.87,0-.31.53-8.26,1.1-9.53a5.09,5.09,0,0,0-1.09-2.63c8.85-2.18,12.52-1.57,12.83-1.49a2.41,2.41,0,0,0,1.79.85,2.31,2.31,0,0,0,2.17-1.51C200.27,109.69,200,108,197.59,107.15Zm-27.51,16.26a2.36,2.36,0,0,1-1.14-2.31c.12-1.5,2.16-3.64,6.27-5.48C173.93,117.43,171.11,121.57,170.08,123.41Zm7.7,1.79a28.68,28.68,0,0,1-2.87-.24c.11-.17.75-1,1.43-1.9s1.44-1.76,1.67-2C178,121.69,177.78,124.9,177.78,125.2Zm.09-23c0-3.12,2.24-4.56,4.1-4.53a3.63,3.63,0,0,1,3.45,2.53,5.24,5.24,0,0,1,.07,2.48,2.81,2.81,0,0,0,0,1.27,7.88,7.88,0,0,1-4.12,2.41C179.8,106.59,177.85,105.34,177.87,102.22ZM45,108.92v1.82h4.71v3.93H45v5.27H40V104.76H50l.45,4.16ZM64.39,110c0-3.52-2-5.28-6.3-5.28H51.9v15.18H57V115h.3l3.13,4.93h5.27l.17-.41-3.77-5.4A4.33,4.33,0,0,0,64.39,110ZM58,111.36H57v-2.67h1c1,0,1.61.45,1.61,1.35S59,111.36,58,111.36Zm15.77-7c-4.8,0-8.4,3.25-8.4,8s3.6,8,8.4,8,8.4-3.41,8.4-8S78.58,104.36,73.78,104.36Zm0,11.36a3.18,3.18,0,0,1-3.13-3.37,3.14,3.14,0,1,1,6.26,0A3.18,3.18,0,0,1,73.78,115.72Zm19.31-11h5v15.18H93.13l-3-4.4c-.56-.81-1.11-1.65-2.1-3.32h0a16.36,16.36,0,0,1,.43,3.75v4h-5V104.76h5.31l2.68,4.2c.51.82,1.05,1.65,2,3.33h0a16.18,16.18,0,0,1-.4-3.75Zm10.71,15.18V109.26H99.45v-4.5h13.76v4.5h-4.35v10.68Zm20.78,0h-10V104.76h5v10.68H125Zm1.92-15.18h5v15.18h-5Zm11.82,15.18h-4.95V104.76h5.31l2.68,4.2c.52.82,1,1.65,2,3.33h0a16.26,16.26,0,0,1-.41-3.75v-3.78h5v15.18H143l-3-4.4c-.55-.81-1.11-1.65-2.1-3.32h0a16.36,16.36,0,0,1,.43,3.75Zm21.5,0h-10V104.76h10l.45,4.16h-5.44v1.39h4.69v3.93h-4.69v1.54h5.44Zm-45.95,1.9L108.4,137h5.92l.49-1.93h4.13l.5,1.93h5.91L120,121.84Zm1.86,9.6.41-1.58a26.69,26.69,0,0,0,.66-3.71h.11a26.69,26.69,0,0,0,.66,3.71l.41,1.58Zm10.77-9.6h5V137h-5Zm12.44,0h-5.57V137h5.53c5.33,0,8.7-3,8.7-7.61S144.34,121.84,138.94,121.84Zm-.13,10.78h-.47v-6.39h.54c2.33,0,3.6,1,3.6,3.18S141.23,132.62,138.81,132.62Zm14.9-6.47c0,.34.12.47,2.85,1.61s3.77,2.5,3.77,4.39c0,3.09-2.62,5.29-6.26,5.29a7.44,7.44,0,0,1-6.23-3.12l3.36-2.38.41.1a3,3,0,0,0,2.44,1.22c.71,0,1.13-.21,1.13-.57s-.36-.67-2.84-1.72c-2.73-1.14-3.75-2.46-3.75-4.84,0-2.66,2.59-4.7,5.93-4.7a7.18,7.18,0,0,1,6,2.94l-3.36,2.53-.41-.09a2.76,2.76,0,0,0-2.17-1.2C154,125.61,153.71,125.83,153.71,126.15Z"/></svg>