<svg xmlns="http://www.w3.org/2000/svg" viewBox="0 0 240 240"><defs><style>.a,.b,.c,.d,.e,.f,.g,.h{fill:#fff;}.a{opacity:0.4;}.b{opacity:0.3;}.c{opacity:0.6;}.d{opacity:0.8;}.e{opacity:0.9;}.f{opacity:0.7;}.g{opacity:0.5;}</style></defs><path class="a" d="M133.68,138,117.45,121.8l13.69-13.69,16.23,16.23A9.68,9.68,0,0,1,133.68,138"/><path class="b" d="M87.53,124.34l16.23-16.23,13.69,13.69L101.22,138a9.68,9.68,0,0,1-13.69-13.69"/><path class="c" d="M85.32,57.84l16.23,16.22L87.86,87.75,71.63,71.52A9.68,9.68,0,0,1,85.32,57.84"/><path class="d" d="M163.27,71.52,147,87.75,133.35,74.06l16.24-16.22a9.67,9.67,0,0,1,13.68,13.68"/><path class="e" d="M149.58,117.67l-16.22-16.23L147,87.75,163.27,104a9.68,9.68,0,0,1-13.69,13.69"/><path class="f" d="M71.63,104,87.86,87.75l13.68,13.69L85.32,117.67A9.68,9.68,0,0,1,71.63,104"/><path class="d" d="M101.55,74.06,87.86,87.75l13.69,13.69,13.68-13.69Z"/><path class="g" d="M117.45,94.42l-13.69,13.69,13.69,13.69,13.69-13.69Z"/><path class="h" d="M133.36,74.06,119.67,87.75l13.69,13.69L147,87.75Z"/><path class="e" d="M59.17,167.3v-8.73l-.84-.15a1.13,1.13,0,0,1-.52-.23.57.57,0,0,1-.21-.48v-1.15h1.57v-.72a4.68,4.68,0,0,1,.29-1.67,3.57,3.57,0,0,1,.82-1.27,3.85,3.85,0,0,1,1.31-.8,5.06,5.06,0,0,1,1.75-.28,4.14,4.14,0,0,1,.72.05,5.63,5.63,0,0,1,.69.14l-.07,1.42a.44.44,0,0,1-.27.43,1.72,1.72,0,0,1-.58.1,3.1,3.1,0,0,0-.78.09,1.34,1.34,0,0,0-.6.32,1.36,1.36,0,0,0-.36.61,2.87,2.87,0,0,0-.13,1v.63h2.68v2H62.06v8.73Zm13.4-10.81v7.77a4.58,4.58,0,0,1-1,.73,2.64,2.64,0,0,1-1.14.26,1.5,1.5,0,0,1-1.24-.5,2.13,2.13,0,0,1-.41-1.39v-6.87H65.87v6.87a5.39,5.39,0,0,0,.24,1.65,3.86,3.86,0,0,0,.7,1.3,3.17,3.17,0,0,0,1.15.85,3.89,3.89,0,0,0,1.57.3,4.49,4.49,0,0,0,1-.1,4.73,4.73,0,0,0,.85-.29,4.27,4.27,0,0,0,.73-.46,6,6,0,0,0,.67-.57l.19.75a.69.69,0,0,0,.72.51h1.78V156.49Zm9,11a5.18,5.18,0,0,0,1.56-.24,4.36,4.36,0,0,0,1.35-.71l-.87-1.38a.71.71,0,0,0-.17-.2.41.41,0,0,0-.21-.05.39.39,0,0,0-.18,0l-.2.11a1.18,1.18,0,0,1-.25.1,1.13,1.13,0,0,1-.35.05.78.78,0,0,1-.62-.26,1.14,1.14,0,0,1-.21-.72v-5.63h2.79v-2H81.43v-3.29H79.92a.58.58,0,0,0-.64.47l-.59,2.79-1.73.32V158a.55.55,0,0,0,.56.59h1v5.82a3.66,3.66,0,0,0,.2,1.28,2.7,2.7,0,0,0,.58,1,2.63,2.63,0,0,0,1,.61,3.69,3.69,0,0,0,1.3.21m10.77-11v7.77a4.36,4.36,0,0,1-1,.73,2.61,2.61,0,0,1-1.14.26,1.48,1.48,0,0,1-1.23-.5,2.08,2.08,0,0,1-.42-1.39v-6.87H85.65v6.87a5.39,5.39,0,0,0,.24,1.65,3.71,3.71,0,0,0,.71,1.3,3.13,3.13,0,0,0,1.14.85,3.89,3.89,0,0,0,1.57.3,4.37,4.37,0,0,0,1-.1,4.47,4.47,0,0,0,.85-.29,4.35,4.35,0,0,0,.74-.46,7,7,0,0,0,.67-.57l.19.75a.67.67,0,0,0,.71.51h1.78V156.49Zm7.83.7a1,1,0,0,0-.23-.54,1,1,0,0,0-.61-.16H97.63V167.3h2.89v-6.62a4.44,4.44,0,0,1,.36-.69,2.45,2.45,0,0,1,.44-.51,1.79,1.79,0,0,1,.55-.33,2.16,2.16,0,0,1,.71-.11,3,3,0,0,1,.58.05,3.5,3.5,0,0,0,.48,0,.43.43,0,0,0,.47-.36l.18-2.14a1.91,1.91,0,0,0-1.19-.35,2.41,2.41,0,0,0-1.57.54,4.87,4.87,0,0,0-1.19,1.45Zm13.88,5.15a1,1,0,0,0,.33-.05.39.39,0,0,0,.19-.17.91.91,0,0,0,.11-.34,3.7,3.7,0,0,0,0-.53,5.91,5.91,0,0,0-.35-2.09,4.34,4.34,0,0,0-1-1.55,4.29,4.29,0,0,0-1.51-1,5.92,5.92,0,0,0-4.11.1,4.89,4.89,0,0,0-1.65,1.15,4.82,4.82,0,0,0-1,1.69,6,6,0,0,0-.36,2.08,6.86,6.86,0,0,0,.42,2.5,5.06,5.06,0,0,0,1.15,1.81,4.75,4.75,0,0,0,1.71,1.1,5.81,5.81,0,0,0,2.11.37,7.94,7.94,0,0,0,1.17-.08,5.77,5.77,0,0,0,2.36-.83,4.73,4.73,0,0,0,1-.89l-.84-1.05a.62.62,0,0,0-.53-.25,1.13,1.13,0,0,0-.52.14l-.6.32a5.13,5.13,0,0,1-.77.31,3.17,3.17,0,0,1-1,.14,2.62,2.62,0,0,1-1.9-.7,3.4,3.4,0,0,1-.87-2.22Zm-6.43-1.72a3,3,0,0,1,.76-1.68,2.19,2.19,0,0,1,1.62-.58,2.32,2.32,0,0,1,1,.18,1.93,1.93,0,0,1,.66.5,2.07,2.07,0,0,1,.38.72,3,3,0,0,1,.12.86Z"/><path class="d" d="M116.51,167.3V156.49h1.78a.71.71,0,0,1,.73.51l.16.7a7.54,7.54,0,0,1,.59-.55,3.12,3.12,0,0,1,.64-.43,3.54,3.54,0,0,1,.75-.29,3.46,3.46,0,0,1,.87-.1,2.48,2.48,0,0,1,1.65.53,3.26,3.26,0,0,1,1,1.4,3.41,3.41,0,0,1,.65-.88,3.08,3.08,0,0,1,.84-.6,3.54,3.54,0,0,1,1-.34,4.43,4.43,0,0,1,1-.11,4.51,4.51,0,0,1,1.62.27,3,3,0,0,1,1.17.8,3.53,3.53,0,0,1,.73,1.29,5.5,5.5,0,0,1,.25,1.74v6.87H129v-6.87q0-1.89-1.62-1.89a1.87,1.87,0,0,0-.68.12,1.51,1.51,0,0,0-.54.36,1.65,1.65,0,0,0-.37.6,2.22,2.22,0,0,0-.13.81v6.87h-2.89v-6.87a2.12,2.12,0,0,0-.41-1.46,1.51,1.51,0,0,0-1.18-.43,2.05,2.05,0,0,0-1,.23,3.21,3.21,0,0,0-.84.66v7.87Zm18-8.39a1.7,1.7,0,0,0,.34.37.85.85,0,0,0,.51.15,1.34,1.34,0,0,0,.61-.14l.56-.31a4.46,4.46,0,0,1,.69-.3,2.89,2.89,0,0,1,1-.15,1.62,1.62,0,0,1,1.24.48,2.24,2.24,0,0,1,.43,1.5v.55a14.1,14.1,0,0,0-3.09.36,6.64,6.64,0,0,0-2,.81,2.94,2.94,0,0,0-1,1.08,2.55,2.55,0,0,0-.31,1.2,3.4,3.4,0,0,0,.23,1.28,2.5,2.5,0,0,0,.66.92,2.86,2.86,0,0,0,1,.57,4.44,4.44,0,0,0,1.3.18,5.52,5.52,0,0,0,1-.09,4.11,4.11,0,0,0,.88-.28,4.84,4.84,0,0,0,.79-.45c.25-.18.52-.4.79-.63l.23.69a.89.89,0,0,0,.35.48,1.28,1.28,0,0,0,.62.12h1.33v-6.79a4.89,4.89,0,0,0-.29-1.7,3.94,3.94,0,0,0-.81-1.34,3.67,3.67,0,0,0-1.29-.87,4.47,4.47,0,0,0-1.72-.32,7,7,0,0,0-2.5.43A6.35,6.35,0,0,0,134,158Zm5.38,5.55a3.74,3.74,0,0,1-1.06.8,2.84,2.84,0,0,1-1.25.26,1.58,1.58,0,0,1-1-.27,1,1,0,0,1-.35-.89,1.09,1.09,0,0,1,.17-.58,1.47,1.47,0,0,1,.59-.48,4.4,4.4,0,0,1,1.12-.34,15.84,15.84,0,0,1,1.76-.18Zm5.08-12.79V167.3h2.89v-4.88h.61a1.14,1.14,0,0,1,.47.08.78.78,0,0,1,.3.32l2.43,4a1,1,0,0,0,.4.4,1.46,1.46,0,0,0,.58.11h2.6l-3.34-5.21a5.19,5.19,0,0,0-.35-.49,2,2,0,0,0-.42-.39,2.85,2.85,0,0,0,.85-.78l3.1-3.94H152.4a1.09,1.09,0,0,0-.57.13,1.24,1.24,0,0,0-.4.36L149,160.17a.93.93,0,0,1-.32.29,1,1,0,0,1-.43.08h-.48v-8.87Zm19.69,10.67a.93.93,0,0,0,.32-.05.37.37,0,0,0,.2-.17,1.13,1.13,0,0,0,.11-.34,3.7,3.7,0,0,0,0-.53,5.91,5.91,0,0,0-.35-2.09,4.48,4.48,0,0,0-1-1.55,4.29,4.29,0,0,0-1.51-1,5.59,5.59,0,0,0-1.91-.32,5.5,5.5,0,0,0-2.2.42,4.89,4.89,0,0,0-1.65,1.15,4.82,4.82,0,0,0-1,1.69,6,6,0,0,0-.36,2.08,6.86,6.86,0,0,0,.42,2.5,5.06,5.06,0,0,0,1.15,1.81,4.71,4.71,0,0,0,1.7,1.1,5.91,5.91,0,0,0,2.12.37,8,8,0,0,0,1.17-.08,5.65,5.65,0,0,0,1.2-.28,5.85,5.85,0,0,0,1.16-.55,4.46,4.46,0,0,0,1-.89l-.83-1.05a.63.63,0,0,0-.53-.25,1.2,1.2,0,0,0-.53.14l-.6.32a4.6,4.6,0,0,1-.76.31,3.17,3.17,0,0,1-1,.14,2.61,2.61,0,0,1-1.9-.7,3.4,3.4,0,0,1-.87-2.22Zm-6.44-1.72a3,3,0,0,1,.77-1.68,2.19,2.19,0,0,1,1.62-.58,2.35,2.35,0,0,1,1,.18,1.93,1.93,0,0,1,.66.5,2.07,2.07,0,0,1,.38.72,3,3,0,0,1,.12.86Zm11.44-3.43a1,1,0,0,0-.23-.54,1,1,0,0,0-.61-.16h-1.71V167.3H170v-6.62a4.44,4.44,0,0,1,.36-.69,2.45,2.45,0,0,1,.44-.51,1.79,1.79,0,0,1,.55-.33A2.16,2.16,0,0,1,172,159a3,3,0,0,1,.58.05,3.5,3.5,0,0,0,.49,0,.43.43,0,0,0,.29-.08.45.45,0,0,0,.17-.28l.18-2.14a1.91,1.91,0,0,0-1.19-.35,2.41,2.41,0,0,0-1.57.54,4.87,4.87,0,0,0-1.19,1.45Zm12.71.5a4.54,4.54,0,0,0-1.56-1,6.14,6.14,0,0,0-3.9-.1,3.8,3.8,0,0,0-1.3.73,3.1,3.1,0,0,0-.79,1.06,3.29,3.29,0,0,0-.26,1.28,3,3,0,0,0,.23,1.25,2.51,2.51,0,0,0,.58.86,3.25,3.25,0,0,0,.83.58,8.7,8.7,0,0,0,.95.4l1,.3a6.21,6.21,0,0,1,.84.31,2,2,0,0,1,.58.39.78.78,0,0,1,.23.58,1.07,1.07,0,0,1-.09.43,1,1,0,0,1-.28.36,1.27,1.27,0,0,1-.49.26,2.65,2.65,0,0,1-.73.09,2.72,2.72,0,0,1-.92-.13,4,4,0,0,1-.65-.28l-.49-.28a.91.91,0,0,0-.48-.13.88.88,0,0,0-.45.1.86.86,0,0,0-.28.29l-.68,1.08a4.34,4.34,0,0,0,.75.53,6.44,6.44,0,0,0,.92.42,5.67,5.67,0,0,0,1,.28,5.77,5.77,0,0,0,1.1.1,6.09,6.09,0,0,0,1.9-.27,3.93,3.93,0,0,0,1.39-.75,3.17,3.17,0,0,0,.84-1.15,3.64,3.64,0,0,0,.29-1.45,2.44,2.44,0,0,0-.8-1.92,3,3,0,0,0-.82-.55,8.62,8.62,0,0,0-.95-.39c-.33-.12-.64-.22-1-.31s-.58-.2-.82-.3a1.89,1.89,0,0,1-.59-.39.75.75,0,0,1-.21-.54.91.91,0,0,1,.38-.76,1.83,1.83,0,0,1,1.09-.29,2.8,2.8,0,0,1,.81.1c.24.08.45.15.63.23l.49.22a.89.89,0,0,0,.43.11.62.62,0,0,0,.33-.08.88.88,0,0,0,.24-.26Z"/><path class="h" d="M60.11,177.31a3.45,3.45,0,0,1,.92-.75,2.48,2.48,0,0,1,1.18-.27,2.23,2.23,0,0,1,1,.22,2.1,2.1,0,0,1,.77.62,3,3,0,0,1,.48,1,4.8,4.8,0,0,1,.16,1.31,5.24,5.24,0,0,1-.19,1.42,3.38,3.38,0,0,1-.55,1.09,2.6,2.6,0,0,1-.88.7,2.42,2.42,0,0,1-1.15.24,2.2,2.2,0,0,1-1.07-.24A2.4,2.4,0,0,1,60,182l-.05.58a.28.28,0,0,1-.29.24H59l0-9.34h1.13Zm0,3.94a1.87,1.87,0,0,0,.67.6,2,2,0,0,0,.82.17,1.65,1.65,0,0,0,1.39-.63,3.25,3.25,0,0,0,.49-1.91,2.79,2.79,0,0,0-.43-1.73,1.41,1.41,0,0,0-1.21-.56,1.76,1.76,0,0,0-1,.25,2.53,2.53,0,0,0-.76.71Zm10.21-4.83a.37.37,0,0,0-.21.06.41.41,0,0,0-.13.17l-1.68,4c-.07.18-.13.37-.19.57,0-.2-.11-.38-.17-.56l-1.71-4.05a.42.42,0,0,0-.11-.16.36.36,0,0,0-.23-.08h-1l2.63,6.06L66.35,185h.83a.41.41,0,0,0,.27-.07.7.7,0,0,0,.14-.21l3.61-8.3Zm10-1.79a3.33,3.33,0,0,0-1.1-.7,4.08,4.08,0,0,0-1.38-.25,3.14,3.14,0,0,0-1.2.21,2.74,2.74,0,0,0-.89.55,2.44,2.44,0,0,0-.55.8,2.49,2.49,0,0,0-.19.93,2.33,2.33,0,0,0,.19,1,1.93,1.93,0,0,0,.49.69,2.46,2.46,0,0,0,.69.44,7.77,7.77,0,0,0,.8.31l.8.25a3.67,3.67,0,0,1,.69.3,1.52,1.52,0,0,1,.49.45,1.09,1.09,0,0,1,.19.67,1.83,1.83,0,0,1-.13.68,1.5,1.5,0,0,1-.37.52,1.59,1.59,0,0,1-.58.34,2.37,2.37,0,0,1-.78.12,3.91,3.91,0,0,1-.63-.07,3.25,3.25,0,0,1-.5-.17,2,2,0,0,1-.38-.23l-.31-.22a2.68,2.68,0,0,0-.23-.17.41.41,0,0,0-.19-.06.29.29,0,0,0-.16,0,.49.49,0,0,0-.13.12l-.35.58a3.76,3.76,0,0,0,1.23.87,4,4,0,0,0,1.61.33,3.49,3.49,0,0,0,1.29-.22,2.77,2.77,0,0,0,1-.61,2.47,2.47,0,0,0,.59-.9,3,3,0,0,0,.21-1.12,2.24,2.24,0,0,0-.18-1,2.06,2.06,0,0,0-.5-.66,3,3,0,0,0-.69-.44c-.26-.12-.53-.22-.8-.32l-.8-.27a3.13,3.13,0,0,1-.69-.31,1.48,1.48,0,0,1-.49-.43,1,1,0,0,1-.19-.63,1.42,1.42,0,0,1,.11-.55,1.28,1.28,0,0,1,.32-.45,1.6,1.6,0,0,1,.53-.3,2.27,2.27,0,0,1,.72-.11,2.33,2.33,0,0,1,.75.11,4.33,4.33,0,0,1,.52.24l.37.24a.39.39,0,0,0,.25.11.22.22,0,0,0,.16-.05.36.36,0,0,0,.13-.14ZM83.59,183a2.29,2.29,0,0,0,.85-.16,2,2,0,0,0,.7-.42l-.32-.54a.17.17,0,0,0-.28-.06l-.16.1a1,1,0,0,1-.23.11.91.91,0,0,1-.3,0,.69.69,0,0,1-.51-.19.86.86,0,0,1-.2-.61l0-3.85H85v-.82H83.16v-2.21H82.6a.26.26,0,0,0-.26.21l-.27,2-1,.12v.46a.21.21,0,0,0,.07.18.24.24,0,0,0,.17.06H82v3.93a1.69,1.69,0,0,0,.4,1.22,1.56,1.56,0,0,0,1.17.43M86,177.38a3.65,3.65,0,0,1,1.15-.76,3.51,3.51,0,0,1,1.36-.25,2.33,2.33,0,0,1,1,.18,2,2,0,0,1,.71.5,2.14,2.14,0,0,1,.43.77,3.43,3.43,0,0,1,.14,1l0,4.1h-.5a.55.55,0,0,1-.25,0,.37.37,0,0,1-.14-.22l-.13-.61a4.57,4.57,0,0,1-.49.42,2.62,2.62,0,0,1-.51.3,3.18,3.18,0,0,1-.57.19,3.37,3.37,0,0,1-.66.06,2.07,2.07,0,0,1-.71-.11,1.57,1.57,0,0,1-.57-.31,1.47,1.47,0,0,1-.38-.53,1.67,1.67,0,0,1-.14-.76,1.4,1.4,0,0,1,.21-.73,1.8,1.8,0,0,1,.68-.62,4.29,4.29,0,0,1,1.22-.44,9.25,9.25,0,0,1,1.85-.2v-.5a1.69,1.69,0,0,0-.31-1.13,1.2,1.2,0,0,0-1-.39,2,2,0,0,0-.7.11,2.48,2.48,0,0,0-.49.23l-.35.23a.51.51,0,0,1-.3.1.26.26,0,0,1-.19-.06.5.5,0,0,1-.14-.15ZM89.65,180a8.08,8.08,0,0,0-1.33.12,3.85,3.85,0,0,0-.89.25,1.28,1.28,0,0,0-.5.37.79.79,0,0,0-.16.48,1.15,1.15,0,0,0,.08.44.69.69,0,0,0,.22.3,1,1,0,0,0,.34.18,1.84,1.84,0,0,0,.41.05,2.38,2.38,0,0,0,.55-.06,1.81,1.81,0,0,0,.46-.17,1.88,1.88,0,0,0,.42-.27,4.48,4.48,0,0,0,.4-.36Zm3.81-3.28a.28.28,0,0,0-.3-.24h-.68l0,6.42h1.13l0-4.72a2.83,2.83,0,0,1,.8-.65,1.93,1.93,0,0,1,.94-.24,1.26,1.26,0,0,1,1,.4,1.76,1.76,0,0,1,.33,1.14l0,4.08h1.14v-4.09a3.39,3.39,0,0,0-.13-1,2.41,2.41,0,0,0-.41-.78,1.74,1.74,0,0,0-.67-.49,2.27,2.27,0,0,0-.93-.18,2.42,2.42,0,0,0-1.19.28,3.27,3.27,0,0,0-.5.32,3.64,3.64,0,0,0-.45.43Zm11.42-3.11,0,9.33h-.67a.28.28,0,0,1-.3-.24l-.1-.77a3.7,3.7,0,0,1-.94.79,2.45,2.45,0,0,1-1.22.3,2.13,2.13,0,0,1-1.77-.84,3,3,0,0,1-.48-1,5.45,5.45,0,0,1-.17-1.41,4.69,4.69,0,0,1,.2-1.33,3.28,3.28,0,0,1,.55-1.05,2.47,2.47,0,0,1,2-1,2.18,2.18,0,0,1,1.75.76l0-3.55Zm-1.15,4.44a1.8,1.8,0,0,0-.68-.6,2,2,0,0,0-.82-.17,1.61,1.61,0,0,0-1.38.64,3,3,0,0,0-.49,1.82,4.84,4.84,0,0,0,.1,1.08,2.24,2.24,0,0,0,.32.73,1.28,1.28,0,0,0,.51.42,1.67,1.67,0,0,0,.69.14,1.8,1.8,0,0,0,1-.25,2.69,2.69,0,0,0,.77-.71Zm2.75-.61a3.59,3.59,0,0,1,1.15-.76,3.38,3.38,0,0,1,1.37-.25,2.4,2.4,0,0,1,1,.18,1.88,1.88,0,0,1,.7.49,2.08,2.08,0,0,1,.43.77,3.12,3.12,0,0,1,.14,1V183h-.5a.44.44,0,0,1-.25-.06.37.37,0,0,1-.14-.21l-.13-.61c-.17.15-.33.29-.49.41a3,3,0,0,1-.51.3,2.25,2.25,0,0,1-.57.19,3.36,3.36,0,0,1-.67.07,2.28,2.28,0,0,1-.7-.11,1.59,1.59,0,0,1-.57-.32,1.52,1.52,0,0,1-.39-.53,1.89,1.89,0,0,1-.14-.75,1.37,1.37,0,0,1,.21-.73,1.78,1.78,0,0,1,.69-.63,4.49,4.49,0,0,1,1.22-.44,9.33,9.33,0,0,1,1.85-.19v-.5a1.72,1.72,0,0,0-.32-1.14,1.17,1.17,0,0,0-.94-.38,2,2,0,0,0-.7.1,3.22,3.22,0,0,0-.49.23l-.36.24a.46.46,0,0,1-.29.1.34.34,0,0,1-.2-.06.47.47,0,0,1-.13-.15Zm3.64,2.63a11.08,11.08,0,0,0-1.33.12,4.35,4.35,0,0,0-.9.25,1.37,1.37,0,0,0-.5.38.89.89,0,0,0-.16.48,1,1,0,0,0,.09.44.84.84,0,0,0,.22.3,1,1,0,0,0,.33.17,1.42,1.42,0,0,0,.42.06,2.38,2.38,0,0,0,.55-.06,1.83,1.83,0,0,0,.46-.18,1.88,1.88,0,0,0,.42-.27,2.19,2.19,0,0,0,.39-.36Zm3.82-3.2a.34.34,0,0,0-.09-.24.34.34,0,0,0-.25-.07H113l0,6.42h1.13l0-4.06a3.48,3.48,0,0,1,.27-.58,1.66,1.66,0,0,1,.34-.43,1,1,0,0,1,.42-.26,1.53,1.53,0,0,1,.54-.09,1.56,1.56,0,0,1,.39,0l.26,0a.18.18,0,0,0,.19-.16l.09-.84a.79.79,0,0,0-.34-.14,1.7,1.7,0,0,0-1.47.32,2.79,2.79,0,0,0-.75,1Zm8.7-3.19,0,9.33h-.67a.29.29,0,0,1-.3-.24l-.1-.78a3.74,3.74,0,0,1-.94.8,2.42,2.42,0,0,1-1.22.3,2.49,2.49,0,0,1-1-.22,2,2,0,0,1-.76-.63,2.74,2.74,0,0,1-.49-1,5.07,5.07,0,0,1-.16-1.41,4.34,4.34,0,0,1,.19-1.32,3.23,3.23,0,0,1,.55-1.06,2.57,2.57,0,0,1,.87-.7,2.64,2.64,0,0,1,1.17-.26,2.39,2.39,0,0,1,1,.21,2.35,2.35,0,0,1,.74.55l0-3.55Zm-1.15,4.43a1.77,1.77,0,0,0-.68-.59,1.83,1.83,0,0,0-.82-.17,1.6,1.6,0,0,0-1.38.63,3.05,3.05,0,0,0-.49,1.82,4.27,4.27,0,0,0,.11,1.08,2.09,2.09,0,0,0,.31.74,1.28,1.28,0,0,0,.51.42,1.67,1.67,0,0,0,.69.13,1.77,1.77,0,0,0,1-.25,2.65,2.65,0,0,0,.76-.71Zm12.67,3.06a.34.34,0,0,0-.21.1,5.15,5.15,0,0,1-.48.37,3,3,0,0,1-.51.25,2.63,2.63,0,0,1-.6.15,4.23,4.23,0,0,1-.73,0,3.15,3.15,0,0,1-1.24-.24,2.7,2.7,0,0,1-1-.7,3.42,3.42,0,0,1-.67-1.13,4.49,4.49,0,0,1-.24-1.52,4.67,4.67,0,0,1,.25-1.5,3,3,0,0,1,.66-1.12,2.73,2.73,0,0,1,1-.71,3.37,3.37,0,0,1,1.29-.24,3.75,3.75,0,0,1,1,.13,3.3,3.3,0,0,1,.67.28,3.38,3.38,0,0,1,.42.28.53.53,0,0,0,.28.12.29.29,0,0,0,.17,0,.43.43,0,0,0,.09-.1l.41-.57a4.21,4.21,0,0,0-1.3-.84,4.35,4.35,0,0,0-1.71-.32,4.82,4.82,0,0,0-1.81.33,4.28,4.28,0,0,0-1.41.95,4.4,4.4,0,0,0-.91,1.47,5.15,5.15,0,0,0-.33,1.88,5.66,5.66,0,0,0,.3,1.88,4.48,4.48,0,0,0,.87,1.47,4,4,0,0,0,1.36,1,4.58,4.58,0,0,0,1.77.34,4.66,4.66,0,0,0,1.93-.35,4,4,0,0,0,1.36-1l-.49-.53a.23.23,0,0,0-.18-.09m3-7.44H136l0,9.34h1.14v-4.73a3.26,3.26,0,0,1,.81-.65,1.89,1.89,0,0,1,.93-.23,1.23,1.23,0,0,1,1,.4,1.75,1.75,0,0,1,.33,1.13v4.09h1.13V179a3.51,3.51,0,0,0-.13-1,2.19,2.19,0,0,0-.41-.77,1.87,1.87,0,0,0-.67-.5,2.4,2.4,0,0,0-.92-.17,2.54,2.54,0,0,0-1.16.25,3.57,3.57,0,0,0-.91.7Zm5.76,3.84a3.65,3.65,0,0,1,1.15-.76,3.51,3.51,0,0,1,1.36-.25,2.42,2.42,0,0,1,1,.18,2,2,0,0,1,.7.5,2.09,2.09,0,0,1,.43.76,3.43,3.43,0,0,1,.14,1l0,4.11h-.5a.44.44,0,0,1-.25-.06.34.34,0,0,1-.14-.21l-.12-.61a5.66,5.66,0,0,1-.5.41,2.67,2.67,0,0,1-.51.31,2.45,2.45,0,0,1-.56.18,2.87,2.87,0,0,1-.67.07,2.35,2.35,0,0,1-.71-.11,1.46,1.46,0,0,1-.57-.32,1.32,1.32,0,0,1-.38-.53,1.73,1.73,0,0,1-.14-.75,1.37,1.37,0,0,1,.21-.73,1.9,1.9,0,0,1,.68-.63,4.62,4.62,0,0,1,1.22-.44,9.41,9.41,0,0,1,1.85-.19V179a1.73,1.73,0,0,0-.32-1.13,1.17,1.17,0,0,0-.95-.39,2,2,0,0,0-.7.1,2.39,2.39,0,0,0-.48.24l-.36.23a.51.51,0,0,1-.3.1.31.31,0,0,1-.19-.06.5.5,0,0,1-.14-.15Zm3.63,2.64a9.49,9.49,0,0,0-1.33.11,3.81,3.81,0,0,0-.89.26,1.19,1.19,0,0,0-.5.37.75.75,0,0,0-.16.48,1.15,1.15,0,0,0,.08.44.86.86,0,0,0,.23.3.74.74,0,0,0,.33.17,1.4,1.4,0,0,0,.41.06,2.32,2.32,0,0,0,.55-.06,2.64,2.64,0,0,0,.47-.17,4.94,4.94,0,0,0,.42-.27q.19-.16.39-.36Zm3.83-3.21a.45.45,0,0,0-.1-.24.33.33,0,0,0-.25-.07h-.65l0,6.42h1.14v-4.06a3.48,3.48,0,0,1,.27-.58,1.66,1.66,0,0,1,.34-.43,1.09,1.09,0,0,1,.42-.26,1.55,1.55,0,0,1,.55-.09,2.11,2.11,0,0,1,.38,0,1.09,1.09,0,0,0,.26,0,.18.18,0,0,0,.19-.16l.09-.84a1.22,1.22,0,0,0-.33-.14,1.74,1.74,0,0,0-.39-.05,1.64,1.64,0,0,0-1.09.37,2.87,2.87,0,0,0-.75,1Zm5.56,6.23a2.45,2.45,0,0,0,.85-.15,2.11,2.11,0,0,0,.71-.43l-.33-.54A.21.21,0,0,0,157,182a.21.21,0,0,0-.11,0l-.17.11-.22.1a1,1,0,0,1-.31.05.69.69,0,0,1-.51-.2.82.82,0,0,1-.19-.6l0-3.86h1.85v-.82h-1.85v-2.21H155a.24.24,0,0,0-.18.06.35.35,0,0,0-.09.16l-.26,2-1,.13v.45a.25.25,0,0,0,.07.18.22.22,0,0,0,.17.06h.78l0,3.93a1.7,1.7,0,0,0,.41,1.22,1.51,1.51,0,0,0,1.16.43m7.76-1a2.36,2.36,0,0,1-.5.44,3.64,3.64,0,0,1-.63.3,3.88,3.88,0,0,1-.69.18,4.14,4.14,0,0,1-.7.06,3.49,3.49,0,0,1-1.23-.23,2.82,2.82,0,0,1-1-.67,2.86,2.86,0,0,1-.64-1.07,4.45,4.45,0,0,1-.22-1.47,3.7,3.7,0,0,1,.21-1.26,3,3,0,0,1,.6-1,2.75,2.75,0,0,1,.94-.66,3,3,0,0,1,1.26-.24,2.9,2.9,0,0,1,1.07.19,2.32,2.32,0,0,1,.84.57,2.42,2.42,0,0,1,.56.9,3.51,3.51,0,0,1,.2,1.22.68.68,0,0,1-.06.35.24.24,0,0,1-.22.09l-4.29,0a4,4,0,0,0,.17,1.06,2.4,2.4,0,0,0,.41.76,1.74,1.74,0,0,0,.63.45,2.19,2.19,0,0,0,.83.15,2.65,2.65,0,0,0,.73-.09,3.86,3.86,0,0,0,.53-.22,2.43,2.43,0,0,0,.37-.21.54.54,0,0,1,.26-.09.23.23,0,0,1,.21.11Zm-.9-3a2.36,2.36,0,0,0-.11-.72,1.82,1.82,0,0,0-.32-.56,1.5,1.5,0,0,0-.52-.37,1.67,1.67,0,0,0-.69-.13,1.69,1.69,0,0,0-1.28.46,2.19,2.19,0,0,0-.59,1.31Zm3.39-2.18a.34.34,0,0,0-.09-.24.34.34,0,0,0-.25-.07h-.65l0,6.42h1.13l0-4.06a3.48,3.48,0,0,1,.27-.58,1.66,1.66,0,0,1,.34-.43,1,1,0,0,1,.42-.26,1.53,1.53,0,0,1,.54-.09,1.56,1.56,0,0,1,.39,0l.26,0a.18.18,0,0,0,.19-.16l.09-.84a.79.79,0,0,0-.34-.14A1.7,1.7,0,0,0,167,177a2.79,2.79,0,0,0-.75,1Zm8.55,5.24a2.13,2.13,0,0,1-.5.44,3.54,3.54,0,0,1-.62.3,4.18,4.18,0,0,1-1.4.24,3.44,3.44,0,0,1-1.22-.23,2.64,2.64,0,0,1-1-.67,3.06,3.06,0,0,1-.63-1.07,4.45,4.45,0,0,1-.23-1.47,4,4,0,0,1,.22-1.26,2.79,2.79,0,0,1,.59-1,2.69,2.69,0,0,1,.95-.67,3,3,0,0,1,1.25-.24,2.87,2.87,0,0,1,1.07.19,2.49,2.49,0,0,1,.85.57,2.53,2.53,0,0,1,.55.9,3.1,3.1,0,0,1,.2,1.22.7.7,0,0,1-.06.35.22.22,0,0,1-.21.09l-4.29,0a4,4,0,0,0,.16,1.06,2.09,2.09,0,0,0,.42.75,1.52,1.52,0,0,0,.63.46,2.14,2.14,0,0,0,.82.15,2.26,2.26,0,0,0,.73-.1,2.44,2.44,0,0,0,.53-.21,3.24,3.24,0,0,0,.38-.21.48.48,0,0,1,.25-.09.24.24,0,0,1,.22.11Zm-.9-3a2.36,2.36,0,0,0-.11-.72,1.64,1.64,0,0,0-.32-.56,1.46,1.46,0,0,0-.51-.37,2,2,0,0,0-2,.33,2.28,2.28,0,0,0-.59,1.31Zm7.73-5.39,0,9.33h-.67a.28.28,0,0,1-.3-.24l-.1-.78a3.54,3.54,0,0,1-.94.8,2.45,2.45,0,0,1-1.22.3,2.33,2.33,0,0,1-1-.22,2.1,2.1,0,0,1-.77-.63,2.84,2.84,0,0,1-.48-1,5.47,5.47,0,0,1-.17-1.42,4.68,4.68,0,0,1,.2-1.32,3.08,3.08,0,0,1,.55-1.05,2.47,2.47,0,0,1,2-1,2.18,2.18,0,0,1,1.75.76l0-3.56Zm-1.15,4.44a1.79,1.79,0,0,0-.68-.6,2,2,0,0,0-.82-.17,1.63,1.63,0,0,0-1.38.63A3,3,0,0,0,177,180a4.14,4.14,0,0,0,.11,1.07,1.92,1.92,0,0,0,.31.74,1.28,1.28,0,0,0,.51.42,1.67,1.67,0,0,0,.69.14,1.8,1.8,0,0,0,1-.25,2.74,2.74,0,0,0,.77-.72Z"/></svg>