<svg xmlns="http://www.w3.org/2000/svg" viewBox="0 0 240 240"><defs><style>.a{fill:#fff;}</style></defs><path class="a" d="M125.22,97.67c5.2-.8,7.06-1.4,18.46-3.67,3.94-.93,7.87-2,11.54-3.13a32.62,32.62,0,0,1,.33,4.46,35.28,35.28,0,0,1-35.27,35.27,34.82,34.82,0,0,1-20.4-6.53l-.2-.14L97.48,122s-.4-.33-.46-.4h-.54a47.86,47.86,0,0,1-16.13-2.93c-3.53-1.4-5.4-3.14-5.73-4.34l.73.54c2.8,1.86,9.33,2.86,16.4,3.26.6,0,1.13.07,1.67.07a35.51,35.51,0,0,1-6.8-12.27.26.26,0,0,0,.13-.06c2.53-.87,5.33-1.67,8.2-2.4,10.67-2.14,13.13-2.47,19.2-3.67l11.07-2.13M68.75,113.4a2.55,2.55,0,0,0,.07.73,3.33,3.33,0,0,0,.2.94,6.82,6.82,0,0,1-.4-1.6c0-.27-.07-.54-.07-.8a8.5,8.5,0,0,1,2.6-5.8c3.13-3.07,8.13-5.34,13.8-7.2a3,3,0,0,1,.33-.07A30.9,30.9,0,0,1,85,95.27a35.24,35.24,0,0,1,54.8-29.34A108.78,108.78,0,0,1,158,67.4a30.23,30.23,0,0,1,8.4,2.67c2.26,1.2,4.4,3.06,4.86,5.93a5.15,5.15,0,0,1,.07,1.07,5.26,5.26,0,0,1-.2,1.46,8.15,8.15,0,0,1-3.6,4.14c-5.67,3.53-17.27,7.26-33.47,10.4-17.4,3.33-32.73,5.53-44.26,8.13s-19.14,5.67-21,11.2a3.76,3.76,0,0,0-.14.93.07.07,0,0,1,.07.07M164,74.67c-3.4-1.94-10.6-2.94-17.73-3.34a35.29,35.29,0,0,1,7.66,13.14,50.7,50.7,0,0,0,6.94-2.8,17.75,17.75,0,0,0,4.26-2.8,3.54,3.54,0,0,0,1.07-1.6v-.4c-.07-.54-.6-1.27-2.2-2.2M96,180c11.93,0,14.53-6.53,14.53-12.27V139.4a58.09,58.09,0,0,0-9.53-.8c-9.27,0-14.6,6-14.6,15.33,0,8.34,3.67,12.74,10.13,12.74a9,9,0,0,0,8.47-5.6l.13.06a23.69,23.69,0,0,0-.33,4.4v1.8c0,5.6-2.93,7.6-8.33,7.6a22.94,22.94,0,0,1-8-1.6l-.47,5.6A28.58,28.58,0,0,0,96,180m8.8-27.93c0,4.73-2.4,9.8-6.8,9.8-3.67,0-5.33-3-5.33-8.47,0-7.33,3.13-10.13,7.8-10.13a19.38,19.38,0,0,1,4.33.46Zm34.07.93a23.63,23.63,0,0,0,.2-2.73c0-6.47-3.34-11.74-11.07-11.74-7.93,0-12.4,6.14-12.4,14.34,0,9.53,4.67,13.93,13.13,13.93a25.13,25.13,0,0,0,9.4-1.73l-.53-4.67a19.16,19.16,0,0,1-7.93,1.73c-5.4,0-8.2-2.86-8-9.13h17.2m-11.14-10.13c3.47,0,5.6,2.33,5.47,6.06H121.62c.46-3.66,2.8-6.06,6.06-6.06M162,126.47a18.61,18.61,0,0,0-4.4-.47c-7.07,0-10.6,3.6-10.6,11.07v2.06h-5.2v4.54H147v22.6h5.8v-22.6h7.07v-4.54h-7.07v-2.2c0-4.26,1.6-6.2,5.07-6.2a14.13,14.13,0,0,1,3.73.54Z"/></svg>