<svg xmlns="http://www.w3.org/2000/svg" viewBox="0 0 240 240"><defs><style>.a{fill:#fff;}</style></defs><path class="a" d="M106.16,137.59c-.5-.3-.9-.7-1.4-1a21,21,0,0,1-1.7-1.4c-1-.8-1.8-1.9-2.8-2.7a5.36,5.36,0,0,0-2-1,1.42,1.42,0,0,1-.6-.2,20.61,20.61,0,0,0-2.6-.3h-.6c-.2.1-.5,0-.8,0a5.65,5.65,0,0,0-1.39.4c-.1.1-.3.1-.4.2s-.1.2-.2.3a4.18,4.18,0,0,0-.4,1,.76.76,0,0,0,.5.2,10,10,0,0,1,2.59,1,4.05,4.05,0,0,0,.9.5c.2.1.3.3.5.4a2.18,2.18,0,0,1,.5.4,18.26,18.26,0,0,0,1.6,1.3c.2.1.4.3.6.4s.2.1.3.2.2.1.3.2.2.1.3.2.2.1.3.2a1.85,1.85,0,0,0,.7.2,2.35,2.35,0,0,0,.8.2,12.18,12.18,0,0,0,5.1-.5C106.56,137.69,106.36,137.69,106.16,137.59Z"/><path class="a" d="M92.07,110.81A10.23,10.23,0,0,0,91,111.9a7.63,7.63,0,0,1-.8,1.1.76.76,0,0,0-.2.4.85.85,0,0,0,.3.5l.3.6a3.88,3.88,0,0,0,.6,1.1,1.8,1.8,0,0,0,.9-.4,6.58,6.58,0,0,1,2-.6c.7-.1,1.4-.3,2.1-.4.4-.1.7-.1,1.1-.2s.6-.2,1-.3a3.55,3.55,0,0,0,.9-.4c.1-.1.2-.2.3-.2s.3-.1.4-.2l.3-.3c.3-.3.6-.5.9-.8a2.18,2.18,0,0,1,.4-.5l.2-.2c.1-.1.1-.19.2-.29s.3-.3.5-.5.3-.4.4-.5c.4-.5.8-1.1,1.2-1.7.1-.2.4-.4.3-.6h-.2a25.78,25.78,0,0,1-3.3,1,15.72,15.72,0,0,1-2.3.4c-.6,0-1,.1-1.5.1a11.54,11.54,0,0,0-3.3,1A5.93,5.93,0,0,0,92.07,110.81Z"/><path class="a" d="M94.56,128.8c.1,0,.2.1.3.1a3.77,3.77,0,0,1,1,.09h.9c.7-.09,1.4-.19,2-.29h.4c.1,0,.2-.1.4-.1h.3a5.64,5.64,0,0,0,1.2-.4,13.55,13.55,0,0,0,2.1-1c.2-.1.5-.3.7-.4a.22.22,0,0,0,.2-.2c-1.2,0-2.3,0-3.4-.1a17.33,17.33,0,0,0-3.2-.3c-.4,0-.8.1-1.2.1s-.8.1-1.1.1c-.5.1-.9.2-1.3.3s-.6.1-.8.3a9.7,9.7,0,0,0-.19,1.7c.39.1.89.1,1.29.2A.6.6,0,0,1,94.56,128.8Z"/><path class="a" d="M106.76,122.7a5,5,0,0,1-1.2-.2c-1.5-.3-2.8-1-4.3-1.4a5,5,0,0,0-1.2-.2,5,5,0,0,0-1.2-.2h-1.4c-.8.1-1.7.2-2.6.4a4.87,4.87,0,0,0-1.1.4c-.3.1-.79.3-.89.5s0,.4,0,.7a1.7,1.7,0,0,0,.1.7,7.86,7.86,0,0,0,.09,1.5c.4,0,.8-.2,1.3-.2h.7a1.27,1.27,0,0,1,.6.1,1.42,1.42,0,0,1,.6.2c.7.2,1.4.5,2.1.7a.6.6,0,0,1,.4.1,2.35,2.35,0,0,1,.8.2h.6a13.42,13.42,0,0,0,2.1-.1,8.44,8.44,0,0,0,2.4-.6,7.14,7.14,0,0,0,2.3-1.2,2.65,2.65,0,0,1,.6-.5l.3-.3c.1-.1.3-.2.2-.3A1.59,1.59,0,0,0,106.76,122.7Z"/><path class="a" d="M84,106.71c0,.1.3.2.4.4.3.3.6.4.8.7.1.1.2.3.4.3a5.38,5.38,0,0,1,.9-1.2,1.38,1.38,0,0,1,.4-.3,3.59,3.59,0,0,1,1-.7c.2-.1.5-.3.7-.4s.5-.2.7-.3.5-.2.7-.3c.5-.2,1-.5,1.4-.7a5.67,5.67,0,0,0,1.3-.8,12,12,0,0,0,1.09-1,10,10,0,0,0,1-1.1,10.08,10.08,0,0,0,.9-1.8,5.64,5.64,0,0,1,.4-1.2c.1-.4.2-.9.3-1.3,0-.1.1-.4-.1-.4h0l-.9.6a16.29,16.29,0,0,1-1.7,1.1c-1.49.9-3.39,1.2-5.19,1.9a8.71,8.71,0,0,0-1.8,1.1,4.62,4.62,0,0,0-.7.7c-.2.3-.5.5-.6.8a9.19,9.19,0,0,0-1.4,3.5Z"/><path class="a" d="M92.87,107.91a13.3,13.3,0,0,0,1.69-2.2l.3-.6a4.88,4.88,0,0,0,.3-.7,5.91,5.91,0,0,0,.6-1.4,1.27,1.27,0,0,0,.1-.6,12,12,0,0,0,.3-2h-.1c-1.4,1.6-2.6,3.4-4.49,4.6-.9.6-1.9,1.1-2.8,1.7a7.21,7.21,0,0,0-2.1,2.5c.5.5.9,1.2,1.4,1.7a12.46,12.46,0,0,0,3.4-1.9A5.26,5.26,0,0,0,92.87,107.91Z"/><path class="a" d="M100.86,113a7,7,0,0,1-1,.8c-.2.1-.3.3-.5.4a13.43,13.43,0,0,1-2.4,1.2l-1.5.3a8,8,0,0,0-1.5.3l-.6.3-.59.3c-.2.1-1,.5-1,.8,0,.1.1.3.1.4a5.77,5.77,0,0,0,.3,1.4,2,2,0,0,0,.7-.1h1c.2,0,.4-.1.6-.1a1.27,1.27,0,0,0,.6-.1,1.42,1.42,0,0,1,.6-.2c.2-.1.4-.1.6-.2a8.79,8.79,0,0,0,1-.6,5.5,5.5,0,0,0,.9-.7l.6-.6c.1-.1.2-.1.2-.2a6,6,0,0,0,.8-.8,5.5,5.5,0,0,0,.7-.9,8.75,8.75,0,0,0,1-2.2h0A3.81,3.81,0,0,0,100.86,113Z"/><path class="a" d="M100.56,139.29a8.27,8.27,0,0,1-1.6-.9c-.3-.2-.6-.5-.9-.7s-.3-.2-.5-.3-.3-.3-.5-.4a21.16,21.16,0,0,0-2-1.2c-.4-.2-.8-.3-1.2-.5-.2-.1-.5-.1-.7-.2a5.56,5.56,0,0,0-.69-.2c-.2,0-.5-.1-.7-.1h-1.2a6.11,6.11,0,0,0-.7,1.4c.1.1.3.2.4.3.5.4,1.1.8,1.6,1.2.1.1.3.2.4.3s.3.2.4.3a.76.76,0,0,0,.49.2,11.92,11.92,0,0,0,2,.8l1.1.3a12.29,12.29,0,0,0,2.7.2,7.72,7.72,0,0,0,1.5-.2,4.33,4.33,0,0,0,.5-.1Z"/><path class="a" d="M99.66,151.48l-.6-.9a12.81,12.81,0,0,1-1.1-2,4.87,4.87,0,0,1-.4-1.1c-.4-.89-.7-1.79-1.2-2.69-.1-.2-.2-.3-.3-.5a11.59,11.59,0,0,0-2.8-3.4,4.8,4.8,0,0,0-2-1.1,13.7,13.7,0,0,0-2.4-.7h-.6a.46.46,0,0,0-.5.3c-.2.3-.4.4-.6.7-.1.1-.3.3-.3.4s.4.3.6.5a11.23,11.23,0,0,1,2,1.8c.2.2.3.4.5.5s.1.2.2.3a2.65,2.65,0,0,0,.5.6,8.86,8.86,0,0,1,.8,1.7,4.67,4.67,0,0,0,.5,1c.2.29.3.59.5.89a2.81,2.81,0,0,0,.69.8c.2.2.5.4.7.6a14.29,14.29,0,0,0,2,1.4c.1.2.1.2.2.2a.37.37,0,0,1,.3.1c.1,0,.1.1.2.1a2.51,2.51,0,0,1,.7.4l1.5.6c.2.1.3.1.5.2a4.25,4.25,0,0,0,1.1.2c.1-.1-.1-.2-.1-.2C100,151.88,99.86,151.68,99.66,151.48Z"/><path class="a" d="M92.57,149.18l-.3-.3c-.1-.1-.1-.2-.2-.3-.6-1-1.1-2.09-1.7-3a8.65,8.65,0,0,0-.7-1,6.47,6.47,0,0,0-.9-.8,12.22,12.22,0,0,0-2.8-1.4c-.2-.1-.6-.3-.7-.2a7.05,7.05,0,0,1-.9.7c-.1.1-.2.2-.2.3s.4.4.5.5a10.48,10.48,0,0,1,1.4,1.7c.4.5.7,1,1.1,1.5.1.1.2.29.3.29l.2.2a5.24,5.24,0,0,0,1.1,1,7.26,7.26,0,0,0,.9.5c.4.2.7.4,1.1.6a1.42,1.42,0,0,0,.6.2,5.36,5.36,0,0,0,1.1.5,4.88,4.88,0,0,0,1.29.4,4.67,4.67,0,0,0-.79-1.1C92.67,149.48,92.67,149.28,92.57,149.18Z"/><path class="a" d="M82.47,98a7.14,7.14,0,0,1-.8,1.5,7,7,0,0,1-.8,1c-.1.2-.3.3-.4.5a.76.76,0,0,0-.2.5.27.27,0,0,0-.3.3,7.88,7.88,0,0,0-.4,2.3c.3.2.6.3.9.5s.5.4.7.4.2-.2.3-.3c.3-.4.6-.7.9-1.1a10.08,10.08,0,0,0,.9-1.8,7.17,7.17,0,0,0,.5-2.1,19.48,19.48,0,0,0,.2-2.5,5,5,0,0,0-.2-1.2,3.54,3.54,0,0,0-.3-1.1h0a3.58,3.58,0,0,0-.4,1.1c-.1.4-.2.7-.3,1.1A3,3,0,0,0,82.47,98Z"/><path class="a" d="M79.27,125.6c-.2,0-.3-.3-.5-.4s-.3.2-.5.3c0,.2.1.3.1.5a3.33,3.33,0,0,0,.6.3c.1,0,.1.1.2.1a.76.76,0,0,0,.7-.1c.1-.1.2-.1.2-.2v-.4C79.77,125.8,79.57,125.6,79.27,125.6Z"/><path class="a" d="M76.07,102.71c.3.1.6.2,1,.3.2,0,.2.1.4,0s.2-.4.3-.5.1-.4.2-.6a2.41,2.41,0,0,1,.6-.8.31.31,0,0,0,.1-.2,2.65,2.65,0,0,1,.5-.6l.4-.4c.1-.1.2-.3.3-.4a5.55,5.55,0,0,1,.6-.8,1.38,1.38,0,0,1,.3-.4c.1-.1.1-.3.2-.4a.1.1,0,0,0,.1-.1,4.05,4.05,0,0,0,.5-.9,8.44,8.44,0,0,0,1.2-2.9,13.48,13.48,0,0,0,.2-2.09v-1.1c0-.2-.1-.4-.1-.7a11.8,11.8,0,0,0-.4-2h-.1a5.74,5.74,0,0,0-.4.7,1.42,1.42,0,0,0-.2.6,10.23,10.23,0,0,1-1.9,3c-.5.59-1.1,1.09-1.6,1.69-.1.1-.3.2-.4.4a3.74,3.74,0,0,0-1.2,1.3,8.65,8.65,0,0,0-.7,1,10.91,10.91,0,0,0-.6,1.1c-.1.2-.2.5-.3.7a3.7,3.7,0,0,0-.29,1.4,19.27,19.27,0,0,0-.1,2.4A5.58,5.58,0,0,0,76.07,102.71Z"/><path class="a" d="M78.67,120.9c.1,0,.2-.1.3-.2s.2-.1.3-.2a1.06,1.06,0,0,0,.2-.5c-.2,0-.3.2-.5.2s-.3-.5-.4-.6c.2-.2.5-.3.6-.5-.1-.1-.3,0-.5,0s-.3-.1-.4-.1a4.35,4.35,0,0,1-.7.4c-.1.2-.1.3-.2.5s-.1.2-.1.3c-.2.2-.5.2-.9.3-.2.3.1.5.2.7s.1.3.2.3.2-.1.4-.2a.76.76,0,0,1,.4-.2h.7C78.47,120.8,78.57,120.9,78.67,120.9Z"/><path class="a" d="M70.08,101.21c.1.2.1.5.3.7a7.52,7.52,0,0,0,1.5,0,3.77,3.77,0,0,1,.4-1.6c.1-.2.1-.4.2-.5a1.69,1.69,0,0,0,.2-.5,1.09,1.09,0,0,1,.1-.5.9.9,0,0,1,.1-.5c0-.3.1-.7.1-1v-1a18658203184864.21,18658203184864.21,0,0,1-.2-1c-.1-.4-.1-.7-.2-1s-.1-.3-.2-.5a8.7,8.7,0,0,1-.5-1.49,4.05,4.05,0,0,0-.5-.9,5.58,5.58,0,0,0-.5-.8h0a.1.1,0,0,0-.1.1v1.1a3.4,3.4,0,0,1-.1,1,12.58,12.58,0,0,1-.3,1.89,11.63,11.63,0,0,1-.4,1.8c-.1.3-.1.6-.2.9a2.92,2.92,0,0,0-.2.9,4.58,4.58,0,0,0,.1,1.7A5.4,5.4,0,0,0,70.08,101.21Z"/><path class="a" d="M66,102.11c.4,0,.8-.1,1.1-.1a4.87,4.87,0,0,0,1.2-.1,8,8,0,0,1-.4-3.2v-.5a1.85,1.85,0,0,1,.2-.7,8.33,8.33,0,0,1,.4-1.5,1.85,1.85,0,0,0,.2-.7,9.46,9.46,0,0,1,.5-1.8,4.94,4.94,0,0,0,.2-1.19,3.08,3.08,0,0,0-.2-1.7,15.46,15.46,0,0,0-.7-2.3c-.2-.5-.4-.9-.6-1.3a2.09,2.09,0,0,0-.4-.6c-.1-.2-.3-.5-.5-.5a2.25,2.25,0,0,1-.1.7c0,.2-.1.4-.1.6a17.93,17.93,0,0,1-1.1,3.5c-.3.8-.6,1.5-.9,2.29a20,20,0,0,0-.5,2.6,9.94,9.94,0,0,0,.9,5.1A4.68,4.68,0,0,0,66,102.11Z"/><path class="a" d="M86.27,138.29c.3-.4.7-.8,1-1.2a14.79,14.79,0,0,0,1.3-2.1,16.27,16.27,0,0,0,1.1-2.3,17.45,17.45,0,0,0,1.1-3.89.9.9,0,0,1,.1-.5,2.92,2.92,0,0,1,.2-.9v-1a21.54,21.54,0,0,0-.4-5.2,18.86,18.86,0,0,0-2.6-6.5,26.1,26.1,0,0,0-1.9-2.7,10.92,10.92,0,0,0-1.1-1.19c-.4-.4-.8-.7-1.2-1.1a36.73,36.73,0,0,0-3.8-2.7,3.55,3.55,0,0,0-.9-.4,29,29,0,0,0-4.69-1.8,3.59,3.59,0,0,0-1.1-.2,1.27,1.27,0,0,1-.6-.1,4.33,4.33,0,0,1-.5-.1c-.6-.1-1.2-.1-1.8-.2a4.82,4.82,0,0,0-1.2,0h-.6c-.3,0-.6.1-.9.1h-.2a3.4,3.4,0,0,0-1,.1c-.1,0-.1.1-.2.1-.4.1-.8.1-1.2.2-.2,0-.3.1-.5.1l-.9.3c-.3.1-.6.1-.9.2a30.9,30.9,0,0,0-3.2,1.4c-.1.1-.2.2-.3.2s-.3.1-.4.2-.5.3-.7.4a5.55,5.55,0,0,0-.8.6,1.76,1.76,0,0,0-.5.4,26.9,26.9,0,0,0-2.39,2.1c-.1.1-.2.2-.2.3s-.2.29-.3.39-.2.1-.2.2a20.45,20.45,0,0,0-2,3.1,17.3,17.3,0,0,0-1.4,3.1,16.65,16.65,0,0,0-.8,3.2.9.9,0,0,1-.1.5c0,.2-.1.3-.1.4v.5a18.57,18.57,0,0,0,.2,5.3,10.33,10.33,0,0,0,.4,1.89l.3.9a6.89,6.89,0,0,0,.3.8,7.74,7.74,0,0,0,.7,1.6c.3.5.5,1,.8,1.5.4.7.9,1.4,1.3,2.1a4.23,4.23,0,0,1,.5.7c.3.4.7.8,1,1.2a9.27,9.27,0,0,0,1.4,1.4l.3.3.29.3.3.3a24.26,24.26,0,0,0,2,1.4c.2.1.5.3.7.4,1,.5,1.9,1,3,1.5a17.9,17.9,0,0,0,3.5,1,25.81,25.81,0,0,0,4,.4,14.77,14.77,0,0,0,2.1-.1c.3,0,.6-.1,1-.1a3.55,3.55,0,0,0,1-.2,19.85,19.85,0,0,0,5.19-1.6,26.94,26.94,0,0,0,2.9-1.6,4.23,4.23,0,0,1,.7-.5c.2-.2.4-.3.6-.5C84.77,139.69,85.57,139.09,86.27,138.29ZM63.78,113.9c-.1,0-.1.1-.2.1s-.3.1-.4.1a.76.76,0,0,1-.4.1c-.1,0-.2-.2-.4-.2s-.4.3-.6.3-.2-.1-.4,0-.1.1-.2.1a1.76,1.76,0,0,0-.5.4c0-.2.1-.3.1-.4.2-.2.4-.3.6-.5s.2-.7.3-1.1c0-.1.1-.1.1-.2a.37.37,0,0,0-.1-.3,1.45,1.45,0,0,0-.2-.7l-.9.3c-.2.1-.4.1-.6.2s-.1.2-.2.3-.3.2-.4.4.1.9,0,1.2c-.3,0-.5-.2-.8-.3s-.4-.2-.5,0v.2c0,.2-.1.3-.1.5a.75.75,0,0,1-.1.5c-.1.1-.3.1-.5.2-.2.3.1.7.2.9a3.75,3.75,0,0,0-.1,1.1,2.48,2.48,0,0,0,.9.1c.4.1.4.2.6.4s.1.2.2.3a1.38,1.38,0,0,0,.3.4.31.31,0,0,0,.1.2c0,.1.1.1.1.2s0,.4,0,.5.1.2.1.3a.37.37,0,0,0,.1.3c0,.1.1.2.1.3s.1.2.1.3.1.1.1.2v.2a3,3,0,0,0,.5.7c.1.1.2.2.2.3s-.2.4-.2.7.1.3,0,.4a2.1,2.1,0,0,1-.5.7,1.7,1.7,0,0,0,.1.7.64.64,0,0,1,.5.5,2.48,2.48,0,0,1,.1.9c0,.1-.1.2-.1.4v.6c-.1.1-.2,0-.4.1s-.1.1-.2.1a.37.37,0,0,0-.3.1c0,.2.1.3.2.5l.6,1.2v.2c.2.29.2.69.4,1.09a.76.76,0,0,1,.2.5v.4a1.38,1.38,0,0,0-.3.4,4.35,4.35,0,0,0-.6.7c-.1.1-.3.3-.4.3s-.3-.2-.5-.3a1.76,1.76,0,0,1-.5-.4c-.3.1-.5,0-.8.1-.1,0-.1.1-.2.1h-.5a5.08,5.08,0,0,0-1.09.2c-.4.1-.7,0-1,.1s-.3.2-.4.2h-.2l-.1.1h-.2c-.1,0-.1.1-.2.1a.6.6,0,0,0-.4.1c-.2.1-.4.4-.7.5a1.61,1.61,0,0,1-.4.7,1.61,1.61,0,0,1-.4-.7,14.17,14.17,0,0,1-.8-1.8.6.6,0,0,1-.1-.4,4.88,4.88,0,0,1-.3-.7c-.1-.2-.1-.5-.2-.7s-.1-.5-.2-.69a1.85,1.85,0,0,1-.2-.7c0-.1,0-.4-.1-.5a4.33,4.33,0,0,0-.1-.5c0-.2.3-.5.5-.7s.1-.2.2-.4l.6-.9c0-.4.1-.5,0-.8,0-.1-.1-.2-.1-.3l-.3-.6c0-.1,0-.4.1-.5s.2-.3.3-.5c.3,0,.3-.2.3-.5a.52.52,0,0,0,.2-.4c-.1-.5.3-.9.5-1.3,0-.1.1-.1.1-.2a.6.6,0,0,0,0-.7c.1-.4.5-.6.9-.9l.1-.1c.1-.1.3-.1.3-.2s0-.2.1-.3.1-.1.2-.1.3-.2.5-.4.3-.1.4-.2c.3.1.7.3.9,0,.2-.1.2-.2.3-.4a.37.37,0,0,0,.1-.3c0-.3-.2-.5-.3-.8.1-.3.2-.5.3-.8,0-.1.1-.3.1-.4s-.2-.2-.1-.5c0-.1.2-.2.2-.4s0-.4.1-.6a1.13,1.13,0,0,1,.39-1.1l.2-.2c0-.1.1-.2.1-.3a1.46,1.46,0,0,0,.3-.39,2.13,2.13,0,0,0,0-.8c0-.1.2-.2.3-.4s.1-.3.3-.4.2.1.3.1.4-.4.5-.7v-.3c0-.2.2-.4.2-.6a5.58,5.58,0,0,1,.8-.5l.6-.3c.4-.2.8-.4,1.3-.6.1,0,.2-.1.3-.1.4-.2.9-.3,1.4-.5s1-.3,1.5-.4c.2,0,.3-.1.5-.1h.3c.1,0,.3-.1.4-.1H67c.1,0,.3-.1.5,0s.3.3.4.4.4-.1.6,0,.1.1.2.2a.35.35,0,0,0,.2.1,2,2,0,0,0,.8.1H70c.2,0,.4-.2.5-.2s.1.3.1.5.2,0,.4.1.8.8,1.1.4a2.39,2.39,0,0,0,.9.2c.1,0,.3-.2.4-.2h.3c.1-.1.1-.3.2-.4s.2-.2.3-.3.2-.2.3-.2a.6.6,0,0,1,.4.1.35.35,0,0,1,.29.1v.4c.1.1.1.1.2.1s.2-.1.3-.1c.3,0,.4.2.6.4a1.38,1.38,0,0,1-.3.4c0,.1.1.1.1.2v.6c0,.1.2.3.2.5-.2,0-.2.1-.4.2h-.2c-.1,0-.2.1-.3.1s-.2-.1-.39-.2-.2-.2-.3-.2h-.3a2.35,2.35,0,0,0-.8.2c-.2.2-.3.4-.4.5s-.2.1-.3.1h-.4c-.2.1-.2.4-.4.5l-.3.6c.2.3.6.4.7.79-.2.1-.6,0-.7.1s0,.4,0,.6a1.06,1.06,0,0,1-.5-.2c-.1-.2.1-.4.1-.6s-.2-.19-.3-.19-.3,0-.4-.1a1.69,1.69,0,0,1-.5-.2c-.1,0-.3-.2-.5-.4s-.4-.3-.5-.2-.3.3-.4.4a7.38,7.38,0,0,0-.7,1.19.78.78,0,0,1-.4.4c-.1.1-.2.1-.2.2s.4.3.6.4a.35.35,0,0,1,.2.1c.2,0,.3-.2.5-.2s0-.3.2-.4.4.2.7.1.3-.2.5-.1v.4a2.65,2.65,0,0,0-.5.6c-.1.2-.3.3-.4.5s0,.1-.1.2-.1.1-.1.2v.2a1.38,1.38,0,0,1-.4.3.35.35,0,0,0-.1.2c0,.1-.1.1-.1.2v.2l-.1.1c-.1.2-.2.4-.5.4h-.4c-.2-.1-.1-.6-.2-.7,0-.4,0-.7-.4-.8-.3.1-.2.6-.3.8-.2,0-.3-.1-.5-.2s-.3-.4-.4-.6a.31.31,0,0,0-.1-.2c-.1-.2-.3-.3-.3-.5-.2-.2-.7-.1-1-.3C64.08,113.8,63.88,113.8,63.78,113.9Zm11.1,6.5h-.8c-.1,0-.3-.1-.4-.1s-.4.1-.5,0-.2-.1-.3-.1-.4-.1-.4-.3.1-.2.1-.3c.2-.1.5,0,.7-.1s.1-.2.2-.2a.31.31,0,0,1,.2-.1c.1-.1.1-.3.2-.3h.4c.1-.1,0-.4.2-.4,0-.1-.1-.2-.1-.3s.4-.6.69-.3v.2h.3a4.33,4.33,0,0,1,.5.1c.1.2.2.5,0,.6s-.4.1-.6.2-.1.5-.2.7A.63.63,0,0,1,74.88,120.4Zm.49-7c.1.1.2,0,.3.1-.1.2-.3.3-.4.4s-.2.1-.2.2a11.48,11.48,0,0,0-1.19,1c.1.7-.5.2-.8.2a.6.6,0,0,0-.4.1h-.4a.35.35,0,0,0-.2.1h-.2c-.1,0-.3.2-.4.2a.76.76,0,0,1-.4.2.37.37,0,0,0-.3.1c-.2.1-.3.2-.5.3-.1-.1.1-.3,0-.5.1-.2.1-.5.2-.8.1-.1.1-.2.2-.3a1.42,1.42,0,0,0,.6-.2,1.38,1.38,0,0,1,.4-.3l.7-.7.9-.6c.1-.1.2-.4.3-.5s.2-.2.3-.2h.5c.3,0,.79-.1,1.09.1A2.08,2.08,0,0,0,75.37,113.4Zm-3.09,5.3c.2-.2.1-.4.2-.6a.77.77,0,0,0,.3-.1c.2-.1.2-.2.4-.2s.2.1.3.2.5.1.5.4-.2.3-.4.4-.1,0-.2.1-.1.4-.3.5-1.2-.1-1.2-.5A.52.52,0,0,1,72.28,118.7Zm13,11.79a2.35,2.35,0,0,1-.8-.2h-.3a3.81,3.81,0,0,1-1-.3,4.33,4.33,0,0,1-.5-.1c-.1,0-.3-.2-.4,0s.1.2.2.3.2.2.3.2c.2.2.4.6.9.4.1,0,.2-.1.3-.2.4-.1.6.2.7.5v.2c0,.2.1.3.2.5v.2c0,.2-.2.2-.3.4a.78.78,0,0,0-.4.4l-.2.2c-.1.1-.1.2-.2.2a2.19,2.19,0,0,1-.5.3c-.1.1-.3.3-.4.3a.76.76,0,0,0-.4.1c-.1,0-.2.1-.3.1h-.7c-.1,0-.2.1-.3.1a1.69,1.69,0,0,1-.5-.2c-.2-.1-.3-.1-.4-.3v-1.3a3.22,3.22,0,0,0-.8-1.4c-.1-.1-.2-.2-.2-.3s0-.1-.1-.2-.1-.1-.1-.2a.37.37,0,0,0-.1-.3.35.35,0,0,0-.1-.2v-.2a.35.35,0,0,0-.1-.2.34.34,0,0,0-.1-.29c-.1-.2-.2-.3-.2-.5a1.38,1.38,0,0,0-.4-.3c-.2.1,0,.6-.2.7s-.4-.3-.6-.3c-.1.2.1.3.1.49a4.35,4.35,0,0,1,.4.7,2.51,2.51,0,0,0,.4.7c.1.2.3.3.4.5v.2l.1.1a.76.76,0,0,0,.1.4,1.69,1.69,0,0,0,.2.5,4.33,4.33,0,0,0,.1.5v.3c0,.1.1.1.2.2s0,.1.1.2a2.18,2.18,0,0,1,.4.5c.1.2.1.4.3.4s.3,0,.5.1h.2a1.85,1.85,0,0,1,.7.2c.2.1.4.1.6.2,0,.2-.2.2-.3.3s-.3.2-.4.3a2.18,2.18,0,0,0-.5.4c-.1,0-.1.1-.2.2s-.6.2-.9.3a3.39,3.39,0,0,0-.6.6c-.1,0-.1.1-.2.2s-.1,0-.2.1-.3.3-.5.4-.3.1-.4.2-.1.4-.2.5-.1.2-.2.3-.1.4-.2.6-.1.2-.2.3v.2c0,.1-.1.1-.2.2-.1.3-.1.6-.2.8s-.4.3-.6.5-.4.3-.6.4c0,.1-.1.2-.2.3s-.29.5-.49.6c-.2.6-.7.9-.9,1.4a14.82,14.82,0,0,1-4.7,0c0-.4.1-.7.1-1.1v-.3c0-.3.2-.5.2-.8a2.46,2.46,0,0,0-.1-1.2v-.3a3.18,3.18,0,0,1-.3-.9c-.2-.2-.2-.5-.3-.7a5.27,5.27,0,0,1,.3-1.2c0-.1.1-.2.1-.3v-.7c0-.1-.1-.2-.1-.4a2.34,2.34,0,0,1,.2-1.2v-.2c0-.1.1-.1.1-.2a.37.37,0,0,1,.1-.3c0-.1.2-.2.2-.3s-.2-.3-.3-.4-.1-.2-.2-.3l-.3-.3c0-.1-.1-.1-.1-.2s-.1-.1-.2-.1-.1-.2-.2-.3a1.27,1.27,0,0,0-.6-.1c-.1,0-.2-.1-.4-.1h-.2c-.1,0-.3-.1-.4-.1a3,3,0,0,0-1-.2c-.1-.4-.4-.9-.5-1.4,0-.1-.1-.2-.1-.3a.9.9,0,0,0-.1-.5c-.1-.2-.2-.3-.2-.4s.1-.29.2-.49.2-.4.2-.6v-.2c0-.1.1-.1.2-.2s0-.2.1-.3a2.15,2.15,0,0,1,.7-.4,2.51,2.51,0,0,1,.7-.4c.3-.2.7-.4,1-.6s.3-.3.6-.3.4.2.6.2.1-.2.2-.4.3-.3.3-.5c.1,0,.1-.1.2-.2.3-.1.4-.3.7-.4s.6-.5.7,0c.2.1.4.1.6.2s.2.2.3.2.5,0,.7.1.2.2.4.2c.1.2.2.2.2.4s-.1.2-.1.3.1.2.3.3.2.3.4.5.2.4.4.4.2-.1.3-.1c.29,0,.39.2.49.4.3.1.7.1,1.1.2.1,0,.2.1.3.1h.6a4.88,4.88,0,0,1,.7.3c.2,0,.2-.3.3-.4s.2-.2.2-.3-.5-.2-.7-.3a.67.67,0,0,1,0-1c.1-.1.2-.1.2-.3s-.3-.1-.4-.1c-.1.3,0,.7-.4.7h-.6a1.49,1.49,0,0,1-.3-.7c0-.2.1-.4,0-.5s-.1-.2-.2-.3a.52.52,0,0,0-.2-.4c-.1.2.1.3.2.4,0,.4.2,1-.1,1.2-.3-.2-.4-.1-.6.1s-.2.2-.3.2-.29-.2-.29-.4.49-.4.49-.6-.1-.2-.2-.3v-.3c0-.1-.09-.2-.09-.3V124c0-.2-.1-.3-.1-.5s-.4-.1-.7-.1c-.1-.1-.1-.2-.2-.3-.4-.1-.4.2-.6.3s-.2.1-.3.2-.2.1-.3.2-.2.3-.3.3a.76.76,0,0,1-.5-.2,1.38,1.38,0,0,1-.4-.3c0-.4-.3-.5-.4-.8s.2-.3.3-.5.1-.2.2-.3.3-.2.3-.3a.35.35,0,0,1,.1-.2c.1-.1.2-.1.2-.2a.44.44,0,0,1,.5-.1l.2.2c.1.2.1.5.4.4.1,0,.2-.1.2-.3v-.4c0-.1-.2-.2-.2-.3a.76.76,0,0,1,.2-.5c.2,0,.3.2.5.2h.2c.1,0,.2.2.3.2s.3,0,.49,0,.3,0,.4-.1.1-.1.1-.2a2.18,2.18,0,0,1,.5-.4.35.35,0,0,1,.2.1c.2-.3.5-.4.7-.6,0-.1-.3-.1-.2-.3s.3-.2.4-.3l.2-.2c.1-.1.2-.1.3-.2s.2-.2.3-.2.2-.1.3-.2.2-.3.5-.4c.1-.1.2-.2.3-.2s.3.1.5.2.4.1.5.2.1.1.2.2a.35.35,0,0,1,.2.1.44.44,0,0,0,.5.1c.1-.1-.1-.3-.1-.4a4.33,4.33,0,0,1,.1-.5c0-.1.1-.1.2-.2s.1-.1.1-.2.2-.4.3-.5v-.2a.76.76,0,0,1,.2-.4c0-.1,0-.2.1-.2s0-.2.1-.2.1-.1.2-.2.1-.2.1-.3a6.37,6.37,0,0,0,.2-.7c-.1-.2.1-.5.1-.7a.76.76,0,0,0-.2-.4v-.4c0-.3-.2-.6-.2-.9-.2-.2-.5-.2-.7-.4s-.7-.1-.7-.59c-.1-.3-.5-.3-.4-.7.2-.1.5-.1.7-.3.1.1.2-.1.3,0s.2.1.3.1h.2c.2,0,.4.2.6.2s.2-.1.3,0,.2.3.4.3h.2a17.4,17.4,0,0,1,2.7,2.79,15.26,15.26,0,0,1,1.1,1.6c.1.1.2.3.3.4s.1.3.2.5a1.38,1.38,0,0,0,.3.4.35.35,0,0,0,.1.2c.1.1.1.2.2.4a.22.22,0,0,0,.2.2,6.89,6.89,0,0,0,.4,1c.1.3.3.6.4.9s.2.7.3,1,.1.5.2.8a.35.35,0,0,0,.1.2v.4c0,.1.1.2.1.3v.3c.1.5.2.9.3,1.4a19.3,19.3,0,0,1-.2,5.89,8.33,8.33,0,0,1-.4,1.5c-.1.2-.1.4-.2.5a1.27,1.27,0,0,0-.1.6c0,.1-.1.1-.2.2a1.09,1.09,0,0,0-.1.5.22.22,0,0,1-.2.2c-.1.2-.2.7-.5.7-.1,0-.1-.1-.2-.3s-.1-.2-.2-.3a.37.37,0,0,0-.1-.3c-.1-.2-.1-.3-.2-.5a2.48,2.48,0,0,1-.1-.9c-.1-.2-.6-.3-.8-.5s-.1-.2-.2-.2a.37.37,0,0,0-.3.1h-1Z"/><path class="a" d="M57.18,93.81A14.27,14.27,0,0,1,58,96a9.36,9.36,0,0,0,.4,1.6,11.7,11.7,0,0,0,.5,2,2,2,0,0,0,.4.8,4.35,4.35,0,0,0,.4.7,2.7,2.7,0,0,0,.7.8c.3.3.6.5,1,.9.2.1.4.3.6.4a1.42,1.42,0,0,0,.6-.2c.2-.1.5-.1.6-.3s-.1-.4-.1-.6c-.1-.4-.1-.8-.2-1.2a1.27,1.27,0,0,0-.1-.6,1.42,1.42,0,0,0-.2-.6c-.1-.2-.1-.5-.2-.6s-.1-.2-.2-.4a3.51,3.51,0,0,0-.5-.8c-.1-.1-.1-.3-.2-.4-.2-.3-.3-.5-.5-.8a12.41,12.41,0,0,0-1.8-2.1,4.35,4.35,0,0,0-.7-.6,2.65,2.65,0,0,0-.6-.5.1.1,0,0,1-.1-.1c-.3-.2-.6-.49-.79-.49h0V93A1.89,1.89,0,0,0,57.18,93.81Z"/><path class="a" d="M52.09,92.52a8.16,8.16,0,0,1,.5,1.69c.1.9.1,1.9.2,2.8.1.5.1,1.1.2,1.6a6.37,6.37,0,0,0,.2.7,7.07,7.07,0,0,0,1.1,2.5,15.76,15.76,0,0,0,1.2,1.5,8.78,8.78,0,0,0,1.5,1.2c.19.2.79.7,1.09.7a.76.76,0,0,0,.5-.2,1.38,1.38,0,0,0,.4-.3c.1-.1.3-.1.5-.2s.4-.2.4-.3-.2-.3-.3-.4a8.34,8.34,0,0,1-.8-1.2,7.6,7.6,0,0,1-.4-1.1,5.27,5.27,0,0,1-.3-1.2c-.1-.6-.1-1-.2-1.5,0-.2-.1-.4-.1-.6s-.1-.2-.1-.3v-.4a.35.35,0,0,0-.1-.2A16.56,16.56,0,0,0,56.09,94a2.19,2.19,0,0,0-.3-.5l-.3-.3c-.1-.1-.2-.2-.2-.29a23.91,23.91,0,0,0-2.3-2.2,4.23,4.23,0,0,0-.7-.5,11,11,0,0,0-1.4-.9v.1c.1.3.2.5.3.8C51.49,91,51.79,91.82,52.09,92.52Z"/><path class="a" d="M48.29,114.2c-.1,0-.1-.1-.2-.1a2.51,2.51,0,0,1-.7-.4l-.2-.2-.2-.2a14.7,14.7,0,0,0-1.3-1c-.5-.3-.9-.6-1.4-.9-.2-.1-.3-.2-.5-.3s-.3-.1-.5-.19l-.9-.3a4.25,4.25,0,0,0-1.1-.2,5.31,5.31,0,0,0-1.8.1h-.3c-.1,0-.2.1-.29.1a.76.76,0,0,1-.5.2c-.1,0-.2.1-.3.1a5.09,5.09,0,0,0-1.2.39c.1.2.3.2.5.3a9.29,9.29,0,0,1,1,.5c.2.1.4.1.5.2a3.26,3.26,0,0,0,.79.5,14.31,14.31,0,0,0,1.5,1.1,1.38,1.38,0,0,0,.4.3c.1.1.3.2.4.3a14,14,0,0,0,1.6,1,6.48,6.48,0,0,0,2.1.5h.5c.5,0,1.4-.2,2-.2.2,0,.3.1.4,0a2.19,2.19,0,0,0,.3-.5,1.42,1.42,0,0,0,.2-.6c-.1-.2-.4-.2-.5-.2Z"/><path class="a" d="M47.29,127.6a3.75,3.75,0,0,0-.1-1.1,1.42,1.42,0,0,0-.6.2,2.35,2.35,0,0,1-.8.2,1.69,1.69,0,0,0-.5.2,5.7,5.7,0,0,1-2.6,0,8.47,8.47,0,0,1-1.7-.4c-.1,0-.2-.1-.4-.2a5.64,5.64,0,0,1-1.2-.4,2.3,2.3,0,0,0-.79-.2,5.84,5.84,0,0,0-1.8-.2,12.75,12.75,0,0,0-2,.1.76.76,0,0,0-.4.1,2.82,2.82,0,0,0-1.1.4l-1.2.6-1.2.6c-.1.1-.3.1-.4.2s-.2.1-.4.2c.1.1-.1.1-.1.3,1,.3,1.9.5,2.9.8s2.3.79,3.4,1.19a1.85,1.85,0,0,0,.7.2,13,13,0,0,0,5,.5,3.55,3.55,0,0,0,1-.2c.4-.1.7-.1,1-.2a7.71,7.71,0,0,0,2-.7,7.1,7.1,0,0,0,1.4-.89v-1A.37.37,0,0,1,47.29,127.6Z"/><path class="a" d="M46.69,101.41c.5.8.9,1.7,1.4,2.5.1.2.3.4.4.6a2.09,2.09,0,0,0,.4.6c.1.2.3.3.4.5a6.47,6.47,0,0,0,.9.8,11.91,11.91,0,0,0,1.5.9l1.7.7a2.07,2.07,0,0,0,.6.2.66.66,0,0,0,.5-.4c.1-.1.5-.3.5-.4s-.3-.4-.4-.5a21.28,21.28,0,0,1-1.6-2.5c-.2-.3-.4-.5-.6-.8a1,1,0,0,0-.4-.5c-.1-.1-.2-.1-.2-.2-.3-.3-.5-.4-.8-.7a2.09,2.09,0,0,0-.6-.4,2.51,2.51,0,0,1-.7-.4,7.39,7.39,0,0,0-2.2-1c-.1,0-.1-.1-.2-.1-.5-.1-1.1-.3-1.5-.4v.1a3.51,3.51,0,0,0,.5.8A2.09,2.09,0,0,0,46.69,101.41Z"/><path class="a" d="M35.7,124.6a8,8,0,0,1,2.3.3,33,33,0,0,0,3.39.8,2.2,2.2,0,0,1,.8.1H43c.2,0,.5-.1.7-.1a5.31,5.31,0,0,0,1.9-.6,3.51,3.51,0,0,0,.8-.5,5.94,5.94,0,0,0,.8-.4,2.44,2.44,0,0,0,0-1.2,5.85,5.85,0,0,0-1.3.2,5.21,5.21,0,0,1-1.4-.2,8.75,8.75,0,0,0-1.6-.2h-1.8a11.08,11.08,0,0,0-1.9.2,8.46,8.46,0,0,0-2.39.7,9.15,9.15,0,0,0-1.7.9c-.1.1-.2.1-.3.2A1.49,1.49,0,0,1,35.7,124.6Z"/><path class="a" d="M40.39,100.51a1.76,1.76,0,0,1,.4.5,6.34,6.34,0,0,1,1.4,2.4,21.52,21.52,0,0,0,1,2.7,8.79,8.79,0,0,0,.6,1,.31.31,0,0,0,.1.2,2.18,2.18,0,0,0,.4.5,2.18,2.18,0,0,0,.4.5l.3.3a7,7,0,0,0,1,.8,12.13,12.13,0,0,0,1.4,1,12.51,12.51,0,0,0,3.1,1.09,4.33,4.33,0,0,1,.5.1c.1,0,.3-.3.4-.4a5.05,5.05,0,0,0,.7-.89.85.85,0,0,0,.3-.5c-.1-.1-.2-.1-.3-.2l-.6-.3a7.1,7.1,0,0,1-1.4-1,7,7,0,0,1-1.3-1.6,2.09,2.09,0,0,0-.4-.6c-.5-.8-.9-1.7-1.4-2.5a8.34,8.34,0,0,0-.8-1.2,10.63,10.63,0,0,0-.9-1.1c-.2-.2-.4-.3-.6-.5s-.4-.3-.6-.5a14.28,14.28,0,0,0-3.1-1.2c-.3-.1-.6-.1-.9-.2s-.6-.1-.9-.2h-.1c0,.2.4.6.6.8A5.34,5.34,0,0,0,40.39,100.51Z"/><path class="a" d="M46.89,117.9l-1.1-.3c-.3-.1-.6-.3-.9-.4a3.55,3.55,0,0,1-.9-.4c-.1,0-.1-.1-.2-.2s-.1-.1-.2-.1-.3-.2-.4-.3a5.58,5.58,0,0,1-.8-.5l-1.5-1.2a9.06,9.06,0,0,0-1.6-1.1c-.29-.2-.59-.3-.89-.5s-.8-.3-1.2-.4c-.1,0-.2-.1-.3-.1a4.8,4.8,0,0,0-1.2,0h-.4c-.1,0-.2.1-.3.1a3.75,3.75,0,0,1-1,.1c-.8.3-1.8.4-2.7.7,0,.2.2.2.3.3,1,.6,1.9,1.1,2.8,1.7s1.5,1.1,2.3,1.6a10.47,10.47,0,0,1,1.1.8,1.38,1.38,0,0,0,.4.3,19.28,19.28,0,0,0,2.39,1.5,14.17,14.17,0,0,0,1.8.8,9,9,0,0,0,1.6.3h.6c.2,0,.5-.1.7-.1a11.21,11.21,0,0,0,2.1-.4,68080567968820.45,68080567968820.45,0,0,0,.4-1.8,1.09,1.09,0,0,0-.5-.1C47.29,118,47.09,118,46.89,117.9Z"/><path class="a" d="M133.14,111.5a8.63,8.63,0,0,1-2.8.4c-4.89,0-7.59-3-7.59-8,0-5.3,3.3-8.3,8.09-8.3a20.84,20.84,0,0,1,6.6,1.2l.8-4.79a25.66,25.66,0,0,0-7-1.1c-8.69,0-14,5.49-14,13.29,0,7.49,4.6,12.19,12.49,12.19a23.52,23.52,0,0,0,8.6-1.5V103.11h-5.2Z"/><path class="a" d="M147.43,101.41h0a22.38,22.38,0,0,0,.2-3.5h-4.69V116.1H148v-7.49c0-4.8,1.7-6.9,5.1-6.2l.3-5A5.93,5.93,0,0,0,147.43,101.41Z"/><path class="a" d="M163.43,97.61c-5.6,0-8.7,4.1-8.7,9.7,0,6.49,3.2,9.29,9.1,9.29a18,18,0,0,0,6.59-1.2l-.5-3.9a12.43,12.43,0,0,1-5.39,1.1q-4.8,0-4.8-4.49h11.09a19.53,19.53,0,0,0,.2-2.3C171.22,101.21,168.82,97.61,163.43,97.61Zm2.79,7.1H160c.2-2.1,1.4-3.4,3.3-3.4S166.32,102.51,166.22,104.71Z"/><path class="a" d="M182.32,97.61c-5.6,0-8.7,4.1-8.7,9.7,0,6.49,3.2,9.29,9.1,9.29a18,18,0,0,0,6.59-1.2l-.5-3.9a12.44,12.44,0,0,1-5.4,1.1q-4.78,0-4.79-4.49h11.29a19.53,19.53,0,0,0,.2-2.3C190.11,101.21,187.71,97.61,182.32,97.61Zm2.79,7.1h-6.19c.2-2.1,1.4-3.4,3.3-3.4S185.21,102.51,185.11,104.71Z"/><path class="a" d="M204.5,97.61a6.72,6.72,0,0,0-6.09,3.5h0a16.68,16.68,0,0,0,.2-3.1h-4.7V116.2H199v-8.79c0-3,1.8-5.6,4-5.6,1.6,0,2,1.1,2,2.8V116.2h5V103.31C209.9,100.21,208.6,97.61,204.5,97.61Z"/><path class="a" d="M126.75,120.3c-2.5,0-4.7,0-6.8.1v24.69h5.1v-8.5h1.5c6.09,0,9.69-3.8,9.69-8.69S133,120.3,126.75,120.3Zm-.4,12.09a4.87,4.87,0,0,1-1.2-.1V124.5h1.5c3.09,0,4.39,1.5,4.39,3.8C131,130.89,129.14,132.39,126.35,132.39Z"/><path class="a" d="M153.23,132.89c0-4-1.7-6.39-7.69-6.39a22.79,22.79,0,0,0-6.6,1.1l.4,4.19a12.73,12.73,0,0,1,5.4-1.4c2.59,0,3.39.9,3.39,2.6v.9c-6,0-10.39,2.3-10.39,6.7,0,2.9,1.9,4.9,5.2,4.9a6.05,6.05,0,0,0,5.69-3.3h0a26.42,26.42,0,0,0-.2,2.9h4.8c-.1-1.5-.1-3.1-.1-4.5v-7.7Zm-5,4.7a3.74,3.74,0,0,1-3.59,4c-1.3,0-2.1-.7-2.1-1.8,0-1.4,1.1-2.7,5.59-2.7v.5Z"/><path class="a" d="M162.63,130.39h0a22.25,22.25,0,0,0,.2-3.49h-4.7v18.19h5.1v-7.5c0-4.8,1.7-6.9,5.09-6.2l.3-5A5.65,5.65,0,0,0,162.63,130.39Z"/><path class="a" d="M179.92,141.29c-1.6,0-2.1-.6-2.1-2.8v-7.7H182V126.9h-4.3V120l-5,1.3v5.5h-3v4h3v9c0,4.3,1.3,5.8,5.4,5.8a18.41,18.41,0,0,0,4.1-.5l-.4-4A12.25,12.25,0,0,1,179.92,141.29Z"/><path class="a" d="M196.51,126.9l-2,5.59c-.6,1.7-1.3,4.1-1.7,5.8h0a38,38,0,0,0-1.5-5.1l-2.2-6.29h-5.6l6.7,18.19-.5,1.4c-1,2.59-1.9,3.39-3.5,3.39a5.87,5.87,0,0,1-2.3-.4l-.5,4.3a9.86,9.86,0,0,0,2.4.3c4.6,0,6.7-2,8.8-7.69l7.29-19.49Z"/></svg>