<svg xmlns="http://www.w3.org/2000/svg" viewBox="0 0 240 240"><defs><style>.a{fill:#fff;}</style></defs><path class="a" d="M72.72,99.68h7.42V140H72.72ZM88.36,140h7.42V99.68H88.36Zm23.29-33.85h5.76c3.65,0,8.9.23,8.9,6.74,0,4.73-2.68,7.24-8,7.24h-6.62Zm-7.54-6.45V140h7.54v-13.7h7.7c10.5,0,14.73-5.88,14.73-13.19,0-8.27-6-13.41-14.33-13.41Zm42.64,6.45h5.76c3.66,0,8.9.23,8.9,6.74,0,4.73-2.68,7.24-8,7.24h-6.62Zm-7.54-6.45V140h7.54v-13.7h7.7c10.5,0,14.73-5.88,14.73-13.19,0-8.27-6-13.41-14.33-13.41ZM50,79V161h73.59v-5.19H55.19V84.16H184.81v71.68h-33V161H190V79Z"/></svg>