<svg xmlns="http://www.w3.org/2000/svg" viewBox="0 0 240 240"><defs><style>.a{fill:#fff;}</style></defs><path class="a" d="M86.1,165.05a42.8,42.8,0,0,1-9.26-1c-1.2-4.82-2.35-10.26-3.25-16.17-.06-.42-.13-.85-.19-1.27-.08-.59-.17-1.18-.25-1.77-.27-2.07-.52-4.19-.73-6.37-.34-3.54-.57-7.21-.67-11,0-1.22,0-2.45,0-3.69v-.25c0-.5,0-1,0-1.51,0-1.34,0-2.66.09-4a163.58,163.58,0,0,1,1.47-16.67l.06-.39c.08-.6.17-1.19.26-1.77.13-.87.26-1.73.41-2.57,0,0,0-.07,0-.1.66-3.91,1.42-7.6,2.22-11,.37-1.59.75-3.13,1.14-4.6A43.23,43.23,0,0,1,86.1,80a42.32,42.32,0,0,1,20.48,5.27l1,.55c-.29-.19-.6-.37-.9-.55A43.63,43.63,0,0,0,83.94,79a43.15,43.15,0,0,0-6.16.44,138.52,138.52,0,0,1,6.6-19.31h0A156.15,156.15,0,0,0,77,79.53a43.4,43.4,0,0,0-13,4.24,89,89,0,0,1,5.37-11.38h0a104,104,0,0,0-6.12,11.76,44.18,44.18,0,0,0-15,13.21c-.56.78-1.09,1.57-1.59,2.38-.15.23-.3.47-.44.71l-.32.55a43.66,43.66,0,0,0-5.78,19.5c0,.68-.06,1.37-.06,2.06,0,.12,0,.23,0,.35s0,.22,0,.33c0,.57,0,1.13,0,1.69a43.89,43.89,0,0,0,6.11,20.41l.44.72c.3.49.61,1,.93,1.45a44.16,44.16,0,0,0,15,13.78,106.74,106.74,0,0,0,6.77,13.25,91.31,91.31,0,0,1-6-12.79,43.66,43.66,0,0,0,13.19,4.47c1.7,5.52,3.42,10.18,4.81,13.68a2.73,2.73,0,0,1,.1-.41c-1.2-3.38-2.64-7.82-4-13.13a43.95,43.95,0,0,0,40.92-16.17A42.38,42.38,0,0,1,86.1,165.05M76.44,81.16c-.43,1.41-.85,2.87-1.27,4.39s-.83,3-1.22,4.63c-.72,2.89-1.39,5.93-2,9.07L59,99.5a116.17,116.17,0,0,1,3.76-12.44,42.08,42.08,0,0,1,13.73-5.9m-6.87,40.9L56,122.29a102.66,102.66,0,0,1,2.66-21.59l13,.25a132.83,132.83,0,0,0-2.08,21.11m1.89,22.79-13.07.26A101,101,0,0,1,56,123.52h0l13.59.24a127.65,127.65,0,0,0,1.89,21.1m-9.8-57.07a115.35,115.35,0,0,0-4.15,11.75l-7.22.14A42.5,42.5,0,0,1,61.66,87.78M49.74,100.52l7.44.15a86.08,86.08,0,0,0-3.37,21.66l-10.21.17a42.32,42.32,0,0,1,6.14-22M43.61,123.3l10.19.18a84.41,84.41,0,0,0,3.07,21.66l-6.68.13a42.32,42.32,0,0,1-6.58-22m7.14,22.84,6.43.13c1,3.68,2.23,7.15,3.45,10.3a42.59,42.59,0,0,1-9.88-10.43m11.08,11.29a114.47,114.47,0,0,1-3.17-11.13l13.1.25a.19.19,0,0,0,0,.08c.08.42.15.83.23,1.25,1.09,5.73,2.44,11.1,3.85,15.92a42.43,42.43,0,0,1-14-6.37m24.08-15.06H80.66V103.49h5.25Zm9.26-38.88h15.76c10.12,0,16.35,7.69,16.35,18.9,0,8.72-3.79,20-16.57,20H95.17Zm5.25,34.39H110.6c6.82,0,11.26-5.36,11.26-15.17S117.37,108,110.22,108h-9.8Zm38.83-.17H159v4.66H134V103.49h5.26Zm41.8,5.69c-14.51,0-19-12.08-19-20.47s4.44-20.47,19-20.47S200,114.54,200,122.93s-4.44,20.47-18.95,20.47m0-36.28c-8.45,0-13.54,6.66-13.54,15.81s5.09,15.81,13.54,15.81,13.54-6.66,13.54-15.81-5.1-15.81-13.54-15.81"/></svg>