<svg xmlns="http://www.w3.org/2000/svg" viewBox="0 0 240 240"><defs><style>.a,.b,.c,.d,.e{fill:#fff;}.a{fill-opacity:0.55;}.b{fill-opacity:0.85;}.c{fill-opacity:0.7;}.d{fill-opacity:0.4;}</style></defs><path class="a" d="M60.09,110A20.06,20.06,0,1,1,41.8,138.29,20.08,20.08,0,0,0,70.12,120h0A10,10,0,0,0,60.09,110Z"/><path class="b" d="M70.12,99.94a20.07,20.07,0,0,1,8.26,38.35A20.08,20.08,0,0,0,60.09,110h0a10,10,0,0,0-10,10A20.06,20.06,0,0,1,70.12,99.94Z"/><path class="c" d="M60.09,89.91a20.06,20.06,0,0,0,0,40.12,10,10,0,0,1-10-10h0a20.08,20.08,0,0,1,28.32-18.29A20.06,20.06,0,0,0,60.09,89.91Z"/><path class="d" d="M60.09,130a10,10,0,0,0,10-10A20.06,20.06,0,1,1,41.8,101.71,20.08,20.08,0,0,0,60.09,130Z"/><path class="e" d="M70.12,120a10,10,0,1,1-10-10A10,10,0,0,1,70.12,120Zm41.35-2.73V114h-6.35V97.68h-3.78v19.59Zm12.61,0c0-1.19-.08-2.55-.08-3.72v-6c0-3.14-1.31-5-6-5a15.57,15.57,0,0,0-5.17.9l.32,3.1a9.42,9.42,0,0,1,4.27-1.13c2.09,0,2.81.78,2.81,2.29v.79c-4.9,0-8.33,1.82-8.33,5.28,0,2.32,1.51,3.8,4.12,3.8a4.89,4.89,0,0,0,4.62-2.76l0,0a16,16,0,0,0-.15,2.44Zm-3.8-6a3.33,3.33,0,0,1-3.07,3.49,1.52,1.52,0,0,1-1.72-1.54c0-1.16.87-2.3,4.79-2.3Zm18.73,6V107.14c0-2.52-1-4.61-4.29-4.61a5.28,5.28,0,0,0-4.91,2.9l0,0a15.37,15.37,0,0,0,.21-2.55h-3.51v14.42h3.71v-7c0-2.52,1.48-4.67,3.37-4.67,1.36,0,1.77.9,1.77,2.41v9.23Zm12.12-.41-.29-3.16a6.44,6.44,0,0,1-2.85.61c-2.46,0-3.42-1.68-3.42-4.15,0-2.73,1.19-4.47,3.54-4.47a7.58,7.58,0,0,1,2.61.52l.38-3.22a11.25,11.25,0,0,0-3-.41c-5.11,0-7.46,3.46-7.46,8,0,4.9,2.5,7,6.5,7A11.46,11.46,0,0,0,151.13,116.86ZM164.38,109c0-3.57-1.85-6.44-6.06-6.44s-6.76,3.25-6.76,7.66c0,5.08,2.55,7.37,7.14,7.37a14.29,14.29,0,0,0,5.16-.93l-.35-2.87a10.28,10.28,0,0,1-4.2.9c-2.67,0-4-1.31-4-4h8.94A11.51,11.51,0,0,0,164.38,109Zm-3.68-.84h-5.31a2.88,2.88,0,0,1,2.81-2.88C159.77,105.25,160.76,106.33,160.7,108.13Zm13.55,9.05v-3a6.87,6.87,0,0,1-1.8.24c-1.27,0-1.71-.53-1.71-2.38v-6.33h3.51v-2.87h-3.51V97.42l-3.71,1v4.44h-2.47v2.87h2.5V113c0,3.37,1,4.53,4.17,4.53A12.94,12.94,0,0,0,174.25,117.18ZM124,140.92l-3-19.58h-4.38l-3.37,10.12a28.43,28.43,0,0,0-1.1,4.07H112a30.84,30.84,0,0,0-1.07-4.12l-3.28-10.07h-4.41l-3,19.58h3.83l1.1-9c.24-1.71.44-3.25.56-5h0a33,33,0,0,0,1.25,4.93l3,9.08h3.74l3.11-9.83a41,41,0,0,0,1.07-4.18H118c.15,1.36.32,2.81.61,4.67l1.39,9.34Zm5.58-18.54a2.31,2.31,0,1,0-2.32,2.26A2.3,2.3,0,0,0,129.56,122.38Zm-.47,18.54V126.5h-3.71v14.42Zm15.36,1.63c0-2.79-1.8-4.24-4.93-4.24h-2.23c-1.69,0-2.24-.23-2.24-.9a1.06,1.06,0,0,1,.7-.93,6.78,6.78,0,0,0,1.42.12c4,0,6.24-2.09,6.24-5.28a2.63,2.63,0,0,0-.73-1.92h1.95v-2.9h-4.88a11.57,11.57,0,0,0-2.52-.32c-4.24,0-6.53,2.56-6.53,5.6a4.32,4.32,0,0,0,2.14,4,2.74,2.74,0,0,0-1.71,2.49,2.4,2.4,0,0,0,1.42,2.21,4.1,4.1,0,0,0-2.2,3.48c0,2.82,2.35,4.27,6.18,4.27C141.35,148.27,144.45,145.68,144.45,142.55Zm-3.65.49c0,1.37-1.28,2.38-3.72,2.38-1.86,0-3.07-.78-3.07-2.12a2.38,2.38,0,0,1,1.3-2.06h3.19C140.1,141.24,140.8,142,140.8,143Zm-.93-11.52a2.49,2.49,0,0,1-2.79,2.56c-1.8,0-2.84-1-2.84-2.59a2.56,2.56,0,0,1,2.84-2.61A2.5,2.5,0,0,1,139.87,131.52Zm13.72-5.34c-2.49-.2-3.89,1.39-4.58,3.22H149a19.5,19.5,0,0,0,.26-2.9H145.7v14.42h3.71V135c0-4,1.34-5.74,4-5.19Zm11.94,14.74c-.05-1.19-.08-2.55-.08-3.71v-6c0-3.13-1.31-5-5.95-5a15.83,15.83,0,0,0-5.17.9l.32,3.11a9.42,9.42,0,0,1,4.27-1.13c2.09,0,2.81.78,2.81,2.29v.78c-4.9,0-8.33,1.83-8.33,5.28,0,2.32,1.51,3.8,4.12,3.8a4.9,4.9,0,0,0,4.62-2.75l0,0a15.78,15.78,0,0,0-.15,2.43Zm-3.8-6a3.32,3.32,0,0,1-3.07,3.48,1.52,1.52,0,0,1-1.72-1.54c0-1.16.87-2.29,4.79-2.29Zm14,6v-3a7.39,7.39,0,0,1-1.8.23c-1.28,0-1.72-.52-1.72-2.38v-6.33h3.52V126.5h-3.52v-5.43l-3.71,1v4.44H166v2.87h2.5v7.32c0,3.36,1,4.52,4.18,4.52A13,13,0,0,0,175.74,140.84Zm5.36-18.46a2.31,2.31,0,1,0-2.32,2.26A2.29,2.29,0,0,0,181.1,122.38Zm-.46,18.54V126.5h-3.72v14.42Zm15.4-7.48c0-5-2.64-7.23-6.74-7.23-4.38,0-7.37,3.25-7.37,7.75,0,5.14,2.64,7.25,6.74,7.25C193,141.21,196,138,196,133.44Zm-3.83.2c0,2.93-1.4,4.41-3.23,4.41-2.14,0-3.22-1.51-3.22-4.47s1.63-4.23,3.28-4.23C191.22,129.35,192.21,130.85,192.21,133.64ZM210,140.92V130.8c0-2.53-1-4.62-4.29-4.62a5.27,5.27,0,0,0-4.91,2.9l0,0a15.43,15.43,0,0,0,.2-2.56h-3.51v14.42h3.72v-7c0-2.53,1.48-4.67,3.36-4.67,1.37,0,1.77.9,1.77,2.41v9.22Z"/></svg>