<svg xmlns="http://www.w3.org/2000/svg" viewBox="0 0 240 240"><defs><style>.a,.b{fill:#fff;}.a{opacity:0.66;}</style></defs><path class="a" d="M107.67,83c.5-2,13.75-7.17,27-7.17C168.42,75.87,195,103,195,136.71c0,12.08-4.25,22.75-7,22.75-1.58,0-1.92-3.59-1.92-10.17,0-9.75-3.08-18.67-7.25-24.58s-7.91-8.42-9.5-8.42c-1,0-1.66.75-1.66,2.42,0,2.33,1.08,4,1.41,8.5v.16h0c0,1.09.17,10.25-3.41,11-2.25.42-5.84-4.33-4.67-8.41a13.45,13.45,0,0,0,.42-3.34v-.08c0-14.58-14.5-18.42-14.5-22.5,0-1.5,1.58-1.92,4.08-1.92,9.92,0,20.58,7.34,27,14.75,7.58,8.84,9.75,17.75,11.5,17.75.92,0,1.17-1.41,1.17-3.83,0-12.08-6.09-27.42-17-37.17-7.92-7.08-17.5-11.16-19.84-11.16-.33,0-.66.08-.66.33,0,1.08,7.58,2.92,17.58,11.25,6.67,5.67,12.92,15.92,12.92,21.25,0,.75-.17,1-.59,1C181.5,116.29,170,98,143.42,98c-7.92,0-15.59,2.75-15.59,6,0,1.83,2.67,2.58,7.42,3.67,5.58,1.33,9,3,9,5.75,0,1.75-2.08,2.5-4.08,2.5-4.67,0-6.84-2.92-14.34-2.92-9.83,0-12.83,4.67-17.33,4.67a2.08,2.08,0,0,1-2.17-2.25c0-5.5,13.92-21.25,37.25-21.25,12.75,0,19.84,3.91,21.92,3.91a.9.9,0,0,0,.92-1c0-4.41-14.42-8.58-25.25-8.58-3.17,0-4.34-.67-4.34-1.5,0-1.67,4.25-2.58,4.25-3.92,0-1.5-6-2.5-11.83-2.5-12.33,0-17.92,3.25-20.5,3.25-.67-.08-1.25-.41-1.08-.83"/><path class="b" d="M66.33,127H45v32.5a4.66,4.66,0,0,0,4.67,4.67H66.33a18.59,18.59,0,0,0,0-37.17ZM64.5,154.79v.08H57.33a1.13,1.13,0,0,1-1.16-1.16V136.29H64.5a9.25,9.25,0,0,1,0,18.5ZM116.33,127H127.5v37.17H121a4.67,4.67,0,0,1-4.67-4.67v-9.25H99.25a.13.13,0,1,0,0,.25,2.28,2.28,0,0,1,2.33,2.33v11.34H95a4.67,4.67,0,0,1-4.67-4.67V127h11.09v13.91h14.83V127Zm30.59,0v37.17h-6.5a4.66,4.66,0,0,1-4.67-4.67V127Z"/></svg>