<?xml version="1.0" encoding="utf-8"?>
<!-- Generator: Adobe Illustrator 21.1.0, SVG Export Plug-In . SVG Version: 6.00 Build 0)  -->
<svg version="1.1" id="gnb-logo_1_" xmlns="http://www.w3.org/2000/svg" xmlns:xlink="http://www.w3.org/1999/xlink" x="0px"
	 y="0px" viewBox="0 0 180 71.7" style="enable-background:new 0 0 180 71.7;" xml:space="preserve">
<style type="text/css">
	.st0{opacity:0.6;}
	.st1{fill:#FFFFFF;}
	.st2{opacity:0.6;fill:#FFFFFF;}
	.st3{opacity:0.8;fill:#FFFFFF;}
</style>
<g class="st0">
	<path class="st1" d="M77.1,53.8c0,0.2,0,0.4,0,0.6c0,0.2,0,0.3,0,0.5c0,0.2,0,0.3,0,0.6c0,0.3,0,0.7,0,1.1c0,0.4,0,0.8,0,1.1v1.1
		l0,1.4V61L77,62.3l0.1,3.1l-0.1,0.9c0,0.2,0,0.4,0,0.6c0,0.2,0,0.4,0,0.6c0,0.2,0,0.4,0,0.6v0.4c0,0.2,0,0.3,0,0.4
		c0,0.1,0,0.3,0,0.4c0,0.3,0,0.5,0,0.7c0,0.2,0,0.3,0,0.4c0,0.3-0.1,0.6-0.2,0.7c-0.1,0.1-0.4,0.2-0.7,0.2H76l-0.6-0.1l-0.6,0
		l-0.6-0.1c-0.1,0-0.3,0-0.8,0.1c-0.1,0-0.2,0-0.3,0c-0.1,0-0.2,0-0.2,0c-0.3,0-0.5,0-0.6-0.1c-0.1-0.1-0.2-0.3-0.3-0.5
		c-0.1-0.3-0.1-0.5-0.2-0.6c0-0.1-0.1-0.2-0.1-0.3c0-0.1-0.1-0.2-0.1-0.2c0-0.1-0.1-0.2-0.2-0.4l-0.3-0.6c-0.1-0.2-0.1-0.3-0.2-0.4
		c0-0.1-0.1-0.1-0.1-0.2c0,0-0.1-0.1-0.1-0.2c0-0.1-0.1-0.2-0.1-0.4c-0.1-0.3-0.2-0.6-0.2-0.7c0-0.1-0.1-0.2-0.1-0.3
		c0-0.1-0.1-0.1-0.1-0.1c0,0-0.1-0.1-0.1-0.2l-0.2-0.4l-0.1-0.4c-0.1-0.2-0.2-0.7-0.3-0.9c0-0.1-0.3-1.4-0.4-1.7l0-0.1
		c0,0,0,0,0-0.1c0,0,0-0.2-0.1-0.3c0-0.1-0.1-0.3-0.1-0.5c-0.1-0.3-0.1-0.3-0.2-0.3c0,0-0.1,0-0.1,0.1c0,0.1,0,0.1,0,0.2
		c0,0,0,0.1,0,0.1c0,0.1,0,0.2,0,0.3c0.1,0.3,0.1,0.7,0.1,1c0,0.3,0.1,1.9,0.1,2.1l0.1,1.2c0,0.1,0,0.2,0,0.2c0,0,0,0,0,0.1
		c0,0,0,0.1,0,0.2c0,0.1,0,0.2,0,0.4l-0.1,1.2c0,0.2,0,0.3,0,0.5c0,0.2,0,0.3,0.1,0.6c0,0.2,0,0.4,0,0.5c0,0.2,0,0.3,0,0.4
		c0,0.5-0.3,0.8-1,0.8c0,0-0.1,0-0.2,0c-0.1,0-0.2,0-0.2,0c-0.3,0-0.4,0-0.6,0c-0.1,0-0.2,0-0.3,0l-2,0.1c-0.3,0-0.4-0.1-0.6-0.2
		c-0.1-0.2-0.2-0.4-0.2-0.8c0-0.2,0-0.4,0-0.6c0-0.2,0-0.4,0-0.7c0-0.5,0.1-1,0.1-1.4c0-0.4,0-0.7,0-1c0-0.1,0-0.3,0-0.6
		c0-0.3,0-0.7,0-1.2c0-0.2,0-0.4,0-0.5c0-0.2,0-0.3,0-0.5l0.1-2.4l0-2.5l0-2.4c0-0.2,0-0.4,0-0.7s0-0.8,0-1.3c0-0.4,0-0.7,0-1
		c0-0.3,0-0.5,0-0.7v-0.2c0-0.5,0.2-0.7,0.7-0.7c0,0,0.1,0,0.3,0c0.2,0,0.4,0,0.6,0c0.1,0,0.2,0,0.3,0c0.1,0,0.3,0,0.4,0
		c0.3,0,0.5,0,0.7,0c0.2,0,0.3,0,0.5,0c0.2,0,0.3,0,0.4,0c0.1,0,0.2,0,0.2,0c0.3,0,0.5,0.1,0.6,0.3c0.2,0.2,0.4,0.6,0.6,1.3
		c0.3,0.8,0.6,1.5,0.9,2.1c0.1,0.2,0.2,0.3,0.2,0.4c0,0.1,0.1,0.2,0.1,0.3c0,0.1,0.1,0.2,0.1,0.2c0,0.1,0.1,0.2,0.2,0.4
		c0,0,0.1,0.2,0.1,0.2c0,0,0.2,0.4,0.3,0.6c0.1,0.2,0.2,0.5,0.2,0.6c0,0.1,0.1,0.3,0.1,0.5c0,0.2,0.1,0.4,0.2,0.8
		c0,0.2,0.1,0.6,0.2,0.7c0.1,0.1,0.2,1,0.3,1c0.1,0,0.2-0.1,0.2-0.3v-0.1v0c0,0,0-0.2,0-0.2c0-0.1,0-0.2,0-0.3l-0.1-2.3l0.1-1.3
		c0-0.1,0-0.2,0-0.3c0-0.1,0-0.3,0-0.5c0-0.1,0-0.2,0-0.3c0-0.2,0-0.3,0-0.6c0-0.3,0-0.7,0-1c0-0.3,0-0.5,0-0.6c0-0.6,0.1-1,0.3-1.2
		c0.2-0.2,0.5-0.3,1-0.3h0.4c0.1,0,0.2,0,0.3,0c0.1,0,0.2,0,0.2,0c0.3,0,0.5,0,0.6,0c0.1,0,0.2,0,0.3,0l1.2-0.1
		c0.5,0,0.7,0.2,0.7,0.8v0.2C77.1,53.4,77.1,53.6,77.1,53.8z"/>
	<path class="st1" d="M91.1,66.6c-0.1,0.7-0.3,1.4-0.6,2c-0.4,1-1.2,1.7-2.1,2.3c-1,0.5-2.2,0.8-3.6,0.8c-1.6,0-2.8-0.3-3.7-0.9
		c-0.9-0.6-1.5-1.6-1.9-3c-0.1-0.4-0.2-0.8-0.3-1.3c-0.1-0.4-0.1-0.9-0.2-1.4c0-0.5-0.1-1.1-0.1-1.8c0-0.7,0-1.5,0-2.4
		c0-1.3,0-2.4,0.1-3.3c0.1-0.9,0.2-1.6,0.4-2.2c0.2-0.6,0.5-1.2,1-1.6c0.4-0.5,1.1-0.9,1.9-1.4c0.4-0.3,0.9-0.4,1.2-0.5
		c0.4-0.1,0.9-0.1,1.5-0.1c0.6,0,1.2,0,1.6,0.1c0.5,0,0.9,0.1,1.2,0.2c0.4,0.1,0.7,0.3,1,0.5c0.3,0.2,0.6,0.5,0.9,0.8
		c0.3,0.3,0.6,0.6,0.8,1c0.2,0.4,0.4,0.8,0.5,1.3c0.1,0.5,0.2,1,0.3,1.7c0.1,0.6,0.1,1.4,0.1,2.2l0,2.1l0,2
		C91.2,64.9,91.2,65.8,91.1,66.6z M86.3,64.6c0-0.2,0-0.4,0-0.5c0-0.1,0-0.3,0-0.4c0-0.2,0-0.4,0-0.7c0-0.3,0-0.8,0-1.4v-0.5
		c0-0.2,0-0.4,0-0.5c0-0.1,0-0.3,0-0.6c0-0.3,0-0.6,0-0.9c0-0.3,0-0.5,0-0.6c0-1.4-0.5-2.1-1.4-2.1c-0.5,0-0.8,0.2-1,0.7
		c-0.2,0.4-0.3,1.1-0.3,2.1c0,0.2,0,0.4,0,0.5c0,0.1,0,0.2,0,0.4c0,0.1,0,0.3,0,0.5c0,0.2,0,0.5,0,0.9v0.4c0,0.2,0,0.3,0,0.3
		c0,0.1,0,0.2,0,0.3c0,0.1,0,0.3,0,0.6c0,0.2,0,0.6,0.1,1.1l-0.1,1.1c0,0.6,0.1,1,0.3,1.4c0.3,0.3,0.6,0.5,1,0.5
		C85.9,67.1,86.3,66.3,86.3,64.6z"/>
	<path class="st1" d="M102.3,56.1c0,0.6-0.3,0.9-1,0.9c0,0-0.1,0-0.2,0c-0.1,0-0.2,0-0.3,0h-0.2c-0.4,0-0.7,0.1-0.8,0.3
		c-0.2,0.2-0.2,0.6-0.2,1.1c0,0,0,0.1,0,0.3c0,0.2,0,0.3,0,0.5c0,0.3,0,0.6,0,0.9c0,0.2,0,0.5,0,0.6c0,0.1,0,0.2,0,0.3
		c0,0.1,0,0.3,0,0.4c0,0.5-0.1,0.9-0.1,1.2c0,0.3,0,0.5,0,0.5c0,0.2,0,0.3,0,0.5c0,0.2,0,0.4,0,0.7c0.1,0.6,0.1,0.9,0.1,1.1
		l-0.1,2.6c0,0.2,0,0.4,0,0.6c0,0.2,0,0.4,0,0.6c0.1,0.5,0.1,0.9,0.1,1.2c0,0.7-0.3,1-1,1l-1.5-0.1c-0.4,0-0.6,0-0.8,0
		c-0.2,0-0.3,0-0.4,0c-0.1,0-0.1,0-0.2,0c0,0,0,0-0.1,0c-0.4,0-0.7-0.1-0.8-0.2c-0.2-0.1-0.2-0.4-0.2-0.7c0-0.1,0-0.2,0-0.3
		c0-0.1,0-0.3,0-0.4c0-0.3,0-0.4,0-0.6c0-0.1,0-0.3,0-0.5l-0.1-2.3l0.1-2.3l-0.1-3l0.1-2.6c0-0.6,0-1-0.2-1.2
		c-0.1-0.2-0.4-0.3-0.8-0.3c-0.1,0-0.2,0-0.3,0c-0.1,0-0.2,0-0.3,0c-0.1,0-0.1,0-0.2,0c-0.3,0-0.6-0.1-0.7-0.2
		c-0.1-0.2-0.2-0.5-0.2-0.9l0-1.2l0-1.2c0-0.9,0.3-1.3,1.1-1.3l1.4,0.1l2.3-0.1c0.2,0,0.4,0,0.6,0c0.2,0,0.5,0,0.8,0
		c0.2,0,0.4,0,0.6,0c0.2,0,0.4,0,0.6,0c0,0,0.1,0,0.1,0c0,0,0.1,0,0.2,0c0.1,0,0.3,0,0.5,0c0.2,0,0.6,0,1,0c0.4,0,0.6,0.1,0.8,0.2
		c0.2,0.1,0.2,0.4,0.2,0.7l-0.1,1.7c0,0.1,0,0.3,0,0.4c0,0.1,0,0.3,0,0.4c0,0.1,0,0.3,0,0.3C102.3,56,102.3,56,102.3,56.1z"/>
</g>
<g>
	<path class="st1" d="M121.2,66.1c0,0.2,0,0.3,0,0.4c0,0.1,0,0.2-0.1,0.4c0,0.1-0.1,0.3-0.1,0.5c-0.1,0.2-0.1,0.4-0.2,0.7
		c-0.2,0.4-0.3,0.7-0.4,1c-0.1,0.3-0.2,0.5-0.4,0.7c-0.1,0.2-0.3,0.3-0.5,0.5c-0.2,0.1-0.4,0.3-0.7,0.5c-0.5,0.3-1.1,0.5-1.6,0.7
		c-0.5,0.1-1,0.2-1.5,0.2h-0.5c-0.4,0-0.7,0-0.9,0c-0.2,0-0.4,0-0.4,0l-1.5,0l-1.6,0l-1.2,0.1c-0.8,0-1.2-0.3-1.2-1.1
		c0-0.1,0-0.2,0-0.4c0-0.2,0-0.3,0-0.5c0-0.2,0-0.4,0-0.6c0-0.2,0-0.3,0-0.5c0,0,0-0.2,0-0.5c0-0.3,0-0.7-0.1-1.1c0-0.2,0-0.3,0-0.6
		c0-0.2,0-0.5,0-0.8V65l0-0.5V64l0.1-3.5c0-0.1,0-0.3,0-0.6c0-0.3,0-0.7-0.1-1.2c0-0.2,0-0.3,0-0.4c0-0.1,0-0.2,0-0.2l0.1-2.5
		c0,0,0-0.2,0-0.4c0-0.2,0-0.5,0-0.8c0-0.2,0-0.3,0-0.4c0-0.1,0-0.2,0-0.3c0-1.1,0.4-1.6,1.3-1.6c0,0,0.1,0,0.2,0c0.1,0,0.3,0,0.4,0
		c0.1,0,0.2,0,0.2,0c0.1,0,0.1,0,0.2,0c0.1,0,0.2,0,0.3,0c0.1,0,0.3,0,0.4,0c0.3,0,0.6,0,0.8,0c0.2,0,0.4,0,0.5,0l1.7,0l1.6,0
		c1.4,0,2.6,0.4,3.4,1.3c0.3,0.3,0.4,0.5,0.6,0.7c0.1,0.2,0.2,0.5,0.4,0.9c0.1,0.3,0.2,0.6,0.2,1c0.1,0.4,0.1,0.7,0.1,0.8
		c0.1,1.7-0.4,3-1.5,3.9c-0.2,0.2-0.3,0.3-0.4,0.3c-0.1,0-0.1,0.1-0.1,0.1c0,0,0,0.1,0.1,0.1c0,0,0.2,0.2,0.5,0.3
		C120.5,62.5,121.2,64,121.2,66.1z M116,65.5c0-0.6-0.2-1.1-0.5-1.4c-0.3-0.4-0.8-0.5-1.3-0.5c-0.7,0-1,0.3-1.1,0.8
		c0,0.1,0,0.1,0,0.1c0,0,0,0.1,0,0.4v0.8c0,0.1,0,0.1,0,0.2c0,0.1,0,0.1,0,0.1v0.1c-0.1,0.8,0.4,1.3,1.3,1.3c0.5,0,0.9-0.2,1.2-0.5
		C115.9,66.5,116,66,116,65.5z M115.8,57.5c0-1-0.6-1.6-1.8-1.6c-0.7,0-1,0.3-1,1v0.1v0.3c0,0.6,0.1,1,0.3,1.2
		c0.2,0.2,0.5,0.4,1,0.4c0.5,0,0.8-0.1,1.1-0.4S115.8,57.9,115.8,57.5z"/>
	<path class="st1" d="M135.4,70.9c0,0.4-0.3,0.6-0.9,0.6c0,0-0.1,0-0.2,0c-0.1,0-0.2,0-0.3,0c-0.2,0-0.4,0-0.6,0c-0.2,0-0.3,0-0.4,0
		c-0.1,0-0.2,0-0.4,0c-0.1,0-0.3,0-0.5,0c-0.2,0-0.4,0-0.6,0c-0.2,0-0.4,0-0.5,0c-0.3,0-0.5-0.1-0.6-0.2c-0.1-0.1-0.3-0.4-0.4-0.8
		c-0.1-0.3-0.2-0.5-0.3-0.8c-0.1-0.3-0.3-0.6-0.4-0.8c-0.1-0.2-0.2-0.3-0.2-0.4c0-0.1-0.1-0.1-0.1-0.2c0,0,0-0.1-0.1-0.2
		c0-0.1-0.1-0.2-0.1-0.3c-0.2-0.5-0.4-0.9-0.5-1c-0.1-0.2-0.3-0.3-0.4-0.3c-0.3,0-0.4,0.2-0.4,0.7c0,0.1,0,0.2,0,0.3
		c0,0.1,0,0.2,0,0.4c0,0.2,0,0.4,0,0.5c0,0.1,0,0.2,0,0.2l-0.1,1.2c0,0,0,0.1,0,0.2c0,0.1,0,0.2,0,0.4c0,0.1,0,0.2,0,0.3
		c0,0.1,0,0.1,0,0.2c0,0.5-0.2,0.7-0.7,0.7c0,0-0.1,0-0.2,0c-0.1,0-0.2,0-0.3,0c-0.2,0-0.4,0-0.5,0c-0.2,0-0.3,0-0.5,0
		c-0.2,0-0.3,0-0.5,0c-0.2,0-0.4,0-0.6,0c-0.2,0-0.3,0-0.4,0c-0.1,0-0.2,0-0.3,0c-0.7,0-1-0.3-1-1c0,0,0-0.1,0-0.2
		c0-0.1,0-0.4,0.1-0.9c0-0.3,0-0.5,0-0.8c0-0.2,0-0.5,0-0.7c0-0.2,0-0.4,0-0.8c0-0.4,0-0.8-0.1-1.3c0-0.3,0-0.6,0-0.8
		c0-0.2,0-0.4,0-0.6l0.1-4l-0.1-2.9c0-0.2,0-0.4,0-0.8c0-0.3,0-0.7,0-1.3v-0.8c0-0.1,0-0.2,0-0.3c0-0.1,0-0.2,0-0.3
		c0-0.2,0-0.3,0-0.4c0-0.1,0-0.2,0-0.3c0-0.4,0.1-0.8,0.4-1c0.3-0.2,0.7-0.3,1.2-0.3l2.1,0.1c0.1,0,0.3,0,0.6,0c0.3,0,0.7,0,1.2-0.1
		c0.2,0,0.4,0,0.6,0c0.2,0,0.3,0,0.5,0c0.4,0,0.8,0,1.2,0.1c0.4,0.1,0.8,0.1,1.2,0.2c0.4,0.1,0.7,0.2,1,0.3c0.3,0.1,0.5,0.2,0.7,0.4
		c0.3,0.2,0.5,0.4,0.7,0.6c0.2,0.2,0.3,0.4,0.5,0.6c0.1,0.2,0.2,0.4,0.4,0.7c0.1,0.3,0.2,0.6,0.4,1c0,0.1,0.1,0.2,0.1,0.3
		c0,0.1,0.1,0.2,0.1,0.4c0,0.2,0,0.4,0.1,0.6c0,0.3,0,0.6,0.1,1.1c0,0.3,0,0.6,0,0.8c0,0.2,0,0.3,0,0.4c0,0.1,0,0.2,0,0.2
		c0,0,0,0.1,0,0.1c0,0.5-0.1,1.1-0.3,1.8c-0.2,0.7-0.4,1.3-0.7,1.9c-0.1,0.2-0.2,0.3-0.2,0.4c-0.1,0.1-0.2,0.2-0.3,0.3
		c-0.1,0.1-0.2,0.2-0.4,0.3c-0.1,0.1-0.3,0.3-0.6,0.5c-0.1,0.1-0.2,0.2-0.2,0.3c0,0.1,0.1,0.3,0.2,0.6c0.1,0.3,0.3,0.7,0.6,1.1
		c0.1,0.2,0.2,0.3,0.3,0.4c0.1,0.1,0.1,0.2,0.1,0.3c0,0.1,0.1,0.2,0.1,0.4c0.1,0.1,0.1,0.4,0.3,0.6c0,0.1,0.1,0.3,0.2,0.5
		c0.1,0.2,0.2,0.4,0.4,0.7C135.2,70.3,135.4,70.7,135.4,70.9z M129.9,58.4c0-0.5-0.1-0.9-0.4-1.2c-0.3-0.3-0.6-0.5-1-0.5
		c-0.7,0-1,0.5-1,1.5v0.2c0,0.1,0,0.2,0,0.3c0,0.1,0,0.3,0,0.7v0.4c0,1,0.4,1.4,1.2,1.4c0.3,0,0.6-0.1,0.8-0.3
		c0.2-0.2,0.4-0.4,0.4-0.7c0-0.1,0-0.2,0-0.4c0-0.1,0-0.3,0-0.5c0-0.3,0-0.5,0-0.7C129.9,58.5,129.9,58.4,129.9,58.4z"/>
	<path class="st1" d="M142,53c0,0.1,0,0.3,0,0.5c0,0.2,0,0.5,0,0.7c0,0.1,0,0.4,0,0.7s0,0.8,0,1.2l0,0.6v0.6v0.6v2.3l-0.1,3
		c0,0.3,0,0.5,0,0.8c0,0.2,0,0.5,0,0.7c0,0.4,0,0.8,0,1c0,0.3,0,0.5,0,0.6c0,0.1,0,0.2,0,0.3c0,0.1,0,0.2,0,0.3c0,0.1,0,0.3,0,0.6
		c0,0.2,0,0.6,0,1v0.3c0,0.1,0,0.3,0,0.4c0,0.1,0,0.2,0,0.4c0.1,0.5,0.1,0.9,0.1,1.1c0,0.6-0.3,0.9-1,0.9c0,0,0,0-0.1,0
		c-0.1,0-0.3,0-0.4,0c-0.1,0-0.4,0-0.7,0c-0.1,0-0.2,0-0.3,0c-0.1,0-0.2,0-0.4,0c-0.1,0-0.3,0-0.4,0c-0.1,0-0.2,0-0.3,0
		c-0.1,0-0.2,0-0.2,0c-0.5,0-0.8-0.1-1-0.2c-0.2-0.1-0.3-0.4-0.3-0.8v-1.1c0-0.2,0-0.3,0-0.3c0-0.1,0-0.1,0-0.2c0-0.1,0-0.2,0-0.4
		c0-0.2,0-0.5,0-0.9c0-0.2,0-0.4,0-0.6c0-0.2,0-0.5,0-0.8v-0.8c0-0.2,0-0.4,0-0.5c0-0.1,0-0.3,0-0.4c0-0.1,0-0.3,0-0.5
		c0-0.2,0-0.5,0-0.9l0.1-2.2l0-1.4c0-0.1,0-0.3,0-0.6c0-0.3,0-0.6,0-1c0-0.2,0-0.3,0-0.4c0-0.1,0-0.2,0-0.3c0-0.1,0-0.3,0-0.5
		c0-0.2,0-0.5,0-0.8c0-0.6,0-0.9,0-1.1c0-0.2,0-0.3,0-0.3c0-0.4,0-0.7-0.1-0.8c0-0.2,0-0.3,0-0.4v-0.1v0c0-0.7,0.3-1,1-1
		c0.1,0,0.2,0,0.3,0c0.1,0,0.3,0,0.4,0c0.2,0,0.3,0,0.5,0c0.2,0,0.3,0,0.5,0c0.1,0,0.3,0,0.3,0c0.1,0,0.2,0,0.3,0c0.2,0,0.4,0,0.6,0
		c0.2,0,0.3,0,0.3,0C141.8,52.1,142,52.4,142,53z"/>
	<path class="st1" d="M156.8,62.5c0,1.2-0.2,2.4-0.6,3.6c-0.4,1.2-1,2.3-1.7,3.2c-1.1,1.5-2.6,2.2-4.5,2.2c-0.2,0-0.5,0-0.7,0
		c-0.2,0-0.5,0-0.7,0c-0.2,0-0.4,0-0.5,0c-0.1,0-0.3,0-0.4,0c-0.1,0-0.3,0-0.5,0c-0.2,0-0.5,0-0.8,0c-0.2,0-0.4,0-0.5,0
		c-0.2,0-0.3,0-0.4,0c-0.5,0-0.9-0.1-1.1-0.3c-0.2-0.2-0.3-0.5-0.3-1c0,0,0-0.2,0-0.4c0-0.2,0-0.4,0-0.6c0-0.1,0-0.1,0-0.1
		c0,0,0,0,0-0.1c0-0.1,0-0.3,0-0.6c0-0.3,0-0.8,0.1-1.4c0,0,0-0.2,0-0.6c0-0.4,0-0.9-0.1-1.4c0-0.2,0-0.4,0-0.6c0-0.2,0-0.4,0-0.6
		c0-0.2,0-0.4,0-0.6c0-0.2,0-0.3,0-0.5c0-0.4,0-0.8,0-1.1c0-0.3,0-0.5,0-0.5l-0.1-2.7c0-0.1,0-0.3,0-0.4c0-0.2,0-0.3,0-0.4l0.1-1.2
		l0-0.6v-0.4c0-0.2,0-0.3,0-0.4c0-0.2,0-0.3,0-0.5c0-0.2-0.1-0.3-0.1-0.5c0-0.1,0-0.3,0-0.4c0-1,0.4-1.5,1.3-1.5c0.1,0,0.2,0,0.3,0
		c0.1,0,0.2,0,0.4,0c0.2,0,0.3,0,0.5,0c0.2,0,0.4,0,0.6,0h0.5l0.6,0h0.6l0.6,0h0.4c0.6,0,1.1,0,1.5,0.1c0.4,0.1,0.8,0.2,1.2,0.3
		c0.4,0.2,0.7,0.4,1,0.7c0.3,0.3,0.7,0.6,1,1c0.5,0.6,0.8,1,1,1.3c0.2,0.3,0.4,0.6,0.5,1c0.1,0.4,0.2,0.8,0.3,1.3
		c0.1,0.5,0.2,1,0.2,1.6c0.1,0.5,0.1,1.1,0.2,1.6C156.8,61.6,156.8,62.1,156.8,62.5z M151.6,61.9c0-0.3,0-0.7-0.1-1.2
		c0-0.5-0.1-1-0.2-1.4c-0.2-1.7-0.8-2.5-1.6-2.5c-0.6,0-1,0.5-1,1.5c0,0,0,0,0,0.1c0,0,0,0.1,0,0.1c0,0.1,0,0.2,0,0.3
		c0,0.2,0,0.4,0,0.7v0.7v0.2v0.1c0,0.4,0,0.7,0,0.9c0,0.2,0,0.3,0,0.5c0,0.1,0,0.2,0,0.2c0,0,0,0.1,0,0.2c0,0.2,0,0.4,0,0.6
		c0,0.1,0,0.2,0,0.3l0.1,1l0,1.8c0,0.3,0.1,0.6,0.3,0.8c0.2,0.2,0.4,0.3,0.7,0.3c0.3,0,0.6-0.1,0.8-0.3c0.2-0.2,0.4-0.5,0.5-0.9
		c0-0.1,0.1-0.3,0.1-0.5c0-0.2,0.1-0.6,0.2-1.2c0.1-0.5,0.1-1,0.2-1.4C151.6,62.3,151.6,62,151.6,61.9z"/>
	<path class="st1" d="M168.5,69.3l0,1.1c0,0.4-0.1,0.8-0.3,0.9c-0.2,0.2-0.7,0.2-1.2,0.2h-0.5h-1.1l-0.4,0h-0.4h-0.4h-0.6
		c-0.4,0-0.6,0-0.8,0c-0.1,0-0.2,0-0.3,0c-0.1,0-0.2,0-0.3,0c-0.1,0-0.3,0-0.6,0h-1.2c-0.2,0-0.4,0-0.6,0c-0.2,0-0.3,0-0.3,0
		c-0.8,0-1.2-0.4-1.2-1.2l0.1-1.3l0-1.9l0.1-1.7l-0.1-1.9l0-1.6l-0.1-2.6l0.1-2.7c0-0.3,0-0.6,0-0.8c0-0.3,0-0.6-0.1-1
		c0-0.3,0-0.5,0-0.8c0-0.3,0-0.5,0-0.6c0-0.5,0.1-0.9,0.4-1.1c0.2-0.2,0.6-0.3,1.2-0.3c0.1,0,0.2,0,0.3,0c0.1,0,0.2,0,0.3,0
		c0.3,0,0.5,0.1,0.7,0.1c0.2,0,0.3,0,0.3,0l1.8-0.1l1.7,0.1l0.6,0c0.4,0,0.7,0,0.9,0c0.2,0,0.3,0,0.4,0c0.1,0,0.2,0,0.2,0
		c0,0,0.1,0,0.2,0c0.4,0,0.8,0.1,0.9,0.2c0.2,0.1,0.3,0.4,0.2,0.7l-0.1,1.3l0,1c0,0.3,0,0.6-0.2,0.8c-0.1,0.2-0.3,0.3-0.5,0.3h-0.2
		l-0.2,0c-0.1,0-0.1,0-0.1,0c0,0,0,0-0.1,0c0,0-0.1,0-0.2,0c-0.1,0-0.3,0-0.6,0h-0.3c-0.1,0-0.2,0-0.3,0c-0.1,0-0.3,0-0.7,0h-0.1
		c-0.6,0-1,0.1-1.3,0.3c-0.2,0.2-0.3,0.5-0.3,1.1c0,0.5,0.1,0.9,0.3,1.2c0.2,0.3,0.4,0.4,0.8,0.3l0.8-0.1l1.1,0.1c0,0,0.1,0,0.2,0
		c0.1,0,0.2,0,0.4,0c0.1,0,0.1,0,0.2,0c0.1,0,0.1,0,0.2,0c0.7,0,1,0.3,1,0.9c0,0,0,0.1,0,0.2s0,0.2,0,0.2c0,0.2,0,0.3,0,0.4
		c0,0.1,0,0.2,0,0.3l0.1,1.4c0,0.7-0.3,1.1-1,1l-2.4-0.1c-0.3,0-0.5,0-0.7,0.1c-0.2,0-0.3,0.2-0.4,0.3c-0.1,0.2-0.2,0.4-0.2,0.7
		c0,0.3,0,0.7,0,1.2c0,0.4,0.1,0.7,0.3,0.8c0.2,0.1,0.6,0.2,1.2,0.2c0.1,0,0.1,0,0.2,0c0.1,0,0.1,0,0.2,0c0.1,0,0.2,0,0.3,0
		c0.1,0,0.4,0,0.7,0.1h0.2c0.1,0,0.2,0,0.2,0c0.1,0,0.1,0,0.2,0c0.2,0,0.3,0,0.4,0c0.1,0,0.2,0,0.3,0c0.3,0,0.5,0.1,0.7,0.3
		c0.2,0.2,0.3,0.4,0.3,0.7L168.5,69.3z"/>
	<path class="st1" d="M180,66c0,3.8-2.1,5.7-6.4,5.7c-1.5,0-2.6-0.1-3.3-0.4c-0.7-0.2-1-0.6-1-1.1c0,0,0-0.1,0-0.2
		c0-0.1,0-0.2,0-0.3c0-0.2,0-0.4,0-0.5s0-0.3,0-0.6l0-1.4c0-0.8,0.3-1.2,1-1.2c0.3,0,0.5,0,0.6,0.1c0.1,0.1,0.4,0.2,0.7,0.5
		c0.1,0.1,0.4,0.2,0.7,0.3c0.3,0.1,0.6,0.1,0.9,0.1c1,0,1.5-0.4,1.5-1.1c0-0.2-0.1-0.5-0.3-0.7c-0.2-0.3-0.5-0.6-0.9-1
		c-0.2-0.2-0.4-0.4-0.5-0.4c-0.1-0.1-0.2-0.1-0.2-0.2c-0.1,0-0.1-0.1-0.2-0.2c-0.1-0.1-0.2-0.2-0.4-0.4c-0.1-0.1-0.1-0.1-0.2-0.1
		c0,0-0.1-0.1-0.1-0.1c0,0-0.1-0.1-0.2-0.2c-0.1-0.1-0.3-0.3-0.6-0.6c-0.3-0.3-0.6-0.7-0.9-1c-0.2-0.3-0.4-0.6-0.6-1
		c-0.1-0.3-0.2-0.7-0.3-1.2c-0.1-0.4-0.1-0.9-0.1-1.5c0-2.4,0.8-4.1,2.5-5c0.5-0.3,1-0.4,1.6-0.5c0.6-0.1,1.5-0.1,2.6-0.1
		c0.6,0,1.1,0,1.4,0.1c0.4,0,0.7,0.1,0.9,0.2c0.2,0.1,0.4,0.2,0.4,0.4c0.1,0.2,0.1,0.4,0.1,0.6l0,1.5l0,1.3c0,0.7-0.3,1.1-1,1.1
		c-0.1,0-0.1,0-0.2,0c0,0-0.1,0-0.2,0c-0.1,0-0.2-0.1-0.4-0.1c-0.2,0-0.4-0.1-0.6-0.2c-0.2-0.1-0.4-0.1-0.8-0.1
		c-0.4,0-0.7,0.1-1,0.3c-0.2,0.2-0.3,0.4-0.3,0.8c0,0.2,0,0.3,0,0.4c0,0.1,0.1,0.2,0.2,0.4c0.1,0.1,0.2,0.3,0.4,0.5
		c0.2,0.2,0.4,0.4,0.8,0.7l0.3,0.3l0.4,0.3c0.1,0.1,0.2,0.2,0.3,0.3c0.1,0.1,0.2,0.2,0.2,0.2l0.1,0.1l0.3,0.3l0.4,0.3l0.3,0.3
		c0.6,0.5,1,1.2,1.3,1.9C179.9,64.3,180,65.1,180,66z"/>
</g>
<g>
	<path class="st1" d="M13.2,69.2c0,0.4,0,0.6,0,0.8c0,0.2,0,0.2,0,0.3c0,0,0,0.1,0,0.1c-0.1,0.4-0.5,0.8-1.1,1
		c-0.7,0.2-1.7,0.3-3,0.3c-0.6,0-1.1,0-1.5,0c-0.4,0-0.8-0.1-1.1-0.1c-0.3,0-0.6-0.1-0.9-0.2c-0.3-0.1-0.6-0.2-0.9-0.3
		c-0.3-0.1-0.6-0.2-0.8-0.3c-0.2-0.1-0.4-0.2-0.5-0.3c-0.2-0.1-0.3-0.3-0.5-0.4c-0.1-0.2-0.3-0.4-0.6-0.7c-0.3-0.4-0.5-0.7-0.7-1
		C1.3,68,1.1,67.8,1,67.5c-0.1-0.3-0.2-0.5-0.3-0.8c-0.1-0.3-0.2-0.6-0.2-0.9c-0.1-0.6-0.2-1.3-0.3-2C0,63,0,62.4,0,61.8
		c0-0.2,0-0.3,0-0.4s0-0.2,0-0.3c0-0.1,0-0.2,0.1-0.4c0-0.2,0.1-0.4,0.1-0.7c0-0.1,0-0.2,0-0.2c0,0,0-0.1,0-0.1c0-0.1,0-0.1,0-0.2
		c0-0.1,0-0.3,0.1-0.5c0.1-1,0.4-2,0.9-2.9c0.5-0.9,1.2-1.7,2-2.4c0.4-0.3,0.9-0.6,1.3-0.9c0.4-0.2,0.9-0.4,1.5-0.5
		C6.6,52.1,7.3,52,8,51.9c0.7-0.1,1.6-0.1,2.6-0.1c0.4,0,0.7,0,1,0c0.3,0,0.4,0.1,0.6,0.1c0.1,0.1,0.2,0.2,0.3,0.3
		c0,0.1,0.1,0.3,0.1,0.5l-0.1,1.1c0,0,0,0.1,0,0.3c0,0.2,0,0.4,0,0.7v0.4c0,0.7-0.1,1.2-0.2,1.4c-0.2,0.3-0.4,0.4-0.8,0.4
		c-0.1,0-0.1,0-0.1,0c0,0-0.1,0-0.1,0c0,0-0.1-0.1-0.2-0.1c-0.1,0-0.2-0.1-0.4-0.2c-0.1-0.1-0.2-0.1-0.3-0.1c-0.1,0-0.4,0-0.8,0
		c-0.3,0-0.5,0-0.6,0c-0.1,0-0.2,0-0.2,0c-1.4,0-2.4,0.6-2.8,1.7c0,0.1,0,0.1,0,0.1c0,0,0,0,0,0.1c0,0,0,0.1,0,0.1
		c0,0.1,0,0.2-0.1,0.3l-0.1,0.3c0,0.2-0.1,0.3-0.1,0.3l-0.1,0.3c-0.1,0.5-0.2,0.8-0.2,1.1c0,0.2,0,0.5,0,0.9c0,0.5,0,0.8,0,1.1
		c0,0.3,0.1,0.6,0.1,0.8c0,0.3,0.1,0.5,0.2,0.8c0.1,0.3,0.2,0.6,0.4,1c0.2,0.5,0.5,0.9,0.7,1.1C7,67,7.4,67.1,7.8,67.1
		c0.4,0,0.7-0.1,0.8-0.2c0.2-0.1,0.2-0.3,0.2-0.6c0,0,0-0.1,0-0.2c0-0.1,0-0.2,0-0.3v-0.4c0-0.1,0-0.2,0-0.2c0-0.1,0-0.2,0-0.3v-0.3
		c0-0.3-0.1-0.5-0.3-0.7c-0.2-0.2-0.4-0.3-0.6-0.3c-0.1,0-0.2,0-0.3,0.1c-0.1,0-0.1,0-0.2,0c-0.2,0-0.3-0.1-0.5-0.2
		c-0.1-0.1-0.2-0.3-0.2-0.5c0,0,0-0.1,0-0.2c0-0.1,0-0.2,0-0.3c0-0.1,0-0.3,0-0.5c0-0.2,0-0.4,0-0.6c0-0.7,0-1.1,0-1.3
		c0-0.2,0.1-0.4,0.1-0.5c0.1-0.1,0.2-0.2,0.4-0.3c0.2-0.1,0.4-0.1,0.5-0.1l1.1,0.1c0,0,0.1,0,0.3,0c0.2,0,0.4,0,0.7,0h0.8
		c0.1,0,0.2,0,0.3,0c0.1,0,0.1,0,0.1,0c0,0,0.1,0,0.1,0c0,0,0.1,0,0.2,0l0.5-0.1c0.8,0,1.2,0.4,1.2,1.3c0,0,0,0.1,0,0.2
		c0,0.1,0,0.2,0,0.3c0,0.2,0,0.4,0,0.6c0,0.1,0,0.3,0,0.4l0,1.7l-0.1,1.4c0,0,0,0.1,0,0.3c0,0.2,0,0.4,0,0.7c0,0.2,0,0.4,0,0.6
		c0,0.2,0,0.3,0,0.6v0.5C13.2,68.3,13.2,68.8,13.2,69.2z"/>
	<path class="st1" d="M20.1,52.9c0,0.1,0,0.3,0,0.5c0,0.2,0,0.5,0,0.7c0,0.1,0,0.4,0,0.7c0,0.3,0,0.7,0,1.2l0,0.6v0.6v0.6v2.3
		l-0.1,3c0,0.3,0,0.5,0,0.8c0,0.2,0,0.5,0,0.7c0,0.4,0,0.8,0,1c0,0.3,0,0.5,0,0.5c0,0.1,0,0.2,0,0.3c0,0.1,0,0.2,0,0.3
		c0,0.1,0,0.3,0,0.6c0,0.2,0,0.6,0,1v0.3c0,0.1,0,0.3,0,0.4c0,0.1,0,0.2,0,0.4C20,70,20,70.3,20,70.6c0,0.6-0.3,0.9-1,0.9
		c0,0,0,0-0.1,0c-0.1,0-0.3,0-0.4,0c-0.1,0-0.4,0-0.7,0c-0.1,0-0.2,0-0.3,0c-0.1,0-0.2,0-0.3,0c-0.1,0-0.3,0-0.4,0
		c-0.1,0-0.2,0-0.3,0c-0.1,0-0.2,0-0.2,0c-0.5,0-0.8-0.1-1-0.2c-0.2-0.1-0.3-0.4-0.3-0.8v-1.1c0-0.2,0-0.3,0-0.3c0-0.1,0-0.1,0-0.2
		c0-0.1,0-0.2,0-0.4c0-0.2,0-0.5,0-0.9c0-0.2,0-0.4,0-0.6c0-0.2,0-0.5,0-0.8v-0.8c0-0.2,0-0.4,0-0.5c0-0.1,0-0.3,0-0.4
		c0-0.1,0-0.3,0-0.5c0-0.2,0-0.5,0-0.9l0.1-2.2l0-1.4c0-0.1,0-0.3,0-0.6c0-0.3,0-0.6,0-1c0-0.2,0-0.3,0-0.4c0-0.1,0-0.2,0-0.3
		c0-0.1,0-0.3,0-0.5c0-0.2,0-0.5,0-0.8c0-0.6,0-0.9,0-1.1c0-0.2,0-0.3,0-0.3c0-0.4,0-0.7-0.1-0.8c0-0.2,0-0.3,0-0.4v-0.1v0
		c0-0.7,0.3-1,1-1c0.1,0,0.2,0,0.3,0c0.1,0,0.3,0,0.4,0c0.2,0,0.3,0,0.5,0c0.2,0,0.3,0,0.5,0c0.1,0,0.3,0,0.3,0c0.1,0,0.2,0,0.3,0
		c0.2,0,0.4,0,0.6,0c0.2,0,0.3,0,0.3,0C19.9,52.1,20.1,52.4,20.1,52.9z"/>
	<path class="st1" d="M34.9,70.9c0,0.4-0.3,0.6-0.9,0.6c0,0-0.1,0-0.2,0c-0.1,0-0.2,0-0.3,0c-0.2,0-0.4,0-0.6,0c-0.2,0-0.3,0-0.4,0
		c-0.1,0-0.2,0-0.4,0c-0.1,0-0.3,0-0.5,0c-0.2,0-0.4,0-0.6,0c-0.2,0-0.4,0-0.5,0c-0.3,0-0.5-0.1-0.6-0.2c-0.1-0.1-0.3-0.4-0.4-0.8
		c-0.1-0.3-0.2-0.5-0.3-0.8c-0.1-0.3-0.3-0.6-0.4-0.8c-0.1-0.2-0.2-0.3-0.2-0.4c0-0.1-0.1-0.1-0.1-0.2c0,0,0-0.1-0.1-0.2
		c0-0.1-0.1-0.2-0.1-0.3c-0.2-0.5-0.4-0.9-0.5-1c-0.1-0.2-0.3-0.3-0.4-0.3c-0.3,0-0.4,0.2-0.4,0.7c0,0.1,0,0.2,0,0.3
		c0,0.1,0,0.2,0,0.3c0,0.2,0,0.4,0,0.5c0,0.1,0,0.2,0,0.2L27,69.8c0,0,0,0.1,0,0.2c0,0.1,0,0.2,0,0.4c0,0.1,0,0.2,0,0.3
		c0,0.1,0,0.1,0,0.2c0,0.5-0.2,0.7-0.7,0.7c0,0-0.1,0-0.2,0c-0.1,0-0.2,0-0.3,0c-0.2,0-0.4,0-0.5,0c-0.2,0-0.3,0-0.4,0
		c-0.2,0-0.3,0-0.5,0c-0.2,0-0.4,0-0.6,0c-0.2,0-0.3,0-0.4,0c-0.1,0-0.2,0-0.3,0c-0.7,0-1-0.3-1-1c0,0,0-0.1,0-0.2
		c0-0.1,0-0.4,0.1-0.9c0-0.3,0-0.5,0-0.8c0-0.2,0-0.5,0-0.7c0-0.2,0-0.4,0-0.8c0-0.4,0-0.8-0.1-1.3c0-0.3,0-0.6,0-0.8
		c0-0.2,0-0.4,0-0.6l0.1-3.9l-0.1-2.9c0-0.2,0-0.4,0-0.8c0-0.3,0-0.7,0-1.2v-0.8c0-0.1,0-0.2,0-0.3c0-0.1,0-0.2,0-0.3
		c0-0.2,0-0.3,0-0.4c0-0.1,0-0.2,0-0.3c0-0.4,0.1-0.8,0.4-1c0.3-0.2,0.7-0.3,1.2-0.3l2.1,0.1c0.1,0,0.3,0,0.6,0c0.3,0,0.7,0,1.1-0.1
		c0.2,0,0.4,0,0.6,0c0.2,0,0.3,0,0.5,0c0.4,0,0.8,0,1.2,0.1c0.4,0.1,0.8,0.1,1.2,0.2c0.4,0.1,0.7,0.2,1,0.3c0.3,0.1,0.5,0.2,0.7,0.4
		c0.3,0.2,0.5,0.4,0.7,0.6c0.2,0.2,0.3,0.4,0.5,0.6c0.1,0.2,0.2,0.4,0.4,0.7c0.1,0.3,0.2,0.6,0.4,1c0,0.1,0.1,0.2,0.1,0.3
		c0,0.1,0.1,0.2,0.1,0.4c0,0.2,0,0.4,0.1,0.6c0,0.3,0,0.6,0.1,1.1c0,0.3,0,0.6,0,0.8c0,0.2,0,0.3,0,0.4c0,0.1,0,0.1,0,0.2
		c0,0,0,0.1,0,0.1c0,0.5-0.1,1.1-0.3,1.8c-0.2,0.7-0.4,1.3-0.7,1.9c-0.1,0.2-0.2,0.3-0.2,0.4c-0.1,0.1-0.2,0.2-0.3,0.3
		c-0.1,0.1-0.2,0.2-0.4,0.3c-0.1,0.1-0.3,0.3-0.6,0.4c-0.1,0.1-0.2,0.2-0.2,0.3c0,0.1,0.1,0.3,0.2,0.6c0.1,0.3,0.3,0.7,0.6,1.1
		c0.1,0.2,0.2,0.3,0.3,0.4c0.1,0.1,0.1,0.2,0.1,0.3c0,0.1,0.1,0.2,0.1,0.4c0.1,0.1,0.1,0.4,0.3,0.6c0,0.1,0.1,0.3,0.2,0.5
		c0.1,0.2,0.2,0.4,0.4,0.7C34.8,70.2,34.9,70.6,34.9,70.9z M29.5,58.3c0-0.5-0.1-0.9-0.4-1.2c-0.3-0.3-0.6-0.5-1-0.5
		c-0.7,0-1,0.5-1,1.5v0.2c0,0.1,0,0.2,0,0.3c0,0.1,0,0.3,0,0.7v0.3c0,0.9,0.4,1.4,1.2,1.4c0.3,0,0.6-0.1,0.8-0.3
		c0.2-0.2,0.4-0.4,0.4-0.7c0-0.1,0-0.2,0-0.3c0-0.1,0-0.3,0-0.5c0-0.3,0-0.5,0-0.7C29.5,58.5,29.5,58.4,29.5,58.3z"/>
	<path class="st1" d="M45.8,68.7c0,0.1,0,0.1,0,0.1c0,0,0,0.1,0,0.2c0,0.1,0,0.2,0,0.4c0,0.2,0,0.5,0,1c0,0.4-0.1,0.7-0.2,0.8
		c-0.1,0.1-0.4,0.2-0.8,0.2c0,0-0.1,0-0.2,0s-0.2,0-0.2,0c-0.2,0-0.4,0-0.6,0c-0.1,0-0.2,0-0.2,0l-0.9,0.1h-1.1h-1.1l-1.5,0
		c-0.2,0-0.3,0-0.4,0c-0.1,0-0.2,0-0.3,0c-0.2,0-0.4,0-0.6,0c-0.2,0-0.3,0-0.3,0c-0.7,0-1.1-0.5-1.1-1.4c0-0.1,0-0.3,0-0.5
		c0-0.2,0-0.4,0-0.6c0-0.4,0-0.7,0.1-0.9c0-0.2,0-0.4,0-0.4l0-0.4c0-0.3,0-0.5,0-0.6c0-0.1,0-0.2,0-0.3c0-0.1,0-0.1,0-0.1
		c0-0.1,0-0.2,0-0.3v-0.3v-0.4l0-0.4v-0.4c0-0.1,0-0.2,0-0.4c0-0.2,0-0.4,0.1-0.7c0-0.3,0-0.4,0-0.6c0-0.1,0-0.3,0-0.4l-0.1-1.6
		l0-1.4l0-1.9l0-2.2v-1c0-0.2,0-0.4,0-0.5c0-0.1,0-0.3,0-0.5c0-0.3,0.1-0.6,0.2-0.8c0.2-0.2,0.4-0.2,0.8-0.2c0.1,0,0.3,0,0.3,0
		c0.3,0,0.5,0.1,0.7,0.1c0.2,0,0.3,0,0.3,0c0.1,0,0.3,0,0.4,0c0.1,0,0.3,0,0.5-0.1c0.2,0,0.3,0,0.4,0c0.1,0,0.3,0,0.4,0
		c0.3,0,0.5,0.1,0.7,0.2c0.2,0.2,0.3,0.4,0.3,0.6c0,0,0,0.1,0,0.2c0,0.1,0,0.2,0,0.3c0,0.4-0.1,0.8-0.1,1.2c0,0.4,0,0.7,0,1
		c0,0.1,0,0.1,0,0.1c0,0,0,0.1,0,0.2c0,0.1,0,0.3,0,0.6c0,0.3,0,0.7,0,1.2l-0.1,1.8l0.1,1.4l0,2l0.1,1.6l0,0.8
		c0,0.4,0.1,0.8,0.4,1.1c0.3,0.3,0.6,0.4,1,0.4l0.5,0l0.7,0l0.9,0c0.4,0,0.7,0.1,0.9,0.4C45.8,67.3,45.8,67.9,45.8,68.7z"/>
	<path class="st1" d="M57.2,65.9c0,3.8-2.1,5.7-6.4,5.7c-1.5,0-2.6-0.1-3.3-0.3c-0.7-0.2-1-0.6-1-1.1c0,0,0-0.1,0-0.2
		c0-0.1,0-0.2,0-0.3c0-0.2,0-0.4,0-0.5s0-0.3,0-0.6l0-1.4c0-0.8,0.3-1.2,1-1.2c0.3,0,0.5,0,0.6,0.1c0.1,0.1,0.4,0.2,0.7,0.5
		c0.1,0.1,0.4,0.2,0.7,0.3c0.3,0.1,0.6,0.1,0.9,0.1c1,0,1.5-0.4,1.5-1.1c0-0.2-0.1-0.5-0.3-0.7c-0.2-0.3-0.5-0.6-0.9-1
		c-0.2-0.2-0.4-0.4-0.5-0.4c-0.1-0.1-0.2-0.1-0.2-0.2c-0.1,0-0.1-0.1-0.2-0.2c-0.1-0.1-0.2-0.2-0.3-0.3C49.5,63,49.5,63,49.4,63
		c0,0-0.1-0.1-0.1-0.1c0,0-0.1-0.1-0.2-0.2c-0.1-0.1-0.3-0.3-0.6-0.6c-0.3-0.3-0.6-0.6-0.9-1c-0.2-0.3-0.4-0.6-0.6-1
		c-0.1-0.3-0.2-0.7-0.3-1.2c-0.1-0.4-0.1-0.9-0.1-1.5c0-2.4,0.8-4.1,2.5-4.9c0.5-0.3,1-0.4,1.6-0.5c0.6-0.1,1.5-0.1,2.6-0.1
		c0.6,0,1.1,0,1.4,0.1c0.4,0,0.7,0.1,0.9,0.2c0.2,0.1,0.4,0.2,0.4,0.4c0.1,0.2,0.1,0.3,0.1,0.6l0,1.5l0,1.3c0,0.7-0.3,1.1-1,1.1
		c-0.1,0-0.1,0-0.2,0c0,0-0.1,0-0.2,0c-0.1,0-0.2-0.1-0.4-0.1c-0.2,0-0.4-0.1-0.6-0.2c-0.2-0.1-0.4-0.1-0.8-0.1
		c-0.4,0-0.7,0.1-1,0.3c-0.2,0.2-0.3,0.4-0.3,0.8c0,0.2,0,0.3,0,0.4c0,0.1,0.1,0.2,0.2,0.4c0.1,0.1,0.2,0.3,0.4,0.5
		c0.2,0.2,0.4,0.4,0.8,0.7l0.3,0.3l0.3,0.3c0.1,0.1,0.2,0.2,0.3,0.3c0.1,0.1,0.2,0.2,0.2,0.2l0.1,0.1l0.3,0.3l0.4,0.3l0.3,0.3
		c0.6,0.5,1,1.2,1.3,1.9C57.1,64.2,57.2,65,57.2,65.9z"/>
</g>
<path class="st2" d="M108.8,8.1C108.8,8,108.8,8,108.8,8.1c0.1-0.1,0.2-0.2,0.4-0.3c0.4-0.1,0.8-0.6,1.1-0.8
	c0.2-0.2,0.1-0.2-0.2-0.4c-0.3-0.2-0.4-0.3-0.6-0.4c-0.1-0.1-0.4,0.1-0.8,1c0.1-3.2-2-6.1-5.2-6.9C100.3-0.6,96.9,1,95.5,4
	c0.2-1.1,0-1.6-0.1-1.6c-0.2,0.1-0.4,0.1-0.7,0.1c-0.3,0-0.4,0-0.3,0.3c0.1,0.3,0.3,0.9,0.5,1.2c0.1,0.2,0.2,0.3,0.3,0.5
	c0,0-0.1,0-0.1,0c-0.4-0.6-0.7-0.7-1.4-0.9c-0.9-0.2-1.2-0.2-1.4-0.3c0.3,0.4,0.7,0.5,0.7,0.5c-0.5,0.1-0.7,0.5-0.7,0.5
	c0.9-0.2,1.5-0.2,1.9,0c0.1,0,0.2,0.1,0.3,0.2c-0.7,0.1-1.4,0.4-1.5,1.1c0,0.1,0,0.1,0,0.1c-0.7,0.2-1.6,0.8-1.5,1.6
	c0,0.2,0.1,0.3,0.1,0.4c-0.5,0.5-1,1.4-0.5,2c0.1,0.2,0.2,0.3,0.3,0.3c0,0.1,0.1,0.2,0.1,0.2c0,0,0.2,0.3,0.6,0.3
	c0.8,0.1,1.4-0.6,1.7-1.2c0.1,0,0.2,0.1,0.6,0C94.7,9.1,94.9,9,95,8.7c0.6,2.4,2.4,4.4,5,5c2.5,0.7,5-0.1,6.7-1.8
	c0,0.2,0.1,0.5,0.3,0.6c0.3,0.3,0.5,0.3,0.5,0.3c-0.1,0.7,0.2,1.6,0.9,1.9c0.3,0.1,0.7,0,0.7,0c0.1,0,0.1-0.1,0.2-0.1
	c0.1,0,0.2-0.1,0.4-0.1c0.7-0.3,0.8-1.3,0.6-2c0.1-0.1,0.2-0.1,0.3-0.3c0.5-0.6,0.1-1.6-0.5-2.1c0,0,0-0.1,0.1-0.1
	c0.3-0.6-0.2-1.3-0.8-1.7c0.1,0,0.2,0,0.3,0c0.4,0,1,0.3,1.7,0.9c0,0,0.1-0.4-0.3-0.7c0,0,0.3,0.1,0.8-0.1c-0.2,0-0.5-0.2-1.4-0.4
	C109.8,7.8,109.5,7.8,108.8,8.1z M93.3,8.6c-0.2,0-0.4-0.1-0.6-0.1c-0.1-0.2-0.1-0.4-0.2-0.6c0.5-0.1,1-0.4,1-1.6
	c0.2,0.1,0.4,0.1,0.6,0.1c0.1,0.2,0.2,0.4,0.4,0.6C93.3,7.4,93.2,8.1,93.3,8.6z M109.3,12.4c-0.2,0.1-0.4,0.2-0.5,0.4
	c-0.2-0.1-0.3-0.2-0.6-0.2c0.4-0.4,0.6-1-0.2-1.9c0.2,0,0.4-0.1,0.6-0.3c0.2,0.1,0.4,0.2,0.6,0.2C108.6,11.6,108.9,12.1,109.3,12.4z
	"/>
<path class="st1" d="M50.5,7.6c-0.5-0.4-1.1-0.7-1.7-1c0,0,0,0,0-0.1C49,6.3,48.8,6,48.6,6c-0.3-0.1-0.5,0.1-0.6,0.3c0,0,0,0,0,0
	c0,0,0,0-0.1,0c0.1-0.3-0.1-0.5-0.3-0.6c-0.3-0.1-0.5,0.1-0.6,0.3c0,0,0,0,0,0.1c0,0-0.1,0-0.1,0c0-0.2-0.1-0.4-0.3-0.5
	C46.3,5.6,46.1,5.7,46,6c0,0,0,0.1,0,0.1c0,0-0.1,0-0.1,0c0-0.2-0.1-0.4-0.3-0.4C45.3,5.6,45.1,5.8,45,6c0,0.1,0,0.1,0,0.2
	c0,0-0.1,0-0.1,0c0-0.2-0.2-0.3-0.3-0.4C44.3,5.8,44.1,6,44,6.2c0,0.1,0,0.2,0,0.3c0,0-0.1,0-0.1,0c-0.1-0.1-0.2-0.2-0.3-0.3
	c-0.3-0.1-0.5,0.1-0.6,0.3c0,0.1,0,0.2,0,0.3C43,6.9,43,7,42.9,7c-0.1-0.1-0.2-0.2-0.3-0.2c-0.3-0.1-0.5,0.1-0.6,0.3
	c0,0.1,0,0.3,0.1,0.4c0,0-0.1,0.1-0.1,0.1c-0.1-0.1-0.1-0.1-0.2-0.1c-0.3-0.1-0.5,0.1-0.6,0.3c0,0.2,0,0.3,0.1,0.4c0,0,0,0-0.1,0.1
	c0,0-0.1-0.1-0.2-0.1c-0.3-0.1-0.5,0.1-0.6,0.3c0,0.2,0,0.3,0.1,0.4c0,0,0,0.1-0.1,0.1c0,0,0,0-0.1,0C40.4,9,40.1,9.1,40,9.4
	c0,0.2,0,0.4,0.2,0.5c0,0,0,0.1,0,0.1c-0.2,0-0.5,0.1-0.5,0.3c0,0.2,0,0.4,0.2,0.5c0,0,0,0.1,0,0.1c-0.2,0-0.5,0.1-0.5,0.3
	c-0.1,0.2,0.1,0.5,0.3,0.6c0,0,0,0.1,0,0.1c0,0,0,0,0,0c-0.1-0.2-0.4-0.2-0.5,0c0,0,0,0,0,0c0,0,0,0-0.1,0c-0.1,0-0.1,0.1-0.1,0.2
	c0,0-0.1,0-0.1,0c-0.1,0-0.2,0-0.3,0.1c-0.1,0.1-0.2,0.1-0.2,0.2c-0.1,0-0.3,0-0.4,0.1c-0.1,0.1-0.2,0.2-0.2,0.3
	c-0.1,0-0.2,0.1-0.4,0.2c-0.1,0.1-0.1,0.2-0.1,0.3c-0.1,0-0.2,0.1-0.3,0.2c-0.1,0.1-0.1,0.2-0.1,0.3c-0.1,0-0.2,0.1-0.3,0.3
	c-0.1,0.1-0.1,0.3-0.1,0.4c-0.1,0-0.2,0.2-0.3,0.3c0,0.1,0,0.1,0,0.2c-0.1,0.1-0.2,0.2-0.2,0.3c0,0.1,0,0.2,0,0.3
	c-0.1,0.1-0.2,0.2-0.2,0.3c0,0.1,0,0.2,0,0.3c-0.1,0-0.2,0.1-0.3,0.2c-0.1,0.1-0.1,0.2-0.1,0.3c-0.1,0-0.2,0.1-0.3,0.2
	c-0.1,0.1-0.1,0.2-0.1,0.3c-0.1,0-0.2,0.1-0.3,0.2c-0.1,0.1-0.1,0.2-0.1,0.2c-0.1,0-0.2,0-0.3,0.1c-0.1,0.1-0.1,0.2-0.2,0.2
	c-0.1-0.1-0.3-0.1-0.4,0c-0.2,0.1-0.2,0.4,0,0.5c0.1,0.2,0.4,0.2,0.5,0c0.1-0.1,0.1-0.2,0.1-0.2c0.1,0,0.2,0,0.3-0.1
	c0.1-0.1,0.2-0.2,0.2-0.3c0.1,0,0.2-0.1,0.4-0.2c0.1-0.1,0.2-0.2,0.2-0.3c0.1,0,0.2-0.1,0.3-0.2c0.1-0.1,0.1-0.2,0.1-0.3
	c0.1,0,0.2-0.1,0.3-0.3c0.1-0.1,0.1-0.2,0.1-0.3c0.1,0,0.2-0.2,0.3-0.3c0.1-0.1,0.1-0.3,0-0.4c0.1-0.1,0.2-0.2,0.2-0.3
	c0-0.1,0-0.1,0-0.2c0,0,0.1-0.1,0.1-0.1c0,0.1,0,0.1,0,0.2c-0.1,0.1-0.1,0.2-0.1,0.3c0,0.1,0,0.2,0.1,0.3c-0.1,0.1-0.2,0.2-0.2,0.3
	c0,0.1,0,0.2,0,0.3c-0.1,0.1-0.2,0.1-0.2,0.3c0,0.1-0.1,0.2,0,0.3c-0.1,0-0.2,0.1-0.3,0.3c-0.1,0.1-0.1,0.2-0.1,0.3
	c-0.1,0-0.2,0.1-0.3,0.2c-0.1,0.1-0.1,0.2-0.1,0.3c-0.1,0-0.2,0.1-0.3,0.2c-0.1,0.1-0.1,0.2-0.2,0.3c-0.1-0.1-0.3,0-0.4,0.1
	c-0.1,0.2-0.1,0.4,0,0.5c0,0,0,0,0.1,0c0,0.1,0,0.1,0.1,0.2c0.1,0.1,0.4,0.2,0.5,0c0.1-0.1,0.1-0.2,0.1-0.3c0.1,0,0.2,0,0.3-0.1
	c0.1-0.1,0.2-0.2,0.2-0.3c0.1,0,0.2-0.1,0.4-0.2c0.1-0.1,0.1-0.2,0.1-0.3c0.1,0,0.2-0.1,0.3-0.2c0.1-0.1,0.1-0.2,0.1-0.3
	c0.1,0,0.1-0.1,0.2-0.1c0,0,0,0.1,0,0.1c-0.1,0.1-0.2,0.2-0.2,0.3c0,0.1-0.1,0.2,0,0.3c-0.1,0-0.2,0.1-0.3,0.2
	c-0.1,0.1-0.1,0.2-0.1,0.3c-0.1,0-0.2,0.1-0.3,0.2c-0.1,0.1-0.1,0.2-0.1,0.3c-0.1,0-0.3,0-0.4,0.1c-0.1,0.2-0.1,0.4,0.1,0.5
	c0,0,0.1,0,0.2,0.1c0,0,0,0.1,0,0.1c-0.1-0.1-0.3,0-0.4,0.1c-0.1,0.2-0.1,0.4,0.1,0.5c0.2,0.1,0.4,0.1,0.5-0.1
	c0.1-0.1,0.1-0.2,0.1-0.3c0.1,0,0.2-0.1,0.3-0.2c0.1-0.1,0.1-0.2,0.2-0.3c0.1,0,0.2-0.1,0.3-0.2c0.1-0.1,0.1-0.2,0.1-0.4
	c0.1,0,0.2-0.1,0.3-0.3c0.1-0.1,0.1-0.2,0.1-0.3c0.1,0,0.2-0.2,0.3-0.3c0-0.1,0.1-0.2,0-0.3c0.1-0.1,0.2-0.2,0.2-0.3
	c0-0.1,0-0.3,0-0.4c0.1-0.1,0.2-0.2,0.2-0.4c0-0.1,0-0.1,0-0.2c0.1-0.1,0.1-0.2,0.1-0.3c0-0.1,0-0.2,0-0.3c0.1-0.1,0.2-0.2,0.2-0.3
	c0-0.1,0-0.2,0-0.3c0.1,0,0.2-0.1,0.3-0.3c0,0,0-0.1,0-0.1c0,0.1,0,0.2,0,0.3c-0.1,0.1-0.2,0.2-0.2,0.4c0,0.1,0,0.1,0,0.2
	c-0.1,0.1-0.1,0.2-0.1,0.4c0,0.1,0.1,0.2,0.1,0.3c-0.1,0.1-0.1,0.2-0.1,0.3c0,0.1,0,0.2,0,0.3c-0.1,0.1-0.2,0.2-0.2,0.3
	c0,0.1,0,0.2,0,0.3c-0.1,0.1-0.2,0.2-0.2,0.3c0,0.1,0,0.2,0,0.3c-0.1,0-0.2,0.1-0.3,0.3c0,0.1-0.1,0.2-0.1,0.3
	c-0.1,0-0.2,0.1-0.3,0.2C37,19.6,37,19.7,37,19.8c-0.1,0-0.3,0-0.4,0.2c-0.1,0.2-0.1,0.4,0.1,0.5c0.2,0.1,0.4,0.1,0.5-0.1
	c0.1-0.1,0.1-0.2,0-0.3c0.1,0,0.2-0.1,0.3-0.2c0.1-0.1,0.1-0.2,0.1-0.3c0.1,0,0.2-0.1,0.3-0.3C38,19.2,38,19.1,38,19
	c0.1,0,0.2-0.2,0.3-0.3c0-0.1,0-0.2,0-0.3c0.1-0.1,0.2-0.2,0.2-0.3c0-0.1,0-0.1,0-0.2c0,0,0,0.1,0,0.1c0,0.1-0.1,0.2,0,0.4
	c0,0.1,0.1,0.2,0.2,0.3c-0.1,0.1-0.1,0.2-0.1,0.4c0,0.1,0,0.2,0.1,0.3c-0.1,0.1-0.1,0.2-0.1,0.3c0,0.1,0,0.2,0.1,0.3
	c-0.1,0.1-0.2,0.2-0.2,0.3c0,0.1,0,0.2,0,0.3c-0.1,0.1-0.2,0.2-0.2,0.3c0,0.1,0,0.2,0,0.3c-0.1,0-0.2,0.1-0.3,0.3
	c0,0.1-0.1,0.2-0.1,0.3c-0.2,0-0.3,0.1-0.4,0.2c-0.1,0.2,0,0.4,0.2,0.5c0.2,0.1,0.4,0,0.5-0.2c0-0.1,0-0.2,0-0.3
	c0.1,0,0.2-0.1,0.3-0.3c0.1-0.1,0.1-0.2,0.1-0.3c0.1-0.1,0.2-0.2,0.2-0.3c0-0.1,0-0.3,0-0.4c0.1-0.1,0.2-0.2,0.2-0.4
	c0-0.1,0-0.2,0-0.3c0.1-0.1,0.1-0.2,0.2-0.4c0-0.1,0-0.2-0.1-0.3c0.1-0.1,0.1-0.2,0.1-0.4c0-0.1-0.1-0.3-0.1-0.3
	c0.1-0.1,0.1-0.2,0-0.4c0-0.1,0-0.1-0.1-0.2c0-0.1,0.1-0.2,0-0.3c0-0.1-0.1-0.2-0.1-0.3c0.1-0.1,0.1-0.2,0.1-0.3
	c0-0.1,0-0.2-0.1-0.3c0.1-0.1,0.1-0.2,0.2-0.3c0-0.1,0-0.2,0-0.3c0.1-0.1,0.2-0.2,0.2-0.3c0-0.1,0-0.2,0-0.3c0.1,0,0.2-0.1,0.2-0.3
	c0-0.1,0.1-0.2,0.1-0.3c0,0,0.1,0,0.1-0.1c0,0,0,0.1,0,0.1c-0.1,0.1-0.1,0.2-0.1,0.3c0,0,0,0,0,0.1c0,0.1-0.1,0.2,0,0.3
	c-0.1,0.1-0.2,0.2-0.2,0.3c0,0.1,0,0.3,0,0.4c-0.1,0.1-0.2,0.2-0.2,0.4c0,0.1,0,0.2,0.1,0.3c-0.1,0.1-0.1,0.2-0.1,0.4
	c0,0.1,0,0.2,0.1,0.3c-0.1,0.1-0.1,0.2-0.1,0.4c0,0.1,0.1,0.3,0.2,0.3c-0.1,0.1-0.1,0.2,0,0.4c0,0.1,0.1,0.1,0.1,0.2
	c0,0.1,0,0.2,0,0.4c0.1,0.1,0.1,0.2,0.2,0.3c0,0.1-0.1,0.2,0,0.4c0,0.1,0.1,0.2,0.1,0.2c-0.1,0.1-0.1,0.2-0.1,0.4
	c0,0.1,0.1,0.2,0.1,0.3c-0.1,0.1-0.1,0.2-0.1,0.4c0,0.1,0,0.2,0.1,0.3c-0.1,0.1-0.1,0.2-0.2,0.3c0,0.1,0,0.2,0,0.3
	c-0.1,0.1-0.2,0.2-0.2,0.3c0,0.1,0,0.2,0,0.3c-0.2,0-0.3,0.1-0.3,0.3c0,0.2,0.1,0.4,0.3,0.4c0.2,0,0.4-0.1,0.4-0.3
	c0-0.1,0-0.2-0.1-0.3c0.1-0.1,0.2-0.2,0.2-0.3c0-0.1,0-0.2,0-0.3c0.1-0.1,0.2-0.2,0.2-0.4c0-0.1,0-0.3-0.1-0.4
	c0.1-0.1,0.1-0.2,0.1-0.4c0-0.1,0-0.2-0.1-0.3c0.1-0.1,0.1-0.2,0.1-0.4c0-0.1-0.1-0.2-0.1-0.3c0.1-0.1,0.1-0.2,0-0.4
	c0-0.1-0.1-0.2-0.2-0.3c0-0.1,0-0.3,0-0.4c0-0.1-0.1-0.1-0.1-0.1c0-0.1,0-0.2,0-0.3c0-0.1-0.1-0.2-0.2-0.3c0.1-0.1,0.1-0.2,0.1-0.4
	c0-0.1-0.1-0.2-0.1-0.3c0.1-0.1,0.1-0.2,0.1-0.3c0,0.1,0.1,0.2,0.2,0.3c0,0.1,0,0.3,0,0.4c0,0.1,0.1,0.1,0.1,0.2
	c0,0.1,0,0.2,0.1,0.4c0.1,0.1,0.2,0.2,0.2,0.2c0,0.1,0,0.2,0,0.4c0,0.1,0.1,0.2,0.2,0.2c0,0.1-0.1,0.2,0,0.4c0,0.1,0.1,0.2,0.1,0.3
	c-0.1,0.1-0.1,0.2-0.1,0.4c0,0.1,0.1,0.2,0.1,0.3c-0.1,0.1-0.1,0.2-0.1,0.4c0,0.1,0,0.2,0.1,0.3c-0.1,0.1-0.1,0.2-0.2,0.3
	c0,0.1,0,0.2,0,0.3c-0.1,0-0.3,0.2-0.3,0.3c0,0.2,0.1,0.4,0.3,0.4c0.2,0,0.4-0.1,0.4-0.3c0-0.1,0-0.2-0.1-0.3
	c0.1-0.1,0.1-0.2,0.2-0.3c0-0.1,0-0.2,0-0.3c0.1-0.1,0.1-0.2,0.1-0.4c0-0.1,0-0.3-0.1-0.4c0.1-0.1,0.1-0.2,0.1-0.4
	c0-0.1-0.1-0.2-0.1-0.3c0.1-0.1,0.1-0.2,0-0.4c0-0.1-0.1-0.2-0.2-0.3c0-0.1,0-0.2,0-0.4c-0.1-0.1-0.1-0.2-0.2-0.3
	c0-0.1,0-0.3-0.1-0.4c0-0.1-0.1-0.1-0.1-0.1c0-0.1,0-0.2-0.1-0.3c-0.1-0.1-0.1-0.2-0.2-0.3c0-0.1,0.1-0.2,0-0.4
	c0-0.1-0.1-0.2-0.1-0.2c0.1-0.1,0.1-0.2,0.1-0.4c0,0,0-0.1,0-0.1c0,0.1,0.1,0.1,0.2,0.1c0,0.1,0,0.2,0.1,0.4c0,0.1,0.1,0.1,0.1,0.1
	c0,0.1,0,0.2,0.1,0.3c0.1,0.1,0.2,0.1,0.2,0.2c0,0.1,0,0.2,0.1,0.3c0,0.1,0.1,0.1,0.2,0.2c0,0.1,0,0.2,0,0.3c0,0.1,0.1,0.2,0.2,0.2
	c0,0.1,0,0.2,0,0.3c0,0.1,0.1,0.2,0.2,0.2c0,0.1-0.1,0.2,0,0.3c0,0.1,0.1,0.2,0.1,0.2c-0.1,0.1-0.1,0.2-0.1,0.3c0,0.1,0,0.2,0.1,0.3
	c-0.1,0.1-0.2,0.2-0.2,0.3c0,0.2,0.2,0.3,0.3,0.3c0.2,0,0.3-0.2,0.3-0.3c0-0.1,0-0.2-0.1-0.2c0.1-0.1,0.1-0.2,0.1-0.3
	c0-0.1,0-0.2-0.1-0.3c0.1-0.1,0.1-0.2,0.1-0.3c0-0.1-0.1-0.2-0.2-0.3c0-0.1,0.1-0.2,0-0.4c0-0.1-0.1-0.2-0.2-0.2c0-0.1,0-0.2,0-0.4
	c0-0.1-0.1-0.2-0.2-0.2c0-0.1,0-0.2-0.1-0.3c-0.1-0.1-0.2-0.2-0.2-0.2c0,0,0-0.1,0-0.1c0.3,0.3,0.6,0.6,0.9,0.9
	c2.9,2.4,7.2,1.9,9.5-1C53.9,14.2,53.4,10,50.5,7.6z M35.9,18.1C35.9,18.1,35.9,18.1,35.9,18.1c0,0,0-0.1,0-0.1c0,0,0,0,0,0
	C35.9,18,35.9,18,35.9,18.1z M36.3,17.5C36.3,17.5,36.3,17.5,36.3,17.5c0,0,0-0.1,0-0.1c0,0,0,0,0,0C36.3,17.4,36.3,17.5,36.3,17.5z
	 M36.6,16.9C36.6,17,36.6,17,36.6,16.9c0,0,0-0.1,0-0.2c0,0,0,0,0.1,0C36.6,16.8,36.6,16.9,36.6,16.9z M36.6,14.9c0-0.1,0-0.2,0-0.2
	c0,0,0.1,0,0.1-0.1c0,0.1,0,0.1,0,0.2C36.7,14.8,36.7,14.8,36.6,14.9z M36,19.7C36,19.7,36,19.7,36,19.7C36,19.7,36,19.7,36,19.7
	C36,19.7,36,19.7,36,19.7C36,19.7,36,19.7,36,19.7z M36.4,19.3C36.4,19.3,36.4,19.2,36.4,19.3C36.4,19.2,36.4,19.2,36.4,19.3
	C36.4,19.3,36.4,19.3,36.4,19.3z M38.8,13.1c0.1,0,0.2-0.1,0.3-0.2c0.1-0.1,0.1-0.2,0.2-0.3c0.1,0,0.1,0,0.2,0c0,0,0,0,0,0
	c-0.1,0-0.1,0-0.2,0.1c-0.1,0.1-0.2,0.2-0.2,0.2C39,13,38.9,13.1,38.8,13.1C38.8,13.1,38.8,13.1,38.8,13.1z M38.1,13.2
	C38.1,13.2,38.1,13.2,38.1,13.2c0,0.1,0,0.1,0,0.2c0,0,0,0-0.1,0C38.1,13.3,38.1,13.3,38.1,13.2z M36.8,16.4c0-0.1,0-0.3,0-0.4
	c0,0,0.1-0.1,0.1-0.1c0,0,0,0.1,0,0.1C36.8,16.2,36.9,16.3,36.8,16.4C36.9,16.4,36.8,16.4,36.8,16.4z M37.5,14.3
	c0,0.1-0.1,0.2,0,0.3c-0.1,0.1-0.2,0.2-0.2,0.3c0,0.1,0,0.2,0,0.3c-0.1,0.1-0.1,0.2-0.2,0.3c0,0.1,0,0.1,0,0.2c0,0-0.1,0.1-0.1,0.1
	c0,0,0-0.1,0-0.1c0-0.1,0-0.1,0-0.2c0.1-0.1,0.1-0.2,0.1-0.3c0-0.1,0-0.2,0-0.3c0.1-0.1,0.2-0.2,0.2-0.3c0-0.1,0-0.2,0-0.3
	c0.1,0,0.2-0.1,0.3-0.2c0.1-0.1,0.1-0.2,0.1-0.3c0,0,0.1,0,0.1-0.1c0,0.1-0.1,0.2,0,0.3C37.7,14,37.6,14.1,37.5,14.3z M38.3,15.2
	C38.3,15.2,38.3,15.2,38.3,15.2C38.3,15.2,38.3,15.2,38.3,15.2C38.3,15.2,38.3,15.2,38.3,15.2z M38.5,14.4c-0.1,0-0.2,0.1-0.3,0.3
	c-0.1,0.1-0.1,0.2-0.1,0.3c-0.1,0-0.2,0.1-0.3,0.3c-0.1,0.1-0.1,0.2-0.1,0.3c0,0,0,0,0,0c0-0.1,0-0.1,0-0.1c0,0,0-0.1,0-0.1
	c0,0,0,0,0,0c0.1,0,0.2-0.1,0.2-0.3c0-0.1,0.1-0.2,0.1-0.3c0.1,0,0.2-0.1,0.3-0.2c0.1-0.1,0.1-0.2,0.1-0.3c0.1,0,0.1,0,0.2-0.1
	C38.5,14.3,38.5,14.3,38.5,14.4z M38.6,13.5C38.6,13.5,38.6,13.5,38.6,13.5C38.6,13.5,38.6,13.5,38.6,13.5
	C38.6,13.5,38.6,13.5,38.6,13.5z M38.6,12.8C38.6,12.8,38.6,12.8,38.6,12.8C38.6,12.8,38.6,12.8,38.6,12.8
	C38.6,12.8,38.6,12.8,38.6,12.8C38.6,12.8,38.6,12.8,38.6,12.8z M38.8,15.9c0-0.1,0-0.1-0.1-0.2c0,0,0.1-0.1,0.1-0.1
	C38.8,15.7,38.8,15.8,38.8,15.9C38.8,15.9,38.8,15.9,38.8,15.9z M38.7,14c0-0.1,0.1-0.2,0.1-0.2c0.1,0,0.2-0.1,0.3-0.1
	c0,0,0,0,0.1-0.1c0,0,0,0,0,0c0,0,0,0,0,0c-0.1,0.1-0.1,0.2-0.2,0.2c0,0,0,0,0,0C38.9,13.9,38.8,13.9,38.7,14z M39.5,14.3
	c-0.1,0.1-0.1,0.2-0.1,0.3c-0.1,0-0.2,0.1-0.3,0.3C39,15,39,15.1,39,15.2c-0.1,0-0.1,0.1-0.2,0.2c0-0.1,0-0.2,0-0.3
	c0.1-0.1,0.2-0.2,0.2-0.3c0-0.1,0-0.2,0-0.3C39.2,14.5,39.3,14.4,39.5,14.3c0-0.1,0-0.1,0-0.2c0,0,0.1,0,0.1-0.1c0,0,0,0,0.1-0.1
	c0,0,0,0.1,0,0.1C39.5,14.2,39.5,14.2,39.5,14.3z M39.7,17.1C39.6,17.1,39.6,17,39.7,17.1c0-0.1,0-0.1,0-0.2c0,0,0,0,0,0
	C39.7,17,39.7,17,39.7,17.1z M40,16.3L40,16.3L40,16.3z"/>
<path class="st1" d="M130.1,18.7c0,0-0.2-0.2-1.1,0.9c-1.4,1.7,0.7,4.5,2.1,5.3c0,0,0-0.5,0.5-1.1C134.4,19.7,130.8,18.6,130.1,18.7
	z"/>
<path class="st1" d="M117.9,12.8c-0.3-0.7-3.3-2.9-5,1.7c-0.2,0.7-0.6,1-0.6,1c1.4,0.7,4.9,0.9,5.5-1.3
	C118.1,12.9,117.9,12.8,117.9,12.8z"/>
<path class="st1" d="M127.1,11.2c-2.8-1.8-6.6-1.1-8.5,1.6c-1.9,2.7-1.1,6.5,1.7,8.3c2.8,1.8,6.6,1.1,8.5-1.6
	C130.7,16.8,129.9,13.1,127.1,11.2z"/>
<path class="st2" d="M93.8,24.8c0.1-0.1,0.1-0.2,0.2-0.3c0,0,0,0,0,0c0-0.1-0.1-0.2,0-0.3c0,0,0-0.1,0-0.1c0-0.1,0.1-0.2,0.2-0.2
	c0-0.1,0-0.2,0-0.3c0-0.1,0.1-0.3,0.2-0.3c0-0.1-0.1-0.1-0.1-0.2c0,0,0,0.1,0,0.1c-0.1,0.2-0.2,0.3-0.3,0.3c0,0.1,0,0.2-0.1,0.4
	c-0.1,0.1-0.2,0.2-0.2,0.2c0,0.4,0,0.7,0,1.2c0,0,0.1,0,0.1,0C93.8,25,93.8,24.9,93.8,24.8z"/>
<g>
	<path class="st3" d="M96.3,22.2c0.1-0.1,0.1-0.3,0.1-0.5c0-0.2-0.1-0.3-0.2-0.4c0.1-0.1,0.1-0.3,0-0.5c0-0.1-0.1-0.3-0.2-0.3
		c0.1-0.1,0.1-0.3,0-0.5c0-0.1-0.1-0.2-0.2-0.3c0-0.1,0-0.3-0.1-0.5c-0.1-0.2-0.2-0.3-0.3-0.3c0-0.1,0-0.3-0.1-0.4
		c0-0.1,0-0.1,0-0.2c0.1-0.1,0.2-0.2,0.2-0.4c0-0.1,0-0.3-0.1-0.4c0,0,0,0,0,0c-0.9,1.4-1.4,3.2-1.7,5.3c0,0.3-0.1,0.7-0.1,1.1
		c0.1,0,0.2-0.1,0.2-0.2c0.1-0.1,0.1-0.3,0.1-0.4c0.1,0,0.2-0.2,0.3-0.3c0,0,0-0.1,0-0.1c0,0.1,0,0.2,0.1,0.2
		c-0.1,0.1-0.1,0.2-0.2,0.3c0,0.1,0,0.2,0,0.3c-0.1,0-0.1,0.1-0.2,0.2c0,0,0,0.1,0,0.1c0,0.1,0,0.2,0,0.3c0,0,0,0,0,0
		c-0.1,0.1-0.2,0.1-0.2,0.3c0,0.1,0,0.2,0,0.3c0,0-0.1,0-0.1,0c0,0.3,0,0.6,0,1c0-0.1,0-0.2,0-0.3c0.1,0,0.2-0.1,0.3-0.2
		c0.1-0.1,0.1-0.2,0.1-0.3c0.1,0,0.2-0.1,0.3-0.3c0-0.1,0.1-0.2,0-0.3c0.1,0,0.2,0,0.2,0c0,0.1,0,0.2,0,0.3c-0.2,0-0.3,0.1-0.3,0.3
		c0,0.2,0.1,0.4,0.3,0.4c0.2,0,0.4-0.1,0.4-0.3c0-0.1,0-0.2-0.1-0.3c0.1-0.1,0.2-0.2,0.2-0.3c0-0.1,0-0.2,0-0.3
		c0.1-0.1,0.2-0.2,0.2-0.4c0-0.1,0-0.3-0.1-0.4c0.1-0.1,0.1-0.2,0.1-0.4c0-0.1,0-0.1,0-0.2c0-0.1,0.1-0.1,0.1-0.2c0-0.2,0-0.3,0-0.4
		c0.1-0.1,0.2-0.2,0.2-0.4c0-0.1,0-0.3-0.1-0.4c0.1-0.1,0.2-0.3,0.2-0.4c0-0.1,0-0.3-0.1-0.4c0,0,0,0,0-0.1c0,0.1,0,0.1,0,0.2
		c0,0.1,0.1,0.3,0.2,0.3c-0.1,0.1-0.1,0.3-0.1,0.4c0,0.1,0.1,0.2,0.1,0.3c-0.1,0.1-0.1,0.2-0.2,0.4c0,0.1,0,0.3,0.1,0.3
		c-0.2,0.1-0.3,0.2-0.3,0.4c0,0.2,0.2,0.4,0.4,0.4c0.2,0,0.4-0.2,0.4-0.4c0-0.1,0-0.2-0.1-0.3c0.1-0.1,0.1-0.2,0.2-0.4
		C96.3,22.5,96.3,22.3,96.3,22.2z"/>
</g>
<path class="st1" d="M122.3,29.7c1.9-3.2,0.4-6.7-2.6-8.3c-3-1.6-5.7-0.4-8.3,2.6c-0.6,0.7-1.4,1.7-2.4,3c0.7,2.7,2.2,6,5.7,10.5
	c3.5,4.9,2.2,8.6-0.1,11h2.1c0.7-1.1,1.1-2.6,1.1-4.6C118.6,34.4,120.8,32.4,122.3,29.7z"/>
<path class="st1" d="M56.3,38.3c1.2-1.8,2.1-3.7,2.7-5.5c-0.4-1.5-0.6-3.4-0.7-5.7c-0.6-9.2-8.2-8.1-10.2-7.3
	c-3.1,1.3-5.6,5.5-5,9.3c1.4,7.6,7.7,15.1,10.1,17.6c0.6,0.6,1.1,1.1,1.7,1.5h2.4C54.9,46.6,53.4,43.4,56.3,38.3z"/>
<path class="st2" d="M73.6,45.2c3.4-8.2,1.3-19.5,0.5-23.5c-0.8-4.4-2.8-7.2-6.6-7.4c-3.9-0.2-7.4,2.4-7.4,6.6c0,2.6,0.4,7-1.2,11.9
	c1,4.3,3,6,4.2,8c1.7,2.7,1.5,5.8-0.6,7.6h8.3C72.1,47.6,73,46.5,73.6,45.2z"/>
<path class="st2" d="M82.4,24.8c0,0,0-0.1,0-0.1c0.1-1.1-1.2-1.7-2.2-1.8c0-0.1,0-0.2,0-0.3c0.1-1-1.1-1.7-2.1-1.9
	c0-0.1,0.1-0.2,0.1-0.3c0.3-1-0.9-1.8-1.8-2.1c0-0.1,0.1-0.2,0.1-0.3c0.4-1-0.8-2-1.7-2.3c0.1-0.1,0.1-0.2,0.2-0.5
	c0.4-1-0.6-1.9-1.5-2.3c0.1-0.1,0.1-0.3,0.2-0.5c0.1-0.4,0.1-0.8-0.1-1.1c0.4-0.5,0.8-1.1,1-1.8c0.3,0.1,0.7,0.1,0.9,0.1
	c0.1,2.3,1.5,2,2,1.8c0,0.1,0,0.2,0,0.2c0.3,2.1,1.5,1.9,2.1,1.6c0,0.1,0.1,0.2,0.1,0.3c0.7,2,1.9,1.6,2.4,1.1
	c0,0.1,0.1,0.1,0.1,0.2c0.1,0.2,0.2,0.4,0.3,0.6c0.1,0,0.2,0,0.2,0c0-0.1,0.2-0.3,0.3-0.3c0.1-0.1,0.3-0.1,0.4-0.1
	c0.1-0.1,0.2-0.2,0.4-0.3c0.2,0,0.3,0,0.4,0c0.1-0.1,0.1-0.1,0.2-0.2c-0.5-0.5-1.4-0.5-2.1-0.4c0-0.1,0-0.3-0.1-0.5
	c-0.3-0.9-1.5-1-2.3-0.8c0-0.1,0-0.3,0-0.5c-0.1-1-1.3-1.4-2.2-1.3c0-0.1,0-0.2,0-0.5c0-0.9-1-1.4-1.9-1.5c0,0,0-0.1,0-0.1
	c0.2-0.7-0.4-1.3-1-1.7c0,0,0-0.1,0-0.1c0-3.8-3.1-6.9-6.9-6.9c-3.8,0-6.9,3.1-6.9,6.9c0,3.8,3.1,6.9,6.9,6.9c1.4,0,2.6-0.4,3.7-1.1
	c0.3,0.2,0.7,0.3,1,0.3c0,0.1,0,0.1,0,0.2c-0.7,2.4,0.9,2.7,1.5,2.6c0,0.1,0,0.1,0,0.2c-0.6,2.4,0.8,2.7,1.5,2.6c0,0,0,0.1,0,0.1
	c-0.4,2.4,1.1,2.6,1.8,2.4c0,0,0,0.1,0,0.1c-0.1,2.5,1.4,2.4,2.1,2.2c0,0,0,0,0,0c0,2.3,1.3,2.4,2,2.2c0,0,0,0.1,0,0.2
	c0.8-0.4,1.7-0.6,2.8-0.7C83.9,24.5,82.9,24.6,82.4,24.8z"/>
<path class="st1" d="M95.2,17.3c-0.1,0-0.1,0-0.2,0c0,0,0-0.1,0-0.1c0.1,0,0.2-0.1,0.2-0.2c0.1-0.2,0-0.5-0.2-0.6
	c-0.1,0-0.2,0-0.3,0c0,0,0-0.1,0-0.1c0.1,0,0.1-0.1,0.2-0.2c0.1-0.2,0-0.5-0.2-0.6c-0.1,0-0.3,0-0.4,0c0-0.1-0.1-0.1-0.1-0.2
	c0,0,0.1-0.1,0.1-0.1c0.1-0.2,0-0.5-0.2-0.6c-0.1-0.1-0.3,0-0.4,0.1c-0.1-0.1-0.1-0.1-0.2-0.2c0,0,0,0,0-0.1c0.1-0.2,0-0.5-0.2-0.6
	c-0.2-0.1-0.3,0-0.4,0.1c-0.1-0.1-0.2-0.1-0.2-0.2c0,0,0,0,0,0c0.1-0.2,0-0.5-0.2-0.6c-0.2-0.1-0.4,0-0.5,0.2
	c-0.1,0-0.1-0.1-0.2-0.1c0.1-0.2,0-0.4-0.3-0.5c-0.2-0.1-0.5,0-0.6,0.2c0,0,0,0,0,0c0,0-0.1,0-0.1,0c0-0.2-0.1-0.4-0.3-0.4
	c-0.2-0.1-0.5,0-0.6,0.2c0,0,0,0,0,0c0,0-0.1,0-0.1,0c0-0.1-0.1-0.3-0.3-0.3c-0.2-0.1-0.5,0-0.6,0.2c0,0,0,0.1,0,0.1
	c-0.1,0-0.1,0-0.2,0c0-0.1-0.1-0.2-0.3-0.3c-0.2-0.1-0.5,0-0.6,0.2c0,0.1,0,0.1,0,0.2c0,0-0.1,0-0.1,0c0-0.1-0.1-0.2-0.2-0.2
	c-0.2-0.1-0.5,0-0.6,0.2c0,0.1,0,0.2,0,0.3c0,0-0.1,0-0.1,0c0-0.1-0.1-0.1-0.2-0.2c-0.2-0.1-0.5,0-0.6,0.2c0,0.1,0,0.2,0,0.3
	c0,0-0.1,0-0.1,0.1c0,0,0-0.1-0.1-0.1c-0.1-0.1-0.4,0-0.6,0.2c-0.1,0.1-0.2,0.3-0.2,0.4c0,0-0.1,0-0.1,0.1c0,0-0.1,0-0.1,0
	c0.1,0.1,0.2,0.3,0.3,0.5c0,0.1,0.1,0.2,0.1,0.3c0.8-0.4,2.1-0.5,2.5,0.3c0,0.1,0.1,0.1,0.1,0.2c0.4-0.8,1.5-2,3.7-0.1
	c0.4,0.4,0.7,0.4,0.7,0.4c-0.7,1-2.8,2.3-4,1.1c-0.3-0.3-0.4-0.4-0.5-0.6c-0.4,0.5-1.5,1.1-2.6-0.7c0-0.1-0.1-0.1-0.1-0.1
	c-0.3,0.4-1.5,1-2.3-0.5c0,0-0.1,0-0.1,0.1c-0.2,0.1-0.3,0.2-0.3,0.4c-0.1,0-0.3,0-0.4,0.2c-0.2,0.1-0.2,0.3-0.2,0.4
	c-0.1,0-0.2,0.1-0.3,0.2c-0.1,0.1-0.2,0.3-0.2,0.4c-0.1,0-0.2,0-0.3,0.1c-0.2,0.2-0.2,0.4,0,0.6c0.2,0.2,0.4,0.2,0.6,0
	c0.1-0.1,0.2-0.3,0.1-0.5c0.1,0,0.2-0.1,0.3-0.2c0.1-0.1,0.2-0.3,0.2-0.4c0.1,0,0.2-0.1,0.3-0.1c0.1-0.1,0.2-0.2,0.2-0.4
	c0.1,0,0.3,0,0.4-0.1c0.1,0,0.1-0.1,0.2-0.1c0,0,0,0.1,0,0.1c-0.1,0-0.2,0.1-0.3,0.2c-0.1,0.1-0.2,0.3-0.2,0.4
	c-0.1,0-0.2,0.1-0.3,0.2c-0.1,0.1-0.2,0.3-0.2,0.4c-0.1,0-0.2,0.1-0.3,0.3c0,0.1-0.1,0.1-0.1,0.2c0,0-0.1,0-0.1,0.1
	c-0.1,0.1-0.2,0.2-0.2,0.4c-0.1,0-0.2,0.1-0.3,0.2c-0.1,0.1-0.2,0.3-0.2,0.4c-0.1,0-0.2,0.1-0.2,0.2c-0.1,0.1-0.1,0.3-0.1,0.4
	c-0.1,0-0.2,0.1-0.2,0.1c-0.1,0.2-0.1,0.4,0.1,0.5c0.2,0.1,0.4,0.1,0.5-0.1c0.1-0.1,0.1-0.3,0-0.4c0.1,0,0.1-0.1,0.2-0.2
	c0,0.1,0.1,0.1,0.1,0.2c-0.1,0.1-0.1,0.1-0.2,0.2c-0.1,0.1-0.1,0.3,0,0.4c-0.1,0.1-0.1,0.2-0.2,0.3c0,0.1,0,0.3,0,0.4
	c-0.1,0-0.2,0.1-0.2,0.2c-0.1,0.2,0,0.4,0.2,0.5c0.2,0.1,0.4,0,0.5-0.2c0.1-0.2,0-0.3-0.1-0.4c0.1-0.1,0.1-0.2,0.1-0.3
	c0-0.1,0-0.3,0-0.4c0.1-0.1,0.1-0.1,0.2-0.2c0.1-0.1,0.1-0.3,0-0.4c0,0,0,0,0,0c0.1,0,0.2-0.1,0.2-0.2c0,0,0-0.1,0-0.1
	c0-0.1,0.1-0.2,0.1-0.3c0.1,0,0.2-0.1,0.2-0.2c0.1-0.1,0.1-0.2,0.1-0.3c0.1,0,0.1-0.1,0.2-0.1c0,0,0,0,0,0.1c-0.1,0.1-0.1,0.3,0,0.4
	c-0.1,0.1-0.2,0.2-0.2,0.3c-0.1,0.2,0,0.3,0,0.4c-0.1,0.1-0.1,0.2-0.1,0.3c0,0.1,0,0.3,0.1,0.4c-0.1,0-0.1,0.1-0.2,0.2
	c-0.1,0.2,0,0.4,0.2,0.5c0,0,0,0,0.1,0c0,0,0,0,0,0.1c-0.1,0.1-0.1,0.3,0,0.4c-0.1,0.1-0.2,0.2-0.2,0.3c0,0.2,0,0.3,0,0.4
	c-0.1,0.1-0.1,0.2-0.1,0.3c0,0.1,0,0.3,0.1,0.4c-0.1,0.1-0.1,0.1-0.2,0.2c0,0.2,0.1,0.4,0.3,0.4c0.2,0,0.4-0.1,0.4-0.3
	c0-0.2,0-0.3-0.2-0.4c0.1-0.1,0.1-0.2,0.1-0.3c0-0.1,0-0.3-0.1-0.4c0.1-0.1,0.1-0.1,0.1-0.2c0-0.1,0-0.3,0-0.4
	c0.1,0,0.2-0.1,0.2-0.3c0,0,0-0.1,0.1-0.1c0,0,0,0,0,0.1c-0.1,0.1-0.1,0.2-0.1,0.3c0,0.2,0,0.3,0.1,0.4c-0.1,0.1-0.1,0.2-0.1,0.3
	c0,0.2,0,0.3,0.1,0.4c-0.1,0.1-0.1,0.2-0.1,0.4c0,0.2,0.1,0.3,0.1,0.4c0,0.1,0,0.2,0,0.3c0,0.1,0.1,0.3,0.2,0.3
	c-0.1,0.1-0.1,0.2-0.1,0.3c0,0.2,0.2,0.3,0.4,0.3c0.2,0,0.4-0.2,0.3-0.4c0-0.2-0.1-0.3-0.3-0.3c0-0.1,0-0.2,0-0.3
	c0-0.1-0.1-0.3-0.2-0.3c0-0.1,0.1-0.2,0.1-0.3c0-0.1-0.1-0.3-0.1-0.4c0.1-0.1,0.1-0.2,0.1-0.3c0-0.2,0-0.3-0.1-0.4
	c0.1-0.1,0.1-0.2,0.1-0.3c0-0.1,0-0.3,0-0.4c0.1,0,0.1-0.1,0.1-0.2v0c0,0,0,0,0,0.1c0,0.2,0,0.3,0.1,0.4c-0.1,0.1-0.1,0.2-0.1,0.4
	c0,0.2,0.1,0.3,0.2,0.4c0,0.1,0,0.2,0,0.3c0,0.1,0.1,0.3,0.2,0.3c-0.1,0.1-0.1,0.2-0.1,0.3c0,0.2,0.2,0.3,0.4,0.3
	c0.2,0,0.3-0.2,0.3-0.4c0.1,0.1,0.2,0.2,0.3,0.3c1.3,1.4,3.1,2,4.9,1.9c0,0.1,0,0.2,0.1,0.3c0.1,0.2,0.4,0.2,0.5,0.1
	c0.1-0.1,0.1-0.1,0.1-0.2c0.1,0,0.2,0,0.4-0.1c0.1-0.1,0.2-0.1,0.2-0.2c0.1,0,0.3,0,0.4-0.1c0.1,0,0.1-0.1,0.1-0.2
	c0.1-0.1,0.3-0.1,0.4-0.2c0,0,0,0,0,0c-0.1,0-0.2,0.1-0.3,0.2c-0.1,0.1-0.1,0.2-0.1,0.3c-0.1,0-0.2,0.1-0.3,0.2
	C91,25.3,91,25.4,91,25.5c-0.1,0-0.2,0.1-0.3,0.2c-0.1,0.1-0.1,0.2-0.2,0.2c-0.1,0-0.2,0-0.4,0.1c-0.1,0.1-0.2,0.1-0.2,0.2
	c-0.1-0.1-0.3-0.1-0.4,0c-0.1,0.1-0.1,0.2-0.1,0.3C87.9,25.4,86,25,85.2,25c-0.2,0-0.5,0-0.7,0c0.5,0.4,0.8,1.3,0.8,2.7
	c0,0.6,0.2,0.9,0.2,0.9c-1.3,0.1-4-0.8-3.8-2.7c0-0.1,0-0.2,0-0.3c-1.9,0.9-3.1,2.4-3.8,4.5c-1.9,6.4,0,14.5,0.8,17.4
	c0.1,0.3,0.2,0.5,0.3,0.7h10.3c0.1-0.4,0.1-0.8,0-1.3c-0.2-2.6-1.2-5,1.7-12.7c1.6-3.7,0.5-6.1-1.1-7.6c0,0,0.1,0,0.1-0.1
	c0.1-0.1,0.1-0.2,0.1-0.2c0.1,0,0.2,0,0.4-0.1c0.1-0.1,0.2-0.2,0.2-0.2c0.1,0,0.3,0,0.4-0.2c0.1-0.1,0.2-0.2,0.2-0.3
	c0.1,0,0.2-0.1,0.3-0.2c0.1-0.1,0.1-0.2,0.1-0.3c0.1,0,0.2-0.1,0.3-0.2c0.1-0.1,0.1-0.2,0.1-0.3c0,0,0,0,0.1,0c0,0-0.1,0.1-0.1,0.1
	c0,0.1,0,0.2,0,0.3c-0.1,0-0.2,0.1-0.3,0.3c-0.1,0.1-0.1,0.2-0.1,0.3c-0.1,0-0.2,0.1-0.3,0.2c-0.1,0.1-0.1,0.2-0.1,0.3
	c-0.1,0-0.3,0-0.4,0.1c-0.1,0.2-0.1,0.4,0.1,0.5c0.2,0.1,0.4,0.1,0.5-0.1c0.1-0.1,0.1-0.2,0.1-0.3c0.1,0,0.2-0.1,0.3-0.2
	C92,26.2,92,26.1,92,26c0.1,0,0.2-0.1,0.3-0.3c0.1-0.1,0.1-0.3,0.1-0.4c0.1,0,0.2-0.2,0.3-0.3c0,0,0,0,0-0.1c0,0,0,0,0,0
	c0.2,0.1,0.4,0,0.5-0.2c0-0.1,0-0.2,0-0.3c0.1,0,0.2-0.1,0.3-0.2c0.1-0.1,0.1-0.2,0.1-0.3c0,0,0,0,0.1,0c0-0.4,0-0.7,0.1-1.1
	c0.2-2.1,0.8-3.9,1.7-5.3C95.4,17.5,95.4,17.4,95.2,17.3z M82.7,17.9C82.7,18,82.7,18,82.7,17.9C82.7,18,82.6,18,82.7,17.9
	C82.6,18,82.7,18,82.7,17.9z M82.8,20.6C82.8,20.6,82.8,20.6,82.8,20.6C82.8,20.6,82.8,20.6,82.8,20.6
	C82.8,20.6,82.8,20.6,82.8,20.6z M82.9,19.4C82.9,19.5,82.9,19.5,82.9,19.4c-0.2,0.2-0.2,0.3-0.2,0.4c-0.1,0-0.1,0.1-0.2,0.2
	c0,0,0,0,0,0c0.1-0.1,0.1-0.2,0.1-0.3c0-0.1,0-0.3-0.1-0.4c0.1-0.1,0.1-0.1,0.1-0.2c0-0.1,0-0.2,0-0.3c0,0,0,0,0.1,0.1l0,0
	c0,0.2,0.1,0.3,0.1,0.4C82.9,19.3,82.9,19.4,82.9,19.4z M83,16.8C83,16.8,82.9,16.7,83,16.8C82.9,16.7,82.9,16.7,83,16.8
	C83,16.7,83,16.7,83,16.8C83,16.7,83,16.7,83,16.8z M83.3,16.5C83.2,16.5,83.2,16.5,83.3,16.5C83.2,16.5,83.2,16.5,83.3,16.5
	c0,0,0.1-0.1,0.1-0.1c0,0,0,0,0,0.1C83.3,16.5,83.3,16.5,83.3,16.5z M84.1,22.4C84.1,22.4,84.1,22.4,84.1,22.4
	C84.1,22.4,84.1,22.4,84.1,22.4C84.1,22.4,84.1,22.4,84.1,22.4z M92.3,24.5C92.4,24.5,92.4,24.5,92.3,24.5
	C92.4,24.5,92.4,24.5,92.3,24.5C92.4,24.5,92.4,24.5,92.3,24.5z M93.5,23.5c-0.1,0.1-0.1,0.2-0.1,0.3c-0.1,0-0.2,0.1-0.3,0.2
	C93,24.1,93,24.2,93,24.3c0,0,0,0,0,0c0-0.1,0-0.2,0-0.2c0.1-0.1,0.2-0.2,0.2-0.4c0,0,0-0.1,0-0.1c0,0,0,0,0.1-0.1
	c0,0,0.1-0.1,0.1-0.1c0.1,0,0.2-0.1,0.3-0.2c0,0,0,0,0,0c0,0,0.1,0,0.1,0C93.6,23.3,93.5,23.4,93.5,23.5z"/>
<path class="st3" d="M82.8,15.3C82.8,15.3,82.8,15.3,82.8,15.3c0.1,0.2,0.3,0.4,0.4,0.5c0.7,0.8,1.6,0.2,1.9-0.1
	c0,0,0.1,0.1,0.1,0.1c1.1,1.8,2.2,1.2,2.6,0.7c0.1,0.1,0.2,0.3,0.5,0.6c1.2,1.2,3.3-0.2,4-1.1l0,0c0,0-0.4-0.1-0.7-0.4
	c-2.2-1.9-3.3-0.7-3.7,0.1c0-0.1-0.1-0.1-0.1-0.2c-0.4-0.9-1.7-0.7-2.5-0.3c0-0.1,0-0.2-0.1-0.3c-0.1-0.2-0.2-0.4-0.3-0.5h0
	C83.9,14.3,83.2,14.4,82.8,15.3L82.8,15.3L82.8,15.3z M83.3,15.5C83.3,15.6,83.3,15.5,83.3,15.5C83.3,15.6,83.3,15.6,83.3,15.5
	C83.3,15.6,83.3,15.6,83.3,15.5z"/>
<path class="st3" d="M81.7,26.1c-0.2,1.8,2.5,2.7,3.8,2.7c0,0-0.2-0.4-0.2-0.9c0-1.5-0.3-2.3-0.8-2.7c0,0,0,0,0,0l0,0
	c-1,0.1-2,0.4-2.8,0.7c0,0,0,0,0,0C81.7,25.9,81.7,26,81.7,26.1z"/>
<path class="st3" d="M63.2,40.8c-1.2-1.9-3.2-3.6-4.2-8c-0.6,1.8-1.4,3.6-2.7,5.5c-2.8,5.1-1.4,8.2,0.9,10.1h5.4
	C64.6,46.6,64.9,43.6,63.2,40.8z"/>
<path class="st2" d="M102.2,41.9c0.8-5.7,4.3-11.3,6.9-14.9c-0.6-2.3-0.6-4.1-0.8-5.8c-0.4-4.4-3.7-7.3-7.9-6.7
	c-2.3,0.3-3.9,1.4-4.9,3.1c0,0,0,0,0,0c0,0.1,0.1,0.2,0.1,0.4c0,0.2-0.1,0.4-0.2,0.4c0,0,0,0.1,0,0.2c0.1,0.1,0.1,0.3,0.1,0.4
	c0.1,0,0.2,0.2,0.3,0.3c0.1,0.2,0.1,0.3,0.1,0.5c0.1,0.1,0.2,0.2,0.2,0.3c0.1,0.2,0.1,0.4,0,0.5c0.1,0.1,0.2,0.2,0.2,0.3
	c0,0.2,0,0.4,0,0.5c0.1,0.1,0.2,0.2,0.2,0.4c0,0.2,0,0.4-0.1,0.5c0.1,0.1,0.1,0.2,0.1,0.4c0,0.2-0.1,0.3-0.2,0.4
	c0.1,0.1,0.1,0.2,0.1,0.3c0,0.2-0.2,0.4-0.4,0.4c-0.2,0-0.4-0.2-0.4-0.4c0-0.2,0.1-0.3,0.3-0.4c0-0.1-0.1-0.2-0.1-0.3
	c0-0.2,0.1-0.3,0.2-0.4c-0.1-0.1-0.1-0.2-0.1-0.3c0-0.2,0-0.3,0.1-0.4c-0.1-0.1-0.2-0.2-0.2-0.3c0-0.1,0-0.1,0-0.2c0,0,0,0,0,0.1
	c0.1,0.1,0.1,0.2,0.1,0.4c0,0.2-0.1,0.4-0.2,0.4c0.1,0.1,0.1,0.2,0.1,0.4c0,0.2-0.1,0.4-0.2,0.4c0.1,0.1,0.1,0.3,0,0.4
	c0,0.1,0,0.1-0.1,0.2c0,0,0,0.1,0,0.2c0,0.2,0,0.3-0.1,0.4c0.1,0.1,0.1,0.2,0.1,0.4c0,0.2-0.1,0.3-0.2,0.4c0,0.1,0,0.2,0,0.3
	c0,0.1-0.1,0.3-0.2,0.3c0.1,0.1,0.1,0.2,0.1,0.3c0,0.2-0.2,0.3-0.4,0.3c-0.2,0-0.3-0.2-0.3-0.4c0-0.2,0.2-0.3,0.3-0.3
	c0-0.1,0-0.2,0-0.3c-0.1,0-0.2,0-0.2,0c0,0.1,0,0.2,0,0.3c-0.1,0.2-0.2,0.3-0.3,0.3c0,0.1,0,0.2-0.1,0.3c-0.1,0.1-0.2,0.2-0.3,0.2
	c0,0.1,0,0.2,0,0.3c0.1,5.4,1.2,14.5,4.8,21.1c0.3,0.4,0.5,0.8,0.8,1.2h4.6C102.6,46.7,101.8,44.5,102.2,41.9z"/>
<path class="st3" d="M114.8,37.5c-3.5-4.5-5-7.8-5.7-10.5c-2.7,3.6-6.1,9.3-6.9,14.9c-0.4,2.5,0.4,4.8,1.7,6.5h10.8
	C117,46,118.2,42.4,114.8,37.5z"/>
</svg>
