<svg xmlns="http://www.w3.org/2000/svg" viewBox="0 0 240 240"><defs><style>.a{fill:#fff;}</style></defs><path class="a" d="M52.29,153.52c-.34,1.83-1.24,6-1.58,7.19H30v-1.49c3.7-.3,4.12-.55,4.12-4.17V138.76c0-3.66-.42-3.91-3.65-4.21v-1.49h13v1.49c-3.23.3-3.62.55-3.62,4.21v16.63c0,2,.18,2.72,1,3.11a9.64,9.64,0,0,0,3.19.38c1.83,0,3.36-.3,4.38-1.45a13.11,13.11,0,0,0,2.34-4.38Zm61.84-20.46H103.75v1.44c3.15.18,4,.9,4.21,2.73a60.15,60.15,0,0,1,.34,7v7.48h-.12l-16.3-18.67H84v1.44c1.83.18,2.76.51,3.57,1.54s.85,1.78.85,4.59v8.85a52.49,52.49,0,0,1-.42,7.06c-.18,1.83-1.15,2.51-3.54,2.68v1.49H94.91v-1.49c-3.15-.13-3.88-.94-4.09-2.81a59.49,59.49,0,0,1-.34-6.93V140h.13l17.69,21.18h2V144.25a60.31,60.31,0,0,1,.38-7.11c.21-1.91,1.1-2.51,3.4-2.64Zm2.77,0v1.49c3,.3,3.4.55,3.4,4.21V155c0,3.65-.43,3.91-3.79,4.21v1.49h10.93c5.28,0,9.74-1.15,12.89-3.53a13.65,13.65,0,0,0,5.32-11.4,12.13,12.13,0,0,0-3.79-9.06c-2.72-2.6-6.85-3.66-12.21-3.66Zm9.1,4.68c0-1.24.08-2,.42-2.34a4.17,4.17,0,0,1,2.68-.6,9.14,9.14,0,0,1,6.93,2.64c2,1.91,3.2,5.15,3.2,9.19,0,7.61-3.92,12.25-9.62,12.25-3,0-3.61-1.06-3.61-4.13Zm-42.66,8.85a13.77,13.77,0,0,0-14.08-14.13c-9.74,0-15,7.19-15,14.51a14,14,0,0,0,14.42,14.38c8,0,14.63-5.58,14.63-14.76m-22.5-.47c0-7.36,3.31-11.87,7.57-11.87,5,0,8.38,5.06,8.38,13.53,0,7.82-3.28,11.78-7.32,11.78-5.44,0-8.63-6.13-8.63-13.44m117.52.47a13.77,13.77,0,0,0-14.08-14.13c-9.74,0-15,7.19-15,14.51a14,14,0,0,0,14.42,14.38c8,0,14.64-5.58,14.64-14.76m-22.51-.47c0-7.36,3.32-11.87,7.58-11.87,5,0,8.37,5.06,8.37,13.53,0,7.82-3.27,11.78-7.31,11.78-5.44,0-8.64-6.13-8.64-13.44M210,133.06H199.62v1.44c3.15.18,4,.9,4.21,2.73a60.15,60.15,0,0,1,.34,7v7.48h-.12l-16.3-18.67h-7.87v1.44c1.83.18,2.77.51,3.58,1.54s.85,1.78.85,4.59v8.85a50.27,50.27,0,0,1-.43,7.06c-.17,1.83-1.15,2.51-3.53,2.68v1.49h10.42v-1.49c-3.14-.13-3.87-.94-4.08-2.81a59.49,59.49,0,0,1-.34-6.93V140h.13l17.69,21.18h2.05V144.25a60.31,60.31,0,0,1,.38-7.11c.21-1.91,1.1-2.51,3.4-2.64ZM73,115.59v.51c1.16.11,1.3.19,1.3,1.55v6.15c0,1.34-.14,1.45-1.44,1.55v.5h4a7.67,7.67,0,0,0,4.75-1.31,5.07,5.07,0,0,0,2-4.23A4.58,4.58,0,0,0,82.16,117a6.33,6.33,0,0,0-4.51-1.36Zm3.15,1.69c0-.52,0-.76.17-.88a1.89,1.89,0,0,1,1.09-.21,3.75,3.75,0,0,1,2.6.86,4.33,4.33,0,0,1,1.44,3.55c0,2.71-1.42,4.61-3.85,4.61-1.11,0-1.45-.37-1.45-1.52Zm13.06,8.57v-.5c-1.21-.11-1.34-.21-1.34-1.55v-6.15c0-1.35.13-1.44,1.34-1.55v-.51H84.68v.51c1.22.11,1.36.2,1.36,1.55v6.15c0,1.34-.14,1.44-1.36,1.55v.5Zm11.69-5.24a5.1,5.1,0,0,0-5.18-5.24,5.27,5.27,0,0,0-5.46,5.42,5.14,5.14,0,0,0,5.27,5.3,5.22,5.22,0,0,0,5.37-5.48m-8.51-.19c0-2.81,1.37-4.42,3-4.42,1.93,0,3.36,1.84,3.36,5,0,2.94-1.34,4.41-2.93,4.41-2.1,0-3.44-2.24-3.44-5M111.5,123c-.79,1.58-1.72,2.43-3.14,2.43-2.24,0-3.87-2-3.87-4.88,0-2.35,1.31-4.53,3.73-4.53a2.84,2.84,0,0,1,3,2.4l.54-.11c-.1-.93-.21-1.64-.35-2.51a12.27,12.27,0,0,0-2.84-.43c-3.68,0-6.19,2.23-6.19,5.5,0,2.51,1.73,5.24,5.84,5.24a14.83,14.83,0,0,0,2.92-.41,17.08,17.08,0,0,0,.88-2.49Zm9.82.21a5.29,5.29,0,0,1-.85,1.51c-.37.41-.87.52-1.84.52a3.79,3.79,0,0,1-1.51-.17c-.3-.16-.38-.54-.38-1.3V121H118c1.36,0,1.53.07,1.74,1.19h.52V119h-.52c-.21,1.1-.36,1.2-1.75,1.2h-1.22v-3.46c0-.51.05-.53.6-.53h.93c1,0,1.41.1,1.66.42a3.32,3.32,0,0,1,.58,1.36l.54-.08c-.06-.93-.14-2-.16-2.34H113.6v.51c1.17.09,1.31.17,1.31,1.56v6.14c0,1.33-.14,1.44-1.52,1.55v.5h7.9c.14-.47.46-1.92.55-2.57Zm8.74-5.21c-.14-1-.23-1.66-.3-2.23a6.52,6.52,0,0,0-2.11-.39c-2.18,0-3.49,1.32-3.49,3s1.29,2.45,2.7,3.16c1.18.63,1.94,1.21,1.94,2.22a1.62,1.62,0,0,1-1.71,1.76c-1.54,0-2.39-1.71-2.68-2.71l-.54.16a20.78,20.78,0,0,0,.46,2.59,6,6,0,0,0,.9.35,5.5,5.5,0,0,0,1.57.22c2.24,0,3.72-1.37,3.72-3.13s-1.26-2.47-2.76-3.22c-1.34-.67-2-1.2-2-2.17A1.55,1.55,0,0,1,127.4,116c1.31,0,1.84,1.13,2.14,2.13Zm9.9,5.21a5.29,5.29,0,0,1-.85,1.51c-.37.41-.87.52-1.84.52a3.79,3.79,0,0,1-1.51-.17c-.3-.16-.38-.54-.38-1.3V121h1.23c1.36,0,1.53.07,1.74,1.19h.52V119h-.52c-.21,1.1-.36,1.2-1.75,1.2h-1.22v-3.46c0-.51.05-.53.6-.53h.93c1,0,1.41.1,1.66.42a3.32,3.32,0,0,1,.58,1.36l.54-.08c-.06-.93-.14-2-.16-2.34h-7.29v.51c1.17.09,1.31.17,1.31,1.56v6.14c0,1.33-.14,1.44-1.52,1.55v.5h7.9c.14-.47.46-1.92.55-2.57Zm18.55-2.58a5.1,5.1,0,0,0-5.18-5.24,5.27,5.27,0,0,0-5.46,5.42,5.14,5.14,0,0,0,5.27,5.3,5.21,5.21,0,0,0,5.37-5.48m-8.51-.19c0-2.81,1.37-4.42,3-4.42,1.93,0,3.36,1.84,3.36,5,0,2.94-1.34,4.41-2.93,4.41-2.1,0-3.44-2.24-3.44-5M167.14,118c-.08-.87-.16-2-.16-2.37H159.7v.52c1.17.1,1.31.19,1.31,1.6v6c0,1.43-.14,1.53-1.32,1.64v.5h4.69v-.5c-1.41-.11-1.53-.21-1.53-1.64v-2.64h1.42c1.4,0,1.54.16,1.72,1.22h.52v-3.1H166c-.19,1-.32,1.15-1.72,1.15h-1.42v-3.58c0-.5.06-.54.58-.54h.93c1,0,1.41.13,1.7.51a3.21,3.21,0,0,1,.56,1.31ZM116.4,107.05c5.81,0,10.62-4.92,11.51-11.52h2.89a14.7,14.7,0,1,1,0-4.37s-7.7-.51-13.26-.57c-.09,6.23.61,14.72.61,14.72h-3.49s.7-8.49.6-14.72c-3.45,0-7.65.26-10.34.41a16.45,16.45,0,0,0-.17,2.35c0,7.64,5.22,13.7,11.65,13.7m0-27.4c-4.79,0-8.91,3.31-10.7,8.23,2.66.14,6.37.32,9.48.36-.16-3.19-.52-6.86-.52-6.86h3.49s-.36,3.67-.53,6.86c3.08,0,6.79-.21,9.49-.35-1.79-4.93-5.91-8.24-10.71-8.24M171.76,120h0a.68.68,0,1,0,0,1.36l26.08-.6a.08.08,0,0,0,0-.16l-26.08-.6M68.24,121.4h0a.67.67,0,0,0,.67-.69.68.68,0,0,0-.7-.67l-26.08.6a.08.08,0,0,0-.07.08.07.07,0,0,0,.07.08l26.08.6"/></svg>