<svg xmlns="http://www.w3.org/2000/svg" viewBox="0 0 240 240"><defs><style>.a,.b,.c{fill:#fff;}.a{fill-opacity:0.75;}.c{fill-opacity:0.25;}.d{opacity:0.5;}</style></defs><path class="a" d="M126.94,154H131l2.56,7.54,2.57-7.54h4.1l-3.88,10.36,2.88,7.27L145.68,154h4.81l-9.26,22.75h-3.72l-3.94-9.55-3.94,9.55h-3.72L116.72,154h4.74l6.47,17.69,2.82-7.27Zm28,23a6.36,6.36,0,0,1-2.28-.4,5.36,5.36,0,0,1-1.82-1.12,5.15,5.15,0,0,1-1.21-1.68,5.25,5.25,0,0,1-.43-2.12,4.66,4.66,0,0,1,.53-2.19,5,5,0,0,1,1.47-1.72,7.44,7.44,0,0,1,2.26-1.1,9.8,9.8,0,0,1,2.89-.4,12.14,12.14,0,0,1,2.19.19,9.4,9.4,0,0,1,1.91.54v-1a3.36,3.36,0,0,0-1-2.56,3.91,3.91,0,0,0-2.8-.9,7.46,7.46,0,0,0-2.63.48,12.35,12.35,0,0,0-2.63,1.41l-1.31-2.72a12.43,12.43,0,0,1,7-2.15,8.2,8.2,0,0,1,5.62,1.78,6.5,6.5,0,0,1,2,5.14v5.23a1.5,1.5,0,0,0,.24,1,1.07,1.07,0,0,0,.79.32v3.65a9.64,9.64,0,0,1-1.89.23,2.85,2.85,0,0,1-1.88-.55,2.32,2.32,0,0,1-.81-1.44l-.1-.93a7.5,7.5,0,0,1-2.72,2.24A7.73,7.73,0,0,1,155,177.05Zm1.22-3.14a5.71,5.71,0,0,0,2.06-.38,3.75,3.75,0,0,0,1.52-1,1.55,1.55,0,0,0,.71-1.22v-1.92a11,11,0,0,0-1.67-.46,8.69,8.69,0,0,0-1.73-.18,4.58,4.58,0,0,0-2.72.75,2.27,2.27,0,0,0-1.06,1.91,2.3,2.3,0,0,0,.83,1.81A3,3,0,0,0,156.2,173.91Zm22.56,2a22.2,22.2,0,0,1-2.12.77A9.09,9.09,0,0,1,174,177a6,6,0,0,1-1.68-.22,3.79,3.79,0,0,1-1.38-.72,3.56,3.56,0,0,1-.94-1.29,4.5,4.5,0,0,1-.36-1.9v-9.65h-2.21v-3.3h2.21v-5.45H174v5.45h3.52v3.3H174v8.21a1.52,1.52,0,0,0,.46,1.26,1.75,1.75,0,0,0,1.14.37,4.14,4.14,0,0,0,1.31-.22c.43-.15.77-.28,1-.39Zm9.93,1.18a9.28,9.28,0,0,1-3.65-.69,8.25,8.25,0,0,1-2.79-1.87,8.35,8.35,0,0,1-1.78-2.76,8.73,8.73,0,0,1-.63-3.3,9.51,9.51,0,0,1,.61-3.38,8.23,8.23,0,0,1,4.57-4.69,9.32,9.32,0,0,1,3.7-.71,9.1,9.1,0,0,1,3.67.71,8.47,8.47,0,0,1,2.76,1.89,8.27,8.27,0,0,1,1.73,2.75,9.32,9.32,0,0,1,.59,3.27c0,.28,0,.55,0,.8a2.71,2.71,0,0,1-.08.64h-13a4.86,4.86,0,0,0,.48,1.77,4.16,4.16,0,0,0,1,1.31,4.49,4.49,0,0,0,3,1.12,5,5,0,0,0,2.42-.62,3.29,3.29,0,0,0,1.55-1.65l3.69,1a7.49,7.49,0,0,1-3,3.16A9.18,9.18,0,0,1,188.69,177.05Zm4.36-10.12a4.46,4.46,0,0,0-1.4-3,4.24,4.24,0,0,0-3-1.14,4.33,4.33,0,0,0-2.95,1.15,4.55,4.55,0,0,0-1,1.32,4.68,4.68,0,0,0-.43,1.7ZM210,163.66a8.44,8.44,0,0,0-3.49.75,4.35,4.35,0,0,0-2.21,2.16v10.16H200V159.94h3.94v3.59A7.44,7.44,0,0,1,205,162a8.75,8.75,0,0,1,1.31-1.21,6.11,6.11,0,0,1,1.43-.78,4,4,0,0,1,1.39-.27h.53a1.87,1.87,0,0,1,.34,0Z"/><path class="b" d="M30,176.73V154h9.65a6.46,6.46,0,0,1,2.9.66,7.53,7.53,0,0,1,2.29,1.73,8.1,8.1,0,0,1,1.5,2.43,7.2,7.2,0,0,1,.55,2.74,7.92,7.92,0,0,1-2,5.23,7,7,0,0,1-2.24,1.69,6.47,6.47,0,0,1-2.88.65H34.42v7.62Zm4.42-11.5h5.13a2.5,2.5,0,0,0,2-1,4.06,4.06,0,0,0,.82-2.69,4.46,4.46,0,0,0-.25-1.55,3.92,3.92,0,0,0-.68-1.17,2.7,2.7,0,0,0-1-.72,2.92,2.92,0,0,0-1.14-.24H34.42Zm25-1.57a8.44,8.44,0,0,0-3.49.75,4.35,4.35,0,0,0-2.21,2.16v10.16h-4.3V159.94h3.94v3.59A7.44,7.44,0,0,1,54.45,162a8.75,8.75,0,0,1,1.31-1.21,6.11,6.11,0,0,1,1.43-.78,4,4,0,0,1,1.39-.27h.53a1.87,1.87,0,0,1,.34,0Zm2.31-6.06v-4.26h4.29v4.26Zm0,19.13V159.94h4.29v16.79Zm34.16,0h-4.3v-9.42a5,5,0,0,0-.69-2.95,2.23,2.23,0,0,0-1.9-.93,3.62,3.62,0,0,0-2.41,1A5.42,5.42,0,0,0,85,167v9.77H80.73v-9.42a5,5,0,0,0-.69-2.95,2.25,2.25,0,0,0-1.91-.93,3.64,3.64,0,0,0-2.39,1,5.25,5.25,0,0,0-1.61,2.53v9.8h-4.3V159.94h3.88v3.11a6.44,6.44,0,0,1,2.55-2.52,7.69,7.69,0,0,1,3.7-.88,4.73,4.73,0,0,1,3.27,1,4.55,4.55,0,0,1,1.47,2.53,7.16,7.16,0,0,1,2.6-2.64,7,7,0,0,1,3.59-.92,4.93,4.93,0,0,1,2.53.58A4.21,4.21,0,0,1,95,161.74a6.37,6.37,0,0,1,.75,2.11,13.73,13.73,0,0,1,.21,2.4Zm11.44.32a9.33,9.33,0,0,1-3.66-.69,8.23,8.23,0,0,1-4.56-4.63,8.73,8.73,0,0,1-.63-3.3,9.51,9.51,0,0,1,.61-3.38,8.15,8.15,0,0,1,4.57-4.69,9.32,9.32,0,0,1,3.7-.71,9.1,9.1,0,0,1,3.67.71,8.47,8.47,0,0,1,2.76,1.89,8.27,8.27,0,0,1,1.73,2.75,9.32,9.32,0,0,1,.59,3.27c0,.28,0,.55,0,.8a3.36,3.36,0,0,1-.08.64h-13a5.3,5.3,0,0,0,.48,1.77,4.34,4.34,0,0,0,1,1.31,4.2,4.2,0,0,0,1.38.83,4.32,4.32,0,0,0,1.6.29,5,5,0,0,0,2.42-.62,3.33,3.33,0,0,0,1.55-1.65l3.69,1a7.49,7.49,0,0,1-3,3.16A9.18,9.18,0,0,1,107.36,177.05Zm4.36-10.12a4.5,4.5,0,0,0-1.4-3,4.24,4.24,0,0,0-3-1.14,4.33,4.33,0,0,0-3,1.15,4.55,4.55,0,0,0-.95,1.32,4.68,4.68,0,0,0-.43,1.7Z"/><path class="b" d="M118.61,63a39,39,0,1,0,39,39A39,39,0,0,0,118.61,63ZM84,102A34.64,34.64,0,0,1,147.4,82.69s-5.25-.64-14.38.9c-3.47-5.69-6.2-9.74-6.2-9.74s-4,5.88-8.41,13.42C97,94.25,84.22,106,84.22,106A34.38,34.38,0,0,1,84,102Zm34.63,34.63a34.64,34.64,0,0,1-34.13-28.74A94.49,94.49,0,0,1,114.39,94.4c-4.24,7.85-7.92,16-7.92,20.83a20.35,20.35,0,0,0,20.35,20.35h.1A35,35,0,0,1,118.61,136.58Zm8.21-5.59a16.1,16.1,0,0,1-16.1-16.1c0-8.9,16.1-32.75,16.1-32.75s16.1,23.85,16.1,32.75A16.1,16.1,0,0,1,126.82,131Zm18.17-6.6a20.24,20.24,0,0,0,2.17-9.16c0-5.41-4.71-15.19-9.6-23.89,11,.14,14.9,3.26,14.9,3.26a34.91,34.91,0,0,1,.78,7.35A34.47,34.47,0,0,1,145,124.39Z"/><path class="c" d="M126.82,135.58h.1a34.68,34.68,0,0,1-42.44-27.74A94.49,94.49,0,0,1,114.39,94.4c-4.24,7.85-7.92,16-7.92,20.83A20.35,20.35,0,0,0,126.82,135.58Zm25.64-41s-3.93-3.12-14.9-3.26c4.89,8.7,9.6,18.48,9.6,23.89a20.24,20.24,0,0,1-2.17,9.16A34.47,34.47,0,0,0,153.24,102,34.91,34.91,0,0,0,152.46,94.6Z"/><g class="d"><path class="b" d="M118.41,87.27C97,94.25,84.22,106,84.22,106A34.64,34.64,0,0,1,147.4,82.69s-5.25-.64-14.38.9c-3.47-5.69-6.2-9.74-6.2-9.74S122.84,79.73,118.41,87.27Zm-7.69,27.62a16.1,16.1,0,0,0,32.2,0c0-8.9-16.1-32.75-16.1-32.75S110.72,106,110.72,114.89Z"/></g></svg>