<svg xmlns="http://www.w3.org/2000/svg" viewBox="0 0 240 240"><defs><style>.a,.b{fill:#fff;}.b{opacity:0.25;}</style></defs><path class="a" d="M68.11,93.11ZM64,97.55h.08l0-.19-.07,0s0,.05,0,.05S64,97.51,64,97.55Zm4.1-4.44Zm-6,6.6a.91.91,0,0,0,.07.14,3.5,3.5,0,0,0,.44.5c.08.09.1.23.26.24a.49.49,0,0,0,.33-.11s0,0,.06,0v.09h.09a.86.86,0,0,1,0,.16s0,0-.06,0-.11-.07-.17,0a.17.17,0,0,0,0,.23c.12.08,0,.17,0,.25s.09.21.23.23,0,.09,0,.09c.24,0,.37.27.62.24a.19.19,0,0,0,.15,0l0,0s0,0,0,0,0,0,0,0l.12-.07c.12-.1.06-.3,0-.46a.61.61,0,0,0-.38-.46l0,0,0,0-.1,0c-.07-.07-.18-.07-.26-.11a.24.24,0,0,1-.13-.13c0-.05-.11-.05-.06-.13-.16,0,0-.15-.08-.24s0,0,0,0a1.76,1.76,0,0,0-.12-.49c0-.21-.34-.33-.24-.6-.08,0,0-.08,0-.12a1.39,1.39,0,0,1-.2-.51c0-.09-.1-.19-.06-.3h-.05a.21.21,0,0,1,0,.06s0-.06,0-.09l0-.06s0,0,0,0,0,0,0,0a.08.08,0,0,1,0,0c-.08,0,.06-.15-.06-.18v0l0,0,.06,0s0,0,0-.06a.81.81,0,0,1-.14-.12s0-.06,0-.09,0,0-.06.07,0,.06,0,.09l0,.06h0l-.1-.18h0s0,0,.06-.07,0,0,0,0h0a1,1,0,0,1-.08.11l0,0s0-.09,0-.13-.12,0-.13-.07h0c0,.09-.16.14-.07.26h-.19a.2.2,0,0,1,0-.07.34.34,0,0,0,0-.14l0,0a.06.06,0,0,0,0,0s0,.1-.08.11-.06,0,0-.07h0c-.1,0-.08.1-.08.18v.08a.27.27,0,0,0-.08.07.91.91,0,0,0-.17.23.67.67,0,0,0-.18.67C61.27,99.13,61.76,99.36,62.13,99.71Zm5.66,1.38a.74.74,0,0,0,.48,0,.47.47,0,0,0,.28-.34,1.42,1.42,0,0,0,.07-.22c0-.16,0-.32.06-.48a.75.75,0,0,0-.07-.36,3,3,0,0,1,.07-1.16c0-.14.21-.47-.21-.46,0,0,0,0,0,0l0,0c.15-.16.12-.36.15-.55s.09-.13.1-.19a.65.65,0,0,0,0-.34c0-.06,0-.26-.2-.14,0,0-.07-.06-.07-.1s-.06,0-.07,0-.13,0,0,.1,0,0,0,0l0,0c0-.09-.12-.16-.09-.27a.17.17,0,0,0,0-.12.31.31,0,0,0-.2,0c0,.05,0,.14.05.22s0,.22.22.17c0,0,0,.09,0,.13a.81.81,0,0,1,0,.38l0,0v0c0-.07-.06-.15,0-.22v0l0,0s0,0,0,0a.05.05,0,0,1,0,0,.25.25,0,0,1,0-.07h0l0,.09a.2.2,0,0,1,0,.07c0-.12-.12.07-.17,0a.18.18,0,0,0,0-.07l-.06.06a4.27,4.27,0,0,0-.23,1.06c0,.25-.13.51,0,.74s0,.35.13.46c-.07.1-.11.22-.18.33a.76.76,0,0,0,.09,1C67.64,100.85,67.63,101,67.79,101.09Zm67-2.07a.16.16,0,0,1-.09-.19,1,1,0,0,1,.13-.52c.12-.19.34-.27.44-.47a4,4,0,0,0,.11-.41c.07-.15.15-.42.24-.43.27,0,.44-.44.73-.28a1.17,1.17,0,0,1,.46.73.91.91,0,0,1-.36.84c-.17.17-.11.58-.39.44,0,0-.07,0-.08,0s0,.07,0,.1,0,.11-.08.11-.11.22-.29.17a2.26,2.26,0,0,0-.27,0c0,.06.05.12-.06.12s.22.06,0,.07c0,0-.07,0-.12-.07l-.09,0v0l.12.1,0,0s.13,0,.1.08-.08,0-.12,0-.22-.15-.36-.08-.05,0,0,0,0-.08,0-.1S134.73,99.07,134.74,99Zm1.15-1.9c0,.08.05,0,.06.09s.06,0,.09.05.06.07.08,0,0,0,0-.05l.05,0S136,97,136.06,97s.21.2.19.17l-.08-.08s.1.07.11,0-.06-.09-.17-.13S136,97,135.89,97.12Zm-.19.33s.07.07.11.07,0-.06,0-.07a.18.18,0,0,0,.08-.13l.23.07-.21-.14h0c-.09-.13-.09,0-.13.07A.19.19,0,0,0,135.7,97.45Zm-1.35,2.68h0l0,0-.07-.08.08,0c.14.07.19-.09.3-.12s.06-.22.13-.32-.18-.1,0-.08a.11.11,0,0,1,0-.05c0-.1-.19-.11-.21-.26s-.1-.1-.17,0-.17.18-.25.28a1,1,0,0,0-.19.32C134,100.05,134.18,100.07,134.35,100.13Zm-2.42-1.92c.06,0,0,0,0-.06s0,0,0,0,.11,0,.18,0c.25-.06.28-.36.51-.44.06,0-.05-.07,0-.09s.09-.2.14-.29-.14-.14-.06-.25a.17.17,0,0,0-.09-.21.11.11,0,0,0-.16.06s-.05,0-.05,0a.47.47,0,0,1-.06-.15l.05,0h0v0l0-.06h.07a.47.47,0,0,0,.35,0c.15-.06.12-.2.16-.3a3.75,3.75,0,0,0,.25-.63c0-.21-.06-.45.15-.63.06-.23.17-.45.22-.7a.8.8,0,0,0-.45-1c-.29-.14-.5,0-.73.13-.06,0-.12.08-.08.13s-.08.25-.07.4-.06.36,0,.54.23.53,0,.85,0,.53-.05.78.15.17,0,.25c.07.06,0,.1,0,.15a.26.26,0,0,1-.07.16c-.1.09-.27.13-.22.32,0,0,0,0,0,0h0c-.06-.1-.06-.12-.13,0a.77.77,0,0,0,.08.88S131.89,98.21,131.93,98.21ZM62,104.2c.08,0,.17.17.27,0a.49.49,0,0,0,0-.47c0-.15-.06-.31-.22-.35l-.14-.16c-.08-.09-.19-.16-.27-.26s-.16-.1-.16,0-.15.17-.2.27v0c.2,0,0,.06,0,.09s0,.27.15.31.15.11.24.11,0,0,0,0S61.88,104.15,62,104.2Zm73-4.72h.1l-.08-.1h-.08ZM124.68,98l.06,0a0,0,0,0,1,0,0h0s-.06,0-.09,0,0,.32-.13.43c.08.11,0,.23,0,.35a2.18,2.18,0,0,0,.5,1,.38.38,0,0,0,.36.12c.06,0,.18-.18.17-.27a1.44,1.44,0,0,1,.17-.59,1.91,1.91,0,0,0,.17-.75s0,0,0-.06h0s0,0,0,0l0,0a.46.46,0,0,1-.07-.07l0,0c0-.21-.29-.43-.47-.46a.41.41,0,0,0-.47.14C124.75,97.81,124.56,98,124.68,98Zm2.44-3.89c0,.19,0,.4.19.55l0,0s0,0,0,0c-.43,0-.2.34-.18.48a3.17,3.17,0,0,1,.15,1.15.72.72,0,0,0,0,.36c0,.16,0,.32.08.48s.06.14.08.21a.49.49,0,0,0,.31.32.76.76,0,0,0,.48-.07c.16-.07.13-.25.22-.36a.76.76,0,0,0,0-1c-.08-.1-.13-.22-.21-.32.16-.12,0-.31.11-.46s0-.5-.06-.75a5.11,5.11,0,0,0-.31-1s0,0-.06-.06l0,.07c0,.1-.13-.08-.17,0a.13.13,0,0,0,0-.06l0-.1h0a.19.19,0,0,0,0,.07.08.08,0,0,1,0,0s0,0,0,0h0c.07.07,0,.15,0,.22s0,0,0,0h0a.73.73,0,0,1-.06-.38s0-.09,0-.13c.18,0,.12-.17.21-.19s.09-.17,0-.22-.13,0-.2,0a.18.18,0,0,0,0,.12c0,.11,0,.18-.07.27s0,0-.05,0a.43.43,0,0,0,0,0c.08-.08,0-.07-.05-.1s-.06,0-.07,0a.2.2,0,0,1-.07.1c-.18-.11-.17.09-.18.15a.6.6,0,0,0,0,.35S127.11,94.07,127.12,94.14Zm-56.83,7.32h0l0,.07a2.11,2.11,0,0,0,.22.74,4,4,0,0,1,.17.36.18.18,0,0,0,0,.16.22.22,0,0,0,.12.16c0,.08.11.15.15.15a.42.42,0,0,0,.36-.14l.14-.22.19-.14a2.7,2.7,0,0,0,.18-.25,3.37,3.37,0,0,0,.3-1,.41.41,0,0,0-.16-.4c-.06-.06-.16,0-.21-.14s-.12-.07-.18,0a.18.18,0,0,1-.11,0s0,0,0-.07,0,0,0,0h0c0,.07-.07.07-.12.09l0,0,0,0s0,0,0,0h0a.45.45,0,0,0-.4,0c-.18,0-.46.29-.43.49l0,0-.06.07.05,0Zm-10.61.77c.19.16.16.58.43.41,0,0,.06,0,.08,0s0,.07,0,.1,0,.1.08.11.13.2.3.14.18,0,.27,0,0,.13.07.12-.22.08,0,.07c0,0,.07,0,.11-.08l.1,0v0a.94.94,0,0,1-.1.1l0,0s-.13,0-.09.09.07,0,.11-.06.21-.16.35-.1,0,0,0-.06a.73.73,0,0,0,0-.09c-.15-.1,0-.1,0-.15a.16.16,0,0,0,.08-.2,1.21,1.21,0,0,0-.16-.51.72.72,0,0,0-.21-.18.93.93,0,0,1,0-.23,1,1,0,0,0-.39-.85c-.2-.06-.35-.28-.61-.24a.13.13,0,0,0-.09,0,.27.27,0,0,0-.29,0,1.25,1.25,0,0,0-.41.77A.92.92,0,0,0,59.68,102.23Zm59.11,4.14a1.38,1.38,0,0,0,.31-.21c1.43-.24,4.35-1.91,4.54-3.22.23-2.86-1.72-2-1.83-2,.1-.91-1.94-.84-4.34-.44a8.62,8.62,0,0,0-.83-1.79c-2.6-4-4.52-5.26-1.91-6.16,4.33-1.49,7.42,4.78,8,2.29,0,0,4.23-4,1.45-6.83-3.7-3.75-17.57-1.36-14.06,11.58l.69,2.55a4.32,4.32,0,0,0-.83.34c-.07.07-1.52,1-1.27,1.34.09.13.19.25.28.37l0,0c-.2.19-.22,2,.3,2.15a16.18,16.18,0,0,0,2.82.56c2.14,8,3.18,12.58,3.53,17.58,0,0,1.22,1.66,3.26-.35,0,0,1.18,1.78,1.07-3.53A117.36,117.36,0,0,0,118.79,106.37Zm25.64,0c-7-2.42-10.34,1.52-10.68,5.93A24.19,24.19,0,0,0,136,125.9a9.24,9.24,0,0,0,3.2-.79l.53-.29a1,1,0,0,0,.71-.6.86.86,0,0,0,.12-.35s.28-.37.28-.39c-5.4-14.9,3.56-17.15,2.38.22,0,.58,1.76.12,1.77.12.81.26.23.62,3.29,0,.25,0,.32-1.6.51-2.17.57-.23.33,2,.63-.48C150.46,112.71,147.75,107.07,144.43,106.33Zm-16.94.48c-1.32.42-1.85-1.18-2.2.65A159.21,159.21,0,0,0,123,123.51c-.07,1.37,0,.37,3.39,1.39,2.31.7,4.88-8.56,4.49-16.2C130.77,107.7,127.49,106.81,127.49,106.81Zm77.5.89c-5.22-1.1-7.73-3.39-8.53-.42-.16.61-2.16-2-6.32.55,0,0-1.75,4.32,2.6,16.51.65,1.84,6,1.14,5.61-.44-5-20.24-.29-8.12,4.9-9.68C205.13,112.35,205,108,205,107.7ZM168.87,109c3.4,29.71-8.21,32-17.1,23.49,0,0-3-2.4-2.11-2.75,0-1.24.64-4.35,2.49-3.12,7.14,4.76,10.5,2.75,11.63-1.91-20.6,3.19-11.66-25.18,1.16-16.13C167,108.41,167.53,107.75,168.87,109Zm-4.64,10.91a43.51,43.51,0,0,0-.82-7.41C155.87,109.41,154.57,121.37,164.23,119.87Zm23.94,1.18c-1.27,2.23-2.61,3.5-6.31,4.34-4.88,1.12-10-2.89-10.8-8-1-6.59,2.52-10.15,6.5-11.29,10.44-3,15.75,12.48-.6,12.68,1.36,2,4.21,2.77,8.29-.41.83-.65,2.33,1.53,2.33,1.53C188,119.12,188.64,120.22,188.17,121.05Zm-12.11-5.26c8.81-1,5.5-5,3.54-4.69A4.37,4.37,0,0,0,176.06,115.79Zm-42.61-13.85c.13.13,0,.22,0,.34a1.8,1.8,0,0,0-.1.33c0,.08-.11.14-.19.08s0-.11,0-.17.11-.06,0-.1-.09,0-.1.09a1.24,1.24,0,0,1-.39.52c-.07,0-.07.16-.07.26a.61.61,0,0,1-.08.26,1.43,1.43,0,0,1-.49.6c-.06,0-.11.16-.18.22v0h.06c.06,0,.12-.05.16,0s0,.07-.07.11l-.27.27s-.07,0-.1,0l.05,0a1.21,1.21,0,0,1,.1-.14l-.16.09a.64.64,0,0,1-.45.12c-.25-.07-.45.09-.69,0-.06,0-.06.09-.08.15s0,.08,0,.08-.06-.05-.05-.08,0-.07-.06-.1-.05.06-.07.06-.18.14-.3.06a.06.06,0,0,0-.06,0c0,.05,0,.11-.1.09s-.05-.08-.08-.11a.21.21,0,0,0,0-.06l-.14,0h.13l-.1-.1c-.13-.09,0-.16,0-.24s0-.08,0-.13a.87.87,0,0,0-.09.11c-.06.15-.23.23-.07.32l0,0h0a.1.1,0,0,1-.11.1.18.18,0,0,1-.18-.12c0-.1-.15-.08-.2-.16-.09.1-.08-.09-.18-.05s-.3-.14-.42-.21a.67.67,0,0,0-.26-.09h0c0-.09-.1-.06-.14-.11s-.07-.05-.08,0,.11,0,.12.1l0,0h-.1a2,2,0,0,0-.27,0c-.15.09-.28,0-.42,0s-.21-.23-.37-.27-.06-.08-.07-.13.07-.22-.14-.23c0,0-.28,0-.29-.17-.11.09-.15,0-.18-.08s-.28-.29-.28-.47-.07-.2-.1-.3a1.24,1.24,0,0,1,0-.57c0-.13.07-.34.16-.38s.18-.26.33-.32h0c.07.08.07-.07.12,0s0-.07,0-.11.17-.07.17-.18h0v.06s0,0,0-.07a.54.54,0,0,1,.15-.15c.18-.08.31-.25.51-.32s.38,0,.47-.25a.65.65,0,0,0,.05-.51.32.32,0,0,1,0-.34.27.27,0,0,0,0-.37c-.12-.16,0-.31,0-.44s-.14-.25-.11-.4a.85.85,0,0,0,0-.16c.17.09.1,0,.1-.11s0,0,0,0l.49-.17c.06,0,0-.1.07-.11s.18.12.31.06.4.05.6,0l.68-.11a.19.19,0,0,0,.09-.12c0-.07-.06-.11-.14-.14a1.16,1.16,0,0,1-.35-.93c0-.29.2-.47.25-.72a4.52,4.52,0,0,0-.06-1,3.48,3.48,0,0,1,.16-.89.56.56,0,0,0,0-.13.33.33,0,0,1,.23-.39.41.41,0,0,0,.19-.22c.05-.19.22-.18.33-.26s.18-.28.2-.45a.5.5,0,0,0,0-.12s.06.07.09.08.22.06.21.22a4.87,4.87,0,0,1,0,.54,9.48,9.48,0,0,1,0,1.19c0,.17,0,.35,0,.53a1.29,1.29,0,0,1-.17.6.74.74,0,0,0,.06.72.93.93,0,0,1,0,.73,1.39,1.39,0,0,1-.36.54c-.16.18-.1.37.14.47s.28.13.42.2a.26.26,0,0,0,.15,0c.08,0,.13,0,.17.06s.15.08.23.11,0,0,0,0a.74.74,0,0,0,.32.26c.11.06,0,.21.07.3s.15.24.34.25.36.22.46.41a1.1,1.1,0,0,0,.59.43.71.71,0,0,1,.29.61,7,7,0,0,0,.05.79C133.88,101.69,133.68,102,133.45,101.94Zm-3.19-5.46s.08,0,.09,0-.17,0-.1-.16l-.05,0C130.1,96.43,130.21,96.44,130.26,96.48Zm.19,5h0c-.16,0-.22-.17-.27-.28a.38.38,0,0,0-.33-.22c-.06,0-.12,0-.18,0a0,0,0,0,1,0,0c.1.06.17.17.27.17l.07,0c.11.09.33.08.26.32a.54.54,0,0,0,.13.06h0a.07.07,0,0,0,0,0c-.06-.08-.06-.08,0-.1Zm-78,5.62c-5.25,0-7.78,2.24-11.83,2.59a15.37,15.37,0,0,1,14-4.61c2.33-2.33-.82-4.17.91-4.17,0-3.25-13.12-3.7-20.48,9.43,0,4.73,2.51,5.26,4.17,5.29,3.56.08,6.51-1.79,10.47-2.34,3.29-.46,4.93.11,4.93,1.74,0,2.76-5.17,6.72-8,6.72s-1.22-2.17-2.31-1.55-7.4,3-2.93,7.52c4.47,2.63,12.42,1.27,17.76-4.07C65.48,117.34,63.26,107.19,52.42,107.15ZM66,108.57l.11,0s0,.06,0,0,.06,0,.06,0l.2,0,0,0c.06,0,.12.07.18,0s0,0,.06,0,.06.09.11.07,0-.08.07-.11l0-.06.14,0-.12,0a.31.31,0,0,1,.09-.11s.06-.07,0-.1l.06,0c.07.08.11.13,0,.2l0,0h0a.09.09,0,0,0,.11.09.18.18,0,0,0,.18-.13c0-.1.14-.09.19-.17s.07,0,.11-.05h.06c.14.06.27,0,.27-.12h0a.84.84,0,0,0,.17-.05c.12-.06.24-.15.39-.07a.17.17,0,0,0,.18,0,1.13,1.13,0,0,0,.21-.12.72.72,0,0,0,.27-.09c.15-.07.19-.24.35-.29s0-.09.06-.14,0-.12,0-.17l0,0a.19.19,0,0,1,.1,0s.29,0,.28-.18c.12.08.15,0,.18-.09s.25-.31.24-.49a.75.75,0,0,1,.09-.31,1.22,1.22,0,0,0,0-.57.84.84,0,0,0-.12-.31,4.7,4.7,0,0,1,.14-.73.6.6,0,0,0,0-.49.48.48,0,0,1,0-.55s.11-.11,0-.13a.48.48,0,0,0-.21,0c-.17,0-.14.27-.32.32a2.3,2.3,0,0,0-.32.15,1.17,1.17,0,0,0-.3.14.36.36,0,0,1-.27.12.91.91,0,0,1-.44-.19s-.05-.09-.11-.07a1.93,1.93,0,0,1-.24,0,.52.52,0,0,1,0-.35.33.33,0,0,0-.06-.34.26.26,0,0,1,0-.37c.11-.17,0-.31,0-.45s.12-.25.08-.39,0-.11,0-.16-.1,0-.1-.11a0,0,0,0,0,0,0l-.5-.14c-.06,0,0-.1-.08-.11s-.17.14-.3.09-.4.08-.6.06l-.27,0s.13,0,.12-.07.05-.1.06-.16a1.39,1.39,0,0,0-.28-1.1,1.65,1.65,0,0,0-.24-.5,1.42,1.42,0,0,0,0-.64l0-.06a1.79,1.79,0,0,0,0-.4A2,2,0,0,0,66,98a2,2,0,0,0,.07-.23c.06-.29.1-.59-.16-.8-.11-.09-.27-.12-.35-.25l0,0s0,0,0,0l0,0,0,0a.15.15,0,0,1,0,.06c-.1.08-.08-.13-.15-.07h0c-.07-.14-.22-.13-.33-.19a.39.39,0,0,1-.1-.08h0l0,0a1,1,0,0,1-.11-.33l0-.12a.2.2,0,0,1-.08.08c-.12,0-.21.09-.2.24s0,.24,0,.36a.35.35,0,0,0,0,.5l.06.08v0c-.19,0,0,.13,0,.19a.34.34,0,0,0,0,.1.14.14,0,0,0-.09.14,1.31,1.31,0,0,0,.26.75v.09a1.63,1.63,0,0,0,.22.59.71.71,0,0,1,0,.72,1,1,0,0,0,.07.73,1.23,1.23,0,0,0,.39.51c.18.17.12.37-.11.48l-.4.23a.27.27,0,0,1-.15,0,.11.11,0,0,0-.17.07c0,.09-.14.09-.21.12l0,0a.78.78,0,0,1-.29.28.09.09,0,0,0-.05.1l-.11.06a.68.68,0,0,0-.2.18c-.11.12-.32.13-.36.31l0,.25-.06.11a1.1,1.1,0,0,1-.56.48.69.69,0,0,0-.24.62,1.41,1.41,0,0,1,0,.41h0c-.07.07,0,.24-.17.23,0,.08,0,.14,0,.21,0,.44.31.75.47,1.12s.39.4.6.6a4.34,4.34,0,0,0,.61.51,2,2,0,0,1,.53.52h0c0,.07,0,.08.08.11a3.74,3.74,0,0,0,.29.25.11.11,0,0,0,.08,0h0a.71.71,0,0,0,.63.14A1.05,1.05,0,0,1,66,108.57Zm-4.83-5.24,0-.12s-.06,0-.07,0l-.08.1Zm19.17,3.58c-3,1.12-5.31,5.45-4.11,13.69.35,2.42.71,3.47,1,3.51,2.9.48,2.34.14,3.1-.14,0,0,1.74.39,1.67-.18-1.76-15.61,7.27-18.05,2.25-.3,0,0,.27.36.27.37a.78.78,0,0,0,.12.34,1,1,0,0,0,.69.56c.15.08.31.17.51.26a8.47,8.47,0,0,0,3,.67C97.13,105.8,86.44,104.63,80.35,106.91Zm-10,3.35c-.16-.9-.34-.79-1.15-.83-.39,0-1.56,1.15-2.63.63s-1.23.63-1.15,1c1.09,5.17,1.89,9.81,3,15,.21,1,4.93.15,6.18-.69C73.58,116.69,72,117.1,71,111,70.3,106.81,70.78,112.66,70.35,110.26ZM108,107.91c11.32,28.17-6.2,32.48-14.61,23.46,0,0-.35-2.56,3.91-5.33.39.92-.11,1.35,1.93,2.24,5.24,2.29,7.19-.76,7.55-4.77C93.61,131.3,87,106.3,104.37,108.64,106.29,107.89,106.36,107.17,108,107.91Zm-1.82,10.91.41-.23c-.41-2.7-1.21-5.08-1.93-5.92C96.52,112.08,98.69,123,106.19,118.82Z"/><ellipse class="b" cx="120" cy="147.08" rx="68.88" ry="6.52"/></svg>