<svg xmlns="http://www.w3.org/2000/svg" viewBox="0 0 240 240"><defs><style>.a{fill:#fff;}</style></defs><path class="a" d="M104.45,73.55l-7.3-7.15,1.43-1.47,7.31,7.15-.24.24,6.06,6-.21.21,5.41,5.4-.22.22-5.41-5.4-.32.32-6-6Zm-1.91,2.36,6.79,5.18.27-.36,6.07,4.65.19-.25-6.07-4.64.19-.25-6.8-5.18.21-.28-8.16-6.16L94,70.26l8.17,6.15Zm8.09-7.46L115,75.81l.4-.23,3.84,6.6.27-.15-3.84-6.61.25-.15-4.34-7.36.25-.15L106.55,59,104.79,60,110,68.81Zm-3,2.14,5.24,6.73.36-.28,4.67,6,.25-.19-4.67-6.05.23-.18-5.24-6.74.24-.2-6.33-8L100.76,63l6.33,8ZM97.06,93.21h8.52v-.37h7.65v-.31h-7.65v-.38H97.06v-.49H86.84v2H97.06Zm.18-3.68,8.46,1.1,0-.38,7.58,1,0-.31-7.58-1,0-.37-8.46-1.1.06-.47L87.29,86.7l-.26,2L97.17,90ZM99,82.37l7.88,3.24.16-.38,7.07,2.92.12-.28-7.07-2.93.13-.31-7.89-3.25.16-.38-9.47-3.86L89.31,79l9.47,3.86Zm-1.11,3.52,8.26,2.2.1-.39,7.38,2,.08-.3-7.38-2,.09-.34-8.26-2.2.11-.43-9.89-2.6-.52,2,9.89,2.6Zm-.51,11,8.47-1.1,0-.37,7.58-1,0-.3-7.58,1,0-.37-8.46,1.09-.07-.5L87,96.63l.26,2,10.15-1.3Zm38.12-30.8L132.34,74l.52.21L130,81.29l.29.12,2.9-7.08.18.07,3.16-7.93.09,0L140.24,57l-1.92-.73-3.65,9.55ZM142,69.57l-5.08,6.82.48.36-4.63,6.09L133,83l4.64-6.09.13.1,5.09-6.84,0,0,6-8.3-1.66-1.19-6,8.29Zm-3.12-2-4.16,7.44.5.28L131.4,82l.27.16,3.8-6.65.16.09,4.16-7.45.07,0,4.86-9-1.81-1-4.86,9Zm-25-.88,3.32,7.84.45-.19,3,7.06.28-.12-3-7.06.25-.11-3.33-7.84.24-.11L111,56.82l-1.88.82L113.23,67Zm30.94,5.17L138.92,78l.43.41L134,83.87l.22.22,18.44-18.9-1.5-1.4-7,7.46Zm-15,1.37.52.13-1.95,7.4.3.08,1.95-7.4.21,0L133,65.27l.14,0,2.38-9.94-2-.48-2.39,9.94.83.2ZM121,64.63l1.19,8.46.52-.07,1,7.57.31,0L123,73l.24,0L122,64.47l.2,0-1.53-10.11-2,.3,1.52,10.11Zm-3.6.82,2.28,8.23.48-.14,2,7.38.3-.08-2-7.38.25-.07-2.29-8.23.22-.06-2.82-9.83-2,.56,2.82,9.83Zm9.82,15.11,1-7.59.23,0,1-8.47h.16l1.08-10.16-2-.22L127.5,64.33l.82.08-1,8.46.53.06-1,7.59ZM100.56,79l7.4,4.24.21-.37,6.63,3.82.15-.27-6.62-3.82.16-.28-7.41-4.25.19-.33-8.88-5-1,1.78,8.89,5Zm28.82,41.81-1-8.48-.23,0-1-7.59-.31,0,1,7.59-.52.06,1,8.46-.82.09,1.08,10.16,2-.21-1.08-10.17ZM98.15,100.5l8.26-2.19-.09-.35,7.38-2-.08-.3-7.38,2-.1-.38-8.26,2.19L97.74,99l-9.89,2.6.52,2,9.89-2.6Zm27.64,12.07h-.23l0-7.64h-.31l0,7.64h-.53l-.09,8.52-.8,0-.22,10.23,2,0,.22-10.22h-.18Zm7.2,7.52-2.09-8.26-.21,0-1.95-7.4-.3.08,1.95,7.4-.52.13,2.09,8.25-.83.2,2.39,9.94,2-.48-2.38-9.94Zm-10-7.7,1-7.57-.31,0-1,7.57-.52-.08L121,120.74l-.78-.12-1.52,10.11,2,.3,1.53-10.1-.2,0,1.2-8.48Zm19.88,2.78-5.09-6.84-.13.1L133,102.34l-.24.19,4.63,6.09-.48.35L142,115.8l-.75.54,6,8.3,1.66-1.2-6-8.3ZM134,101.49l5.38,5.44-.43.41,5.92,6.12-.7.65,7,7.46,1.5-1.4-18.44-18.9Zm2.52,17.4L133.33,111l-.18.08-2.9-7.09-.29.12,2.9,7.08-.52.21,3.15,7.91-.82.31,3.65,9.55,1.92-.73-3.66-9.55Zm3.3-1.65-4.16-7.45-.16.09-3.8-6.64-.27.15,3.8,6.64-.5.28,4.16,7.44-.81.43,4.86,9,1.81-1-4.86-9ZM123.61,54.09l.22,10.22.8,0,.09,8.52h.53l0,7.64h.31l0-7.64h.23l-.09-8.53h.18L125.66,54ZM120.67,112l-.25-.07,2-7.38-.3-.08-2,7.38-.48-.13-2.28,8.22-.73-.21-2.82,9.83,2,.56,2.82-9.82-.22-.07Zm-15,1.07,6.06-6-.21-.22,5.41-5.4-.22-.22-5.41,5.4-.32-.32-6,6-.46-.47L97.14,119l1.44,1.47,7.31-7.15Zm-2.47-2.74,6.8-5.18-.19-.24,6.07-4.65-.19-.25-6.07,4.65-.27-.35-6.79,5.17-.38-.5L94,115.11l1.24,1.63,8.16-6.15ZM99.39,104l7.89-3.25-.13-.31,7.07-2.92-.12-.29L107,100.13l-.16-.38L99,103l-.21-.53-9.47,3.87.77,1.89,9.47-3.86Zm1.69,3.28,7.41-4.25-.16-.28L115,98.91l-.15-.27-6.63,3.83-.21-.38-7.4,4.25-.3-.53-8.89,5.06,1,1.78,8.89-5.06Zm13.79,11.8,3.33-7.85-.25-.11,3-7.06-.28-.12-3,7.06-.45-.19-3.32,7.84-.67-.29-4.07,9.38,1.88.82,4.07-9.38Zm-3.33-1.6,4.34-7.37-.25-.15,3.84-6.6-.27-.16-3.84,6.61-.4-.24-4.33,7.36-.59-.36-5.25,8.78,1.76,1,5.24-8.77Zm-3.08-2,5.24-6.74-.23-.19,4.67-6.05-.25-.19-4.67,6-.36-.28-5.24,6.74-.53-.42-6.33,8,1.61,1.27,6.33-8ZM56.63,175.89a16,16,0,0,0,12.52-5.32l-3-2.95a12.61,12.61,0,0,1-9.52,4.11c-6.47,0-12-5.5-12-12.8,0-7.76,5.63-13,12.1-13A11.58,11.58,0,0,1,66,150.16l3.14-3a16,16,0,0,0-12.47-5.31,17,17,0,0,0,0,34Zm72.41-.6h4.44V153.34H129l.05,2.59a9.68,9.68,0,0,0-7.53-3.05c-5.64,0-10.76,4.71-10.76,11.46s5,11.5,10.76,11.5a9.68,9.68,0,0,0,7.53-3.05Zm-6.69-3.51a7.43,7.43,0,1,1,7-7.44C129.32,168.54,126.36,171.78,122.35,171.78Zm16.28,3.51h4.43V142.58h-4.43Zm36.82.55c5.4,0,8.36-2.4,8.36-6.84,0-8.36-11.46-5.45-11.46-9.74,0-1.44,1-2.45,3.56-2.45a8.84,8.84,0,0,1,5.31,1.71l2.12-3.24a12.21,12.21,0,0,0-7.62-2.4c-4.57,0-7.62,2.54-7.62,6.47,0,8.5,11.36,5.17,11.36,10,0,1.85-1.47,2.54-3.92,2.54a11.06,11.06,0,0,1-6.56-2.26L167,173.16A14.36,14.36,0,0,0,175.45,175.84Zm19.84-22.5V146h-4.44v7.39h-4.71v4h4.71v18h4.44v-18H200v-4Zm-32.78,0-5.85,16.25-6.39-16.25h-4.85l8.77,22.09L150.55,186h4.29L167,153.34Zm-73.4,21.95h4.43V153.34H89.11l0,2.59a9.68,9.68,0,0,0-7.53-3.05c-5.63,0-10.76,4.71-10.76,11.46s5,11.5,10.76,11.5a9.68,9.68,0,0,0,7.53-3.05Zm-6.7-3.51a7.43,7.43,0,1,1,7-7.44C89.38,168.54,86.43,171.78,82.41,171.78Zm23-18.44V146h-4.43v7.39H96.22v4h4.72v18h4.43v-18h4.71v-4Z"/></svg>