<svg xmlns="http://www.w3.org/2000/svg" viewBox="0 0 240 240"><defs><style>.a{fill:#fff;}</style></defs><path class="a" d="M30,110.18H48.45V115H42.26v14.79H36.2V115H30Zm21.19,19.64V110.18H61.3a14.83,14.83,0,0,1,4.3.48A4.71,4.71,0,0,1,68,112.43a5.47,5.47,0,0,1,.91,3.19,5.27,5.27,0,0,1-2.61,4.74,7.72,7.72,0,0,1-2.13.75,5.81,5.81,0,0,1,1.57.75,6.14,6.14,0,0,1,1,1.07,7.14,7.14,0,0,1,.85,1.21l3,5.68H63.65l-3.25-6a4.52,4.52,0,0,0-1.1-1.5,2.57,2.57,0,0,0-1.5-.45h-.53v7.95Zm6.09-11.69h2.56a11,11,0,0,0,1.61-.27,1.64,1.64,0,0,0,1-.62,2,2,0,0,0-.18-2.56,3.7,3.7,0,0,0-2.25-.5H57.28Zm15.66-7.95H79v19.64H72.94Zm10.5,0H93.52a7,7,0,0,1,4.94,1.56,5.86,5.86,0,0,1,1.64,4.44,6,6,0,0,1-1.79,4.65c-1.19,1.12-3,1.68-5.46,1.68H89.53v7.29H83.44Zm6.09,8.37H91a3.84,3.84,0,0,0,2.47-.6,2,2,0,0,0,.75-1.56,2.24,2.24,0,0,0-.62-1.56,3.22,3.22,0,0,0-2.32-.65H89.53ZM103,110.18h6.06V125h9.45v4.83H103Zm38.5,0h6.06V125H157v4.83H141.49Zm18.34,0h6.09v19.64h-6.09Zm10.53,0H176l7.4,10.86V110.18h5.71v19.64h-5.71L176.07,119v10.79h-5.72Zm23.08,0h16.27v4.2H199.5v3.11H209v4H199.5v3.87H210v4.45H193.44Zm-72.23,15.2h16.56v4.45H121.21Zm0-15.2h16.56v4.45H121.21Zm0,7.6h16.56v4.45H121.21Z"/></svg>