<svg xmlns="http://www.w3.org/2000/svg" viewBox="0 0 240 240"><defs><style>.a{fill:#fff;}</style></defs><path class="a" d="M65.5,118.24l-.42,0c-.36-2.52-1-2.39-1.65-4.18l-.41.09c-.63,4.32,1.58,4.23,1.3,8.23l.4.13c.76-.67,4.63-4.87,2.3-9.95l-.41.11c.28,3.59-.51,3-1.11,5.59m-2.31,1.64c-2.46,4.27.08,4.19-2.61,8.7l.3.3c.27-.11,7.06-2.13,7.05-9.18l-.42,0c-.61,2.28-2.82,3.44-3.92,5.5l-.37-.2c.84-2.72.09-3.22.38-5l-.41-.08m.28-9.58.38-.18c-.46-1.62-1-3.08-4.09-4.73l-.28.31c1.81,1.6,1.29,2.67,4,4.6m.76,1.82c-.79-1.11-2-1.45-3.08-3.26l-.35.24c.93,4.23,3.09,3.15,4.24,6.87l.42,0c.51-.93,1.76-6.72-1.88-8.78l-.35.24c1.61,2,1.15,3.22,1.4,4.6Zm-5.3,18.48-.26-.33c1.81-2,1.68-2.92,2.62-4.58l-.35-.24c-3.46,2.11-2.87,5.31-7.18,5.1.06.17.15.39.15.39,3,1.7,8,3.07,12-3.8l-.37-.21c-2.54,2.71-4.08,2-6.59,3.67m-10,.65c-4.44-1.48-7,3.5-12.3,1.3l-.26.33c5.34,5,8.08-1.9,11.71-1.27a12.33,12.33,0,0,0-3.37,2.66c.4.43.59.62,1,1.09A8.64,8.64,0,0,1,49,131.89a8.63,8.63,0,0,1,3.17,3.47c.45-.47.64-.66,1-1.09a12.33,12.33,0,0,0-3.37-2.66c3.63-.63,6.37,6.22,11.72,1.27l-.27-.33c-5.27,2.2-7.86-2.78-12.29-1.3M44,130.94l.14-.39c-4.3.21-3.72-3-7.18-5.1l-.35.24c.94,1.66.81,2.62,2.62,4.58l-.26.33c-2.5-1.63-4-1-6.58-3.67l-.37.21c4,6.87,9,5.5,12,3.8m-10.82-8.45.41-.13c-.29-4,1.92-3.91,1.29-8.23L34.5,114c-.67,1.79-1.29,1.66-1.65,4.18l-.42,0c-.59-2.58-1.39-2-1.1-5.59l-.41-.11c-2.34,5.08,1.54,9.28,2.29,9.95m1.25-12.19c2.7-1.93,2.19-3,4-4.6l-.28-.31c-3.07,1.65-3.63,3.11-4.09,4.73l.38.18m2.6,18.58s.15-.16.3-.3c-2.69-4.51-.16-4.43-2.61-8.7l-.42.08c.29,1.77-.46,2.27.39,5l-.38.2c-1.09-2.06-3.3-3.22-3.92-5.5l-.42,0c0,7,6.78,9.07,7.06,9.18M32.89,116c1.15-3.72,3.31-2.64,4.25-6.87l-.36-.24c-1.11,1.81-2.29,2.15-3.08,3.26l-.4-.13c.25-1.38-.2-2.57,1.4-4.6l-.35-.24c-3.64,2.06-2.39,7.85-1.88,8.78l.42,0M49,104.64a12.74,12.74,0,1,0,12.74,12.74A12.74,12.74,0,0,0,49,104.64M60.85,117H58.3a9.32,9.32,0,0,0-2.43-5.87l1.8-1.8A11.89,11.89,0,0,1,60.85,117m-5.59-6.47a9.27,9.27,0,0,0-5.87-2.43V105.5a11.83,11.83,0,0,1,7.68,3.18Zm-4.6,6.9a1.7,1.7,0,1,1-1.69-1.7,1.69,1.69,0,0,1,1.69,1.7m-2.12-2.51a2.44,2.44,0,0,0-1,.43l-1.81-1.81a5,5,0,0,1,2.86-1.19Zm-1,4.58a2.58,2.58,0,0,0,1,.44v2.56a5,5,0,0,1-2.86-1.19Zm1.9.44a2.58,2.58,0,0,0,1-.44l1.81,1.81a5,5,0,0,1-2.86,1.19Zm1-4.59a2.44,2.44,0,0,0-1-.43V112.3a5,5,0,0,1,2.86,1.19Zm-1.9-3.85a5.93,5.93,0,0,0-3.46,1.44l-1.81-1.81a8.45,8.45,0,0,1,5.27-2.19Zm-1.65,4.45a2.44,2.44,0,0,0-.43,1H43.89a5,5,0,0,1,1.19-2.86Zm-.43,1.9a2.44,2.44,0,0,0,.43,1l-1.81,1.81a5,5,0,0,1-1.19-2.86Zm-1.38,4.06a5.86,5.86,0,0,0,3.46,1.44v2.56a8.45,8.45,0,0,1-5.27-2.19Zm4.31,1.44a5.92,5.92,0,0,0,3.47-1.44l1.8,1.81a8.4,8.4,0,0,1-5.27,2.19ZM51,118.85a2.58,2.58,0,0,0,.44-1H54a5.07,5.07,0,0,1-1.18,2.86Zm.44-1.9a2.58,2.58,0,0,0-.44-1l1.82-1.81A5.07,5.07,0,0,1,54,117Zm1.38-4.06a6,6,0,0,0-3.47-1.44v-2.56a8.42,8.42,0,0,1,5.27,2.19Zm-4.32-4.84a9.27,9.27,0,0,0-5.87,2.43l-1.8-1.8a11.79,11.79,0,0,1,7.67-3.18Zm-4.06,5.44A5.93,5.93,0,0,0,43,117H40.48a8.45,8.45,0,0,1,2.19-5.27ZM43,117.8a5.93,5.93,0,0,0,1.44,3.46l-1.81,1.81a8.45,8.45,0,0,1-2.19-5.27Zm-.37,6.47a9.28,9.28,0,0,0,5.87,2.44v2.54a11.83,11.83,0,0,1-7.67-3.17Zm6.72,2.44a9.28,9.28,0,0,0,5.87-2.44l1.81,1.81a11.88,11.88,0,0,1-7.68,3.17Zm4.07-5.45a5.91,5.91,0,0,0,1.43-3.46h2.56a8.42,8.42,0,0,1-2.19,5.27ZM54.89,117a5.91,5.91,0,0,0-1.43-3.46l1.8-1.81A8.45,8.45,0,0,1,57.45,117Zm-14.62-7.67,1.8,1.8A9.27,9.27,0,0,0,39.64,117H37.09a11.79,11.79,0,0,1,3.18-7.67m-3.18,8.52h2.55a9.27,9.27,0,0,0,2.43,5.87l-1.8,1.8a11.79,11.79,0,0,1-3.18-7.67m20.58,7.67-1.8-1.8a9.32,9.32,0,0,0,2.43-5.87h2.55a11.89,11.89,0,0,1-3.18,7.67m-7.13-18.32.72-.23.4.13.38-.3,0-.11-.7-.34h-.19l-.85.43-.24-.09-.1.16.46.36Zm5.31,1.27-.31-.49-.49,0v.29l.76.32Zm1.95,3.2-.45-.29.06-.48-2-2.06-1.34-.33-.14.57.61.44-.15,1.09.57.1.35.4.1.74L56,112l.55.86.77-.33.57,1,.68-.28.06-.35Zm-1.39,7v.27l.39.35.18-.2,0-.19-.33-.23Zm.47-2.46.17-.13v-.51l-.29.15-.06.34-.29.6.05.61.66.4-.07-1.19Zm-7.68,1.7-.09-.07-.7,0-.17.46-.59.62.44.31.88-.59Zm6.85,4.88-.13,0,.09.27-.18.26-.07.72.21.25.54,0,.2-.37-.17-.79Zm-1.89-2.65.27-.67.15.45.22-.07.08-.35.25.17,1.16-.33-.3-.71-.39-.27-.38-.62.52-1.09.35-.12.29-.45.3-1.47-.14-.56-.37-.1.14-.42-.3-.08.13-.28-.08-.15-.34.18-.43-.73-.26,0,0-.25-1.89-1.79-.08.12.17.62,1.92,2.4,0,.75.78.48.21,1.06-.25.49-.3.06.24-.77-.57-.53-.37.28-.14-.15.12-.3-.45-.54-1.18-.17-.46.71-.59-.86-.41.09.29.13-.19.42-.33,0-.66.67h-.48l-.39-.2.12-.25.67-.39.13-.52-.15-.18-.65.55L48.62,114l-.47.27-.13.63-2.17-.56-1.86,1-.11.24-.41-.07-.27,1-.08.73-.71,1,.06,1-.94-.75-.29,0-.69.58-.11.58.11.48-.25.25-1.09-.5-.27.08-.08.24-.17,0-.15-.17h-.27l-.2.76.28.84.74.5.18-.33.43.65,1,.48.3.66,1.07.75.6-.15.67.29.81-.34.62.09.17-.24-1.31-1.56.3-.39-.46-.73.09-.91L42.89,119l-.1-.7.56-.28.6-1.68.32,0,.08,2-.69,0-.13.8.27.17.2-.63,1.79.32,0,.19.7.7,1.2-1.17.36-.74,0-.23-.28.06,0,.24-1.69.46.6-1.26.52,0,.47.31.22,0-.05-.76.46-.18V116l.71-.13-.2-.58.31-.15.5.27-.45.2.28.41.17-.16.49.58h.34l-.06.28.26.16-.3.38.36.44v.45h.23l-.4.72H49.9L49,120.38l.16.16-.15.12v.22l.21.3-.5.07.07.75,1.11-.72.7.34.35-.09v-.18l.19-.19.22.26.47-.37.24.37-.33.43-.79.32v.29l-.71-.14-.27-.27h-.43l-.24.17-.62-.13-1,.7-.37.68.31.74,2.26,1.18.7-.1-.16.62.35.57,1.66,1.43.37,0,1-.7,1.06-2-.3-.25.55-.76-1.18-.27,0-.4.69-.4.1-.77-.12-.65-.22,0-.13.56-.12.15-1,.21-1.17-.66.18-.32,1.8.47.51-1.43-.34-.27-.26,0-.79.31.1-.18Zm-2.5.42-.3.23-.37-.06,0-.37.22-.13.48.18Zm.74-.35L52,120l-.17-.41.36-.22.27.32.12.34Zm46.41-11.33v18c0,3.65-2.67,6.81-11.74,6.81s-11.74-3.16-11.74-6.81v-18H82v17.53c0,2,1.45,3.08,5.07,3.08s5.06-1.12,5.06-3.08V108.88Zm12.12,7.68V133H104.6V108.88h8.31l10.19,17.19V108.88h6.34V133h-8.36Zm53.84-7.68H176.4c6.9,0,9.32,2.24,9.32,5.94v3.58c0,3.73-2.42,6-9.32,6h-7.48V133h-4.15Zm11.49,2.79h-7.34v9.92h7.34c4,0,5.48-.84,5.48-3.61v-2.71c0-2.64-1.52-3.6-5.48-3.6m-28.78-3.37c-8.3,0-11.63,2.35-11.63,6.37V127.2c0,4,3.33,6.37,11.63,6.37s11.63-2.35,11.63-6.37V114.67c0-4-3.33-6.37-11.63-6.37M155,127.1c0,3-2.42,3.69-7.49,3.69s-7.48-.72-7.48-3.69V114.77c0-3,2.42-3.69,7.48-3.69s7.49.72,7.49,3.69Zm44.55,6.36a31.33,31.33,0,0,1-9-1.27l.67-2.53a35.11,35.11,0,0,0,8.41,1c5.17,0,6.23-1,6.23-3.74,0-3.26,0-3.65-6.66-4.77-7.78-1.31-8.69-2.54-8.69-7.53,0-4.2,2.31-6.23,10.28-6.23a41.87,41.87,0,0,1,8.12.8l-.34,2.67a45.5,45.5,0,0,0-7.68-.68c-5.27,0-6.23.76-6.23,3.55,0,3.33,0,3.58,6.37,4.77,8.54,1.6,9,2.64,9,7.35,0,4.2-1.64,6.59-10.48,6.59"/></svg>